/* XPM */
static char * wmmemmon_32x32_xpm[] = {
"32 32 403 2",
"  	c None",
". 	c #848484",
"+ 	c #626262",
"@ 	c #4A4A4A",
"# 	c #373737",
"$ 	c #313131",
"% 	c #323233",
"& 	c #3B3B3C",
"* 	c #4E4E50",
"= 	c #606062",
"- 	c #767678",
"; 	c #676767",
"> 	c #292929",
", 	c #131313",
"' 	c #161616",
") 	c #19191A",
"! 	c #1C1C1D",
"~ 	c #1F1F20",
"{ 	c #222224",
"] 	c #252527",
"^ 	c #28282B",
"/ 	c #2B2B2E",
"( 	c #3C3C3F",
"_ 	c #616164",
": 	c #737373",
"< 	c #202020",
"[ 	c #141414",
"} 	c #171717",
"| 	c #1A1A1B",
"1 	c #1D1D1E",
"2 	c #1F1F22",
"3 	c #222225",
"4 	c #252528",
"5 	c #28282C",
"6 	c #2B2B2F",
"7 	c #2E2E33",
"8 	c #313136",
"9 	c #34343A",
"0 	c #3E3E44",
"a 	c #65656A",
"b 	c #484848",
"c 	c #141415",
"d 	c #171718",
"e 	c #1A1A1C",
"f 	c #1D1D1F",
"g 	c #202023",
"h 	c #232326",
"i 	c #29292D",
"j 	c #2C2C30",
"k 	c #2F2F34",
"l 	c #323237",
"m 	c #35353B",
"n 	c #38383E",
"o 	c #3B3B42",
"p 	c #3E3E45",
"q 	c #54545B",
"r 	c #343434",
"s 	c #151516",
"t 	c #181819",
"u 	c #19191B",
"v 	c #323532",
"w 	c #5E645C",
"x 	c #787D74",
"y 	c #858C81",
"z 	c #5F655C",
"A 	c #555952",
"B 	c #565B54",
"C 	c #3B3D3D",
"D 	c #2E2E32",
"E 	c #39393F",
"F 	c #3C3C43",
"G 	c #3F3F46",
"H 	c #42424A",
"I 	c #45454D",
"J 	c #52525A",
"K 	c #161617",
"L 	c #474B45",
"M 	c #82897E",
"N 	c #798075",
"O 	c #757C72",
"P 	c #7B8278",
"Q 	c #1D1F1D",
"R 	c #000000",
"S 	c #141513",
"T 	c #515551",
"U 	c #36373C",
"V 	c #43434B",
"W 	c #46464E",
"X 	c #494952",
"Y 	c #4C4C55",
"Z 	c #56565E",
"` 	c #4C4C4C",
" .	c #252624",
"..	c #848A80",
"+.	c #777E74",
"@.	c #0B0C0B",
"#.	c #666B63",
"$.	c #3D3E40",
"%.	c #4A4A53",
"&.	c #4D4D56",
"*.	c #50505A",
"=.	c #53535D",
"-.	c #5C5C64",
";.	c #6F6F6F",
">.	c #151515",
",.	c #343734",
"'.	c #80887D",
").	c #80877C",
"!.	c #121311",
"~.	c #393D37",
"{.	c #373A35",
"].	c #474A4A",
"^.	c #51515B",
"/.	c #54545E",
"(.	c #575762",
"_.	c #5A5A65",
":.	c #606067",
"<.	c #272927",
"[.	c #838A7F",
"}.	c #767D73",
"|.	c #030303",
"1.	c #50544E",
"2.	c #010101",
"3.	c #393C37",
"4.	c #444549",
"5.	c #585863",
"6.	c #5B5B66",
"7.	c #5E5E6A",
"8.	c #60606B",
"9.	c #1B1C1B",
"0.	c #80877D",
"a.	c #81887E",
"b.	c #787F75",
"c.	c #81887D",
"d.	c #3B3E39",
"e.	c #101110",
"f.	c #434742",
"g.	c #0C0C0B",
"h.	c #545952",
"i.	c #5F5F6B",
"j.	c #62626E",
"k.	c #656572",
"l.	c #5F5F67",
"m.	c #2B2B2B",
"n.	c #181818",
"o.	c #1B1B1C",
"p.	c #1E1E1F",
"q.	c #4F534D",
"r.	c #7C8379",
"s.	c #878F83",
"t.	c #828A7F",
"u.	c #464A44",
"v.	c #484C46",
"w.	c #62675F",
"x.	c #3F433E",
"y.	c #242724",
"z.	c #0B0B0A",
"A.	c #575A58",
"B.	c #63636F",
"C.	c #666673",
"D.	c #696976",
"E.	c #686875",
"F.	c #7D7D7D",
"G.	c #1F2020",
"H.	c #7F867B",
"I.	c #899185",
"J.	c #111211",
"K.	c #6F756B",
"L.	c #363934",
"M.	c #6A6A77",
"N.	c #6D6D7B",
"O.	c #70707E",
"P.	c #202022",
"Q.	c #232325",
"R.	c #373936",
"S.	c #838B80",
"T.	c #7D847A",
"U.	c #7C8378",
"V.	c #4E514C",
"W.	c #4B5049",
"X.	c #212320",
"Y.	c #060605",
"Z.	c #2A2D29",
"`.	c #51564F",
" +	c #535558",
".+	c #6D6D7C",
"++	c #70707F",
"@+	c #737383",
"#+	c #5E5E68",
"$+	c #4C4C4D",
"%+	c #26262A",
"&+	c #60655F",
"*+	c #7E857A",
"=+	c #868E82",
"-+	c #8B9287",
";+	c #797F76",
">+	c #5D635A",
",+	c #131513",
"'+	c #050505",
")+	c #626960",
"!+	c #2D302C",
"~+	c #494E48",
"{+	c #3E413C",
"]+	c #181A17",
"^+	c #5E635D",
"/+	c #717180",
"(+	c #747484",
"_+	c #777787",
":+	c #3E3E40",
"<+	c #242427",
"[+	c #27272B",
"}+	c #2A2A2E",
"|+	c #787E75",
"1+	c #878F84",
"2+	c #7E867B",
"3+	c #8E968A",
"4+	c #434741",
"5+	c #313430",
"6+	c #5C6159",
"7+	c #848C81",
"8+	c #212220",
"9+	c #565A53",
"0+	c #757584",
"a+	c #787888",
"b+	c #7B7B8C",
"c+	c #38383B",
"d+	c #2A2A2F",
"e+	c #787E74",
"f+	c #8C9488",
"g+	c #525650",
"h+	c #6F6F7F",
"i+	c #7C7C8D",
"j+	c #7F7F90",
"k+	c #767686",
"l+	c #3B3B3E",
"m+	c #252724",
"n+	c #535851",
"o+	c #808092",
"p+	c #838395",
"q+	c #828290",
"r+	c #444447",
"s+	c #303035",
"t+	c #333338",
"u+	c #36363C",
"v+	c #555854",
"w+	c #878798",
"x+	c #9494A3",
"y+	c #8A8A94",
"z+	c #515156",
"A+	c #343439",
"B+	c #37373D",
"C+	c #3A3A40",
"D+	c #626761",
"E+	c #6D746A",
"F+	c #4A4D47",
"G+	c #3D413C",
"H+	c #616562",
"I+	c #8B8B9C",
"J+	c #9898A6",
"K+	c #A6A6B1",
"L+	c #88888E",
"M+	c #606064",
"N+	c #3B3B41",
"O+	c #424444",
"P+	c #515650",
"Q+	c #636669",
"R+	c #9C9CAA",
"S+	c #AAAAB5",
"T+	c #B7B7C0",
"U+	c #7D7D81",
"V+	c #707072",
"W+	c #3C3C42",
"X+	c #424249",
"Y+	c #393940",
"Z+	c #889084",
"`+	c #353834",
" @	c #808089",
".@	c #AEAEB8",
"+@	c #BBBBC3",
"@@	c #C8C8CE",
"#@	c #49494F",
"$@	c #43434A",
"%@	c #494951",
"&@	c #585C58",
"*@	c #7C8279",
"=@	c #40433E",
"-@	c #6A7067",
";@	c #696F67",
">@	c #242624",
",@	c #676A67",
"'@	c #B2B2BB",
")@	c #BFBFC6",
"!@	c #CCCCD1",
"~@	c #C1C1C4",
"{@	c #626266",
"]@	c #46464F",
"^@	c #4C4C56",
"/@	c #494D48",
"(@	c #10100F",
"_@	c #3A3D38",
":@	c #555A53",
"<@	c #94949B",
"[@	c #C3C3C9",
"}@	c #D0D0D4",
"|@	c #DDDDDF",
"1@	c #8B8B8B",
"2@	c #505058",
"3@	c #4D4D57",
"4@	c #53535E",
"5@	c #45474B",
"6@	c #7F867C",
"7@	c #6C7269",
"8@	c #040404",
"9@	c #7B7D7F",
"0@	c #C7C7CD",
"a@	c #D4D4D8",
"b@	c #E1E1E2",
"c@	c #D7D7D7",
"d@	c #636369",
"e@	c #54545F",
"f@	c #5A5A66",
"g@	c #4D5052",
"h@	c #7B8277",
"i@	c #393D38",
"j@	c #737675",
"k@	c #CBCBD0",
"l@	c #D8D8DB",
"m@	c #E5E5E6",
"n@	c #E7E7E7",
"o@	c #808080",
"p@	c #5D5D64",
"q@	c #5B5B67",
"r@	c #61616E",
"s@	c #4F4F55",
"t@	c #686D64",
"u@	c #676C63",
"v@	c #797B7C",
"w@	c #CFCFD3",
"x@	c #DCDCDE",
"y@	c #A9A9A9",
"z@	c #5D5D67",
"A@	c #62626F",
"B@	c #686876",
"C@	c #575862",
"D@	c #555957",
"E@	c #141614",
"F@	c #151614",
"G@	c #6E726E",
"H@	c #A1A1A6",
"I@	c #D3D3D7",
"J@	c #E0E0E1",
"K@	c #BDBDBD",
"L@	c #61616B",
"M@	c #696977",
"N@	c #6C6C7A",
"O@	c #6F6F7E",
"P@	c #727281",
"Q@	c #595B5F",
"R@	c #616560",
"S@	c #565B55",
"T@	c #656A65",
"U@	c #727476",
"V@	c #95959A",
"W@	c #CACACF",
"X@	c #D7D7DA",
"Y@	c #E4E4E5",
"Z@	c #63636D",
"`@	c #737382",
" #	c #797989",
".#	c #828294",
"+#	c #7F7F8F",
"@#	c #8B8B99",
"##	c #B3B3BC",
"$#	c #C0C0C7",
"%#	c #CECED2",
"&#	c #DBDBDD",
"*#	c #A4A4A4",
"=#	c #5E5E67",
"-#	c #7A7A8A",
";#	c #7D7D8E",
">#	c #808091",
",#	c #8F8F9F",
"'#	c #C4C4CB",
")#	c #D2D2D5",
"!#	c #DFDFE0",
"~#	c #818181",
"{#	c #757585",
"]#	c #818192",
"^#	c #868697",
"/#	c #9393A2",
"(#	c #A0A0AD",
"_#	c #D6D6D9",
":#	c #E3E3E4",
"<#	c #CDCDCD",
"[#	c #8C8C8C",
"}#	c #696972",
"|#	c #7F7F88",
"1#	c #95959C",
"2#	c #A9A9AF",
"3#	c #B3B3B7",
"4#	c #B3B3B5",
"5#	c #A7A7A7",
"6#	c #8D8D8D",
"                      . + @ # $ % & * = -                       ",
"                  ; > , , ' ) ! ~ { ] ^ / ( _                   ",
"              : < , , [ } | 1 2 3 4 5 6 7 8 9 0 a               ",
"            b , , , c d e f g g h i j k l m n o p q             ",
"          r , , , s t u v w x y z A B C D E F G H I J           ",
"        r , , , K d L M N O O P Q R R S L T U V W X Y Z         ",
"      ` , , [ d  ...+.O O O O P Q R R R R @.#.$.%.&.*.=.-.      ",
"    ;., , >.t ,.'.).N O O O O P Q R R R R !.~.{.].^./.(._.:.    ",
"    < , ' ) <.).O O [.}.O O O P Q R R R |.1.2.R 3.4.5.6.7.8.    ",
"  + [ } | 9.0.O O O +.a.O O b.c.d.e.R R f.g.R R R h.Y i.j.k.l.  ",
"  m.n.o.p.q.+.O O O O r.a.s.[.t.u.v.w.x.y.R R R R z.A.B.C.D.E.  ",
"F.) ! ~ G.M O O O O O H.I.b.O P Q R J.K.L.R R R R R v./.M.N.O.  ",
"+ 1 P.Q.R.S.T.}.O O U.S.O [.O P Q 2.V.|.W.X.R R Y.Z.`. +.+++@+#+",
"$+g h %+&+O N ).a.*+s.}.O N =+-+;+>+,+R '+)+!+~+{+]+R ^+/+(+_+C.",
":+<+[+}+|+O O O O U.1+M 2+M 3+3+3+3+4+5+6+7+8+R R R R 9+0+a+b+O.",
"c+5 6 d+[.O O O O r.2+O e+f+3+3+3+3+f+e+O 2+y.R R R R g+h+i+j+k+",
"l+j k D M O O O O r.2+O e+f+3+3+3+3+f+e+O 2+m+R R R R n+@+o+p+q+",
"r+s+t+u+}.O O O O U.1+a.2+M 3+3+3+3+M 2+M 1+X.R R R R v+o+w+x+y+",
"z+A+B+C+D+O N ).a.*+s.}.O N =+-+-+=+N O }.E+!+F+G+]+R H+I+J+K+L+",
"M+n N+p O+S.T.}.O O U.S.O [.O P P O [.O t.X.R R Y.Z.P+Q+R+S+T+U+",
"V+W+G X+Y+M O O O O O H.I.b.O P P O b.Z+`+R R R R R v. @.@+@@@  ",
"  #@$@W %@&@+.O O O O *@=@-@[.t.t.[.;@=@>@R R R R @.,@'@)@!@~@  ",
"  {@]@X ^@H '.O O O +./@R R (@d._@(@R R f.g.R R R :@<@[@}@|@1@  ",
"    2@3@*.4@5@6@O O 7@8@R R R Q Q R R R |.1.2.R _@9@0@a@b@c@    ",
"    d@^.e@(.f@g@'.h@,+R R R R Q Q R R R R !.i@{.j@k@l@m@n@o@    ",
"      p@5.q@7.r@s@t@@.R R R R Q Q R R R R @.u@v@w@x@n@n@y@      ",
"        z@i.A@k.B@C@D@v.E@R R Q Q R R F@v.G@H@I@J@n@n@K@        ",
"          L@C.M@N@O@P@7.Q@R@B z z S@T@U@V@W@X@Y@n@n@K@          ",
"            Z@N.++`@k+ #i+j+.#+#@#K+##$#%#&#n@n@n@*#            ",
"              =#O._+-#;#>#p+,#R+S+T+'#)#!#n@n@c@~#              ",
"                  8.{#]#^#/#(#.@+@@@_#:#n@<#[#                  ",
"                        }#|#1#2#3#4#5#6#                        "};
