/* XPM */
static char * wmmemmon_16x16_xpm[] = {
"16 16 151 2",
"  	c None",
". 	c #5F5F5F",
"+ 	c #3A3A3A",
"@ 	c #2B2B2B",
"# 	c #2F2F31",
"$ 	c #414143",
"% 	c #5B5B5E",
"& 	c #626262",
"* 	c #181818",
"= 	c #141414",
"- 	c #1A1A1B",
"; 	c #1F1F21",
"> 	c #252528",
", 	c #2C2C30",
"' 	c #323237",
") 	c #3A3A40",
"! 	c #5E5E62",
"~ 	c #4C4C4C",
"{ 	c #131313",
"] 	c #161616",
"^ 	c #2E2F2D",
"/ 	c #5F645E",
"( 	c #7C8479",
"_ 	c #373B36",
": 	c #343733",
"< 	c #363838",
"[ 	c #3C3D43",
"} 	c #46464E",
"| 	c #595960",
"1 	c #606060",
"2 	c #171717",
"3 	c #666B63",
"4 	c #777D73",
"5 	c #757C72",
"6 	c #787E74",
"7 	c #0E0F0E",
"8 	c #000000",
"9 	c #090A09",
"0 	c #4A4F4A",
"a 	c #43444B",
"b 	c #53535E",
"c 	c #5F5F66",
"d 	c #191919",
"e 	c #646861",
"f 	c #7C8379",
"g 	c #7A8177",
"h 	c #191B19",
"i 	c #333632",
"j 	c #3A3D3A",
"k 	c #565661",
"l 	c #60606D",
"m 	c #5A5A5A",
"n 	c #1B1B1C",
"o 	c #303230",
"p 	c #767D73",
"q 	c #798076",
"r 	c #838A7F",
"s 	c #7D847A",
"t 	c #292B28",
"u 	c #4D524C",
"v 	c #151715",
"w 	c #050505",
"x 	c #484A4D",
"y 	c #696977",
"z 	c #61616C",
"A 	c #3E3E3F",
"B 	c #232326",
"C 	c #626860",
"D 	c #7B8278",
"E 	c #7B8177",
"F 	c #7F867C",
"G 	c #80877C",
"H 	c #383B37",
"I 	c #1C1E1B",
"J 	c #3E413C",
"K 	c #1F201E",
"L 	c #30332F",
"M 	c #454A45",
"N 	c #717180",
"O 	c #6B6B79",
"P 	c #333336",
"Q 	c #2A2A2E",
"R 	c #7A8076",
"S 	c #787F75",
"T 	c #7F867B",
"U 	c #81887D",
"V 	c #8E968A",
"W 	c #5C6159",
"X 	c #767C72",
"Y 	c #111211",
"Z 	c #2D2F2C",
"` 	c #767686",
" .	c #777787",
"..	c #39393D",
"+.	c #2D302B",
"@.	c #7D7D8F",
"#.	c #868694",
"$.	c #4B4B4F",
"%.	c #3A3A41",
"&.	c #646962",
"*.	c #61675F",
"=.	c #1E201E",
"-.	c #30322F",
";.	c #484A48",
">.	c #9A9AA8",
",.	c #96969D",
"'.	c #5D5D62",
").	c #42424A",
"!.	c #434546",
"~.	c #6C7269",
"{.	c #6B7168",
"].	c #64656A",
"^.	c #BDBDC4",
"/.	c #8C8C8F",
"(.	c #4B4B54",
"_.	c #4C4C55",
":.	c #686E68",
"<.	c #4B4F49",
"[.	c #191A18",
"}.	c #404440",
"|.	c #BBBBC1",
"1.	c #D8D8DA",
"2.	c #585863",
"3.	c #51515B",
"4.	c #656A65",
"5.	c #535852",
"6.	c #B0B0B4",
"7.	c #E7E7E7",
"8.	c #949494",
"9.	c #606069",
"0.	c #666673",
"a.	c #4F5155",
"b.	c #393C39",
"c.	c #3C3F3B",
"d.	c #707173",
"e.	c #CACACD",
"f.	c #AAAAAA",
"g.	c #61616A",
"h.	c #727281",
"i.	c #79798A",
"j.	c #7F7F91",
"k.	c #8A8A99",
"l.	c #A4A4AF",
"m.	c #C2C2C9",
"n.	c #DDDDDF",
"o.	c #E0E0E0",
"p.	c #61616D",
"q.	c #7E7E8A",
"r.	c #A1A1AA",
"s.	c #B7B7BC",
"t.	c #B8B8B8",
"          . + @ # $ %           ",
"      & * = - ; > , ' ) !       ",
"    ~ { ] ^ / ( _ : < [ } |     ",
"  1 { 2 3 4 5 6 7 8 9 0 a b c   ",
"  2 d e 5 f 5 g h 8 i 8 j k l   ",
"m n o p 5 q r s t u v 8 w x y z ",
"A B C D E F q G H I J K L M N O ",
"P Q R 5 S T U V V W X Y 8 Z `  .",
"..' q 5 S T U V V U T Y 8 +.@.#.",
"$.%.&.D E F q G G q *.=.-.;.>.,.",
"'.).!.p 5 q ~.s s {.v 8 w ].^./.",
"  (._.:.5 <.8 [.[.8 i 8 }.|.1.  ",
"  c 2.3.4.9 8 7 7 8 9 5.6.7.8.  ",
"    9.0.0.a.b._ _ c.d.e.7.f.    ",
"      g.h.i.j.k.l.m.n.o.8.      ",
"          p.q.r.s.t.8.          "};
