/* XPM */
static char * wmmemmon_16x16_xpm[] = {
"16 16 90 1",
" 	c None",
".	c #F6F6F6",
"+	c #E6E6E6",
"@	c #D1D1D1",
"#	c #BEBEBE",
"$	c #B1B1B1",
"%	c #AAAAAA",
"&	c #A8A8A8",
"*	c #A9A9A9",
"=	c #EFEFEF",
"-	c #6B6B6B",
";	c #040404",
">	c #0F0F0F",
",	c #1D1D1D",
"'	c #2C2C2C",
")	c #383838",
"!	c #414141",
"~	c #626262",
"{	c #828282",
"]	c #ECECEC",
"^	c #0E0E0E",
"/	c #000000",
"(	c #ABB5AB",
"_	c #636363",
":	c #666666",
"<	c #646464",
"[	c #F0F0F0",
"}	c #96A093",
"|	c #8A9484",
"1	c #889282",
"2	c #060606",
"3	c #232622",
"4	c #626860",
"5	c #7D7D7D",
"6	c #505050",
"7	c #F8F8F8",
"8	c #6D6D6D",
"9	c #8F998A",
"0	c #020202",
"a	c #41463F",
"b	c #989898",
"c	c #424242",
"d	c #E9E9E9",
"e	c #A4AEA3",
"f	c #AAB4AA",
"g	c #9FA99E",
"h	c #2B2B2B",
"i	c #D7D7D7",
"j	c #080808",
"k	c #919B8C",
"l	c #899383",
"m	c #0D0D0C",
"n	c #51564E",
"o	c #BDBDBD",
"p	c #171717",
"q	c #C6C6C6",
"r	c #151515",
"s	c #697069",
"t	c #CCCCCC",
"u	c #BABABA",
"v	c #222222",
"w	c #D9D9D9",
"x	c #B5B5B5",
"y	c #2D2D2D",
"z	c #E3E3E3",
"A	c #010101",
"B	c #363636",
"C	c #AEAEAE",
"D	c #565656",
"E	c #F1F1F1",
"F	c #707070",
"G	c #8C8C8C",
"H	c #5D5D5D",
"I	c #E2E2E2",
"J	c #6F6F6F",
"K	c #747474",
"L	c #8B8B8B",
"M	c #EEEEEE",
"N	c #E1E1E1",
"O	c #595959",
"P	c #9F9F9F",
"Q	c #B2B2B2",
"R	c #C2C2C2",
"S	c #D0D0D0",
"T	c #DDDDDD",
"U	c #E5E5E5",
"V	c #474747",
"W	c #333333",
"X	c #212121",
"Y	c #111111",
"    .+@#$%&*    ",
"   =-;>,')!~{   ",
"  ]^/((((((_:<  ",
" [^((}|1234((56 ",
"78/(9111000a(b_c",
"d0(}11effg004(*h",
"ij(|1eklmng03(op",
"qr(11fllsmf02(tj",
"uv(20fllsmf02(w/",
"xy(30gklmng03(zA",
"$B(400gffg004(d/",
"C_D(a000000a(EF/",
" GH((432234((I/ ",
"  JKL((((((MN/  ",
"   O<PQRSTUJ/   ",
"    VWXY;0A/    "};
