/* XPM */
static char * wmmemmon_48x48_xpm[] = {
"48 48 622 2",
"  	c None",
". 	c #737373",
"+ 	c #606060",
"@ 	c #4A4A4A",
"# 	c #414141",
"$ 	c #3B3B3B",
"% 	c #3D3D3E",
"& 	c #444444",
"* 	c #4C4C4D",
"= 	c #5E5E60",
"- 	c #6F6F6F",
"; 	c #8D8D8D",
"> 	c #5B5B5B",
", 	c #242424",
"' 	c #131313",
") 	c #141414",
"! 	c #161617",
"~ 	c #181819",
"{ 	c #1A1A1B",
"] 	c #1C1C1E",
"^ 	c #1E1E20",
"/ 	c #202022",
"( 	c #222225",
"_ 	c #242427",
": 	c #262629",
"< 	c #353538",
"[ 	c #5A5A5D",
"} 	c #79797B",
"| 	c #7B7B7B",
"1 	c #333333",
"2 	c #151515",
"3 	c #171717",
"4 	c #19191A",
"5 	c #1B1B1C",
"6 	c #1D1D1E",
"7 	c #1F1F21",
"8 	c #212123",
"9 	c #232325",
"0 	c #252528",
"a 	c #27272A",
"b 	c #29292C",
"c 	c #2B2B2F",
"d 	c #2D2D31",
"e 	c #2F2F33",
"f 	c #444448",
"g 	c #6B6B6E",
"h 	c #929292",
"i 	c #353535",
"j 	c #151516",
"k 	c #171718",
"l 	c #1B1B1D",
"m 	c #1D1D1F",
"n 	c #212124",
"o 	c #232326",
"p 	c #27272B",
"q 	c #29292D",
"r 	c #2D2D32",
"s 	c #2F2F34",
"t 	c #313136",
"u 	c #333339",
"v 	c #35353B",
"w 	c #46464B",
"x 	c #707073",
"y 	c #595959",
"z 	c #161616",
"A 	c #1C1C1D",
"B 	c #222224",
"C 	c #28282B",
"D 	c #2A2A2E",
"E 	c #2C2C30",
"F 	c #2E2E32",
"G 	c #303035",
"H 	c #323237",
"I 	c #343439",
"J 	c #36363C",
"K 	c #38383E",
"L 	c #3A3A40",
"M 	c #3C3C42",
"N 	c #5A5A60",
"O 	c #323232",
"P 	c #191919",
"Q 	c #1F1F20",
"R 	c #242426",
"S 	c #2A2A2D",
"T 	c #313135",
"U 	c #333338",
"V 	c #35353A",
"W 	c #37373C",
"X 	c #39393F",
"Y 	c #3B3B41",
"Z 	c #3D3D43",
"` 	c #3F3F45",
" .	c #414148",
"..	c #4E4E55",
"+.	c #959595",
"@.	c #232323",
"#.	c #363935",
"$.	c #5B6059",
"%.	c #7B8177",
"&.	c #8D9589",
"*.	c #868E83",
"=.	c #8C9488",
"-.	c #7A8177",
";.	c #5D625C",
">.	c #3D3F3D",
",.	c #2C2C2E",
"'.	c #37373D",
").	c #3B3B42",
"!.	c #3D3D44",
"~.	c #3F3F46",
"{.	c #414149",
"].	c #43434B",
"^.	c #45454D",
"/.	c #4C4C53",
"(.	c #6B6B6F",
"_.	c #1C1C1C",
":.	c #2F302D",
"<.	c #737A70",
"[.	c #8A9186",
"}.	c #828A7F",
"|.	c #7C8379",
"1.	c #777E74",
"2.	c #757C72",
"3.	c #7E857A",
"4.	c #2D2F2C",
"5.	c #010101",
"6.	c #0C0C0B",
"7.	c #242623",
"8.	c #454A44",
"9.	c #71776E",
"0.	c #737970",
"a.	c #3B3C3C",
"b.	c #35363A",
"c.	c #3E3E45",
"d.	c #404047",
"e.	c #424249",
"f.	c #44444C",
"g.	c #46464E",
"h.	c #484850",
"i.	c #4A4A52",
"j.	c #4F4F57",
"k.	c #69696D",
"l.	c #222222",
"m.	c #141415",
"n.	c #272827",
"o.	c #7D847A",
"p.	c #858D81",
"q.	c #000000",
"r.	c #1B1C1A",
"s.	c #565B53",
"t.	c #7C8378",
"u.	c #383A3C",
"v.	c #404048",
"w.	c #46464F",
"x.	c #484851",
"y.	c #4A4A53",
"z.	c #4C4C55",
"A.	c #4E4E58",
"B.	c #53535C",
"C.	c #313131",
"D.	c #555A53",
"E.	c #899185",
"F.	c #191B19",
"G.	c #6D7369",
"H.	c #5B5F5A",
"I.	c #494952",
"J.	c #4B4B54",
"K.	c #4D4D56",
"L.	c #4F4F59",
"M.	c #51515B",
"N.	c #53535D",
"O.	c #5A5A62",
"P.	c #585858",
"Q.	c #181818",
"R.	c #181918",
"S.	c #747A70",
"T.	c #858C81",
"U.	c #535851",
"V.	c #757B72",
"W.	c #3D3D45",
"X.	c #4D4D57",
"Y.	c #51515C",
"Z.	c #53535E",
"`.	c #555560",
" +	c #575762",
".+	c #5E5E66",
"++	c #888888",
"@+	c #7B8178",
"#+	c #7F867B",
"$+	c #82897E",
"%+	c #2A2D29",
"&+	c #434741",
"*+	c #2F322E",
"=+	c #7B8078",
"-+	c #52525C",
";+	c #54545F",
">+	c #565661",
",+	c #585863",
"'+	c #5A5A65",
")+	c #5C5C68",
"!+	c #606065",
"~+	c #878F84",
"{+	c #798075",
"]+	c #101110",
"^+	c #656B63",
"/+	c #020202",
"(+	c #757B73",
"_+	c #595964",
":+	c #5B5B66",
"<+	c #5D5D69",
"[+	c #5F5F6B",
"}+	c #61616B",
"|+	c #757575",
"1+	c #1A1A1C",
"2+	c #555952",
"3+	c #787F75",
"4+	c #636961",
"5+	c #10100F",
"6+	c #454943",
"7+	c #5D625E",
"8+	c #565662",
"9+	c #5B5B67",
"0+	c #5F5F6C",
"a+	c #61616E",
"b+	c #636370",
"c+	c #5F5F64",
"d+	c #292A29",
"e+	c #798076",
"f+	c #868D82",
"g+	c #5B6058",
"h+	c #343732",
"i+	c #171816",
"j+	c #464A44",
"k+	c #2C2F2B",
"l+	c #6B7268",
"m+	c #45474B",
"n+	c #5E5E6A",
"o+	c #60606C",
"p+	c #62626F",
"q+	c #646471",
"r+	c #666673",
"s+	c #656570",
"t+	c #868686",
"u+	c #7D837A",
"v+	c #848B80",
"w+	c #8A9286",
"x+	c #8B9287",
"y+	c #868E82",
"z+	c #5C625A",
"A+	c #535750",
"B+	c #787E74",
"C+	c #323530",
"D+	c #232422",
"E+	c #50544D",
"F+	c #181A18",
"G+	c #7C8279",
"H+	c #555661",
"I+	c #646472",
"J+	c #666674",
"K+	c #686876",
"L+	c #6A6A79",
"M+	c #59595E",
"N+	c #313230",
"O+	c #889085",
"P+	c #7B8278",
"Q+	c #1E201E",
"R+	c #6A7068",
"S+	c #575C54",
"T+	c #4C4E50",
"U+	c #656572",
"V+	c #676775",
"W+	c #696977",
"X+	c #6B6B79",
"Y+	c #6D6D7C",
"Z+	c #282829",
"`+	c #0B0C0B",
" @	c #767C73",
".@	c #6A6A78",
"+@	c #6C6C7A",
"@@	c #6E6E7C",
"#@	c #70707F",
"$@	c #202023",
"%@	c #80877C",
"&@	c #393C37",
"*@	c #383B36",
"=@	c #424640",
"-@	c #686E65",
";@	c #353833",
">@	c #889084",
",@	c #6C6C7B",
"'@	c #6E6E7D",
")@	c #727282",
"!@	c #747484",
"~@	c #393C39",
"{@	c #838A7F",
"]@	c #878E83",
"^@	c #484C46",
"/@	c #0C0D0C",
"(@	c #181917",
"_@	c #5C6159",
":@	c #696F67",
"<@	c #323531",
"[@	c #0E0F0E",
"}@	c #62675F",
"|@	c #4A4E48",
"1@	c #525557",
"2@	c #6F6F7E",
"3@	c #717180",
"4@	c #737382",
"5@	c #757585",
"6@	c #777787",
"7@	c #5B5B64",
"8@	c #5E5E5E",
"9@	c #5C615B",
"0@	c #767D73",
"a@	c #7D8479",
"b@	c #81887D",
"c@	c #8B9387",
"d@	c #8E968A",
"e@	c #7C8479",
"f@	c #1E201D",
"g@	c #777D74",
"h@	c #3C3F3A",
"i@	c #646A62",
"j@	c #595E56",
"k@	c #2E302C",
"l@	c #060605",
"m@	c #252724",
"n@	c #666A65",
"o@	c #717181",
"p@	c #737383",
"q@	c #777788",
"r@	c #79798A",
"s@	c #60606B",
"t@	c #4D4D4F",
"u@	c #28282C",
"v@	c #7C8278",
"w@	c #81887E",
"x@	c #131513",
"y@	c #3F423D",
"z@	c #6E746B",
"A@	c #373A35",
"B@	c #030303",
"C@	c #727281",
"D@	c #767686",
"E@	c #787888",
"F@	c #7A7A8B",
"G@	c #7C7C8D",
"H@	c #676774",
"I@	c #464647",
"J@	c #838B80",
"K@	c #71786F",
"L@	c #797989",
"M@	c #7B7B8B",
"N@	c #7D7D8E",
"O@	c #7F7F90",
"P@	c #6E6E7B",
"Q@	c #404043",
"R@	c #434641",
"S@	c #828A7E",
"T@	c #656573",
"U@	c #7B7B8C",
"V@	c #7F7F91",
"W@	c #818193",
"X@	c #434345",
"Y@	c #7E7E8F",
"Z@	c #808091",
"`@	c #828294",
" #	c #878798",
".#	c #7B7B88",
"+#	c #49494B",
"@#	c #2E2E33",
"##	c #6F6F7F",
"$#	c #808092",
"%#	c #89899A",
"&#	c #9292A2",
"*#	c #80808A",
"=#	c #515153",
"-#	c #7A8078",
";#	c #7E7E90",
">#	c #838395",
",#	c #8C8C9C",
"'#	c #9595A4",
")#	c #9E9EAB",
"!#	c #808088",
"~#	c #5D5D60",
"{#	c #36363B",
"]#	c #5F635D",
"^#	c #666D64",
"/#	c #5C6259",
"(#	c #262825",
"_#	c #686D69",
":#	c #868697",
"<#	c #8F8F9F",
"[#	c #9898A6",
"}#	c #A0A0AD",
"|#	c #A9A9B4",
"1#	c #77777E",
"2#	c #69696C",
"3#	c #34343A",
"4#	c #3A3A41",
"5#	c #3C3C43",
"6#	c #424442",
"7#	c #575D55",
"8#	c #5E6163",
"9#	c #9191A1",
"0#	c #9A9AA8",
"a#	c #A3A3AF",
"b#	c #ACACB7",
"c#	c #B5B5BE",
"d#	c #6D6D71",
"e#	c #6C6C75",
"f#	c #9D9DAA",
"g#	c #A6A6B2",
"h#	c #AFAFB9",
"i#	c #B8B8C0",
"j#	c #C0C0C7",
"k#	c #414147",
"l#	c #3E3E44",
"m#	c #424248",
"n#	c #747A71",
"o#	c #0B0B0A",
"p#	c #1B1D1B",
"q#	c #777D75",
"r#	c #9A9AA6",
"s#	c #A8A8B4",
"t#	c #B1B1BB",
"u#	c #BABAC2",
"v#	c #C3C3CA",
"w#	c #BBBBC0",
"x#	c #5A5A5F",
"y#	c #42424A",
"z#	c #414344",
"A#	c #585D56",
"B#	c #67696C",
"C#	c #ABABB6",
"D#	c #B4B4BD",
"E#	c #BDBDC4",
"F#	c #C6C6CC",
"G#	c #CFCFD3",
"H#	c #929294",
"I#	c #43434A",
"J#	c #47474F",
"K#	c #494951",
"L#	c #42434A",
"M#	c #313430",
"N#	c #747B71",
"O#	c #30332F",
"P#	c #50544E",
"Q#	c #191A18",
"R#	c #7E837B",
"S#	c #9C9CA5",
"T#	c #B7B7BF",
"U#	c #C8C8CE",
"V#	c #D1D1D5",
"W#	c #DADADC",
"X#	c #656565",
"Y#	c #474750",
"Z#	c #404144",
"`#	c #161816",
" $	c #333632",
".$	c #5A5F58",
"+$	c #333631",
"@$	c #161715",
"#$	c #6E756B",
"$$	c #717275",
"%$	c #B9B9C2",
"&$	c #C2C2C9",
"*$	c #CBCBD0",
"=$	c #D4D4D7",
"-$	c #DDDDDF",
";$	c #C4C4C4",
">$	c #67676B",
",$	c #4E4E57",
"'$	c #50505A",
")$	c #5E625D",
"!$	c #6B7269",
"~$	c #6E726E",
"{$	c #C5C5CB",
"]$	c #CECED2",
"^$	c #D7D7DA",
"/$	c #DFDFE1",
"($	c #E7E7E7",
"_$	c #777777",
":$	c #54545B",
"<$	c #4F4F58",
"[$	c #51515A",
"}$	c #55555F",
"|$	c #4B4B53",
"1$	c #7E867B",
"2$	c #121311",
"3$	c #636860",
"4$	c #7C8178",
"5$	c #A5A5AB",
"6$	c #C8C8CD",
"7$	c #D0D0D4",
"8$	c #D9D9DC",
"9$	c #E2E2E3",
"0$	c #67676C",
"a$	c #7D837B",
"b$	c #2D302C",
"c$	c #98989E",
"d$	c #CACACF",
"e$	c #D3D3D7",
"f$	c #DCDCDE",
"g$	c #E5E5E5",
"h$	c #5E5E64",
"i$	c #54545E",
"j$	c #565660",
"k$	c #5C5C67",
"l$	c #767C74",
"m$	c #7C8179",
"n$	c #9B9B9F",
"o$	c #CDCDD2",
"p$	c #D6D6D9",
"q$	c #DFDFE0",
"r$	c #999999",
"s$	c #5A5A63",
"t$	c #5A5A66",
"u$	c #60606D",
"v$	c #606561",
"w$	c #1A1B19",
"x$	c #717570",
"y$	c #ACACB1",
"z$	c #D8D8DB",
"A$	c #E1E1E2",
"B$	c #C3C3C3",
"C$	c #5C5C66",
"D$	c #61616D",
"E$	c #4E4F54",
"F$	c #7C847A",
"G$	c #1C1D1B",
"H$	c #7F857C",
"I$	c #797A7B",
"J$	c #C3C3C9",
"K$	c #D2D2D6",
"L$	c #DBDBDD",
"M$	c #E4E4E5",
"N$	c #D5D5D5",
"O$	c #626265",
"P$	c #62626E",
"Q$	c #646470",
"R$	c #686875",
"S$	c #6A6A77",
"T$	c #525458",
"U$	c #72776E",
"V$	c #242724",
"W$	c #787F76",
"X$	c #737474",
"Y$	c #AEAEB5",
"Z$	c #CCCCD1",
"`$	c #D5D5D8",
" %	c #DEDEDF",
".%	c #DCDCDC",
"+%	c #5F5F5F",
"@%	c #606063",
"#%	c #595A63",
"$%	c #575A5D",
"%%	c #686C68",
"&%	c #6D726D",
"*%	c #6B6D6E",
"=%	c #818186",
"-%	c #B6B6BE",
";%	c #D8D8DA",
">%	c #E0E0E2",
",%	c #666670",
"'%	c #6D6D7B",
")%	c #6F6F7D",
"!%	c #757584",
"~%	c #737381",
"{%	c #7B7B87",
"]%	c #888895",
"^%	c #A2A2AE",
"/%	c #AEAEB8",
"(%	c #C9C9CE",
"_%	c #DADADD",
":%	c #E3E3E4",
"<%	c #62626C",
"[%	c #848496",
"}%	c #8D8D9D",
"|%	c #9696A5",
"1%	c #9F9FAC",
"2%	c #A8A8B3",
"3%	c #B1B1BA",
"4%	c #E6E6E6",
"5%	c #56565D",
"6%	c #6C6C79",
"7%	c #7A7A8A",
"8%	c #90909F",
"9%	c #9999A7",
"0%	c #A1A1AE",
"a%	c #AAAAB5",
"b%	c #B3B3BD",
"c%	c #BCBCC4",
"d%	c #E0E0E1",
"e%	c #C5C5C5",
"f%	c #595961",
"g%	c #8A8A9A",
"h%	c #9B9BA9",
"i%	c #A4A4B0",
"j%	c #ADADB7",
"k%	c #B6B6BF",
"l%	c #BFBFC6",
"m%	c #767676",
"n%	c #505059",
"o%	c #8C8C9D",
"p%	c #A7A7B2",
"q%	c #B0B0BA",
"r%	c #B9B9C1",
"s%	c #C1C1C8",
"t%	c #D2D2D2",
"u%	c #646464",
"v%	c #63636A",
"w%	c #73737A",
"x%	c #888890",
"y%	c #94949A",
"z%	c #A2A2A7",
"A%	c #A9A9AD",
"B%	c #A8A8AA",
"C%	c #A5A5A5",
"D%	c #919191",
"E%	c #7D7D7D",
"                                      . + @ # $ % & * = -                                       ",
"                              ; > , ' ' ) ! ~ { ] ^ / ( _ : < [ }                               ",
"                          | 1 ' ' ' ' 2 3 4 5 6 7 8 9 0 a b c d e f g                           ",
"                      h i ' ' ' ' ' j k 4 l m 7 n o 0 p q c r s t u v w x                       ",
"                    y ' ' ' ' ' ) z ~ { A ^ / B _ : C D E F G H I J K L M N                     ",
"                  O ' ' ' ' ' 2 3 P 5 6 Q / ^ 7 n R S d e T U V W X Y Z `  ...                  ",
"              +.@.' ' ' ' ' j k 4 { 6 #.$.%.&.&.*.=.-.;.>.,.u '.X ).!.~.{.].^./.(.              ",
"            +._.' ' ' ' ) z ~ ~ :.<.[.}.|.1.2.3.4.5.6.7.8.9.0.a.b.c.d.e.f.g.h.i.j.k.            ",
"            l.' ' ' ' m.! k n.o.p.%.2.2.2.2.2.3.4.q.q.q.q.q.r.s.t.u.v.f.w.x.y.z.A.B.            ",
"          C.' ' ' ' 2 k ! D.E.-.2.2.2.2.2.2.2.3.4.q.q.q.q.q.q.q.F.G.H.!.I.J.K.L.M.N.O.          ",
"        P.' ' ' ) z Q.R.S.p.T.2.2.2.2.2.2.2.2.3.4.q.q.q.q.q.q.q.q.U.s.V.W.X.L.Y.Z.`. +.+        ",
"      ++' ' ' ) ! ~ R.@+#+2.$+3.2.2.2.2.2.2.2.3.4.q.q.q.q.q.q.q.%+&+q.*+=+ .-+;+>+,+'+)+!+      ",
"      C.' ' 2 3 4 R.S.#+2.2.2.~+{+2.2.2.2.2.2.3.4.q.q.q.q.q.q.]+^+/+q.q.*+(+I. +_+:+<+[+}+      ",
"    |+' ' j k 4 1+2+}.2.2.2.2.3+~+2.2.2.2.2.2.3.4.q.q.q.q.q./+4+5+q.q.q.q.6+7+8+9+<+0+a+b+c+    ",
"    O ) z ~ { A d+E.2.2.2.2.2.2.o.}.2.2.2.e+#+f+g+h+i+q.q.q.j+k+q.q.q.q.q.5.l+m+n+o+p+q+r+s+    ",
"  t+2 3 P 5 6 A u+-.2.2.2.2.2.2.2.v+|.#+w+x+T.y+z+A+B+2.C+D+E+q.q.q.q.q.q.q.F+G+H+p+I+J+K+L+M+  ",
"  P.k 4 5 m 7 N+p.2.2.2.2.2.2.2.2.3+&.O+P+2.2.3.4.q.q.Q+R+w+]+q.q.q.q.q.q.q.q.S+T+U+V+W+X+Y+}+  ",
"  Z+{ A ^ / 8 <.%.2.2.2.2.2.2.2.1.x+v+y+2.2.2.3.4.q.q.q.g+E+B+`+q.q.q.q.q.q.q.r. @q+.@+@@@#@@@  ",
"  1+] ^ $@( 8 &.%@1.2.2.2.2.2.2.O+$+2.%@%@2.2.3.4.q.q.&@*@q.=@-@5.q.q.q.q.q.`+;@>@L.,@'@#@)@!@  ",
"- m 7 8 o 0 ~@{@o.p.]@%@B+2.2.#+>@2.2.2.y+-.B+{@^@/@(@_@q.q.5.:@<@q.q.[@*@}@S+%+|@1@2@3@4@5@6@7@",
"8@/ B R : C 9@|.2.2.0@a@p.~+b@x+P+2.2.2.1.c@&.d@d@w+e@`+q.q.q.f@g@h@i@j@k@l@q.q.m@n@o@p@5@q@r@s@",
"t@( _ : u@q v@1.2.2.2.2.2.2.%@=.~+w@{+2.{@d@d@d@d@d@d@^@q.x@y@z@=.A@B@q.q.q.q.q.6.%.C@D@E@F@G@H@",
"I@0 a b c p c@2.2.2.2.2.2.2.%@T.2.t.J@~+&.d@d@d@d@d@d@c@K@J@t.2.T.;@q.q.q.q.q.q.5.[.W+L@M@N@O@P@",
"Q@p q c r u@=.2.2.2.2.2.2.2.$+w@2.2.2.o.d@d@d@d@d@d@d@d@a@2.2.2.$+R@q.q.q.q.q.q.q.S@T@U@N@V@W@)@",
"X@D E F G D =.2.2.2.2.2.2.2.$+w@2.2.2.o.d@d@d@d@d@d@d@d@a@2.2.2.$+=@q.q.q.q.q.q.q.{@K+Y@Z@`@ #.#",
"+#d e T U @#=.2.2.2.2.2.2.2.%@T.2.t.J@~+&.d@d@d@d@d@d@&.~+J@t.2.T.;@q.q.q.q.q.q.5.[.##$#`@%#&#*#",
"=#s t U v J -.1.2.2.2.2.2.2.%@=.~+w@{+2.{@d@d@d@d@d@d@{@2.{+w@~+=.*@B@q.q.q.q.q.6.-#;#>#,#'#)#!#",
"~#H I {#K L ]#|.2.2.0@a@p.~+b@x+P+2.2.2.1.c@&.d@d@&.c@1.2.2.2.P+g@h@^#/#k@l@q.q.(#_#:#<#[#}#|#1#",
"2#3#J K 4#5#6#{@o.p.]@%@B+2.2.#+O+2.2.2.y+-.1.{@{@1.-.y+2.2.2.O+C+q.q.[@*@}@7#%+|@8#9#0#a#b#c#d#",
"  '.X Y !.~.< &.%@1.2.2.2.2.2.2.O+$+2.%@%@2.2.3.3.2.2.%@%@2.$+-@5.q.q.q.q.q.`+;@>@e#f#g#h#i#j#  ",
"  k#M l#d.e.m#n#%.2.2.2.2.2.2.2.1.x+v+y+2.2.2.3.3.2.2.2.y+v+g@o#q.q.q.q.q.q.q.p#q#r#s#t#u#v#w#  ",
"  x#c.d.y#f.g.z#p.2.2.2.2.2.2.2.2.3+=.O+P+2.2.3.3.2.2.P+O+w+]+q.q.q.q.q.q.q.q.A#B#C#D#E#F#G#H#  ",
"  x  .I#^.J#K#L#u+-.2.2.2.2.2.2.2.{@D+M#2.x+T.y+y+p.x+N#O#D+P#q.q.q.q.q.q.q.Q#R#S#T#j#U#V#W#X#  ",
"    ..^.Y#I.J.X.Z#E.2.2.2.2.2.2.o.j+q.q.q.`# $g+.$+$@$q.q.q.j+k+q.q.q.q.q.5.#$$$%$&$*$=$-$;$    ",
"    >$h.y.z.,$'$L.)$}.2.2.2.2.3+!$B@q.q.q.q.q.4.4.q.q.q.q.q./+4+5+q.q.q.q.j+~$T#{$]$^$/$($_$    ",
"      :$K.<$[$N.}$|$ @1$2.2.2.w@2$q.q.q.q.q.q.4.4.q.q.q.q.q.q.]+3$/+q.q.M#4$5$6$7$8$9$($;$      ",
"      0$L.M.N.`. +_+I.a$#+2.$+b$q.q.q.q.q.q.q.4.4.q.q.q.q.q.q.q.%+&+q.O#a$c$d$e$f$g$($($X#      ",
"        h$i$j$,+'+k$n+K.l$p.U.q.q.q.q.q.q.q.q.4.4.q.q.q.q.q.q.q.q.A+s.m$n$o$p$q$($($($r$        ",
"          s$,+t$)+n+u$p+>+v$G.w$q.q.q.q.q.q.q.4.4.q.q.q.q.q.q.q.w$G.x$y$7$z$A$($($($B$          ",
"            C$<+[+D$b+U+H@r+E$F$s.p#q.q.q.q.q.4.4.q.q.q.q.q.G$S+H$I$J$K$L$M$($($($N$            ",
"            O$s@P$Q$r+R$S$+@@@Q$T$l$U$j+V$/@/+4.4./+/@V$j+U$W$X$Y$Z$`$ %($($($($.%+%            ",
"              @%Q$r+K+.@+@'@#@C@!@C@#%$%%%%.c@*.*.w+4$&%*%=%-%F#G#;%>%($($($($N$+%              ",
"                  ,%X+'%)%3@4@!%6@L@M@N@O@Y@4@~%{%]%^%/%T#j#(%V#_%:%($($($($B$                  ",
"                    <%2@3@p@5@6@r@U@N@V@W@[%}%|%1%2%3%%$&$*$=$-$4%($($($($r$                    ",
"                      5%6%D@E@7%G@Y@Z@`@ #8%9%0%a%b%c%{$]$^$d%($($($($e%X#                      ",
"                          f%#@G@;#$#`@g%&#h%i%j%k%l%6$V#8$9$($($($e%m%                          ",
"                              n%b+F@o%'#)#p%q%r%s%d$e$f$g$($t%r$u%                              ",
"                                      v%w%x%y%z%A%B%C%D%E%                                      "};
