/* XPM */
static char * wmmemmon_48x48_xpm[] = {
"48 48 513 2",
"  	c None",
". 	c #EBEBEB",
"+ 	c #E9E9E9",
"@ 	c #E4E4E4",
"# 	c #E0E0E0",
"$ 	c #DCDCDC",
"% 	c #D9D9D9",
"& 	c #D5D5D5",
"* 	c #D2D2D2",
"= 	c #F6F6F6",
"- 	c #EDEDED",
"; 	c #C7C7C7",
"> 	c #939393",
", 	c #6D6D6D",
"' 	c #4C4C4C",
") 	c #3E3E3E",
"! 	c #3D3D3D",
"~ 	c #424242",
"{ 	c #505050",
"] 	c #6C6C6C",
"^ 	c #898989",
"/ 	c #ABABAB",
"( 	c #BFBFBF",
"_ 	c #F8F8F8",
": 	c #C3C3C3",
"< 	c #242424",
"[ 	c #0B0B0B",
"} 	c #0D0D0D",
"| 	c #101010",
"1 	c #131313",
"2 	c #161616",
"3 	c #181818",
"4 	c #1B1B1B",
"5 	c #1E1E1E",
"6 	c #212121",
"7 	c #232323",
"8 	c #262626",
"9 	c #292929",
"0 	c #6B6B6B",
"a 	c #9B9B9B",
"b 	c #B3B3B3",
"c 	c #FCFCFC",
"d 	c #060606",
"e 	c #080808",
"f 	c #0E0E0E",
"g 	c #191919",
"h 	c #2C2C2C",
"i 	c #2F2F2F",
"j 	c #313131",
"k 	c #343434",
"l 	c #535353",
"m 	c #8B8B8B",
"n 	c #A7A7A7",
"o 	c #FEFEFE",
"p 	c #D6D6D6",
"q 	c #444444",
"r 	c #040404",
"s 	c #090909",
"t 	c #111111",
"u 	c #1C1C1C",
"v 	c #272727",
"w 	c #323232",
"x 	c #373737",
"y 	c #3A3A3A",
"z 	c #5A5A5A",
"A 	c #919191",
"B 	c #9C9C9C",
"C 	c #030303",
"D 	c #0C0C0C",
"E 	c #141414",
"F 	c #171717",
"G 	c #1F201F",
"H 	c #1A1A1A",
"I 	c #2B2C2B",
"J 	c #353535",
"K 	c #404040",
"L 	c #484848",
"M 	c #777777",
"N 	c #959595",
"O 	c #F4F4F4",
"P 	c #020202",
"Q 	c #0F0F0F",
"R 	c #141514",
"S 	c #282A28",
"T 	c #484C48",
"U 	c #606560",
"V 	c #6E756E",
"W 	c #828982",
"X 	c #494C49",
"Y 	c #2F312F",
"Z 	c #252525",
"` 	c #353635",
" .	c #3B3B3B",
"..	c #434343",
"+.	c #454545",
"@.	c #4B4B4B",
"#.	c #656565",
"$.	c #8A8A8A",
"%.	c #F0F0F0",
"&.	c #474747",
"*.	c #070707",
"=.	c #0A0A0A",
"-.	c #131413",
";.	c #1E211E",
">.	c #565B56",
",.	c #8D968D",
"'.	c #ABB5AB",
").	c #A9B3A9",
"!.	c #A6B0A6",
"~.	c #9FA89E",
"{.	c #9EA89D",
"].	c #A2ACA2",
"^.	c #949D93",
"/.	c #9DA69D",
"(.	c #575C57",
"_.	c #2C2E2C",
":.	c #373837",
"<.	c #424342",
"[.	c #464646",
"}.	c #4E4E4E",
"|.	c #515151",
"1.	c #626262",
"2.	c #828282",
"3.	c #1A1C1A",
"4.	c #636963",
"5.	c #A4AEA4",
"6.	c #A9B3A8",
"7.	c #9DA69B",
"8.	c #909A8C",
"9.	c #889284",
"0.	c #879181",
"a.	c #889282",
"b.	c #909A8B",
"c.	c #7B827B",
"d.	c #000000",
"e.	c #010101",
"f.	c #1C1E1C",
"g.	c #454945",
"h.	c #7B837B",
"i.	c #A5AFA5",
"j.	c #2E2F2E",
"k.	c #545454",
"l.	c #575757",
"m.	c #646464",
"n.	c #7B7B7B",
"o.	c #050505",
"p.	c #121212",
"q.	c #383B38",
"r.	c #99A299",
"s.	c #98A296",
"t.	c #8A9485",
"u.	c #171917",
"v.	c #656B65",
"w.	c #3E423E",
"x.	c #5C5C5C",
"y.	c #686868",
"z.	c #767676",
"A.	c #FDFDFD",
"B.	c #929292",
"C.	c #111211",
"D.	c #555B55",
"E.	c #A7B1A7",
"F.	c #8A9385",
"G.	c #2A2C29",
"H.	c #565C56",
"I.	c #3D3E3D",
"J.	c #5D5D5D",
"K.	c #5F5F5F",
"L.	c #D3D3D3",
"M.	c #696F69",
"N.	c #AAB4AA",
"O.	c #97A195",
"P.	c #9BA599",
"Q.	c #959F93",
"R.	c #606660",
"S.	c #848C83",
"T.	c #696F68",
"U.	c #6A706A",
"V.	c #414241",
"W.	c #606060",
"X.	c #6A6A6A",
"Y.	c #F9F9F9",
"Z.	c #889283",
"`.	c #A2ACA1",
" +	c #8D9789",
".+	c #323532",
"++	c #9DA69C",
"@+	c #151615",
"#+	c #5C625C",
"$+	c #575D57",
"%+	c #4D4D4D",
"&+	c #636363",
"*+	c #B2B2B2",
"=+	c #97A194",
"-+	c #8C9587",
";+	c #A1ABA1",
">+	c #899383",
",+	c #121312",
"'+	c #9BA49A",
")+	c #373B37",
"!+	c #686E68",
"~+	c #414441",
"{+	c #696969",
"]+	c #6E6E6E",
"^+	c #707070",
"/+	c #3F3F3F",
"(+	c #1B1C1B",
"_+	c #879182",
":+	c #959F92",
"<+	c #9CA69A",
"[+	c #8B9588",
"}+	c #99A396",
"|+	c #8C948C",
"1+	c #3A3E3A",
"2+	c #1F201E",
"3+	c #020302",
"4+	c #798179",
"5+	c #666D66",
"6+	c #8A938A",
"7+	c #3A3C3A",
"8+	c #717171",
"9+	c #747474",
"0+	c #6F6F6F",
"a+	c #565656",
"b+	c #C1C1C1",
"c+	c #151515",
"d+	c #869081",
"e+	c #909A8D",
"f+	c #8C9687",
"g+	c #9CA699",
"h+	c #8E978E",
"i+	c #464A46",
"j+	c #515650",
"k+	c #080907",
"l+	c #232422",
"m+	c #646A64",
"n+	c #787878",
"o+	c #5B5B5B",
"p+	c #F1F1F1",
"q+	c #1F211F",
"r+	c #869082",
"s+	c #9AA497",
"t+	c #8F998B",
"u+	c #8F998C",
"v+	c #9FA99E",
"w+	c #8C9688",
"x+	c #939D90",
"y+	c #A1ABA0",
"z+	c #3F433E",
"A+	c #3C3E3C",
"B+	c #7A7A7A",
"C+	c #7D7D7D",
"D+	c #494949",
"E+	c #E8E8E8",
"F+	c #282828",
"G+	c #191A19",
"H+	c #575B57",
"I+	c #869080",
"J+	c #899384",
"K+	c #A1AB9F",
"L+	c #A7B0A6",
"M+	c #A3ACA2",
"N+	c #2C2F2B",
"O+	c #585D58",
"P+	c #6C6D6C",
"Q+	c #808080",
"R+	c #C4C4C4",
"S+	c #161716",
"T+	c #969F93",
"U+	c #99A397",
"V+	c #98A295",
"W+	c #98A196",
"X+	c #8B9586",
"Y+	c #98A198",
"Z+	c #7E867E",
"`+	c #818181",
" @	c #868686",
".@	c #8D8D8D",
"+@	c #292B29",
"@@	c #A0AA9F",
"#@	c #959F91",
"$@	c #9CA59A",
"%@	c #8E978A",
"&@	c #8D9688",
"*@	c #525751",
"=@	c #828A82",
"-@	c #434543",
";@	c #878787",
">@	c #8E8E8E",
",@	c #949494",
"'@	c #919B8D",
")@	c #96A094",
"!@	c #8A9487",
"~@	c #A7B0A7",
"{@	c #2F322F",
"]@	c #525752",
"^@	c #889088",
"/@	c #9AA399",
"(@	c #232523",
"_@	c #4B4F4B",
":@	c #888888",
"<@	c #737373",
"[@	c #363636",
"}@	c #E1E1E1",
"|@	c #232423",
"1@	c #A0AA9E",
"2@	c #A8B2A8",
"3@	c #9DA79C",
"4@	c #929B8F",
"5@	c #9CA69B",
"6@	c #6A716A",
"7@	c #282B28",
"8@	c #838383",
"9@	c #A2A2A2",
"0@	c #414141",
"a@	c #1F1F1F",
"b@	c #212221",
"c@	c #929C8F",
"d@	c #97A094",
"e@	c #A4ADA3",
"f@	c #848C84",
"g@	c #797A79",
"h@	c #A3A3A3",
"i@	c #A9A9A9",
"j@	c #2E2E2E",
"k@	c #D8D8D8",
"l@	c #222222",
"m@	c #9BA59A",
"n@	c #949E90",
"o@	c #8D978A",
"p@	c #A3ADA2",
"q@	c #A4AEA3",
"r@	c #818981",
"s@	c #AAAAAA",
"t@	c #B0B0B0",
"u@	c #2B2B2B",
"v@	c #D4D4D4",
"w@	c #202020",
"x@	c #879183",
"y@	c #9AA498",
"z@	c #8F978F",
"A@	c #B1B1B1",
"B@	c #B7B7B7",
"C@	c #9F9F9F",
"D@	c #D0D0D0",
"E@	c #282928",
"F@	c #949E91",
"G@	c #A5AFA4",
"H@	c #9EA89C",
"I@	c #939D8F",
"J@	c #889182",
"K@	c #898A89",
"L@	c #B8B8B8",
"M@	c #BEBEBE",
"N@	c #CCCCCC",
"O@	c #303130",
"P@	c #A0A99F",
"Q@	c #9DA79B",
"R@	c #8F998A",
"S@	c #798079",
"T@	c #A1A2A1",
"U@	c #B9B9B9",
"V@	c #C5C5C5",
"W@	c #9A9A9A",
"X@	c #C8C8C8",
"Y@	c #333333",
"Z@	c #494D49",
"`@	c #949E92",
" #	c #A6B0A5",
".#	c #939D91",
"+#	c #A3ADA3",
"@#	c #949D91",
"##	c #929B92",
"$#	c #707770",
"%#	c #3B3F3B",
"&#	c #090B09",
"*#	c #4D514D",
"=#	c #C0C0C0",
"-#	c #C6C6C6",
";#	c #303330",
">#	c #949D94",
",#	c #5F645E",
"'#	c #242724",
")#	c #4A4E49",
"!#	c #919B8E",
"~#	c #9EA79C",
"{#	c #191B19",
"]#	c #464B46",
"^#	c #7E857E",
"/#	c #535553",
"(#	c #CDCDCD",
"_#	c #A4A4A4",
":#	c #393939",
"<#	c #969F96",
"[#	c #5F655F",
"}#	c #242624",
"|#	c #050605",
"1#	c #919A91",
"2#	c #A7B1A6",
"3#	c #9BA499",
"4#	c #3F433F",
"5#	c #9CA59C",
"6#	c #CECECE",
"7#	c #DADADA",
"8#	c #383838",
"9#	c #B4B4B4",
"0#	c #3B3C3B",
"a#	c #1E201E",
"b#	c #686F68",
"c#	c #595E59",
"d#	c #B3B4B3",
"e#	c #DBDBDB",
"f#	c #2E302E",
"g#	c #3C3F3B",
"h#	c #040504",
"i#	c #575957",
"j#	c #CFCFCF",
"k#	c #E2E2E2",
"l#	c #6E756D",
"m#	c #A6AFA5",
"n#	c #7D857D",
"o#	c #747B74",
"p#	c #A8A8A8",
"q#	c #DDDDDD",
"r#	c #E3E3E3",
"s#	c #E7E7E7",
"t#	c #3C3C3C",
"u#	c #585858",
"v#	c #4A4A4A",
"w#	c #303230",
"x#	c #555A54",
"y#	c #8C948B",
"z#	c #1D1E1C",
"A#	c #545A54",
"B#	c #959E95",
"C#	c #A3ACA3",
"D#	c #6F766F",
"E#	c #383B37",
"F#	c #0A0B0A",
"G#	c #939C93",
"H#	c #494E49",
"I#	c #616261",
"J#	c #EAEAEA",
"K#	c #2B2E2B",
"L#	c #262826",
"M#	c #DEDEDE",
"N#	c #EFEFEF",
"O#	c #5E5E5E",
"P#	c #0E0F0D",
"Q#	c #919990",
"R#	c #434843",
"S#	c #4E534E",
"T#	c #595F59",
"U#	c #A5A5A5",
"V#	c #DFDFDF",
"W#	c #E5E5E5",
"X#	c #F2F2F2",
"Y#	c #B6B6B6",
"Z#	c #525252",
"`#	c #717871",
" $	c #6E746D",
".$	c #787F77",
"+$	c #666D65",
"@$	c #6C726C",
"#$	c #939493",
"$$	c #E6E6E6",
"%$	c #ECECEC",
"&$	c #EEEEEE",
"*$	c #2A2A2A",
"=$	c #909090",
"-$	c #555555",
";$	c #464746",
">$	c #30332F",
",$	c #F3F3F3",
"'$	c #676767",
")$	c #525352",
"!$	c #424542",
"~$	c #4E514E",
"{$	c #FAFAFA",
"]$	c #666666",
"^$	c #3D3F3D",
"/$	c #626362",
"($	c #CACACA",
"_$	c #F5F5F5",
":$	c #FBFBFB",
"<$	c #3E403E",
"[$	c #8E968D",
"}$	c #595B59",
"|$	c #ACADAC",
"1$	c #797979",
"2$	c #7C7C7C",
"3$	c #737473",
"4$	c #464846",
"5$	c #4C504C",
"6$	c #555755",
"7$	c #BABBBA",
"8$	c #858585",
"9$	c #989898",
"0$	c #848484",
"a$	c #929392",
"b$	c #ABACAB",
"c$	c #D1D1D1",
"d$	c #D7D7D7",
"e$	c #F7F7F7",
"f$	c #616161",
"g$	c #8C8C8C",
"h$	c #CBCBCB",
"i$	c #999999",
"j$	c #A0A0A0",
"k$	c #A6A6A6",
"l$	c #ACACAC",
"m$	c #ADADAD",
"n$	c #BABABA",
"                                        . + @ # $ % & *                                         ",
"                                = - ; > , ' ) ! ) ~ { ] ^ / ( (                                 ",
"                            _ : ] < [ } | 1 2 3 4 5 6 7 8 9 ! 0 a b                             ",
"                        c b ! d e [ f | 1 2 g 4 5 6 < 8 9 h i j k l m n                         ",
"                    o p q r d s [ f t 1 2 g u 5 6 < v 9 h i w k x y ! z A B                     ",
"                  o > [ C d s D f t E F g G 5 H u < I h i w J x y ! K ~ L M N                   ",
"                O z P r d s D Q t 2 R S T U V W W V U X Y Z `  .! K ..+.L @.#.$.                ",
"              %.&.P r *.=.D Q -.;.>.,.'.).!.~.{.].^./.).'.,.(._.:.<.[.L @.}.|.1.2.              ",
"            O &.P r *.=.} | 3.4.5.6.7.8.9.0.a.b.c.d.e.f.g.h.i.5.4.j.+.' }.|.k.l.m.n.            ",
"          o z P o.*.=.} p.q.r.6.s.t.a.a.a.a.a.b.c.d.d.d.d.d.u.v.i.r.w.K |.k.l.z x.y.z.          ",
"        A.B.P o.e =.} C.D.).E.F.a.a.a.a.a.a.a.b.c.d.d.d.d.d.d.d.G.E.).H.I.l.z J.K.1.] ,         ",
"        L.D o.e [ } C.M.N.O.P.Q.a.a.a.a.a.a.a.b.c.d.d.d.d.d.d.d.R.S.T.N.U.V.J.W.1.#.y.X.        ",
"      Y.+.d e [ f p.D.N.Q.a.Z.`. +a.a.a.a.a.a.b.c.d.d.d.d.d.d..+++@+d.#+N.$+%+&+#.y.0 0 1.      ",
"      *+d s [ f p.q.).=+a.a.a.-+;+>+a.a.a.a.a.b.c.d.d.d.d.d.,+'+)+d.d.d.!+).~+K.{+0 ]+^+&+      ",
"    O /+s D f t (+r.{._+a.a.a.a.:+<+0.a.a.>+[+}+|+1+2+P d.3+4+5+d.d.d.d.*.6+r.7+0 ]+8+9+0+a+    ",
"    b+=.D Q t c+4.6.t.a.a.a.a.a.d+~.e+f+g+E.'.'.'.'.N.h+i+j+h+k+d.d.d.d.d.l+i.m+x.8+9+M n+o+    ",
"  p+] D Q p.c+q+5.s.a.a.a.a.a.a.a.r+E.).E.s+t+u+v+w+x+y+'.N.z+d.d.d.d.d.d.d.v.5.A+9+M B+C+X.D+  ",
"  E+F+Q p.c+G+H+6.t.a.a.a.a.a.a.I+s.'.E.J+a.a.b.K+a.a._+].L+M+N+d.d.d.d.d.d.u.i.O+P+B+C+Q+C+&.  ",
"  R+| p.c+3 S+,.7.a.a.a.a.a.a.a.T+'.=+U+V+a.a.b.K+a.a.O.W+X+i.Y+@+d.d.d.d.d.d.Z+,.' C+`+ @.@{   ",
"  B.1 c+3 4 +@'.@@#@J+0.a.a.a.f+).$@a.a.y+%@a.b.K+a. +y+a.a.&@).V d.d.d.f.*@=@].'.-@`+;@>@,@1.  ",
"@ , 2 3 4 5 T ).'@}+`.@@)@ +0.g+E.J+a.a.!@`.J+b.K+J+].w+a.a.a.s.~@{@]@^@/@T.S (@)._@:@>@N a <@[@",
"}@}.g 4 5 |@U !.0.a.0.f+:+1@`.2@3@Z.a.a.a.4@{.5@!.y+x+a.a.a.t.Q.'.~.6@7@*.d.d.e./.U 8@N B 9@;@j ",
"$ 0@u a@6 b@V ~.a.a.a.a.a.a.%@'.@@M+5@c@F. +).'.'.'.P.9.x+@@`.d@e@f@d.d.d.d.d.d.^.V g@B h@i@,@j@",
"k@0@a@l@< 5 W m@a.a.a.a.a.a.n@'._+_+o@s.p@).'.'.'.'.N.q@s.t.a.a.U+h+d.d.d.d.d.d.r@W n+h@s@t@a u@",
"v@~ l@Z v w@W m@a.a.a.a.a.a.n@'.x@a.a.a.a.!.'.'.'.'.'.n@a.a.a.a.y@z@d.d.d.d.d.d.r@W C+s@A@B@C@v ",
"D@[.Z F+u@E@V ~.a.a.a.a.a.a.'@'.w+a.F.F@{.2@'.'.'.'.N.G@H@I@Z.J@{.|+d.d.d.d.d.d.^.V K@A@L@M@9@l@",
"N@k.F+u@j@O@U !.0.a.a.a.a.a.J+N.5@P@p@d@f+Q.'.'.'.'.Q@Z.R@T+p@@@E.S@o.d.d.d.d.e./.U T@U@( V@W@u ",
"X@, u@j@j Y@Z@).9.a.a.a.t.`@K+2@L+ +0.a.9.]. +P. #.#+#Z.a.a.0.@#'.##Y+$#%#&#d.f.).*#U@=#-#N@2.H ",
"  ;@j@j k [@;#'.8.t.)@K+>#,#'#)#'.8.a.0.{.e+a.b.K+a.!#~#0.a.a.].##*.{#]#S@Y+^#$#'./#=#; (#L.m.  ",
"  _#j k x :#E@,.E.<#[#}#C d.d.|#1#2#X+Q.P.0.a.b.K+a.0.3#x+a.s+N.4#d.d.d.d.*.q.5#,.<@; 6#v@7#8#  ",
"  9#q x y ! 0#(.i.u.d.d.d.d.d.d.a#M+2#]._+a.a.b.K+a.a.Z.].<+'.b#d.d.d.d.d.d.u.i.c#d#6#& e#; 2   ",
"  b ] y ! K ~ f#5.v.d.d.d.d.d.d.d.g#'.).s.t.0.b.K+a.0.8.e@'.V h#d.d.d.d.d.d.v.5.i#j#p $ k#m }   ",
"    N ! K ..+.) 4.i.l+d.d.d.d.d.P =@l#V ~@).`.3@G@{.m#'.##n#o#P d.d.d.d.d.l+i.v.p#p q#r#s#t#    ",
"    n u#..[.L v#w#r.6+*.d.d.d.d.x#y#r d.z#A#f@B#C#|+D#E#o.F#G#H#d.d.d.d.*.6+r.I#p q#@ J#L@[     ",
"      ;@[.D+@.}.' 4#).!+d.d.d.K#++3.d.d.d.d.d.7@c.d.d.d.d.d.L#P@'#d.d.d.!+).*#; M#@ . N#'       ",
"      a O#' }.|.k.[.(.N.#+d.P#Q#R#d.d.d.d.d.d.7@c.d.d.d.d.d.d.S#,.*.d.#+N.T#U#V#W#. X#Y#d       ",
"        ^ |.Z#k.l.z ..U.N.b#`# $P d.d.d.d.d.d.7@c.d.d.d.d.d.d.P .$+$!+N.@$#$V#$$%$X#&$*$        ",
"        =$9+-$l.z J.W.;$$+).2@>$d.d.d.d.d.d.d.7@c.d.d.d.d.d.d.d..+).).T#,@# $$- ,$Y.] P         ",
"          ^ '$z J.W.&+#.)$!$r.i.v.u.d.d.d.d.d.7@c.d.d.d.d.d.u.v.i.r.~$n }@s#- O {$_#e.          ",
"            Q+]$W.&+]$y.0 '$^$m+5.i.h.g.f.e.d.7@c.d.e.f.g.h.i.5.v./$($}@E+&$_$:$B@=.            ",
"              n+y.]${+0 ]+8+<@1.<$O+,.'.)./.^.[$].^./.).'.,.c#}$|$e#k#+ N#_$:$B@f               ",
"                8+X.] 0+8+9+M 1$2$3$|.4$5$U V W W V U ~$6$n+7$p q#r#+ %.= c _#=.                ",
"                  X.X.^+9+M B+C+Q+8$m A 9$=$0$8@;@a$b$R+($c$d$q#@ J#%.e$X#0 e.                  ",
"                    f$1.0+1$C+Q+8$g$B.9$C@U#/ *+L@M@V@h$c$k@M#@ . p+= U@9 e.                    ",
"                        a+K.9+8$g$> i$j$k$l$*+U@( -#N@* k@V#W#%$%.M@v#C                         ",
"                            v#a+8+>@j$n m$b n$=#-#(#L.% V#$$D@>@y *.                            ",
"                                ) ) @.m.B+A j$k$s@l$h@;@#.[@p.s                                 ",
"                                        h v Z 7 a@H c+1                                         "};
