/* XPM */
static char * wmmemmon_32x32_xpm[] = {
"32 32 370 2",
"  	c None",
". 	c #F0F0F0",
"+ 	c #DFDFDF",
"@ 	c #BEBEBE",
"# 	c #B1B1B1",
"$ 	c #AEAEAE",
"% 	c #B3B3B3",
"& 	c #C5C5C5",
"* 	c #C9C9C9",
"= 	c #F8F8F8",
"- 	c #C0C0C0",
"; 	c #727272",
"> 	c #353535",
", 	c #131313",
"' 	c #171717",
") 	c #1B1B1B",
"! 	c #1F1F1F",
"~ 	c #262626",
"{ 	c #444444",
"] 	c #6F6F6F",
"^ 	c #9A9A9A",
"/ 	c #B2B2B2",
"( 	c #B8B8B8",
"_ 	c #3D3D3D",
": 	c #070707",
"< 	c #0B0B0B",
"[ 	c #0F0F0F",
"} 	c #202020",
"| 	c #242424",
"1 	c #282828",
"2 	c #2C2C2C",
"3 	c #303030",
"4 	c #343434",
"5 	c #545454",
"6 	c #8B8B8B",
"7 	c #EBEBEB",
"8 	c #5E5E5E",
"9 	c #040404",
"0 	c #101010",
"a 	c #141414",
"b 	c #181818",
"c 	c #1D1E1D",
"d 	c #1C1C1C",
"e 	c #393939",
"f 	c #414141",
"g 	c #656565",
"h 	c #909090",
"i 	c #D9D9D9",
"j 	c #080808",
"k 	c #0C0C0C",
"l 	c #161716",
"m 	c #3B3E3B",
"n 	c #636A63",
"o 	c #7B827B",
"p 	c #8C958C",
"q 	c #656B65",
"r 	c #444844",
"s 	c #2F2F2F",
"t 	c #3C3C3C",
"u 	c #464646",
"v 	c #4A4A4A",
"w 	c #585858",
"x 	c #828282",
"y 	c #151615",
"z 	c #565B56",
"A 	c #98A198",
"B 	c #9FA99E",
"C 	c #949E91",
"D 	c #8F998A",
"E 	c #8E988A",
"F 	c #666C65",
"G 	c #2F312E",
"H 	c #525752",
"I 	c #818981",
"J 	c #969F96",
"K 	c #5C615C",
"L 	c #393A39",
"M 	c #494949",
"N 	c #4E4E4E",
"O 	c #525252",
"P 	c #5C5C5C",
"Q 	c #797979",
"R 	c #EAEAEA",
"S 	c #050505",
"T 	c #090909",
"U 	c #0D0D0D",
"V 	c #2A2D2A",
"W 	c #8D958D",
"X 	c #9CA69A",
"Y 	c #8B9586",
"Z 	c #889282",
"` 	c #8D9788",
" .	c #515651",
"..	c #000000",
"+.	c #1C1E1C",
"@.	c #747B74",
"#.	c #424542",
"$.	c #575757",
"%.	c #5B5B5B",
"&.	c #626262",
"*.	c #383B38",
"=.	c #A0AA9F",
"-.	c #9CA69B",
";.	c #8E978A",
">.	c #2D312D",
",.	c #828A82",
"'.	c #9AA49A",
").	c #4D4F4D",
"!.	c #595959",
"~.	c #606060",
"{.	c #646464",
"].	c #6A6A6A",
"^.	c #B6B6B6",
"/.	c #060606",
"(.	c #0A0A0A",
"_.	c #0E0E0E",
":.	c #2B2D2B",
"<.	c #8E9889",
"[.	c #889283",
"}.	c #0F100E",
"|.	c #7F877F",
"1.	c #090A09",
"2.	c #282B28",
"3.	c #494B49",
"4.	c #636363",
"5.	c #686868",
"6.	c #6B6B6B",
"7.	c #F4F4F4",
"8.	c #3E3E3E",
"9.	c #8F998B",
"0.	c #9AA498",
"a.	c #939D8F",
"b.	c #676D67",
"c.	c #191B19",
"d.	c #010101",
"e.	c #717870",
"f.	c #262725",
"g.	c #3D413D",
"h.	c #515251",
"i.	c #6D6D6D",
"j.	c #717171",
"k.	c #6E6E6E",
"l.	c #565656",
"m.	c #565C56",
"n.	c #919B8E",
"o.	c #959F92",
"p.	c #9EA89C",
"q.	c #A6B0A6",
"r.	c #A2ACA1",
"s.	c #A4AEA4",
"t.	c #A6AFA5",
"u.	c #626762",
"v.	c #767676",
"w.	c #181918",
"x.	c #8D9789",
"y.	c #AAB4AA",
"z.	c #99A396",
"A.	c #98A295",
"B.	c #879181",
"C.	c #939D90",
"D.	c #A9B3A9",
"E.	c #686F68",
"F.	c #010201",
"G.	c #575857",
"H.	c #7A7A7A",
"I.	c #7E7E7E",
"J.	c #696969",
"K.	c #383838",
"L.	c #3C403C",
"M.	c #A0AA9E",
"N.	c #A7B1A6",
"O.	c #909A8C",
"P.	c #879182",
"Q.	c #8A9485",
"R.	c #A3ADA1",
"S.	c #4E524D",
"T.	c #5A5E5A",
"U.	c #7F7F7F",
"V.	c #878787",
"W.	c #818181",
"X.	c #3F3F3F",
"Y.	c #D8D8D8",
"Z.	c #191919",
"`.	c #1D1D1D",
" +	c #646A64",
".+	c #9FA99D",
"++	c #9BA498",
"@+	c #98A296",
"#+	c #97A194",
"$+	c #9FA89F",
"%+	c #242624",
"&+	c #7A8179",
"*+	c #5F645E",
"=+	c #6A716A",
"-+	c #888888",
";+	c #919191",
">+	c #989898",
",+	c #BABABA",
"'+	c #222222",
")+	c #8A9484",
"!+	c #929C8E",
"~+	c #AAB4A9",
"{+	c #899384",
"]+	c #97A094",
"^+	c #A5AFA5",
"/+	c #A5AFA4",
"(+	c #7D847D",
"_+	c #262926",
":+	c #030303",
"<+	c #868786",
"[+	c #9C9C9C",
"}+	c #A5A5A5",
"|+	c #484848",
"1+	c #ACACAC",
"2+	c #212121",
"3+	c #8F988B",
"4+	c #9BA599",
"5+	c #A4AEA3",
"6+	c #ABB5AB",
"7+	c #8C9687",
"8+	c #5E645E",
"9+	c #212321",
"0+	c #858585",
"a+	c #A6A6A6",
"b+	c #B0B0B0",
"c+	c #4C4C4C",
"d+	c #A9A9A9",
"e+	c #909A8B",
"f+	c #8A9486",
"g+	c #A8B2A8",
"h+	c #969F92",
"i+	c #5F655F",
"j+	c #8D8D8D",
"k+	c #ADADAD",
"l+	c #272727",
"m+	c #2B2B2B",
"n+	c #2E2F2E",
"o+	c #A6B0A5",
"p+	c #96A093",
"q+	c #9AA499",
"r+	c #99A397",
"s+	c #575C57",
"t+	c #A3A3A3",
"u+	c #BCBCBC",
"v+	c #BDBDBD",
"w+	c #2E2E2E",
"x+	c #333333",
"y+	c #656C65",
"z+	c #8A9389",
"A+	c #9AA399",
"B+	c #949E92",
"C+	c #8B9587",
"D+	c #98A195",
"E+	c #9DA79B",
"F+	c #8A9384",
"G+	c #6A706A",
"H+	c #798078",
"I+	c #222422",
"J+	c #535853",
"K+	c #6D746D",
"L+	c #C6C6C6",
"M+	c #CBCBCB",
"N+	c #BFBFBF",
"O+	c #464A46",
"P+	c #8C958B",
"Q+	c #5A605A",
"R+	c #9BA598",
"S+	c #717871",
"T+	c #1F211F",
"U+	c #545954",
"V+	c #A2ABA2",
"W+	c #707370",
"X+	c #C7C7C7",
"Y+	c #D1D1D1",
"Z+	c #B5B5B5",
"`+	c #151515",
" @	c #343534",
".@	c #676E67",
"+@	c #909A8D",
"@@	c #A3ADA2",
"#@	c #929B91",
"$@	c #0C0D0C",
"%@	c #8D8E8D",
"&@	c #D2D2D2",
"*@	c #DBDBDB",
"=@	c #838383",
"-@	c #959595",
";@	c #5D625D",
">@	c #7D857D",
",@	c #9DA79C",
"'@	c #9EA89D",
")@	c #8E968D",
"!@	c #444843",
"~@	c #6F746F",
"{@	c #CFCFCF",
"]@	c #DCDCDC",
"^@	c #E4E4E4",
"/@	c #1B1E1B",
"(@	c #7B827A",
"_@	c #414541",
":@	c #838B83",
"<@	c #505550",
"[@	c #1B1C1B",
"}@	c #030503",
"|@	c #171917",
"1@	c #8E968E",
"2@	c #DDDDDD",
"3@	c #E7E7E7",
"4@	c #B9B9B9",
"5@	c #454845",
"6@	c #7B837B",
"7@	c #151715",
"8@	c #1A1C1A",
"9@	c #191A19",
"0@	c #7D847C",
"a@	c #767876",
"b@	c #E8E8E8",
"c@	c #474747",
"d@	c #535353",
"e@	c #4F524F",
"f@	c #3E413D",
"g@	c #767D75",
"h@	c #717471",
"i@	c #E9E9E9",
"j@	c #F3F3F3",
"k@	c #9F9F9F",
"l@	c #868686",
"m@	c #4C4E4C",
"n@	c #767976",
"o@	c #D5D5D5",
"p@	c #6C6C6C",
"q@	c #565756",
"r@	c #636863",
"s@	c #383C38",
"t@	c #707570",
"u@	c #9C9D9C",
"v@	c #E1E1E1",
"w@	c #F5F5F5",
"x@	c #757575",
"y@	c #777777",
"z@	c #5C5D5C",
"A@	c #5D615D",
"B@	c #6B716B",
"C@	c #6E756E",
"D@	c #727672",
"E@	c #939393",
"F@	c #D4D4D4",
"G@	c #E3E3E3",
"H@	c #ECECEC",
"I@	c #F6F6F6",
"J@	c #252525",
"K@	c #8E8E8E",
"L@	c #949494",
"M@	c #DADADA",
"N@	c #EDEDED",
"O@	c #A0A0A0",
"P@	c #737373",
"Q@	c #8F8F8F",
"R@	c #999999",
"S@	c #C8C8C8",
"T@	c #E5E5E5",
"U@	c #4B4B4B",
"V@	c #555555",
"W@	c #707070",
"X@	c #AAAAAA",
"Y@	c #B7B7B7",
"Z@	c #CACACA",
"`@	c #D3D3D3",
" #	c #D7D7D7",
".#	c #363636",
"                        . + @ # $ % & *                         ",
"                  = - ; > , , ' ) ! ~ { ] ^ /                   ",
"                ( _ : < [ , ' ) } | 1 2 3 4 5 6                 ",
"            7 8 9 : < 0 a b c d ! 1 2 3 > e _ f g h             ",
"          i 1 9 j k 0 l m n o p p o q r s t f u v w x           ",
"        i ! 9 j k y z A B C D E F G H I J K L M N O P Q         ",
"      R 1 S T U V W X Y Z Z Z `  .......+.@.W #.O $.%.&.;       ",
"      8 S T U *.=.-.;.Z Z Z Z `  .........>.,.'.).!.~.{.].      ",
"    ^./.(._.:.=.<.Z X [.Z Z Z `  .......}.|.1.2.'.3.4.5.6.g     ",
"  7.8.(._.l W 9.Z Z Y 0.Z Z Z a.b.c...d.e.f.....g.W h.i.j.k.l.  ",
"  @ < [ , m.X Z Z Z Z n.o.p.q.r.s.t.p b. .........@.u.] v.Q !.  ",
"  ; [ , w.A Y Z Z Z Z x.y.z.[.` A.B.C.D.E.F.......+.J G.H.I.J.  ",
"R K.a b L.M.Z Z Z Z Y N.O.X Z ` A.P.X Q.R.S.....d.l J T.U.V.W.X.",
"Y.Z.b `. +.+++@+O.Z p.o.Z x.#+` A.#+<.Z Y $+%+H &+*+=+=+-+;+>+_ ",
",+Z.`.'+o D Z )+!+0.~+C {+Z ]+B ^+0.Z Q.o./+(+_+:+..G o <+[+}+|+",
"1+`.'+2+p {+Z Z Z D =.3+@+4+5+6+6+D.4+#+7+o.8+......9+p 0+a+b+c+",
"d+'+~ | p {+Z Z Z e+B Z Z f+g+6+6+6+h+Z Z C i+......9+p j+# ,+v ",
"k+l+m+n+o D Z Z Z Q.o+p+q+A.=.6+6+s.C.r+0.=.s+......G o t+u+& X.",
"v+w+s x+y+C Z Y p+z+A+B+Z C+D+C.E+0.7+Z F+^+G+H+s+I+J+K+v+L+M+| ",
"N+v 4 K.O+5+P+Q+I+d.m 5+{+X [.` A.Z 4+Z R+S+..d.T+U+V+W+X+Y+Z+`+",
"  ] K._  @J +..........@g++@Z ` A.Z <.@@#@$@......+.J %@&@*@=@  ",
"  -@_ f { ;@@.........r >@$+,@z.'@R+s.)@!@........@.~@{@]@^@8.  ",
"  a+!.u v X.W g...../@(@d.$@_@G+:@<@[@}@>@|@....g.1@^ 2@3@4@(.  ",
"    0+v N O 5@'.2./.6@7@......8@ .......9@0@:+2.'.a@2@b@. c@    ",
"      5.d@$.!.e@'.(@*.........8@ .........f@g@'.h@]@i@j@k@      ",
"      l@8 P ~.&.m@W @.+.......8@ .......+.@.1@n@2@R 7.o@a       ",
"        Q 4.{.5.p@q@r@J I H G s@F G H I J t@u@v@7 w@+ ~         ",
"          j.J.i.j.x@y@z@A@B@o p p o C@D@E@F@G@H@I@o@J@          ",
"            5.p@x@H.I.0+K@>+L@h >+$ X+Y+M@^@N@w@O@,             ",
"                ~.P@0+Q@R@t+1+Z+N+S@&@*@T@N@@ u                 ",
"                  U@V@W@Q@X@Y@- Z@`@ #v+l@_ /.                  ",
"                        > .#{ M c@t ! [                         "};
