/* XPM */
static char * backdrop_off_xpm[] = {
"58 58 604 2",
"  	c None",
". 	c #888888",
"+ 	c #727272",
"@ 	c #5E5E5E",
"# 	c #4F4F4F",
"$ 	c #474747",
"% 	c #404040",
"& 	c #414141",
"* 	c #49494A",
"= 	c #505052",
"- 	c #5E5E5F",
"; 	c #6E6E6F",
"> 	c #7E7E80",
", 	c #6B6B6B",
"' 	c #3F3F3F",
") 	c #171717",
"! 	c #131313",
"~ 	c #151515",
"{ 	c #161617",
"] 	c #181819",
"^ 	c #1A1A1B",
"/ 	c #1B1B1D",
"( 	c #1D1D1F",
"_ 	c #1F1F20",
": 	c #202022",
"< 	c #222224",
"[ 	c #242426",
"} 	c #27272A",
"| 	c #47474A",
"1 	c #666667",
"2 	c #7D7D7D",
"3 	c #3B3B3B",
"4 	c #141414",
"5 	c #151516",
"6 	c #1C1C1D",
"7 	c #1F1F21",
"8 	c #212123",
"9 	c #222225",
"0 	c #242427",
"a 	c #262629",
"b 	c #27272B",
"c 	c #29292D",
"d 	c #2B2B2E",
"e 	c #2C2C30",
"f 	c #48484B",
"g 	c #6F6F70",
"h 	c #777777",
"i 	c #2A2A2A",
"j 	c #161616",
"k 	c #171718",
"l 	c #19191A",
"m 	c #1B1B1C",
"n 	c #1C1C1E",
"o 	c #1E1E20",
"p 	c #212124",
"q 	c #232325",
"r 	c #252527",
"s 	c #28282B",
"t 	c #2A2A2D",
"u 	c #2B2B2F",
"v 	c #2D2D31",
"w 	c #2E2E33",
"x 	c #303035",
"y 	c #323237",
"z 	c #3F3F45",
"A 	c #6A6A6C",
"B 	c #989898",
"C 	c #373737",
"D 	c #19191B",
"E 	c #1D1D1E",
"F 	c #232326",
"G 	c #252528",
"H 	c #28282C",
"I 	c #2A2A2E",
"J 	c #2D2D32",
"K 	c #2F2F33",
"L 	c #313135",
"M 	c #343439",
"N 	c #36363B",
"O 	c #37373D",
"P 	c #48484D",
"Q 	c #717174",
"R 	c #686868",
"S 	c #29292C",
"T 	c #2E2E32",
"U 	c #2F2F34",
"V 	c #313136",
"W 	c #333338",
"X 	c #34343A",
"Y 	c #36363C",
"Z 	c #38383E",
"` 	c #393940",
" .	c #3B3B41",
"..	c #3D3D43",
"+.	c #59595F",
"@.	c #393939",
"#.	c #1A1A1C",
"$.	c #35353A",
"%.	c #37373C",
"&.	c #3A3A40",
"*.	c #3C3C42",
"=.	c #3D3D44",
"-.	c #3F3F46",
";.	c #404048",
">.	c #515157",
",.	c #9E9E9E",
"'.	c #242424",
").	c #141415",
"!.	c #181818",
"~.	c #292A29",
"{.	c #3E413C",
"].	c #565A54",
"^.	c #646961",
"/.	c #6F756B",
"(.	c #6F756C",
"_.	c #646962",
":.	c #565B55",
"<.	c #414440",
"[.	c #303131",
"}.	c #35353B",
"|.	c #39393F",
"1.	c #3A3A41",
"2.	c #3C3C43",
"3.	c #3E3E45",
"4.	c #414148",
"5.	c #43434A",
"6.	c #44444C",
"7.	c #4C4C53",
"8.	c #707072",
"9.	c #959595",
"0.	c #1D1D1D",
"a.	c #181919",
"b.	c #373936",
"c.	c #72796F",
"d.	c #878F84",
"e.	c #81887E",
"f.	c #7C8378",
"g.	c #798075",
"h.	c #767D73",
"i.	c #80877C",
"j.	c #3F413F",
"k.	c #2D2D30",
"l.	c #404047",
"m.	c #414149",
"n.	c #43434B",
"o.	c #45454D",
"p.	c #46464F",
"q.	c #484851",
"r.	c #4D4D56",
"s.	c #6B6B6E",
"t.	c #999999",
"u.	c #4E524C",
"v.	c #878F83",
"w.	c #7F867B",
"x.	c #757C72",
"y.	c #7D847A",
"z.	c #848C81",
"A.	c #535752",
"B.	c #42424A",
"C.	c #44444B",
"D.	c #47474F",
"E.	c #494951",
"F.	c #4A4A53",
"G.	c #4C4C55",
"H.	c #505059",
"I.	c #6B6B6F",
"J.	c #3D403D",
"K.	c #868E82",
"L.	c #7B8278",
"M.	c #484B48",
"N.	c #46464E",
"O.	c #474750",
"P.	c #494952",
"Q.	c #4B4B54",
"R.	c #4C4C56",
"S.	c #4E4E58",
"T.	c #54545D",
"U.	c #191A19",
"V.	c #70766D",
"W.	c #757B72",
"X.	c #484850",
"Y.	c #4A4A52",
"Z.	c #4F4F58",
"`.	c #50505A",
" +	c #52525C",
".+	c #54545E",
"++	c #5A5A63",
"@+	c #616161",
"#+	c #191919",
"$+	c #222322",
"%+	c #858C81",
"&+	c #848B80",
"*+	c #838A7F",
"=+	c #848C80",
"-+	c #393A3D",
";+	c #4D4D57",
">+	c #4F4F59",
",+	c #51515B",
"'+	c #52525D",
")+	c #565660",
"!+	c #575762",
"~+	c #5F5F66",
"{+	c #909090",
"]+	c #282A29",
"^+	c #868E83",
"/+	c #777E74",
"(+	c #889085",
"_+	c #7C8379",
":+	c #777D73",
"<+	c #3E3F41",
"[+	c #53535D",
"}+	c #55555F",
"|+	c #565661",
"1+	c #585863",
"2+	c #595965",
"3+	c #5B5B67",
"4+	c #616166",
"5+	c #232424",
"6+	c #787F75",
"7+	c #8A9286",
"8+	c #858D81",
"9+	c #3E3F43",
"0+	c #53535E",
"a+	c #555560",
"b+	c #5A5A65",
"c+	c #5C5C67",
"d+	c #5D5D69",
"e+	c #5E5E68",
"f+	c #737373",
"g+	c #1A1B1B",
"h+	c #868C82",
"i+	c #878E83",
"j+	c #7E857A",
"k+	c #595964",
"l+	c #5A5A66",
"m+	c #5C5C68",
"n+	c #5E5E6A",
"o+	c #5F5F6C",
"p+	c #61616E",
"q+	c #292929",
"r+	c #72786F",
"s+	c #737970",
"t+	c #4E4E59",
"u+	c #5D5D68",
"v+	c #60606C",
"w+	c #62626E",
"x+	c #636370",
"y+	c #64646F",
"z+	c #767676",
"A+	c #3F423E",
"B+	c #8A9186",
"C+	c #7A8177",
"D+	c #7B8177",
"E+	c #4E5150",
"F+	c #5F5F6B",
"G+	c #60606D",
"H+	c #62626F",
"I+	c #646471",
"J+	c #656573",
"K+	c #676775",
"L+	c #5D5D64",
"M+	c #798076",
"N+	c #8D9589",
"O+	c #484951",
"P+	c #61616D",
"Q+	c #63636F",
"R+	c #666673",
"S+	c #686875",
"T+	c #696977",
"U+	c #656570",
"V+	c #1E1E1F",
"W+	c #4E524D",
"X+	c #899185",
"Y+	c #889084",
"Z+	c #595D5A",
"`+	c #656572",
" @	c #666674",
".@	c #686876",
"+@	c #6A6A78",
"@@	c #6B6B7A",
"#@	c #6D6D7B",
"$@	c #656565",
"%@	c #1C1D1E",
"&@	c #8E968A",
"*@	c #838B80",
"=@	c #4E4E57",
"-@	c #676774",
";@	c #696976",
">@	c #6C6C7A",
",@	c #6D6D7C",
"'@	c #6F6F7E",
")@	c #5E5E66",
"!@	c #3E3E3F",
"~@	c #393B38",
"{@	c #7E867B",
"]@	c #4F5253",
"^@	c #6B6B79",
"/@	c #6C6C7B",
"(@	c #6E6E7D",
"_@	c #70707F",
":@	c #717180",
"<@	c #686873",
"[@	c #81887D",
"}@	c #82897E",
"|@	c #8C9488",
"1@	c #787E74",
"2@	c #737971",
"3@	c #727281",
"4@	c #737383",
"5@	c #747483",
"6@	c #818181",
"7@	c #7D8479",
"8@	c #828A7F",
"9@	c #868D82",
"0@	c #53545E",
"a@	c #727282",
"b@	c #747484",
"c@	c #767685",
"d@	c #777787",
"e@	c #53535A",
"f@	c #2D2E2E",
"g@	c #4F5055",
"h@	c #737382",
"i@	c #767686",
"j@	c #787888",
"k@	c #79798A",
"l@	c #595962",
"m@	c #404340",
"n@	c #565958",
"o@	c #757585",
"p@	c #7A7A8A",
"q@	c #7C7C8C",
"r@	c #60606B",
"s@	c #515152",
"t@	c #575B55",
"u@	c #626662",
"v@	c #797989",
"w@	c #7A7A8B",
"x@	c #7C7C8D",
"y@	c #7E7E8F",
"z@	c #4B4B4E",
"A@	c #2C2C2F",
"B@	c #656B63",
"C@	c #6B7069",
"D@	c #7B7B8C",
"E@	c #7D7D8D",
"F@	c #808091",
"G@	c #6A6A77",
"H@	c #464648",
"I@	c #6E756B",
"J@	c #71766E",
"K@	c #7D7D8E",
"L@	c #7F7F90",
"M@	c #808092",
"N@	c #828294",
"O@	c #72727F",
"P@	c #303034",
"Q@	c #7F7F91",
"R@	c #818192",
"S@	c #888899",
"T@	c #777783",
"U@	c #4F4F51",
"V@	c #656B64",
"W@	c #6B706A",
"X@	c #818193",
"Y@	c #838395",
"Z@	c #8A8A9B",
"`@	c #9292A1",
" #	c #797984",
".#	c #545457",
"+#	c #323238",
"@#	c #585D57",
"##	c #646864",
"$#	c #858597",
"%#	c #8C8C9D",
"&#	c #9494A3",
"*#	c #9B9BA9",
"=#	c #797983",
"-#	c #5E5E60",
";#	c #454845",
">#	c #5A5D5E",
",#	c #878799",
"'#	c #8F8F9F",
")#	c #9696A5",
"!#	c #9D9DAB",
"~#	c #A5A5B1",
"{#	c #75757C",
"]#	c #69696B",
"^#	c #333339",
"/#	c #363738",
"(#	c #585960",
"_#	c #8A8A9A",
":#	c #9191A0",
"<#	c #9898A6",
"[#	c #A0A0AC",
"}#	c #A7A7B2",
"|#	c #AEAEB8",
"1#	c #757578",
"2#	c #6B6C77",
"3#	c #9393A2",
"4#	c #9A9AA8",
"5#	c #A2A2AE",
"6#	c #A9A9B4",
"7#	c #B0B0BA",
"8#	c #B8B8C0",
"9#	c #5A5A5D",
"0#	c #3B3B42",
"a#	c #727970",
"b#	c #737A71",
"c#	c #90909F",
"d#	c #9D9DAA",
"e#	c #A4A4B0",
"f#	c #ABABB6",
"g#	c #B3B3BC",
"h#	c #BABAC2",
"i#	c #BEBEC5",
"j#	c #4E4E53",
"k#	c #444645",
"l#	c #606265",
"m#	c #9F9FAC",
"n#	c #A6A6B2",
"o#	c #B5B5BE",
"p#	c #BCBCC4",
"q#	c #C4C4CA",
"r#	c #A2A2A6",
"s#	c #626266",
"t#	c #3F3F47",
"u#	c #7A7A84",
"v#	c #A8A8B4",
"w#	c #B7B7C0",
"x#	c #BEBEC6",
"y#	c #C6C6CC",
"z#	c #CDCDD2",
"A#	c #818184",
"B#	c #424249",
"C#	c #565A56",
"D#	c #646966",
"E#	c #AAAAB4",
"F#	c #B2B2BB",
"G#	c #B9B9C1",
"H#	c #C1C1C8",
"I#	c #C8C8CE",
"J#	c #CFCFD4",
"K#	c #D7D7DA",
"L#	c #505057",
"M#	c #7E7F85",
"N#	c #B4B4BD",
"O#	c #BBBBC3",
"P#	c #C3C3C9",
"Q#	c #CACACF",
"R#	c #D1D1D5",
"S#	c #D9D9DB",
"T#	c #B3B3B4",
"U#	c #68686B",
"V#	c #4C4F4D",
"W#	c #666967",
"X#	c #B6B6BF",
"Y#	c #C5C5CB",
"Z#	c #CCCCD1",
"`#	c #D4D4D7",
" $	c #DBDBDD",
".$	c #E2E2E3",
"+$	c #4D4D55",
"@$	c #787D75",
"#$	c #A3A4AA",
"$$	c #C0C0C7",
"%$	c #C7C7CD",
"&$	c #CFCFD3",
"*$	c #D6D6D9",
"=$	c #DDDDDF",
"-$	c #E5E5E5",
";$	c #CDCDCD",
">$	c #646469",
",$	c #54545F",
"'$	c #838B7F",
")$	c #86868B",
"!$	c #C2C2C9",
"~$	c #C9C9CF",
"{$	c #D8D8DB",
"]$	c #DFDFE1",
"^$	c #E7E7E7",
"/$	c #7A7A7A",
"($	c #55555C",
"_$	c #424347",
":$	c #747578",
"<$	c #C4C4CB",
"[$	c #D3D3D7",
"}$	c #DADADD",
"|$	c #C2C2C2",
"1$	c #6A6A6D",
"2$	c #585864",
"3$	c #454649",
"4$	c #858D82",
"5$	c #6E7070",
"6$	c #C7C7CC",
"7$	c #CECED2",
"8$	c #D5D5D8",
"9$	c #DDDDDE",
"0$	c #E4E4E4",
"a$	c #E6E6E6",
"b$	c #5D5D5D",
"c$	c #5F5F65",
"d$	c #5B5B66",
"e$	c #45464C",
"f$	c #767778",
"g$	c #C9C9CE",
"h$	c #D0D0D4",
"i$	c #DFDFE0",
"j$	c #929292",
"k$	c #5B5B64",
"l$	c #4C4D55",
"m$	c #7A8179",
"n$	c #898A8D",
"o$	c #CBCBD0",
"p$	c #D2D2D6",
"q$	c #DADADC",
"r$	c #E1E1E2",
"s$	c #BEBEBE",
"t$	c #5C5C66",
"u$	c #525555",
"v$	c #6C6E6C",
"w$	c #AEAEB3",
"x$	c #D4D4D8",
"y$	c #DCDCDE",
"z$	c #E3E3E4",
"A$	c #D2D2D2",
"B$	c #5D615E",
"C$	c #6B6F6A",
"D$	c #8C8D91",
"E$	c #DEDEE0",
"F$	c #E5E5E6",
"G$	c #DBDBDB",
"H$	c #535353",
"I$	c #6F6F7D",
"J$	c #727280",
"K$	c #545758",
"L$	c #747B72",
"M$	c #6B6D6C",
"N$	c #8E8E93",
"O$	c #D2D2D5",
"P$	c #E0E0E1",
"Q$	c #5F5F5F",
"R$	c #5B5B61",
"S$	c #646470",
"T$	c #6E6E7C",
"U$	c #777788",
"V$	c #757584",
"W$	c #5E5F69",
"X$	c #55565D",
"Y$	c #5B5D5E",
"Z$	c #6A7069",
"`$	c #737870",
" %	c #6C726A",
".%	c #686C68",
"+%	c #646767",
"@%	c #6A6B6F",
"#%	c #85868C",
"$%	c #B0B0B9",
"%%	c #565656",
"&%	c #8D8D9D",
"*%	c #A3A3AF",
"=%	c #AAAAB5",
"-%	c #B1B1BB",
";%	c #BBBBBB",
">%	c #606069",
",%	c #787889",
"'%	c #ACACB7",
")%	c #B3B3BD",
"!%	c #56565D",
"~%	c #7B7B8B",
"{%	c #A0A0AD",
"]%	c #A7A7B3",
"^%	c #AEAEB9",
"/%	c #BDBDC5",
"(%	c #C6C6C6",
"_%	c #71717F",
":%	c #7E7E90",
"<%	c #828293",
"[%	c #858596",
"}%	c #8C8C9C",
"|%	c #9B9BA8",
"1%	c #B1B1BA",
"2%	c #BFBFC6",
"3%	c #595961",
"4%	c #878798",
"5%	c #8E8E9E",
"6%	c #9595A4",
"7%	c #B8B8B8",
"8%	c #747481",
"9%	c #8F8F9E",
"0%	c #E3E3E3",
"a%	c #B4B4B4",
"b%	c #898989",
"c%	c #54545B",
"d%	c #66666B",
"e%	c #77777D",
"f%	c #86868C",
"g%	c #939398",
"h%	c #9F9FA4",
"i%	c #A3A3A7",
"j%	c #A1A1A3",
"k%	c #9B9B9C",
"l%	c #919192",
"m%	c #7B7B7B",
"                                              . + @ # $ % & * = - ; >                                               ",
"                                        , ' ) ! ! ~ { ] ^ / ( _ : < [ } | 1                                         ",
"                                  2 3 ! ! ! ! 4 5 ) ] ^ 6 ( 7 8 9 0 a b c d e f g                                   ",
"                              h i ! ! ! ! ! 4 j k l m n o : p q r a s t u v w x y z A                               ",
"                          B C ! ! ! ! ! ! ~ { ] D m E o : < F G } H I e J K L y M N O P Q                           ",
"                        R ! ! ! ! ! ! ! ~ ) ] ^ 6 ( 7 8 9 0 a } S d e T U V W X Y Z `  ...+.                        ",
"                      @.! ! ! ! ! ! 4 j k l #.n o 7 8 q 0 a s c u v w x y W $.%.Z &.*.=.-.;.>.                      ",
"                  ,.'.! ! ! ! ! ! ).{ !.l m 6 ^ ~.{.].^./.(._.:.<.[.b x M }.O |.1.2.3.-.4.5.6.7.8.                  ",
"                9.0.! ! ! ! ! ! ~ ) ] ^ a.b.c.d.e.f.g.h.i.i.h.g.f.e.d.c.j.k.|. ...3.l.m.n.o.p.q.r.s.                ",
"              t.0.! ! ! ! ! 4 5 k l l u.v.w.h.x.x.x.x.x.i.i.x.x.x.x.x.x.y.z.A.L -.;.B.C.o.D.E.F.G.H.I.              ",
"              '.! ! ! ! ! 4 j !.) J.K.L.x.x.x.x.x.x.x.x.i.i.x.x.x.x.x.x.x.x.L.K.M.1.6.N.O.P.Q.R.S.H.T.              ",
"            3 ! ! ! ! ! ~ { ] U.V.i.x.x.x.x.x.x.x.x.x.x.i.i.x.x.x.x.x.x.x.x.x.x.i.W.%.X.Y.Q.r.Z.`. +.+++            ",
"          @+! ! ! ! 4 5 ) #+$+%+&+*+x.x.x.x.x.x.x.x.x.x.i.i.x.x.x.x.x.x.x.x.x.x.*+&+=+-+G.;+>+,+'+.+)+!+~+          ",
"        {+! ! ! ! 4 j k l ]+^+/+x.(+_+x.x.x.x.x.x.x.x.x.i.i.x.x.x.x.x.x.x.x.x.f.(+x.:+K.<+H.,+[+}+|+1+2+3+4+        ",
"        C ! ! ! ~ { ] ^ 5+K.x.x.x.6+7+/+x.x.x.x.x.x.x.x.i.i.x.x.x.x.x.x.x.x./+7+6+x.x.x.8+9+0+a+!+1+b+c+d+e+        ",
"      f+! ! ! ~ ) ] ^ g+h+/+x.x.x.x.y.i+x.x.x.x.x.x.x.x.i.i.x.x.x.x.x.x.x.x.i+j+x.x.x.x.:+=+4.!+k+l+m+n+o+p+~+      ",
"      q+! 4 j k l m D r+g.x.x.x.x.x.x.%+i.x.x.x.x.x.x.x.i.i.x.x.x.x.x.x.x.i.%+x.x.x.x.x.x.g.s+t+3+u+n+v+w+x+y+      ",
"    z+! ).{ !.l m E A+i.x.x.x.x.x.x.x.h.B+C+x.x.x.x.D+w.i+i+i.L.x.x.x.x.C+B+h.x.x.x.x.x.x.x.i.E+d+F+G+H+I+J+K+L+    ",
"    @.~ ) ] ^ / ( n K.x.x.x.x.x.x.x.x.x.M+B+h.6+&+N+N+B+7+7+B+N+N+&+6+h.B+M+x.x.x.x.x.x.x.x.x.8+O+P+Q+I+R+S+T+U+    ",
"    5 k l #.6 V+7 W+L.x.x.x.x.x.x.x.x.x.x.i.X+N+Y+y.h.x.i.i.x.h.y.Y+N+X+i.x.x.x.x.x.x.x.x.x.x.L.Z+x+`+ @.@+@@@#@    ",
"  $@!.l m n o : %@K.x.x.x.x.x.x.x.x.x.x.h.i+&@*@x.x.x.x.i.i.x.x.x.x.*@&@d.h.x.x.x.x.x.x.x.x.x.x.K.=@-@;@+@>@,@'@)@  ",
"  !@^ / ( 7 : < ~@{@x.x.x.x.x.x.x.x.x.x.i+7+C+7+6+x.x.x.i.i.x.x.x.6+7+C+7+i+x.x.x.x.x.x.x.x.x.x.{@]@T+^@/@(@_@:@<@  ",
"  E 6 ( 7 8 9 9 c.X+[@6+x.x.x.x.x.x.x.}@|@1@x.f.(+x.x.x.i.i.x.x.x.(+f.x.6+|@}@x.x.x.x.x.x.x.6+[@X+2@K+#@(@_@3@4@5@  ",
"6@n o : p F r : i+1@i.Y+X+e.g.x.x.x.g.N+7@x.x.x.8@8@x.:+*+*+:+x.8@8@x.x.x.7@N+6+x.x.x.g.e.X+Y+i.1@9@0@'@:@a@b@c@d@e@",
"; o : < F G } f@e.x.x.x./+i.d.B+}@M+&+Y+x.x.x.x.x.(+K.N+&@&@N+K.(+x.x.x.x.x.Y+&+M+}@B+d.i./+x.x.x.e.g@:@h@b@i@j@k@l@",
"- 8 9 0 a } S m@f.x.x.x.x.x.x./+{@d.&@K.D+x.x.x./+7+&@&@&@&@&@&@7+/+x.x.x.D+K.&@d.{@/+x.x.x.x.x.x._+n@4@o@d@j@p@q@r@",
"s@q 0 a s c u t@6+x.x.x.x.x.x.x.x.L.N+{@K.7+*@L.8+&@&@&@&@&@&@&@&@8+L.*+7+K.{@N+L.x.x.x.x.x.x.x.x.6+u@o@d@v@w@x@y@R+",
"z@G } H I A@v B@:+x.x.x.x.x.x.x.x.i.B+x.x.h.y.K.&@&@&@&@&@&@&@&@&@&@K.y.h.x.x.B+i.x.x.x.x.x.x.x.x.:+C@j@k@D@E@y@F@G@",
"H@} S I e T U I@x.x.x.x.x.x.x.x.x.}@i+x.x.x.x.L.&@&@&@&@&@&@&@&@&@&@D+x.x.x.x.d.}@x.x.x.x.x.x.x.x.x.J@p@D@K@L@M@N@O@",
"| c u v w P@V I@x.x.x.x.x.x.x.x.x.}@i+x.x.x.x.L.&@&@&@&@&@&@&@&@&@&@D+x.x.x.x.d.e.x.x.x.x.x.x.x.x.x.J@x@y@Q@R@N@S@T@",
"U@u v K x y M V@:+x.x.x.x.x.x.x.x.i.B+x.x.h.y.K.&@&@&@&@&@&@&@&@&@&@K.y.h.x.x.B+i.x.x.x.x.x.x.x.x.:+W@y@F@X@Y@Z@`@ #",
".#T U V +#M N @#6+x.x.x.x.x.x.x.x.L.N+{@K.7+*+L.8+&@&@&@&@&@&@&@&@8+L.*+7+K.{@N+D+x.x.x.x.x.x.x.x.6+##M@N@$#%#&#*#=#",
"-#P@V W $.Y Z ;#f.x.x.x.x.x.x./+{@d.&@K.D+x.x.x./+7+&@&@&@&@&@&@7+/+x.x.x.D+K.&@d.{@/+x.x.x.x.x.x._+>#N@,#'#)#!#~#{#",
"]#y ^#}.O Z &./#e.x.x.x./+j+K.7+*+D+&+Y+x.x.x.x.x.(+K.N+&@&@N+K.(+x.x.x.x.x.Y+*@g.e.B+Y+i.1@x.x.x.}@(#_#:#<#[#}#|#I.",
"1#M N O |. .2.V 9@1@i.Y+X+e.g.x.x.x.g.N+7@x.x.x.8@8@x.:+*+*+:+x.8@8@x.x.x.7@N+6+x.x.x.g.e.X+Y+i.1@9@2#3#4#5#6#7#8#9#",
"  Z Z ` 0#..3.=.a#X+[@6+x.x.x.x.x.x.x.}@|@1@x.f.(+x.x.x.i.i.x.x.x.(+f.x.6+|@e.x.x.x.x.x.x.x.6+[@X+b#c#d#e#f#g#h#i#  ",
"  j#&.*.=.-.4.B.k#{@x.x.x.x.x.x.x.x.x.x.i+7+C+7+6+x.x.x.i.i.x.x.x.6+7+C+7+i+x.x.x.x.x.x.x.x.x.x.{@l#m#n#|#o#p#q#r#  ",
"  s#2.3.t#4.5.6.O K.x.x.x.x.x.x.x.x.x.x.h.i+&@*@x.x.x.x.i.i.x.x.x.x.*@&@d.h.x.x.x.x.x.x.x.x.x.x.K.u#v#7#w#x#y#z#A#  ",
"    3.l.B#n.o.p.q.C#L.x.x.x.x.x.x.x.x.x.x.i.X+N+Y+y.h.x.i.i.x.h.y.Y+N+X+i.x.x.x.x.x.x.x.x.x.x.L.D#E#F#G#H#I#J#K#    ",
"    L#B.6.o.D.E.F. .K.x.x.x.x.x.x.x.x.x.M+B+h.6+*@|@N+7+7+7+7+N+|@*@6+h.B+M+x.x.x.x.x.x.x.x.x.%+M#N#O#P#Q#R#S#T#    ",
"    U#6.N.O.P.Q.R.S.V#i.x.x.x.x.x.x.x.h.B+C+x.x.x.x.D+w.i+i+w.D+x.x.x.x.C+B+h.x.x.x.x.x.x.x.i.W#X#i#Y#Z#`# $.$h     ",
"      +$q.Y.Q.r.Z.`.q.b#g.x.x.x.x.x.x.%+i.x.x.x.x.x.x.x.i.i.x.x.x.x.x.x.x.i.%+x.x.x.x.x.x.g.@$#$$$%$&$*$=$-$;$      ",
"      >$F.G.;+>+,+'+,$4.%+/+x.x.x.x.y.i+x.x.x.x.x.x.x.x.i.i.x.x.x.x.x.x.x.x.i+j+x.x.x.x.:+'$)$!$~$R#{$]$^$^$/$      ",
"        ($=@H.,+[+}+|+1+_$8+x.x.x.6+7+/+x.x.x.x.x.x.x.x.i.i.x.x.x.x.x.x.x.x./+7+6+x.x.h.8+:$<$Z#[$}$.$^$^$|$        ",
"        1$`. +0+a+!+2$b+c+3$4$/+x.(+_+x.x.x.x.x.x.x.x.x.i.i.x.x.x.x.x.x.x.x.x.f.(+x.:+8+5$6$7$8$9$0$^$^$a$b$        ",
"          c$.+)+!+k+d$m+n+o+e$=+&+*+x.x.x.x.x.x.x.x.x.x.i.i.x.x.x.x.x.x.x.x.x.x.*+&+'$f$g$h$K#i$a$^$^$^$j$          ",
"            k$1+2+3+u+n+v+w+x+l$b#i.x.x.x.x.x.x.x.x.x.x.i.i.x.x.x.x.x.x.x.x.x.x.i.m$n$o$p$q$r$^$^$^$^$s$            ",
"              t$c+d+F+G+H+I+J+K+m+u$9@L.x.x.x.x.x.x.x.x.i.i.x.x.x.x.x.x.x.x.L.h+v$w$z#x$y$z$^$^$^$^$A$              ",
"              s#n+o+P+Q+I+R+S+T+^@#@'+B$K.w.h.x.x.x.x.x.i.i.x.x.x.x.x.x.y.4$C$D$I#J#K#E$F$^$^$^$^$G$H$              ",
"                4+G+x+`+ @.@+@@@#@I$_@J$k+K$b#d.e.f.g.:+i.i.:+g.f.e.^+L$M$N$P#Q#O$S#P$^$^$^$^$^$G$Q$                ",
"                  R$S$-@;@+@>@T$'@:@a@b@i@U$V$W$X$Y$##Z$`$`$ %.%+%@%#%$%i#Y#Z#`# $.$^$^$^$^$^$A$%%                  ",
"                      S$^@/@(@_@:@h@V$i@j@p@D@K@L@M@N@$#&%&#*#*%=%-%G#$$%$&$*$=$-$^$^$^$^$^$;%                      ",
"                        >%I$_@3@4@o@d@,%w@x@K@L@R@N@,#'#)#!#~#'%)%O#!$Q#R#{$P$^$^$^$^$^$a$j$                        ",
"                          !%+@b@c@d@v@~%x@y@F@X@Y@_#:#<#{%]%^%X#/%<$Z#[$}$.$^$^$^$^$^$(%$@                          ",
"                              ++_%k@D@K@:%M@<%[%}%3#|%5#6#1%8#2%6$7$8$9$0$^$^$^$^$;$/$                              ",
"                                  3%T$L@R@N@4%5%6%d#e#f#g#h#H#g$h$K#i$a$^$^$^$7%h                                   ",
"                                        u+8%9%<#m#n#|#o#p#q#o$p$q$r$^$0%a%b%                                        ",
"                                              c%d%e%f%g%h%i%j%k%l%m%$@                                              "};
