/* XPM */
static char *backdrop_off[] = {
/* columns rows colors chars-per-pixel */
"58 58 93 2 ",
"   c #141414",
".  c #171718",
"X  c #1A1A1C",
"o  c #1F1F20",
"O  c #222224",
"+  c #262629",
"@  c #2A2A2D",
"#  c #2E2E32",
"$  c #313236",
"%  c #373936",
"&  c #35353A",
"*  c #3A3A3D",
"=  c #3E413E",
"-  c #3C3D43",
";  c #424344",
":  c #454845",
">  c #44444B",
",  c #4A4B4C",
"<  c #4E524D",
"1  c #474750",
"2  c #4B4B54",
"3  c #4F4F58",
"4  c #4F5153",
"5  c #525355",
"6  c #565B55",
"7  c #585D57",
"8  c #53535C",
"9  c #565958",
"0  c #5C5D5E",
"q  c #5D615E",
"w  c #565661",
"e  c #5B5B64",
"r  c #5E5E6A",
"t  c #636465",
"y  c #656964",
"u  c #62626D",
"i  c #6B6B6C",
"p  c #6D736B",
"a  c #71776E",
"s  c #656572",
"d  c #696976",
"f  c #6D6D7B",
"g  c #6E7070",
"h  c #747475",
"j  c #757C72",
"k  c #787F75",
"l  c #73737D",
"z  c #7B7B7B",
"x  c #7A8177",
"c  c #7D8479",
"v  c #80877C",
"b  c #82897E",
"n  c #747483",
"m  c #7B7B83",
"M  c #777788",
"N  c #7B7B8C",
"B  c #7F7F90",
"V  c #818183",
"C  c #868D82",
"Z  c #86868C",
"A  c #89898A",
"S  c #8A9186",
"D  c #8E968A",
"F  c #828293",
"G  c #8D8E92",
"H  c #878799",
"J  c #8C8C9C",
"K  c #929292",
"L  c #92929C",
"P  c #9B9B9B",
"I  c #9393A3",
"U  c #9A9AA6",
"Y  c #9D9DAA",
"T  c #A2A2A5",
"R  c #A2A2AD",
"E  c #A6A6B1",
"W  c #AAAAB5",
"Q  c #AEAEB8",
"!  c #B3B3B4",
"~  c #B3B3BC",
"^  c #BBBBBB",
"/  c #B7B7C0",
"(  c #BBBBC3",
")  c #C2C2C5",
"_  c #C4C4CA",
"`  c #CACACE",
"'  c #CDCDD2",
"]  c #D2D2D5",
"[  c #D6D6D9",
"{  c #DBDBDD",
"}  c #DFDFE0",
"|  c #E6E6E6",
" . c None",
/* pixels */
" . . . . . . . . . . . . . . . . . . . . . . .A a 0 < > = ; , 4 q x n  . . . . . . . . . . . . . . . . . . . . . . .",
" . . . . . . . . . . . . . . . . . . . .i * .       . . X X o o o O O + , p  . . . . . . . . . . . . . . . . . . . .",
" . . . . . . . . . . . . . . . . .z *             . . X X o o o O + + + @ @ # 1 g  . . . . . . . . . . . . . . . . .",
" . . . . . . . . . . . . . . .z @             . . X X o o o O O + + + + @ # # $ $ ; p  . . . . . . . . . . . . . . .",
" . . . . . . . . . . . . .K %               . . X X X o o O O + + + # # @ $ $ & & & & > h  . . . . . . . . . . . . .",
" . . . . . . . . . . . .y                 . X X X o o O O + + + + @ # # $ $ & & & - - - - e  . . . . . . . . . . . .",
" . . . . . . . . . . .%                 . X X X o o o O O + + @ @ $ # # $ $ & & & - - - - - 5  . . . . . . . . . . .",
" . . . . . . . . .P O                   . X X X @ = 6 y a a y 6 = $ + $ & & & & - - - - ; > 1 2 h  . . . . . . . . .",
" . . . . . . . .K X               . X X . % j D S b v v b b v b x c D x = @ = = - - - > > > 1 1 2 d  . . . . . . . .",
" . . . . . . .P X               . . X < D b v j k k j j v v k k x q x c S S < % - > > > 1 1 1 1 2 3 i  . . . . . . .",
" . . . . . . .O             . . . = S b x k j j j j j j v v k j x x x x x x c c 1 - > 1 1 1 2 3 3 5 8  . . . . . . .",
" . . . . . .*             . . . a S x j j j j j j j j j v v j j x x y x x x x x C x & 1 2 2 3 3 8 8 8 e  . . . . . .",
" . . . . .t             X . O S b b j j j j j j j j j j v v j j x x x x y x x x b C C * 4 3 3 8 w 8 w w r  . . . . .",
" . . . .A             . . @ S v x S v j j j j j j j j j v v j j y x x y x x x x C x c D - 8 3 8 w w w w e u  . . . .",
" . . . .%           X X O D c j k j b v j j j j j j j j v v j j x x x x x x x b x x x x S = 8 w w w e r r r  . . . .",
" . . .h             X X S v j j j k v b j j j j j j j j v v j j x y x x y x x x x x x x c C > w w e r r r s r  . . .",
" . . .+     .   X X X x x x x x j j j b b j j j j j j j v b j j x a x x a c b x x a x a x x x 4 r r r r u u s  . . .",
" . .x     . . X X X = b x x y x j j k j b v j j j j v v b b v v a x x a x S a x a x a x y x c < r r u r s s d e  . .",
" . .=   . . X X o X c x x x y x j j j j v b j j b D D b D b S D D b x x S x x a x x x a x x c S 1 r s s d d d s  . .",
" . .  . X X o o o < x x y x x x j j j j j b S D S v j k v v k j c C S S c x a x p p x x x x x c 0 s s s s d d f  . .",
" .p . X o X o o o b c x x x x x j j j j j b D b j j j j v v j j j j b D C x j j x p p x x p x x S 2 d d f f f n r  .",
" .= X X o o o O = c x x x x y x j j j k b S v b j j j k v v j j j x S x S C j j x x x x x x x x S 4 d f f f n f d  .",
" .X X o o o o + c b c x x x x x j j j b D x j v b x j j v v j j x C x j x S c x p p x p p x x c D g d f f f n n n  .",
"b X o O o + + + D c c c b c x x j j j D v j j j b b j j b b x j C c j j x x D x x x x x x C c c x D 3 n n n n n M 5 ",
"g o o O O + + @ b x x x x x c b b v b b j j j j j S b D D D D D S x j j j j S b x c S C c x j j j D 4 n n n n M N e ",
"q O O + + + @ ; c x x x x x y x v D D b x j j j x S D D D D D D S x j j j x C D S c x j j j j j j C 9 n n n M N N r ",
"4 O O + @ @ @ 7 c x x p p x x x x x D b b b b v b D D D D D D D D C x b S C c D x x j j j j j j j b t n M N N B N d ",
", + @ + @ @ # y x p x x x p p x j v b j x v v b D D D D D D D D D D C x j j x C c j j j j j j j j c p M M M N B B f ",
": @ + + # # # p x x x x a x a x j v b x j j j x D P D D D D D D D D c j j j j S b j j j j j j j x c a M N B B B H l ",
"> @ # # # $ $ a x x x p x a x a j v b x j x j x D D D D D D D D D D x x j j j C b j j j j j j j j c a N B B F F H n ",
"4 @ # # $ $ & y c x x p a x a x x v b x v x b b D D D D D D D D D D C c j j x S c j j j j j j j j c p B B F F J I n ",
"5 # $ $ $ & $ q c x p x x a x a x x D v b b b v b D D D D D D D D C x b S C c D x j j j j j j j j b t F F H J I Y m ",
"q $ $ $ $ & - ; C j j j j j j x c S D C x j j j j S D D D D D D D x j j x x c D S c x x x x x p j C 0 F H J U Y E l ",
"i $ & & & - - $ S j j j j c C S b x b S j j j j j C C D D D D S S j j j a x S c x C S c x x x x j S e H I U R E W d ",
"l & & - - - - $ D k v S S c x j j j x D x j j j b b x j b b j j b b j j x x C x x p x x c C c x x D d I Y R W Q ^ 0 ",
" .& & - - - - - j S V x j j j j j j j b D x j c S j j j c c j j x C x j x D c x x x x p x x x c D j L Y R W ~ ( (  .",
" .2 - - - - - > : S j j j j j j j j j j C S x S x j j j c c j j j x D x S C x a x y p x x x p x S r Y E Q ~ ( _ T  .",
" .t - - - > > > * S x j j j j j j j j j x C D C j j j j c b j j x a c D C x a x x x x x x x x x S m W Q / ) _ ' V  .",
" . .- - > > > 1 1 6 C j j j j j j j j j j c S D C c x j b b x x x S D C c x x a x x x p x x p c i W ~ / ) ` ' [  . .",
" . .5 > 1 1 1 1 1 - S c j j j j j j j j x S j x b S D S S S S S S b x x S x a x x y x p x x x S m ~ ( ) ' ] { !  . .",
" . .i > > 1 1 2 3 3 2 S j j j j j j j j S x j j j j c c C C c x p x x x x S x x x x x y x x c y ~ ) _ ' [ { | h  . .",
" . . .3 2 2 2 3 3 3 2 j C j j j j j j C c j j j j j j j b b j j x x p p x c c x y x x x x x x T ) _ ' [ { | '  . . .",
" . . .u 2 2 3 3 5 3 w - S c j j j j x C j j j j j j j j c b j j x y x x x x b c x x y x c b b ) ` ] { | | | z  . . .",
" . . . .8 3 3 3 w w w w : S x j j x S x j j j j j j j j v v j j x x p x x p x C x x x x S x _ ` [ { } | | )  . . . .",
" . . . .d 5 8 8 w w w e r : S v j S x j j j j j j j j j b c x j x x x x x p x x C x c C p _ ' [ { | | | | 0  . . . .",
" . . . . .r w w w w r r r r > S S b j j j j j j j j j j c b j j x y y x x p x p b S C x ` ] [ } | | | | K  . . . . .",
" . . . . . .e w e r r r r u s 2 j S x j j j j j j j j j c b j j x x x x x x x x S c H ` [ { } | | | | )  . . . . . .",
" . . . . . . .e r r r r s s s d r 5 S C x j j j j j j j b c j j x y x x x x b S p W ' [ { | | | | | ]  . . . . . . .",
" . . . . . . .t r r u u s s d d f f 3 e S S c x j j j j c c j j x y x c S C s D ` ' [ } | | | | | } 5  . . . . . . .",
" . . . . . . . .t u s s s d d d d n f n e 8 j D S C C c C S c c c c S x x C _ ` ] { } | | | | | { q  . . . . . . . .",
" . . . . . . . . .e s s d d f f n f n n M M n r 8 q y i j j p i y x N Q ( _ ` ] } | | | | | | [ 6  . . . . . . . . .",
" . . . . . . . . . . .s f f f n n n n n M N N N B B F H J I U E W ~ ~ ) ` ' [ } | | | | | | ^  . . . . . . . . . . .",
" . . . . . . . . . . . .r l f n n n M M N N N B F F H J U Y E Q ~ ( _ ` ] { } | | | | | | K  . . . . . . . . . . . .",
" . . . . . . . . . . . . .8 f n n M m N N B F F F H I U Y E Q / ( _ ` [ { } | | | | | ` y  . . . . . . . . . . . . .",
" . . . . . . . . . . . . . . .e n M N B B B F H J I Y E W ~ / ( ` ' [ } | | | | | ' z  . . . . . . . . . . . . . . .",
" . . . . . . . . . . . . . . . . .w f B F F H J I Y E W ~ / ) ` ] [ } | | | | / h  . . . . . . . . . . . . . . . . .",
" . . . . . . . . . . . . . . . . . . . .r n L U Y E Q ~ ( _ ' ] { } | | ^ S  . . . . . . . . . . . . . . . . . . . .",
" . . . . . . . . . . . . . . . . . . . . . . .8 i l A L T T T P J c y  . . . . . . . . . . . . . . . . . . . . . . ."
};
