/* XPM */
static char *backdrop_on[] = {
/* columns rows colors chars-per-pixel */
"58 58 140 2 ",
"   c #141414",
".  c #171C16",
"X  c #181C16",
"o  c #171718",
"O  c #1A1B1B",
"+  c #1E2B16",
"@  c #23341A",
"#  c #1F1F20",
"$  c #1F2120",
"%  c #222224",
"&  c #262629",
"*  c #262829",
"=  c #2A2A2D",
"-  c #273720",
";  c #2B3A23",
":  c #2E2E32",
">  c #2F3332",
",  c #323236",
"<  c #353A37",
"1  c #35353A",
"2  c #36393B",
"3  c #3A3A3D",
"4  c #2E4A1E",
"5  c #32541E",
"6  c #31402A",
"7  c #345224",
"8  c #3A552D",
"9  c #3B5A2A",
"0  c #344230",
"q  c #394637",
"w  c #374931",
"e  c #3D4A3B",
"r  c #3E5039",
"t  c #3D6A24",
"y  c #436E2B",
"u  c #447627",
"i  c #45752B",
"p  c #436433",
"a  c #46603C",
"s  c #4B693D",
"d  c #497532",
"f  c #4D7937",
"g  c #3C3C43",
"h  c #3F4443",
"j  c #424244",
"k  c #404D40",
"l  c #44444B",
"z  c #474A4D",
"x  c #4A4A4D",
"c  c #495847",
"v  c #4F5E4F",
"b  c #474750",
"n  c #4B4B53",
"m  c #4F4F58",
"M  c #4D5055",
"N  c #525255",
"B  c #52535C",
"V  c #5D5D5E",
"C  c #4B6541",
"Z  c #4F6D43",
"A  c #506E42",
"S  c #57714D",
"D  c #5A794C",
"F  c #536253",
"G  c #617D52",
"H  c #565661",
"J  c #5B5B65",
"K  c #5E5E6A",
"L  c #5E6067",
"P  c #636365",
"I  c #62626D",
"U  c #6B6B6D",
"Y  c #657462",
"T  c #687960",
"R  c #717D6D",
"E  c #656572",
"W  c #696975",
"Q  c #6D6D7B",
"!  c #747475",
"~  c #72727E",
"^  c #7B7B7B",
"/  c #4F8B2D",
"(  c #579A2F",
")  c #508036",
"_  c #558F34",
"`  c #54833B",
"'  c #569135",
"]  c #579C30",
"[  c #5A9E33",
"{  c #5BA331",
"}  c #5EAA33",
"|  c #5FA339",
" . c #61AE34",
".. c #61A73A",
"X. c #64B335",
"o. c #67B937",
"O. c #69BD38",
"+. c #6DC43A",
"@. c #5B8644",
"#. c #747483",
"$. c #7A7B82",
"%. c #777788",
"&. c #7B7B8C",
"*. c #7F7F90",
"=. c #7D8182",
"-. c #818183",
";. c #848987",
":. c #86878B",
">. c #878D88",
",. c #898B8A",
"<. c #828293",
"1. c #8D8F91",
"2. c #878799",
"3. c #8C8C9C",
"4. c #929292",
"5. c #92929C",
"6. c #9B9B9B",
"7. c #9393A3",
"8. c #9A9AA6",
"9. c #9D9DAA",
"0. c #A2A2A5",
"q. c #A2A2AD",
"w. c #A6A6B1",
"e. c #AAAAB5",
"r. c #AEAEB8",
"t. c #B3B3B4",
"y. c #B3B3BC",
"u. c #BBBBBB",
"i. c #B7B7C0",
"p. c #BBBBC3",
"a. c #C2C2C5",
"s. c #C4C4CA",
"d. c #CACACE",
"f. c #CDCDD2",
"g. c #D2D2D5",
"h. c #D6D6D9",
"j. c #DBDBDD",
"k. c #DFDFE0",
"l. c #E6E6E6",
"z. c None",
/* pixels */
"z.z.z.z.z.z.z.z.z.z.z.z.z.z.z.z.z.z.z.z.z.z.z.,.! V x x j j x x K Q $.z.z.z.z.z.z.z.z.z.z.z.z.z.z.z.z.z.z.z.z.z.z.z.",
"z.z.z.z.z.z.z.z.z.z.z.z.z.z.z.z.z.z.z.z.U 3 o       o o o O # $ $ $ % * z P z.z.z.z.z.z.z.z.z.z.z.z.z.z.z.z.z.z.z.z.",
"z.z.z.z.z.z.z.z.z.z.z.z.z.z.z.z.z.^ 3             o o O O $ # $ $ & $ & = = : z ! z.z.z.z.z.z.z.z.z.z.z.z.z.z.z.z.z.",
"z.z.z.z.z.z.z.z.z.z.z.z.z.z.z.^ =             o o o O $ # $ % % & * = = = : > , , g U z.z.z.z.z.z.z.z.z.z.z.z.z.z.z.",
"z.z.z.z.z.z.z.z.z.z.z.z.z.4.>               o o O O O # $ % % & * = = : : : , : , 1 1 z ! z.z.z.z.z.z.z.z.z.z.z.z.z.",
"z.z.z.z.z.z.z.z.z.z.z.z.U                   X O O # $ % % & & & * = : : , : 1 : 1 3 g g g J z.z.z.z.z.z.z.z.z.z.z.z.",
"z.z.z.z.z.z.z.z.z.z.z.<                 o O O O # # $ % % & & = : : : , , g : g g 1 g g g j m z.z.z.z.z.z.z.z.z.z.z.",
"z.z.z.z.z.z.z.z.z.6.%                 o O O O O @ 7 i / ( ( / i 8 ; $ , , , g g g g g g j l l n ! z.z.z.z.z.z.z.z.z.",
"z.z.z.z.z.z.z.z.4.O                 O O o 4 { +.O.o.X.X.o.o.X.X.o.+.+.{ 7 : g g g g h g h n n h n W z.z.z.z.z.z.z.z.",
"z.z.z.z.z.z.z.6.$               o O X t +.O.X.{ { { { { X.X.{ { { { { X.+.+.t > g g b h b h n n n B U z.z.z.z.z.z.z.",
"z.z.z.z.z.z.z.$             o o o 5 O.O.} { { { { { { {  .X.{ { { { { { { { o.+.h h h b b m n n m N B z.z.z.z.z.z.z.",
"z.z.z.z.z.z.3             o o X ( O. .{ { { { { { { { { X.X.{ { { { { { { { { } +.| g b b b n m B B B J z.z.z.z.z.z.",
"z.z.z.z.z.P             o X + O.O.o.{ { { { { { { { { { X.X.{ { { { { { { { { { X.+.o.0 n m m B H B H H K z.z.z.z.z.",
"z.z.z.z.,.          o o O @ +. .} O. .{ [ { { { { { { { X. .{ { { { { { { { { } +.|  .+.w m B B H H H H J I z.z.z.z.",
"z.z.z.z.<           o O + +. .{ { } O.} { { { { { { { { X. .{ { { { { { { { { +.{ { {  .+.q H H H H H K K K z.z.z.z.",
"z.z.z.!             O X O.X.{ { { {  .O.{ { { { { { { { X.X.{ { { { { { { { o.X.{ { { {  .O.h H H K K K K E K z.z.z.",
"z.z.z.&       o O O X ] X.{ { { { { { o.X.{ { { { { { { X. .{ { { { { { { X.o.{ { { { { { X.{ B K K K K I E E z.z.z.",
"z.z.^     o o O O O 5 +.{ { { { { { { { O. .{ { { { } X.O.O. . .{ { { { } +.{ { { { { { { { +.9 K K I I E E E J z.z.",
"z.z.1   o o O O O $ +.} { { { { { { { {  .O.{ } o.+.+.+.O.+.+.+.+.o.{ { +.} { { { { { { { { } +.l I E E E E W E z.z.",
"z.z.o o O O O # $ t O.{ { { { { { { { { { X.O.+.O. .{ { X.X.{ {  .O.+.+. .{ { { { { { { { { { o.d E E W W W Q W z.z.",
"z.P o O O O # # O +.} { { { { { { { { { { O.+.o.{ { { { X. .{ { { { o.+.o.{ { { { { { { { { { } O.M E W W Q Q Q K z.",
"z.j O O # $ % % 4 +.{ { { { { { { { { { O.+. .O.} { { { X.X.{ { { { +.} +.+.{ { { { { { { { { { O.a W Q Q Q #.#.W z.",
"z.O O $ $ % % % { O.X.} { { { { { { { X.+.{ {  .O.{ { { X.X.{ { { +.} { { +.o.{ { { { { { { { X.+.{ W Q W #.#.#.#.z.",
"-.# # $ $ % & $ +.} X.O.O.X.{ { { { { +. .{ { { X.o.{ { X.X.{ { o.X.{ { {  .+.{ { { { { X.+.O.X.} +.m #.#.#.#.#.%.B ",
"U $ $ % % & & @ +.{ { { {  .O.+.X.} o.O.{ { { { { +.+.+.+.+.+.+.O.{ { { { { +.X.} X.+.O.X.{ { { { +.c #.#.#.%.%.%.H ",
"V % % & & & = 7 o.{ { { { { { }  .O.+.o.} { { { { +.+.+.+.+.+.+.+.{ { { { } o.+.+. .{ { { { { { { o.C #.#.#.%.%.*.I ",
"N % & & & = : i o.{ { { { { { { {  .+. .o.+.o. .o.+.+.+.+.+.+.+.+.+. .X.+.o. .+.} { { { { { { { { X.) %.%.%.&.&.*.W ",
"x & & & = = : / X.{ { { { { { { { X.+.{ { {  .o.+.+.+.+.+.+.+.+.+.+.O.X.{ { { +. .{ { { { { { { {  .' %.%.*.*.=.=.W ",
"l = = = : : : (  .{ { { { { { { { X.O.{ { { {  .+.+.+.+.+.+.+.+.+.+.X.{ { { { O.X.{ { { { { { { |  .] &.*.*.*.*.<.~ ",
"l = = : : , , (  .{ { { { { { { { X.O.{ { { {  .+.+.+.+.+.+.+.+.+.+. .{ { { { O.X.{ { { { { { { { } [ &.*.*.=.=.2.$.",
"N = : : , , 1 / X.{ { { { { { { {  .+.{  . .+.+.+.+.+.+.+.+.+.+.+.+.O.} { { { +.X.{ { { { { { { { X._ *.*.*.2.3.7.%.",
"N : : , 1 1 1 i X.{ { { { { { { {  .+. .+.+.+.+.+.+.+.+.+.+.+.+.+.O.} X.+.O.X.+.} { { { { { { { { X.D *.2.2.3.7.9.$.",
"V , , , , 1 g 8 o.{ { { { { { {  .o.+.o.} { { { { +.+.+.+.+.+.+.+.{ { { { } o.+.+.} { { { { { { { O.Z <.2.5.7.9.w.~ ",
"U , , 1 g 1 g ; +.{ { { { X.o.+.o.} o.+.{ { { { { +.O.+.+.+.+.+.+.{ { { { { +.X.} X.+.o.X.} { { { +.F 2.5.8.q.e.r.W ",
"~ , 3 3 g g g , +.} X.O.O.X.} { { { } +.X.{ { { X.o.{ { X.o.{ { X.X.{ { { } +.} { { { } X.O.o.X.{ +.Q 7.9.q.w.r.i.V ",
"z.3 3 3 g g g g ] +.X.{ { { { { { { { X.+.{ { } +.{ { { X.X.{ { { +.} { } +.X.{ { { { { { { } X.+.| 5.9.w.e.i.i.p.z.",
"z.N g g g g g l 8 O.{ { { { { { { { { { O.+.} +.{ { { { X.X.{ { { { +.{ +.o.{ { { { { { { { { { O.S 9.w.r.y.p.s.0.z.",
"z.P g g g l l l 2 +.} { { { { { { { { { { O.+.X.{ { { {  .X.{ { { } X.+.o.} { { { { { { { { { } O.$.e.r.i.a.s.f.-.z.",
"z.z.g j l l l b b d o.{ { { { { { { { { { X.+.+.o.X.{ { X.X.{ {  .o.+.+.X.{ { { { { { { { { { o.@.e.y.i.s.d.g.h.z.z.",
"z.z.N l l b b b n 3 +.} { { { { { { { { { +.{ { o.+.+.+.+.o.+.+.+.o.} } +.} { { { { { { { { } +.=.y.i.s.d.g.h.t.z.z.",
"z.z.U l l b b n n m 9 +.{ { { { { { { { +.} { { { { } } o.o.X.} { { { { } +.{ { { { { { { { +.D y.a.s.f.g.j.l.! z.z.",
"z.z.z.m n n n m m m b | o.{ { { { { { o.X.{ { { { { { { X.X.{ { { { { { { X.o.{ { { { { { X.| 0.a.s.g.h.k.l.d.z.z.z.",
"z.z.z.I n n m m m m H h O.X.{ { { {  .O.{ { { { { { { { X.X.{ { { { { { { { o.X.{ { { { X.O.;.s.d.g.h.l.l.l.^ z.z.z.",
"z.z.z.z.B m m m H H H H e +. .{ { { +.} { { { { { { { { X.X.{ { { { { { { { { +.} { {  .O.R s.d.h.h.l.l.l.a.z.z.z.z.",
"z.z.z.z.U B B H H H H J K e +.X.{ O.} { { { { { { { { { X. .{ { { { { { { { {  .+.{  .+.T s.f.h.k.l.l.l.l.P z.z.z.z.",
"z.z.z.z.z.K B H H J K K K K h O.+.X.{ { { { { { { { { { X.X.{ { { { { ( { { { { X.O.o.R d.g.h.k.l.l.l.l.4.z.z.z.z.z.",
"z.z.z.z.z.z.J H H K K L L L E M [ +.} { { { { { { { { {  .X.{ { { { { { { { { } +...>.f.g.h.l.l.l.l.l.u.z.z.z.z.z.z.",
"z.z.z.z.z.z.z.K J K I L E E E E K p +.o.} { { { { { { { X.X.{ { { { { { { } o.+.G e.f.h.j.l.l.l.l.l.h.z.z.z.z.z.z.z.",
"z.z.z.z.z.z.z.P K K I I E E W W Q Q m f O.+. .} | { { { X.X.{ { { { | X.O.+.@.1.d.g.h.k.l.l.l.l.l.k.N z.z.z.z.z.z.z.",
"z.z.z.z.z.z.z.z.P I E E E E W Q W #.Q #.H C | +.+.o.X.X.o.o.X.X.o.+.+.[ G 1.a.f.g.j.k.l.l.l.l.l.j.P z.z.z.z.z.z.z.z.",
"z.z.z.z.z.z.z.z.z.J E E W W Q Q #.Q #.#.%.%.#.L v A ` _ ] [ ' @.D G :.r.p.s.f.g.k.l.l.l.l.l.l.g.N z.z.z.z.z.z.z.z.z.",
"z.z.z.z.z.z.z.z.z.z.z.E Q Q #.Q #.#.#.#.%.&.&.&.*.*.*.2.3.7.8.w.e.r.p.a.d.f.h.k.l.l.l.l.l.l.u.z.z.z.z.z.z.z.z.z.z.z.",
"z.z.z.z.z.z.z.z.z.z.z.z.I #.Q #.#.%.%.%.&.*.*.*.<.<.2.3.8.9.w.e.y.i.s.f.g.h.k.l.l.l.l.l.l.4.z.z.z.z.z.z.z.z.z.z.z.z.",
"z.z.z.z.z.z.z.z.z.z.z.z.z.B W #.%.%.%.&.&.=.*.*.<.2.7.8.q.w.r.i.p.s.f.g.k.k.l.l.l.l.l.d.P z.z.z.z.z.z.z.z.z.z.z.z.z.",
"z.z.z.z.z.z.z.z.z.z.z.z.z.z.z.J #.%.&.*.*.*.=.2.3.7.8.w.w.y.i.a.s.f.h.j.l.l.l.l.l.d.^ z.z.z.z.z.z.z.z.z.z.z.z.z.z.z.",
"z.z.z.z.z.z.z.z.z.z.z.z.z.z.z.z.z.H #.*.*.*.2.7.7.9.w.e.y.p.a.d.g.j.l.l.l.l.l.i.! z.z.z.z.z.z.z.z.z.z.z.z.z.z.z.z.z.",
"z.z.z.z.z.z.z.z.z.z.z.z.z.z.z.z.z.z.z.z.K #.3.8.q.w.r.i.p.s.f.g.j.l.l.l.t.,.z.z.z.z.z.z.z.z.z.z.z.z.z.z.z.z.z.z.z.z.",
"z.z.z.z.z.z.z.z.z.z.z.z.z.z.z.z.z.z.z.z.z.z.z.B I ^ :.5.0.0.8.6.1.^ P z.z.z.z.z.z.z.z.z.z.z.z.z.z.z.z.z.z.z.z.z.z.z."
};
