/* XPM */
static char *backdrop_off[] = {
/* columns rows colors chars-per-pixel */
"58 58 93 2 ",
"   c #141414",
".  c #171718",
"X  c #1A1A1C",
"o  c #1F1F20",
"O  c #222224",
"+  c #262629",
"@  c #2A2A2D",
"#  c #2E2E32",
"$  c #313236",
"%  c #373936",
"&  c #35353A",
"*  c #3A3A3D",
"=  c #3E413E",
"-  c #3C3D43",
";  c #424344",
":  c #454845",
">  c #44444B",
",  c #4A4B4C",
"<  c #4E524D",
"1  c #474750",
"2  c #4B4B54",
"3  c #4F4F58",
"4  c #4F5153",
"5  c #525355",
"6  c #565B55",
"7  c #585D57",
"8  c #53535C",
"9  c #565958",
"0  c #5C5D5E",
"q  c #5D615E",
"w  c #565661",
"e  c #5B5B64",
"r  c #5E5E6A",
"t  c #636465",
"y  c #656964",
"u  c #62626D",
"i  c #6B6B6C",
"p  c #6D736B",
"a  c #71776E",
"s  c #656572",
"d  c #696976",
"f  c #6D6D7B",
"g  c #6E7070",
"h  c #747475",
"j  c #757C72",
"k  c #787F75",
"l  c #73737D",
"z  c #7B7B7B",
"x  c #7A8076",
"c  c #7D857A",
"v  c #80877C",
"b  c #82897F",
"n  c #747483",
"m  c #7B7B83",
"M  c #777788",
"N  c #7B7B8C",
"B  c #7F7F90",
"V  c #818183",
"C  c #868E82",
"Z  c #86868C",
"A  c #89898A",
"S  c #899186",
"D  c #8E968A",
"F  c #828293",
"G  c #8D8E92",
"H  c #878799",
"J  c #8C8C9C",
"K  c #929292",
"L  c #92929C",
"P  c #9B9B9B",
"I  c #9393A3",
"U  c #9A9AA6",
"Y  c #9D9DAA",
"T  c #A2A2A5",
"R  c #A2A2AD",
"E  c #A6A6B1",
"W  c #AAAAB5",
"Q  c #AEAEB8",
"!  c #B3B3B4",
"~  c #B3B3BC",
"^  c #BBBBBB",
"/  c #B7B7C0",
"(  c #BBBBC3",
")  c #C2C2C5",
"_  c #C4C4CA",
"`  c #CACACE",
"'  c #CDCDD2",
"]  c #D2D2D5",
"[  c #D6D6D9",
"{  c #DBDBDD",
"}  c #DFDFE0",
"|  c #E6E6E6",
" . c None",
/* pixels */
" . . . . . . . . . . . . . . . . . . . . . . .A a 0 4 : ; = , 4 q d c  . . . . . . . . . . . . . . . . . . . . . . .",
" . . . . . . . . . . . . . . . . . . . .i * .       . . . o o o O O O + , i  . . . . . . . . . . . . . . . . . . . .",
" . . . . . . . . . . . . . . . . .z *             . . . X o o o O O + + @ @ # , d  . . . . . . . . . . . . . . . . .",
" . . . . . . . . . . . . . . .z @             . . X X o o o O O + + + @ @ # # $ $ ; i  . . . . . . . . . . . . . . .",
" . . . . . . . . . . . . .D $               . . X X X o O O O + + + @ # # # $ & & * & 1 h  . . . . . . . . . . . . .",
" . . . . . . . . . . . .i                   X X X o o O O O + + @ @ # # # # & & & * - - - e  . . . . . . . . . . . .",
" . . . . . . . . . . .%               . . X X X o o o O O + + @ # # # # & & & & * & - - - - 5  . . . . . . . . . . .",
" . . . . . . . . .P O                   . X X X @ = 6 y a a y 9 ; # @ # & & & * - - - - > > > 2 h  . . . . . . . . .",
" . . . . . . . .K X               . . X X % j D D D D D S D D D D D D x = @ & - - - - > > 1 1 1 2 d  . . . . . . . .",
" . . . . . . .P X               . . X < S D D b v x j j v v j j x x C D D S 6 $ - > > > > 1 1 1 2 3 i  . . . . . . .",
" . . . . . . .O             . . . = D D S v v v j j j j v v j j x p c x x b D S 1 - > > 1 1 2 3 3 5 8  . . . . . . .",
" . . . . . .*             . . . a D b v j j v S j j j j v v j j x x C x x x x S S x - 1 2 2 4 3 8 8 8 e  . . . . . .",
" . . . . .t             X . O S D b v j j j j b j j j j v v j j x x b x a x x x C D C * 4 3 3 8 w 8 w w r  . . . . .",
" . . . .A             . . @ S D v b v j j j j v v j j j v v j j x c c x x a x x C c S D - 3 3 8 w w e w e u  . . . .",
" . . . .%           X X O D S x k k b k j j j x b j j j v v j j x c x a a x x S x x x S D - 8 w w w e r r r  . . . .",
" . . .h             X X S D x j j k v b j j j j S x j j v v j j x b x x a x C x p x x x S C > w w e r r r u r  . . .",
" . . .+       X X X o c b x x x j j j b b j j j b v j j v b x j c c x j j c c x j j j j c D x 3 e r r r r s s  . . .",
" . .x       X X X X : D b c x x j j j k b v j j v b v b b b v v C x x j x S j j j j j x C C S < r r s r s s d e  . .",
" . .=   . X X X o X b b c c b c j j j j v b j x b D D b D b b D D C x x S x x j j x x S x a S S 1 s u s s d d s  . .",
" . .    X X X X O < b x x x x c b j j j x b b D b b b v b b j b C S S S c x j j x b C x x x x D 9 u s s d f f f  . .",
" .y X X X X O o X b b b x x p p v S v j j b D b j v b j b v j b x j c D b x x x C c a x a x x C S 3 d d f f f f t  .",
" .= X X X o O O = b c c x x x x j v D b b S v b j v b j b v v b x x S x S C c S x x x a x a x c D 3 d f f f f n d  .",
" .O X o o O O @ c b b x x x x x j j j b D v j x b j b v v v v b x S x x x D S x j j j j a x x c D a d f f n n n n  .",
"V X X O O O @ @ b b b b b x x x j j k S b D v j b b v b b b b v c c x x D b D x j j j x c S C c C D w f f n n M M 5 ",
"p o O O O + + @ D b x x x x v b b v b b a x b b v b D D D D D b S x c C x j S c x c S C c x j j c D 4 n n n M M M e ",
"q O O O + + @ ; b x x x x x p x b b P b v x v v D b D D D D D D S S b x j x C D S c x j j j j j x D 9 n n n M M M u ",
"5 O O + @ @ @ 7 b x x x x x x x x v D v v b b v b D D D D D D D D S c b S b c D c j j j j j j j j D t n M N N N B s ",
", + + @ @ @ # y b x x x x p x p x v b j j v v b D D D D D D D D D D C c x j x S c j j j j j j x j D p M M N N B B d ",
"> + @ @ # # # p b b b b v v x v x b b b v v v v D D D D D P D D D D b c b c c S C c b c c c c b c D a N N B B B F l ",
": @ # # # $ $ p b v b b v v v x v b b b v v v v D D D D D D D D D D b b c c c S C c b c c c c c c S a N B B F F H m ",
"2 @ # # $ $ & y b x x x x a a x v b b v v v b b D D D D D D D D D D C c x x x S c j x j j j j j x D i B B F F J I M ",
"5 $ $ $ $ $ & q b x p p x x x x x b b b b b b b b D D D D D D D D C x b S b c D x j j j j j j j j D y F F H J I Y M ",
"e $ $ $ $ & - ; D k j j j j j x c S D C x j j b S S D D D D D D S S b j j x C D C c j j j j j j x D 0 F H J U Y E l ",
"i $ & & & - - $ D c j j j c C S C x C S j j C C j S C D D D D C S j b S j j S C x b S S c x j j c D w J I U R E W d ",
"l & & * - - - $ D C c S S c x j j j x D C S x j C c x S C C C x b b j x D C D x j j j j c S S c C D f I Y R W ~ ^ 0 ",
" .& * * - - - - j D V x j j j j j j j S D x j c C j C c c c c C j S c j x D S j j j j j j j j C D j J Y R W ~ / (  .",
" .2 - - - - - > : D c j j j j j j x S c C S x S x j S j c c j S j x S x S C c S x j j j j j j c D t Y E Q ~ ( _ T  .",
" .t - - - > > > * S C j j j j j c S x j j C D C j x C j c C j C x j C D S j j x S C j j j j j S C m W ~ / ) _ ' V  .",
" . .; ; > > 1 1 1 7 D c j j x C C j j j j c S D S C c j c c j c C S D S c j j j j C C j j j x D i W ~ / ) ` ' [  . .",
" . .3 > > > 1 1 1 - S S j x S c j j j j x D j x C D D S D D D D D C j j S x j j j j c S c j S S m ~ ( ) ' ] { !  . .",
" . .i > > 1 1 2 3 3 , D S S j j j j j j S x j j x S x v C S c x C k j j x S j j j j j j S S D y ~ ) _ ' [ { | h  . .",
" . . .2 2 2 2 3 3 3 1 j D c j j j j j C c j j j b c j j c c j j v b j j j v C j j j j j c D j R ) _ ' [ { | '  . . .",
" . . .u 2 2 3 3 8 8 8 > C D x j j j c C j j j j S x j j b c j j k S j j j j C v j j j x D C Z _ ` ] { } | | z  . . .",
" . . . .8 3 3 8 8 w w w ; D S x j x S j j j j x C j j j v b j j j C k j j j k S j j x S S l _ ' ] { | | | )  . . . .",
" . . . .d 5 8 8 w w w e e > S D c S x j j j j c c j j j c b x j j v b j j j j x S x D D p _ ' [ } | | | | 0  . . . .",
" . . . . .r 8 w w e e r r u > S D S j j j j j S x j j j b c j j j k S j j j j j C D C l ' ' [ | | | | | K  . . . . .",
" . . . . . .e w e r r r u u u 3 j D S x j j x C j j j j c b j j j j C k k j x S D x A ' ] { } | | | | )  . . . . . .",
" . . . . . . .e r r r u u s s s e 9 S D S c b c j j j j c c j j j j v b x S D S p Q ' ] { | | | | | ]  . . . . . . .",
" . . . . . . .t r r u u s s d d f f 3 e S D D C c x x j c c j j k v C D D S p G ` ` { } | | | | | } 5  . . . . . . .",
" . . . . . . . .t u s s s d d d d n f n e 8 j D D D D D D D D D D D D j i G ) ' ] { } | | | | | { q  . . . . . . . .",
" . . . . . . . . .e s s d d f f n f n n M M n r 8 e y i a j p i t d Z Q ( _ ' ] } | | | | | | [ 6  . . . . . . . . .",
" . . . . . . . . . . .s f f f n n n n n M N N N B B F H L I U R W ~ ^ ) ` ' [ } | | | | | | ^  . . . . . . . . . . .",
" . . . . . . . . . . . .r l f n n n M M N N N F F F H J U Y E Q / ( ( ' ] [ } | | | | | | K  . . . . . . . . . . . .",
" . . . . . . . . . . . . .8 f n n M N N N B B F F H I U Y E Q / ( _ ' ] } } | | | | | ` t  . . . . . . . . . . . . .",
" . . . . . . . . . . . . . . .e l M N N B F F H J I Y E W ~ / ( _ ' ] } | | | | | ' z  . . . . . . . . . . . . . . .",
" . . . . . . . . . . . . . . . . .e f B F F H J I Y E W ~ / ) ` ] [ | | | | | ^ h  . . . . . . . . . . . . . . . . .",
" . . . . . . . . . . . . . . . . . . . .r n L U Y E Q ~ ( _ ' ] } | | | ! A  . . . . . . . . . . . . . . . . . . . .",
" . . . . . . . . . . . . . . . . . . . . . . .8 i l A L T T T P G z t  . . . . . . . . . . . . . . . . . . . . . . ."
};
