/* XPM */
static char *backdrop_off[] = {
/* columns rows colors chars-per-pixel */
"64 64 93 2 ",
"   c #141414",
".  c #171718",
"X  c #1A1A1C",
"o  c #1F1F20",
"O  c #222224",
"+  c #262629",
"@  c #2A2A2D",
"#  c #2E2E32",
"$  c #313236",
"%  c #373936",
"&  c #35353A",
"*  c #3A3A3D",
"=  c #3E413E",
"-  c #3C3D43",
";  c #424344",
":  c #454845",
">  c #44444B",
",  c #4A4B4C",
"<  c #4E524D",
"1  c #474750",
"2  c #4B4B54",
"3  c #4F4F58",
"4  c #4F5153",
"5  c #525355",
"6  c #565B55",
"7  c #585D57",
"8  c #53535C",
"9  c #565958",
"0  c #5C5D5E",
"q  c #5D615E",
"w  c #565661",
"e  c #5B5B64",
"r  c #5E5E6A",
"t  c #636465",
"y  c #656964",
"u  c #62626D",
"i  c #6B6B6C",
"p  c #6D736B",
"a  c #71776E",
"s  c #656572",
"d  c #696976",
"f  c #6D6D7B",
"g  c #6E7070",
"h  c #747475",
"j  c #757C72",
"k  c #787F75",
"l  c #73737D",
"z  c #7B7B7B",
"x  c #7A8076",
"c  c #7D857A",
"v  c #80877C",
"b  c #82897F",
"n  c #747483",
"m  c #7B7B83",
"M  c #777788",
"N  c #7B7B8C",
"B  c #7F7F90",
"V  c #818183",
"C  c #868E82",
"Z  c #86868C",
"A  c #89898A",
"S  c #899186",
"D  c #8E968A",
"F  c #828293",
"G  c #8D8E92",
"H  c #878799",
"J  c #8C8C9C",
"K  c #929292",
"L  c #92929C",
"P  c #9B9B9B",
"I  c #9393A3",
"U  c #9A9AA6",
"Y  c #9D9DAA",
"T  c #A2A2A5",
"R  c #A2A2AD",
"E  c #A6A6B1",
"W  c #AAAAB5",
"Q  c #AEAEB8",
"!  c #B3B3B4",
"~  c #B3B3BC",
"^  c #BBBBBB",
"/  c #B7B7C0",
"(  c #BBBBC3",
")  c #C2C2C5",
"_  c #C4C4CA",
"`  c #CACACE",
"'  c #CDCDD2",
"]  c #D2D2D5",
"[  c #D6D6D9",
"{  c #DBDBDD",
"}  c #DFDFE0",
"|  c #E6E6E6",
" . c None",
/* pixels */
" . . . . . . . . . . . . . . . . . . . . . . . . . . . . . . . . . . . . . . . . . . . . . . . . . . . . . . . . . . . . . . . .",
" . . . . . . . . . . . . . . . . . . . . . . . . . . . . . . . . . . . . . . . . . . . . . . . . . . . . . . . . . . . . . . . .",
" . . . . . . . . . . . . . . . . . . . . . . . . . . . . . . . . . . . . . . . . . . . . . . . . . . . . . . . . . . . . . . . .",
" . . . . . . . . . . . . . . . . . . . . . . . . . .A h q 4 : = ; , 5 0 i V  . . . . . . . . . . . . . . . . . . . . . . . . . .",
" . . . . . . . . . . . . . . . . . . . . . . .p * X         X X X o o O O O + , t  . . . . . . . . . . . . . . . . . . . . . . .",
" . . . . . . . . . . . . . . . . . . . .c =             . X X X o o o O + + + @ @ # , d  . . . . . . . . . . . . . . . . . . . .",
" . . . . . . . . . . . . . . . . . .j +               . X X X X o O O O + @ @ # # # $ $ - i  . . . . . . . . . . . . . . . . . .",
" . . . . . . . . . . . . . . . .P %                 X X X X O O O O + + @ @ @ # # $ $ & & * > d  . . . . . . . . . . . . . . . .",
" . . . . . . . . . . . . . . .i                 . . X o o o O O + + + @ @ # $ # $ $ & & - - - - e  . . . . . . . . . . . . . . .",
" . . . . . . . . . . . . . .%                 . X X X o o O O O + + + # @ # $ $ & & & * - - - - ; 5  . . . . . . . . . . . . . .",
" . . . . . . . . . . . .P O                   X X X X + = 6 y p p y 9 ; $ + $ & & & - - - - > ; ; 1 3 d  . . . . . . . . . . . .",
" . . . . . . . . . . .K X                   X . = x D D D D D S S D D D D D a = # & - - - - > > > 1 1 3 i  . . . . . . . . . . .",
" . . . . . . . . . .P X               X X o < b b D b c x x p c v j j x c C D D S 5 $ - ; > > > 1 1 2 3 8 i  . . . . . . . . . .",
" . . . . . . . . . .o               X   = b D c c c c x x p x x v j j j j v v c S D S , - > 1 > 1 2 2 3 8 8  . . . . . . . . . .",
" . . . . . . . . .*             . X X x D b x x x x b x x x x c v j j j j S x j j x S D j & 1 2 2 3 3 3 8 8 e  . . . . . . . . .",
" . . . . . . . .q               X O b D b c x x x c b x p x x c v j j j j S j j j j j S D C - 2 3 3 3 w 8 w w t  . . . . . . . .",
" . . . . . . .K             . X + S S c b c j j a x c c x x x c b j j j c b j j j j c S c S S ; 3 3 w w w e e r r  . . . . . . .",
" . . . . . . .%           . X o S D x j c S x j x a x b a x x c v j j j S x j j j j S j j x D S - 8 w w w w r r r  . . . . . . .",
" . . . . . .h         . . X X S D x j j j c b x a x x S x a x c v j j j S j j j j C c j j j x S C ; w w e r r r u r  . . . . . .",
" . . . . . .+     . . X X X j D c j j j j j b v x x a b c x a c v j j c b j j j v C j j j j j x D h 3 r r r u u s u  . . . . . .",
" . . . . .h     . . X X o = D S b x j j j j x b x x a x b c v S C c x S x j j x S j j j j j k S S D 4 r r u u s s d r  . . . . .",
" . . . . .*   . X X X X X S S j v S c x j j j c S x x b D D S b S D D D b x j S x j j j j c S c j S S 1 u u s s d d i  . . . . .",
" . . . . .  . X X X o o < D x j x j b b x j j j b S D S S c x c v j c C S D S v j j j j C C j j j x D 0 s s d d d d f  . . . . .",
" . . . .y . X X X o O X S S j j j j x b b x j j b D b x c b x v v j C c j b D S j j x S c j j j j j S S 2 d d d f f f r  . . . .",
" . . . .- X X o o o O % D v j j j j j j x S v b D x b c a S x c v j S j k S x D C b S x j j j j j j c D 2 d d f n f n s  . . . .",
" . . . .o X o o O O O h D b x j j j j j a x S D c x v b x b c c v c b j S x j x D S j j j j j j j j C D j d f f n n n n  . . . .",
" . . .V X o o O O + O D b b b S v c j j x x D b S c x b b c S b b C c b b j x S C S x j j j x b S S c C S w f n n n n M 8  . . .",
" . . .g o O O O + + @ D v j j j v b S v c b b x x b v x S S D D D D C S j b S x j C C x b S C b j j j c D 3 n n n n n M e  . . .",
" . . .q O O O + + @ = D x j j j x j x c b D b c x a b S S D D D D D D S S C j j x S D S c x j j j j j x D 9 n n M N N N r  . . .",
" . . .5 O O + @ @ @ 6 D j j j j j j j j c D b b S b c S D D D D D D D D C x b S C c D x j j j j j j j j D y n M M N N N s  . . .",
" . . .2 + + @ @ # # y D j j j j j j j j v S x j x c b D D D D D D D D D D C c j j j S b j j j j j j j j D p M M N N N F d  . . .",
" . . .: + @ @ # # # a D v v v v c c v c b D v c c c b D D D D D D D D D D b b c v c S S c c c b c c c c S a N N B Z F F n  . . .",
" . . ., @ @ # # $ $ p D c c c c c c c c C S c c c c C D D D D D D D D D D C c c v c S C c v c c v c v c S p N B B F F H M  . . .",
" . . .4 @ # # $ $ & y S j j x j x j j j c D j j j c C D D D D D D D D D D S c j j j D v j j j j j j j j D p B B F F H I M  . . .",
" . . .8 # $ $ $ & & q S j j j j j j j j c D c S S C x C D D D D D D D D S x C S C c D c j j j j j j j j D y F F H J I Y m  . . .",
" . . .e # $ $ & & * : D x j j j j j j c S D C x j j b S D D D D D D D D S b j j x C D C c x j j j j j x D e F H L I Y E l  . . .",
" . . .i $ & & & * * & D c x j j c C S C x C S j j S b j S C D D D D C C j b S j j S b x b S S v x j j c D 0 H I U R E Q d  . . .",
" . . .h & & & - - - $ D S c S S b x j j j x D b S c j b c x C C b S x b b j c S b D x j j j x b S S v C D d I U R W Q ( 0  . . .",
" . . . .& - - - - - - j D c x j j j j j j j S D x j c S j C c b c c C j S x j x D S j j j j j j j j b D j L Y E W ~ ( (  . . . .",
" . . . .2 - - - - > ; ; D x j j j j j j x S c C D x S x j D j c b j S j x S x D C v S x j j j j j j c D t Y E Q ~ ( _ T  . . . .",
" . . . .t - - ; > > > & S S j j j j j c S x j j S D C j x C j b c j C x j b D C j j x S c j j j j j S S M E Q / ) _ ' V  . . . .",
" . . . . .- - > > > 1 1 9 D c j j j C C j j j j c S D S C c j c b j c C S D S v j j j j C C j j j c D y W ~ ( ) ` ] [  . . . . .",
" . . . . .3 1 > 1 1 2 1 - S S j x S c j j j j x S j j C D D D S D S D D C j j S x j j j j c S x j S S m ~ ( _ ` ] { !  . . . . .",
" . . . . .i > 1 1 1 2 3 3 , D S S x j j j j j S x j j x S x c C C b x S x j j x S j j j j j x S S D i ~ ) _ ' [ { } l  . . . . .",
" . . . . . .3 1 1 2 3 3 3 1 j D c j j j j j C c j j j b c j x c c j j c b j j j b C j j j j j c D k R ) _ ] [ { | `  . . . . . .",
" . . . . . .t 2 3 3 3 3 8 w ; C D j j j j c S j j j j S x j j b b j j j S j j j j C c j j j j D C Z _ ` ] [ } | | z  . . . . . .",
" . . . . . . .8 3 3 3 8 w w w > S S x j x S j j j j x S j j j c v j j j S k j j j j S k j k S S h _ ` ] { | | | )  . . . . . . .",
" . . . . . . .i 3 8 w w w w e e > D D x S c j j j j c c j j j b v j j j v b j j j j c S x D S h _ ' [ { | | | | q  . . . . . . .",
" . . . . . . . .r 8 w w e e r r u > A D S j j j j j S j j j j c v j j j j S j j j j j C D S h ` ] [ } | | | | K  . . . . . . . .",
" . . . . . . . . .r w e e r r r u u 2 j D S x j j x S j j j j c v j j j j S k j j c S D c A ` ] { | | | | | )  . . . . . . . . .",
" . . . . . . . . . .r e r r u s s s d e 4 S D S c b c j j j j b v j j j j v b c C D S i W ' [ } | | | | | ]  . . . . . . . . . .",
" . . . . . . . . . .t r r u u s s d d f f 8 q D D D C c x j j c v j j k v C D D S i G ` ] [ } | | | | | { 5  . . . . . . . . . .",
" . . . . . . . . . . .t u u s s d f f f f f l w 9 j D D D D D S D D D D D D j i K _ ` ] { } | | | | | { q  . . . . . . . . . . .",
" . . . . . . . . . . . .e s d d f f f f n n n M M n u 8 0 y p j a p i t d Z Q ( _ ' ] { | | | | | | ] 7  . . . . . . . . . . . .",
" . . . . . . . . . . . . . .s d f f n f n M M N M N B B F F H J I Y R W Q ( ) ` ' [ } | | | | | | (  . . . . . . . . . . . . . .",
" . . . . . . . . . . . . . . .r f f n n n M N N B N B B F H J I Y E Q ~ ( ) ` ] { } | | | | | | K  . . . . . . . . . . . . . . .",
" . . . . . . . . . . . . . . . .8 f M n M M N N B B F F J L I R E Q / ( _ ' ] { | | | | | | ` y  . . . . . . . . . . . . . . . .",
" . . . . . . . . . . . . . . . . . .e l N N N N B F H H I Y R W Q ( ( _ ] [ { | | | | | ' z  . . . . . . . . . . . . . . . . . .",
" . . . . . . . . . . . . . . . . . . . .0 f B F F H J U Y R Q ~ ( _ ` ] [ } | | | | ^ z  . . . . . . . . . . . . . . . . . . . .",
" . . . . . . . . . . . . . . . . . . . . . . .r M J U R E Q ~ ( _ ` ] [ | | | ! A  . . . . . . . . . . . . . . . . . . . . . . .",
" . . . . . . . . . . . . . . . . . . . . . . . . . .9 u l A P Y T T P K z t  . . . . . . . . . . . . . . . . . . . . . . . . . .",
" . . . . . . . . . . . . . . . . . . . . . . . . . . . . . . . . . . . . . . . . . . . . . . . . . . . . . . . . . . . . . . . .",
" . . . . . . . . . . . . . . . . . . . . . . . . . . . . . . . . . . . . . . . . . . . . . . . . . . . . . . . . . . . . . . . .",
" . . . . . . . . . . . . . . . . . . . . . . . . . . . . . . . . . . . . . . . . . . . . . . . . . . . . . . . . . . . . . . . ."
};
