/* XPM */
static char * backdrop_on_xpm[] = {
"58 58 623 2",
"  	c None",
". 	c #888888",
"+ 	c #727272",
"@ 	c #5E5E5E",
"# 	c #4F4F4F",
"$ 	c #474747",
"% 	c #404040",
"& 	c #414141",
"* 	c #49494A",
"= 	c #505052",
"- 	c #5E5E5F",
"; 	c #6E6E6F",
"> 	c #7E7E80",
", 	c #6B6B6B",
"' 	c #3F3F3F",
") 	c #171717",
"! 	c #131313",
"~ 	c #151515",
"{ 	c #161617",
"] 	c #181819",
"^ 	c #1A1A1B",
"/ 	c #1B1B1D",
"( 	c #1D1D1F",
"_ 	c #1F1F20",
": 	c #202022",
"< 	c #222224",
"[ 	c #242426",
"} 	c #27272A",
"| 	c #47474A",
"1 	c #666667",
"2 	c #7D7D7D",
"3 	c #3B3B3B",
"4 	c #141414",
"5 	c #151516",
"6 	c #1C1C1D",
"7 	c #1F1F21",
"8 	c #212123",
"9 	c #222225",
"0 	c #242427",
"a 	c #262629",
"b 	c #27272B",
"c 	c #29292D",
"d 	c #2B2B2E",
"e 	c #2C2C30",
"f 	c #48484B",
"g 	c #6F6F70",
"h 	c #777777",
"i 	c #2A2A2A",
"j 	c #161616",
"k 	c #171718",
"l 	c #19191A",
"m 	c #1B1B1C",
"n 	c #1C1C1E",
"o 	c #1E1E20",
"p 	c #212124",
"q 	c #232325",
"r 	c #252527",
"s 	c #28282B",
"t 	c #2A2A2D",
"u 	c #2B2B2F",
"v 	c #2D2D31",
"w 	c #2E2E33",
"x 	c #303035",
"y 	c #323237",
"z 	c #3F3F45",
"A 	c #6A6A6C",
"B 	c #989898",
"C 	c #373737",
"D 	c #19191B",
"E 	c #1D1D1E",
"F 	c #232326",
"G 	c #252528",
"H 	c #28282C",
"I 	c #2A2A2E",
"J 	c #2D2D32",
"K 	c #2F2F33",
"L 	c #313135",
"M 	c #343439",
"N 	c #36363B",
"O 	c #37373D",
"P 	c #48484D",
"Q 	c #717174",
"R 	c #686868",
"S 	c #29292C",
"T 	c #2E2E32",
"U 	c #2F2F34",
"V 	c #313136",
"W 	c #333338",
"X 	c #34343A",
"Y 	c #36363C",
"Z 	c #38383E",
"` 	c #393940",
" .	c #3B3B41",
"..	c #3D3D43",
"+.	c #59595F",
"@.	c #393939",
"#.	c #1A1A1C",
"$.	c #35353A",
"%.	c #37373C",
"&.	c #3A3A40",
"*.	c #3C3C42",
"=.	c #3D3D44",
"-.	c #3F3F46",
";.	c #404048",
">.	c #515157",
",.	c #9E9E9E",
"'.	c #242424",
").	c #141415",
"!.	c #181818",
"~.	c #191C19",
"{.	c #23331B",
"].	c #325220",
"^.	c #447627",
"/.	c #4F8A2C",
"(.	c #56992E",
"_.	c #56992F",
":.	c #4F8A2D",
"<.	c #447529",
"[.	c #355424",
"}.	c #2B3A23",
"|.	c #262829",
"1.	c #35353B",
"2.	c #39393F",
"3.	c #3A3A41",
"4.	c #3C3C43",
"5.	c #3E3E45",
"6.	c #414148",
"7.	c #43434A",
"8.	c #44444C",
"9.	c #4C4C53",
"0.	c #707072",
"a.	c #959595",
"b.	c #1D1D1D",
"c.	c #181A17",
"d.	c #2D481D",
"e.	c #599F30",
"f.	c #69BD38",
"g.	c #64B436",
"h.	c #60AC33",
"i.	c #5EA832",
"j.	c #5BA531",
"k.	c #63B235",
"l.	c #599D31",
"m.	c #355027",
"n.	c #2C2F2E",
"o.	c #404047",
"p.	c #414149",
"q.	c #43434B",
"r.	c #45454D",
"s.	c #46464F",
"t.	c #484851",
"u.	c #4D4D56",
"v.	c #6B6B6E",
"w.	c #999999",
"x.	c #171C16",
"y.	c #3D6A23",
"z.	c #68BC38",
"A.	c #62B135",
"B.	c #5BA331",
"C.	c #5BA431",
"D.	c #61AF34",
"E.	c #67B937",
"F.	c #436E2B",
"G.	c #2F3332",
"H.	c #42424A",
"I.	c #44444B",
"J.	c #47474F",
"K.	c #494951",
"L.	c #4A4A53",
"M.	c #4C4C55",
"N.	c #505059",
"O.	c #6B6B6F",
"P.	c #171716",
"Q.	c #31531E",
"R.	c #68BB38",
"S.	c #5FAC33",
"T.	c #3C5D2B",
"U.	c #46464E",
"V.	c #474750",
"W.	c #494952",
"X.	c #4B4B54",
"Y.	c #4C4C56",
"Z.	c #4E4E58",
"`.	c #54545D",
" +	c #181C15",
".+	c #579C30",
"++	c #63B335",
"@+	c #5CA233",
"#+	c #353A37",
"$+	c #484850",
"%+	c #4A4A52",
"&+	c #4F4F58",
"*+	c #50505A",
"=+	c #52525C",
"-+	c #54545E",
";+	c #5A5A63",
">+	c #616161",
",+	c #191919",
"'+	c #1D2A16",
")+	c #66B837",
"!+	c #65B636",
"~+	c #66B937",
"{+	c #344230",
"]+	c #4D4D57",
"^+	c #4F4F59",
"/+	c #51515B",
"(+	c #52525D",
"_+	c #565660",
":+	c #575762",
"<+	c #5F5F66",
"[+	c #909090",
"}+	c #223418",
"|+	c #5CA632",
"1+	c #6ABE39",
"2+	c #60AD34",
"3+	c #5CA531",
"4+	c #67BA37",
"5+	c #374931",
"6+	c #53535D",
"7+	c #55555F",
"8+	c #565661",
"9+	c #585863",
"0+	c #595965",
"a+	c #5B5B67",
"b+	c #616166",
"c+	c #1E2C17",
"d+	c #5DA832",
"e+	c #6BC139",
"f+	c #394637",
"g+	c #53535E",
"h+	c #555560",
"i+	c #5A5A65",
"j+	c #5C5C67",
"k+	c #5D5D69",
"l+	c #5E5E68",
"m+	c #737373",
"n+	c #191E16",
"o+	c #67B938",
"p+	c #3F4443",
"q+	c #595964",
"r+	c #5A5A66",
"s+	c #5C5C68",
"t+	c #5E5E6A",
"u+	c #5F5F6C",
"v+	c #61616E",
"w+	c #292929",
"x+	c #589D31",
"y+	c #5A9D34",
"z+	c #5D5D68",
"A+	c #60606C",
"B+	c #62626E",
"C+	c #636370",
"D+	c #64646F",
"E+	c #767676",
"F+	c #33541F",
"G+	c #6BC039",
"H+	c #5EAA33",
"I+	c #5FAB33",
"J+	c #426333",
"K+	c #5F5F6B",
"L+	c #60606D",
"M+	c #62626F",
"N+	c #646471",
"O+	c #656573",
"P+	c #676775",
"Q+	c #5D5D64",
"R+	c #1A1F1A",
"S+	c #5EA932",
"T+	c #6DC43B",
"U+	c #6EC53B",
"V+	c #474A4D",
"W+	c #61616D",
"X+	c #63636F",
"Y+	c #666673",
"Z+	c #686875",
"`+	c #696977",
" @	c #656570",
".@	c #1E1E1F",
"+@	c #3D6A25",
"@@	c #6ABF39",
"#@	c #497532",
"$@	c #656572",
"%@	c #666674",
"&@	c #686876",
"*@	c #6A6A78",
"=@	c #6B6B7A",
"-@	c #6D6D7B",
";@	c #656565",
">@	c #1C1E1C",
",@	c #6EC63B",
"'@	c #66B737",
")@	c #4D5055",
"!@	c #676774",
"~@	c #696976",
"{@	c #6C6C7A",
"]@	c #6D6D7C",
"^@	c #6F6F7E",
"/@	c #5E5E66",
"(@	c #3E3E3F",
"_@	c #2F4B1F",
":@	c #62B035",
"<@	c #46603C",
"[@	c #6B6B79",
"}@	c #6C6C7B",
"|@	c #6E6E7D",
"1@	c #70707F",
"2@	c #717180",
"3@	c #686873",
"4@	c #64B335",
"5@	c #65B536",
"6@	c #6CC33A",
"7@	c #5DA732",
"8@	c #5A9F33",
"9@	c #727281",
"0@	c #737383",
"a@	c #747483",
"b@	c #818181",
"c@	c #1F2120",
"d@	c #61AE34",
"e@	c #53555C",
"f@	c #727282",
"g@	c #747484",
"h@	c #767685",
"i@	c #777787",
"j@	c #53535A",
"k@	c #273720",
"l@	c #495847",
"m@	c #737382",
"n@	c #767686",
"o@	c #787888",
"p@	c #79798A",
"q@	c #595962",
"r@	c #345423",
"s@	c #4B693D",
"t@	c #757585",
"u@	c #7A7A8A",
"v@	c #7C7C8C",
"w@	c #60606B",
"x@	c #515152",
"y@	c #447629",
"z@	c #508036",
"A@	c #797989",
"B@	c #7A7A8B",
"C@	c #7C7C8D",
"D@	c #7E7E8F",
"E@	c #4B4B4E",
"F@	c #2C2C2F",
"G@	c #4F8C2C",
"H@	c #569134",
"I@	c #7B7B8C",
"J@	c #7D7D8D",
"K@	c #808091",
"L@	c #6A6A77",
"M@	c #464648",
"N@	c #57992F",
"O@	c #599B32",
"P@	c #7D7D8E",
"Q@	c #7F7F90",
"R@	c #808092",
"S@	c #828294",
"T@	c #72727F",
"U@	c #303034",
"V@	c #7F7F91",
"W@	c #818192",
"X@	c #888899",
"Y@	c #777783",
"Z@	c #4F4F51",
"`@	c #4F8C2D",
" #	c #569135",
".#	c #818193",
"+#	c #838395",
"@#	c #8A8A9B",
"##	c #9292A1",
"$#	c #797984",
"%#	c #545457",
"&#	c #323238",
"*#	c #46772B",
"=#	c #528239",
"-#	c #858597",
";#	c #8C8C9D",
">#	c #9494A3",
",#	c #9B9BA9",
"'#	c #797983",
")#	c #5E5E60",
"!#	c #395829",
"~#	c #4F6D43",
"{#	c #878799",
"]#	c #8F8F9F",
"^#	c #9696A5",
"/#	c #9D9DAB",
"(#	c #A5A5B1",
"_#	c #75757C",
":#	c #69696B",
"<#	c #333339",
"[#	c #31402A",
"}#	c #536253",
"|#	c #8A8A9A",
"1#	c #9191A0",
"2#	c #9898A6",
"3#	c #A0A0AC",
"4#	c #A7A7B2",
"5#	c #AEAEB8",
"6#	c #757578",
"7#	c #303234",
"8#	c #6B6D75",
"9#	c #9393A2",
"0#	c #9A9AA8",
"a#	c #A2A2AE",
"b#	c #A9A9B4",
"c#	c #B0B0BA",
"d#	c #B8B8C0",
"e#	c #5A5A5D",
"f#	c #3B3B42",
"g#	c #5A9E32",
"h#	c #5B9F35",
"i#	c #90909F",
"j#	c #9D9DAA",
"k#	c #A4A4B0",
"l#	c #ABABB6",
"m#	c #B3B3BC",
"n#	c #BABAC2",
"o#	c #BEBEC5",
"p#	c #4E4E53",
"q#	c #3A552D",
"r#	c #57714D",
"s#	c #9F9FAC",
"t#	c #A6A6B2",
"u#	c #B5B5BE",
"v#	c #BCBCC4",
"w#	c #C4C4CA",
"x#	c #A2A2A6",
"y#	c #626266",
"z#	c #3F3F47",
"A#	c #36393B",
"B#	c #797B82",
"C#	c #A8A8B4",
"D#	c #B7B7C0",
"E#	c #BEBEC6",
"F#	c #C6C6CC",
"G#	c #CDCDD2",
"H#	c #818184",
"I#	c #424249",
"J#	c #46712F",
"K#	c #55803F",
"L#	c #AAAAB4",
"M#	c #B2B2BB",
"N#	c #B9B9C1",
"O#	c #C1C1C8",
"P#	c #C8C8CE",
"Q#	c #CFCFD4",
"R#	c #D7D7DA",
"S#	c #505057",
"T#	c #393D3E",
"U#	c #6DC43A",
"V#	c #7D8182",
"W#	c #B4B4BD",
"X#	c #BBBBC3",
"Y#	c #C3C3C9",
"Z#	c #CACACF",
"`#	c #D1D1D5",
" $	c #D9D9DB",
".$	c #B3B3B4",
"+$	c #68686B",
"@$	c #406130",
"#$	c #5B794C",
"$$	c #B6B6BF",
"%$	c #C5C5CB",
"&$	c #CCCCD1",
"*$	c #D4D4D7",
"=$	c #DBDBDD",
"-$	c #E2E2E3",
";$	c #4D4D55",
">$	c #5B9E34",
",$	c #5EA239",
"'$	c #A3A4AA",
")$	c #C0C0C7",
"!$	c #C7C7CD",
"~$	c #CFCFD3",
"{$	c #D6D6D9",
"]$	c #DDDDDF",
"^$	c #E5E5E5",
"/$	c #CDCDCD",
"($	c #646469",
"_$	c #54545F",
":$	c #66B736",
"<$	c #848987",
"[$	c #C2C2C9",
"}$	c #C9C9CF",
"|$	c #D8D8DB",
"1$	c #DFDFE1",
"2$	c #E7E7E7",
"3$	c #7A7A7A",
"4$	c #55555C",
"5$	c #4E4E57",
"6$	c #3D4A3B",
"7$	c #707C6D",
"8$	c #C4C4CB",
"9$	c #D3D3D7",
"0$	c #DADADD",
"a$	c #C2C2C2",
"b$	c #6A6A6D",
"c$	c #585864",
"d$	c #3E5039",
"e$	c #68BA38",
"f$	c #687960",
"g$	c #C7C7CC",
"h$	c #CECED2",
"i$	c #D5D5D8",
"j$	c #DDDDDE",
"k$	c #E4E4E4",
"l$	c #E6E6E6",
"m$	c #5D5D5D",
"n$	c #5F5F65",
"o$	c #5B5B66",
"p$	c #404D40",
"q$	c #717E6D",
"r$	c #C9C9CE",
"s$	c #D0D0D4",
"t$	c #DFDFE0",
"u$	c #929292",
"v$	c #5B5B64",
"w$	c #4A4F51",
"x$	c #5B9E35",
"y$	c #61A73A",
"z$	c #878D88",
"A$	c #CBCBD0",
"B$	c #D2D2D6",
"C$	c #DADADC",
"D$	c #E1E1E2",
"E$	c #BEBEBE",
"F$	c #5C5C66",
"G$	c #476737",
"H$	c #68BB37",
"I$	c #68BA37",
"J$	c #607F50",
"K$	c #ADAEB2",
"L$	c #D4D4D8",
"M$	c #DCDCDE",
"N$	c #E3E3E4",
"O$	c #D2D2D2",
"P$	c #515459",
"Q$	c #4D7937",
"R$	c #5B8644",
"S$	c #8B8F8E",
"T$	c #DEDEE0",
"U$	c #E5E5E6",
"V$	c #DBDBDB",
"W$	c #535353",
"X$	c #6F6F7D",
"Y$	c #727280",
"Z$	c #585B62",
"`$	c #4B6541",
" %	c #5B9F33",
".%	c #69BC38",
"+%	c #5B9F36",
"@%	c #617B55",
"#%	c #8D8F91",
"$%	c #D2D2D5",
"%%	c #E0E0E1",
"&%	c #5F5F5F",
"*%	c #5B5B61",
"=%	c #646470",
"-%	c #6E6E7C",
";%	c #777788",
">%	c #757584",
",%	c #5E6067",
"'%	c #4F5E4F",
")%	c #506E42",
"!%	c #538338",
"~%	c #558F34",
"{%	c #5A9D33",
"]%	c #579135",
"^%	c #56863D",
"/%	c #59784C",
"(%	c #657462",
"_%	c #85878A",
":%	c #B0B0B9",
"<%	c #565656",
"[%	c #8D8D9D",
"}%	c #A3A3AF",
"|%	c #AAAAB5",
"1%	c #B1B1BB",
"2%	c #BBBBBB",
"3%	c #606069",
"4%	c #787889",
"5%	c #ACACB7",
"6%	c #B3B3BD",
"7%	c #56565D",
"8%	c #7B7B8B",
"9%	c #A0A0AD",
"0%	c #A7A7B3",
"a%	c #AEAEB9",
"b%	c #BDBDC5",
"c%	c #C6C6C6",
"d%	c #71717F",
"e%	c #7E7E90",
"f%	c #828293",
"g%	c #858596",
"h%	c #8C8C9C",
"i%	c #9B9BA8",
"j%	c #B1B1BA",
"k%	c #BFBFC6",
"l%	c #595961",
"m%	c #878798",
"n%	c #8E8E9E",
"o%	c #9595A4",
"p%	c #B8B8B8",
"q%	c #747481",
"r%	c #8F8F9E",
"s%	c #E3E3E3",
"t%	c #B4B4B4",
"u%	c #898989",
"v%	c #54545B",
"w%	c #66666B",
"x%	c #77777D",
"y%	c #86868C",
"z%	c #939398",
"A%	c #9F9FA4",
"B%	c #A3A3A7",
"C%	c #A1A1A3",
"D%	c #9B9B9C",
"E%	c #919192",
"F%	c #7B7B7B",
"                                              . + @ # $ % & * = - ; >                                               ",
"                                        , ' ) ! ! ~ { ] ^ / ( _ : < [ } | 1                                         ",
"                                  2 3 ! ! ! ! 4 5 ) ] ^ 6 ( 7 8 9 0 a b c d e f g                                   ",
"                              h i ! ! ! ! ! 4 j k l m n o : p q r a s t u v w x y z A                               ",
"                          B C ! ! ! ! ! ! ~ { ] D m E o : < F G } H I e J K L y M N O P Q                           ",
"                        R ! ! ! ! ! ! ! ~ ) ] ^ 6 ( 7 8 9 0 a } S d e T U V W X Y Z `  ...+.                        ",
"                      @.! ! ! ! ! ! 4 j k l #.n o 7 8 q 0 a s c u v w x y W $.%.Z &.*.=.-.;.>.                      ",
"                  ,.'.! ! ! ! ! ! ).{ !.l m 6 ~.{.].^./.(._.:.<.[.}.|.x M 1.O 2.3.4.5.-.6.7.8.9.0.                  ",
"                a.b.! ! ! ! ! ! ~ ) ] ^ c.d.e.f.g.h.i.j.k.k.j.i.h.g.f.l.m.n.2. ...5.o.p.q.r.s.t.u.v.                ",
"              w.b.! ! ! ! ! 4 5 k l x.y.z.A.j.B.B.B.B.B.k.k.B.B.B.B.B.C.D.E.F.G.-.;.H.I.r.J.K.L.M.N.O.              ",
"              '.! ! ! ! ! 4 j !.P.Q.R.S.B.B.B.B.B.B.B.B.k.k.B.B.B.B.B.B.B.B.S.R.T.&.8.U.V.W.X.Y.Z.N.`.              ",
"            3 ! ! ! ! ! ~ { ]  +.+++C.B.B.B.B.B.B.B.B.B.k.k.B.B.B.B.B.B.B.B.B.C.++@+#+$+%+X.u.&+*+=+-+;+            ",
"          >+! ! ! ! 4 5 ) ,+'+E.)+!+B.B.B.B.B.B.B.B.B.B.k.k.B.B.B.B.B.B.B.B.B.B.!+)+~+{+M.]+^+/+(+-+_+:+<+          ",
"        [+! ! ! ! 4 j k l }+R.|+C.1+2+B.B.B.B.B.B.B.B.B.k.k.B.B.B.B.B.B.B.B.B.h.1+C.3+4+5+N./+6+7+8+9+0+a+b+        ",
"        C ! ! ! ~ { ] ^ c+4+C.B.B.d+e+|+B.B.B.B.B.B.B.B.k.k.B.B.B.B.B.B.B.B.|+e+d+B.B.C.E.f+g+h+:+9+i+j+k+l+        ",
"      m+! ! ! ~ ) ] ^ n+o+|+B.B.B.B.D.z.B.B.B.B.B.B.B.B.k.k.B.B.B.B.B.B.B.B.z.D.B.B.B.B.3+~+p+:+q+r+s+t+u+v+<+      ",
"      w+! 4 j k l m l x+i.B.B.B.B.B.B.E.++B.B.B.B.B.B.B.k.k.B.B.B.B.B.B.B.++E.B.B.B.B.B.B.i.y+Z.a+z+t+A+B+C+D+      ",
"    E+! ).{ !.l m E F+k.B.B.B.B.B.B.B.j.G+H+B.B.B.C.I+A.z.z.k.S.C.B.B.B.H+G+j.B.B.B.B.B.B.B.k.J+k+K+L+M+N+O+P+Q+    ",
"    @.~ ) ] ^ / ( R+R.C.B.B.B.B.B.B.B.B.S+G+j.d+)+T+U+G+e+e+G+U+T+)+d+j.G+S+B.B.B.B.B.B.B.B.C.4+V+W+X+N+Y+Z+`+ @    ",
"    5 k l #.6 .@7 +@S.B.B.B.B.B.B.B.B.B.B.++@@U+f.D.j.B.k.k.B.j.D.f.U+@@++B.B.B.B.B.B.B.B.B.B.S.#@C+$@%@&@*@=@-@    ",
"  ;@!.l m n o : >@R.B.B.B.B.B.B.B.B.B.B.j.z.,@'@B.B.B.B.k.k.B.B.B.B.'@,@f.j.B.B.B.B.B.B.B.B.B.B.R.)@!@~@*@{@]@^@/@  ",
"  (@^ / ( 7 : < _@:@B.B.B.B.B.B.B.B.B.C.z.e+H+e+d+B.B.B.k.k.B.B.B.d+e+H+e+z.C.B.B.B.B.B.B.B.B.B.:@<@`+[@}@|@1@2@3@  ",
"  E 6 ( 7 8 9 9 e.@@4@d+B.B.B.B.B.B.B.5@6@7@B.h.1+C.B.B.k.k.B.B.C.1+h.B.d+6@5@B.B.B.B.B.B.B.d+4@@@8@P+-@|@1@9@0@a@  ",
"b@n o : p F r c@z.7@++f.@@g.i.B.B.B.i.U+d@B.B.B.!+!+B.3+!+!+3+B.!+!+B.B.B.d@U+d+B.B.B.i.g.@@f.++7@R.e@^@2@f@g@h@i@j@",
"; o : < F G } k@g.B.B.B.|+k.f.G+5@S+)+f.B.B.B.B.C.1+R.U+,@,@U+R.1+C.B.B.B.B.f.)+S+5@G+f.k.|+B.B.B.g.l@2@m@g@n@o@p@q@",
"- 8 9 0 a } S r@h.B.B.B.B.B.B.|+:@f.,@R.I+B.B.B.|+e+,@,@,@,@,@,@e+|+B.B.B.I+R.,@f.:@|+B.B.B.B.B.B.2+s@0@t@i@o@u@v@w@",
"x@q 0 a s c u y@d+B.B.B.B.B.B.B.B.S.U+:@R.e+'@S.4+,@,@,@,@,@,@,@,@4+S.!+e+R.:@U+S.B.B.B.B.B.B.B.B.d+z@t@i@A@B@C@D@Y+",
"E@G } H I F@v G@3+B.B.B.B.B.B.B.B.k.G+B.B.j.D.R.,@,@,@,@,@,@,@,@,@,@R.D.j.B.B.G+k.B.B.B.B.B.B.B.B.3+H@o@p@I@J@D@K@L@",
"M@} S I e T U N@B.B.B.B.B.B.B.B.B.5@z.B.B.B.B.S.,@,@,@,@,@,@,@,@,@,@I+B.B.B.B.f.5@B.B.B.B.B.B.B.B.B.O@u@I@P@Q@R@S@T@",
"| c u v w U@V N@B.B.B.B.B.B.B.B.B.5@z.B.B.B.B.S.,@,@,@,@,@,@,@,@,@,@I+B.B.B.B.f.g.B.B.B.B.B.B.B.B.B.O@C@D@V@W@S@X@Y@",
"Z@u v K x y M `@3+B.B.B.B.B.B.B.B.k.G+B.B.j.D.R.,@,@,@,@,@,@,@,@,@,@R.D.j.B.B.G+k.B.B.B.B.B.B.B.B.3+ #D@K@.#+#@###$#",
"%#T U V &#M N *#d+B.B.B.B.B.B.B.B.S.U+:@R.e+!+S.4+,@,@,@,@,@,@,@,@4+S.!+e+R.:@U+I+B.B.B.B.B.B.B.B.d+=#R@S@-#;#>#,#'#",
")#U@V W $.Y Z !#h.B.B.B.B.B.B.|+:@f.,@R.I+B.B.B.|+e+,@,@,@,@,@,@e+|+B.B.B.I+R.,@f.:@|+B.B.B.B.B.B.2+~#S@{#]#^#/#(#_#",
":#y <#1.O Z &.[#g.B.B.B.|+D.R.e+!+I+)+f.B.B.B.B.C.1+R.U+,@,@U+R.1+C.B.B.B.B.f.'@i.g.G+f.k.7@B.B.B.5@}#|#1#2#3#4#5#O.",
"6#M N O 2. .4.7#R.7@++f.@@g.i.B.B.B.i.U+d@B.B.B.!+!+B.3+!+!+3+B.!+!+B.B.B.d@U+d+B.B.B.i.g.@@f.++7@R.8#9#0#a#b#c#d#e#",
"  Z Z ` f#..5.=.g#@@4@d+B.B.B.B.B.B.B.5@6@7@B.h.1+C.B.B.k.k.B.B.C.1+h.B.d+6@g.B.B.B.B.B.B.B.d+4@@@h#i#j#k#l#m#n#o#  ",
"  p#&.*.=.-.6.H.q#:@B.B.B.B.B.B.B.B.B.C.z.e+H+e+d+B.B.B.k.k.B.B.B.d+e+H+e+z.C.B.B.B.B.B.B.B.B.B.:@r#s#t#5#u#v#w#x#  ",
"  y#4.5.z#6.7.8.A#R.B.B.B.B.B.B.B.B.B.B.j.z.,@'@B.B.B.B.k.k.B.B.B.B.'@,@f.j.B.B.B.B.B.B.B.B.B.B.R.B#C#c#D#E#F#G#H#  ",
"    5.o.I#q.r.s.t.J#S.B.B.B.B.B.B.B.B.B.B.++@@U+f.D.j.B.k.k.B.j.D.f.U+@@++B.B.B.B.B.B.B.B.B.B.S.K#L#M#N#O#P#Q#R#    ",
"    S#H.8.r.J.K.L.T#R.C.B.B.B.B.B.B.B.B.S+G+j.d+'@U#U+e+e+e+e+U+U#'@d+j.G+S+B.B.B.B.B.B.B.B.C.E.V#W#X#Y#Z#`# $.$    ",
"    +$8.U.V.W.X.Y.Z.@$k.B.B.B.B.B.B.B.j.G+H+B.B.B.C.I+A.z.z.A.I+C.B.B.B.H+G+j.B.B.B.B.B.B.B.++#$$$o#%$&$*$=$-$h     ",
"      ;$t.%+X.u.&+*+$+>$i.B.B.B.B.B.B.E.++B.B.B.B.B.B.B.k.k.B.B.B.B.B.B.B.++E.B.B.B.B.B.B.i.,$'$)$!$~${$]$^$/$      ",
"      ($L.M.]+^+/+(+_$p+~+|+B.B.B.B.D.z.B.B.B.B.B.B.B.B.k.k.B.B.B.B.B.B.B.B.z.D.B.B.B.B.3+:$<$[$}$`#|$1$2$2$3$      ",
"        4$5$N./+6+7+8+9+6$E.C.B.B.d+e+|+B.B.B.B.B.B.B.B.k.k.B.B.B.B.B.B.B.B.|+e+d+B.B.j.E.7$8$&$9$0$-$2$2$a$        ",
"        b$*+=+g+h+:+c$i+j+d$e$|+C.1+2+B.B.B.B.B.B.B.B.B.k.k.B.B.B.B.B.B.B.B.B.h.1+C.3+E.f$g$h$i$j$k$2$2$l$m$        ",
"          n$-+_+:+q+o$s+t+u+p$~+)+!+B.B.B.B.B.B.B.B.B.B.k.k.B.B.B.B.B.B.B.B.B.B.!+)+:$q$r$s$R#t$l$2$2$2$u$          ",
"            v$9+0+a+z+t+A+B+C+w$x$++C.B.B.B.B.B.B.B.B.B.k.k.B.B.B.B.B.B.B.B.B.C.++y$z$A$B$C$D$2$2$2$2$E$            ",
"              F$j+k+K+L+M+N+O+P+j+G$H$S.B.B.B.B.B.B.B.B.k.k.B.B.B.B.B.B.B.B.S.I$J$K$G#L$M$N$2$2$2$2$O$              ",
"              y#t+u+W+X+N+Y+Z+`+[@-@P$Q$R.A.j.B.B.B.B.B.k.k.B.B.B.B.B.C.D.e$R$S$P#Q#R#T$U$2$2$2$2$V$W$              ",
"                b+L+C+$@%@&@*@=@-@X$1@Y$Z$`$ %f.g.h.i.3+k.k.3+i.h.g..%+%@%#%Y#Z#$% $%%2$2$2$2$2$V$&%                ",
"                  *%=%!@~@*@{@-%^@2@f@g@n@;%>%,%'%)%!%~%{%{%]%^%/%(%_%:%o#%$&$*$=$-$2$2$2$2$2$O$<%                  ",
"                      =%[@}@|@1@2@m@>%n@o@u@I@P@Q@R@S@-#[%>#,#}%|%1%N#)$!$~${$]$^$2$2$2$2$2$2%                      ",
"                        3%X$1@9@0@t@i@4%B@C@P@Q@W@S@{#]#^#/#(#5%6%X#[$Z#`#|$%%2$2$2$2$2$l$u$                        ",
"                          7%*@g@h@i@A@8%C@D@K@.#+#|#1#2#9%0%a%$$b%8$&$9$0$-$2$2$2$2$2$c%;@                          ",
"                              ;+d%p@I@P@e%R@f%g%h%9#i%a#b#j%d#k%g$h$i$j$k$2$2$2$2$/$3$                              ",
"                                  l%-%Q@W@S@m%n%o%j#k#l#m#n#O#r$s$R#t$l$2$2$2$p%h                                   ",
"                                        z+q%r%2#s#t#5#u#v#w#A$B$C$D$2$s%t%u%                                        ",
"                                              v%w%x%y%z%A%B%C%D%E%F%;@                                              "};
