/* XPM */
static char *backdrop_on[] = {
/* columns rows colors chars-per-pixel */
"58 58 140 2 ",
"   c #141414",
".  c #171C16",
"X  c #181C16",
"o  c #171718",
"O  c #1A1B1B",
"+  c #1E2B16",
"@  c #23341A",
"#  c #1F1F20",
"$  c #1F2120",
"%  c #222224",
"&  c #262629",
"*  c #262829",
"=  c #2A2A2D",
"-  c #273720",
";  c #2B3A23",
":  c #2E2E32",
">  c #2F3332",
",  c #323236",
"<  c #353A37",
"1  c #35353A",
"2  c #36393B",
"3  c #3A3A3D",
"4  c #2E4A1E",
"5  c #32541E",
"6  c #31402A",
"7  c #345224",
"8  c #3A552D",
"9  c #3B5A2A",
"0  c #344230",
"q  c #394637",
"w  c #374931",
"e  c #3D4A3B",
"r  c #3E5039",
"t  c #3D6A24",
"y  c #436E2B",
"u  c #447627",
"i  c #45752B",
"p  c #436433",
"a  c #46603C",
"s  c #4B693D",
"d  c #497532",
"f  c #4D7937",
"g  c #3C3C43",
"h  c #3F4443",
"j  c #424244",
"k  c #404D40",
"l  c #44444B",
"z  c #474A4D",
"x  c #4A4A4D",
"c  c #495847",
"v  c #4F5E4F",
"b  c #474750",
"n  c #4B4B53",
"m  c #4F4F58",
"M  c #4D5055",
"N  c #525255",
"B  c #52535C",
"V  c #5D5D5E",
"C  c #4B6541",
"Z  c #4F6D43",
"A  c #506E42",
"S  c #57714D",
"D  c #5A794C",
"F  c #536253",
"G  c #617D52",
"H  c #565661",
"J  c #5B5B65",
"K  c #5E5E6A",
"L  c #5E6067",
"P  c #636365",
"I  c #62626D",
"U  c #6B6B6D",
"Y  c #657462",
"T  c #687960",
"R  c #717D6D",
"E  c #656572",
"W  c #696975",
"Q  c #6D6D7B",
"!  c #747475",
"~  c #72727E",
"^  c #7B7B7B",
"/  c #4F8B2D",
"(  c #579A2F",
")  c #508036",
"_  c #558F34",
"`  c #54833B",
"'  c #569135",
"]  c #579C30",
"[  c #5A9E33",
"{  c #5BA331",
"}  c #5EAA32",
"|  c #5FA339",
" . c #61AE34",
".. c #61A73A",
"X. c #63B335",
"o. c #66B837",
"O. c #69BD38",
"+. c #6DC43A",
"@. c #5B8644",
"#. c #747483",
"$. c #7A7B82",
"%. c #777788",
"&. c #7B7B8C",
"*. c #7F7F90",
"=. c #7D8182",
"-. c #818183",
";. c #848987",
":. c #86878B",
">. c #878D88",
",. c #898B8A",
"<. c #828293",
"1. c #8D8F91",
"2. c #878799",
"3. c #8C8C9C",
"4. c #929292",
"5. c #92929C",
"6. c #9B9B9B",
"7. c #9393A3",
"8. c #9A9AA6",
"9. c #9D9DAA",
"0. c #A2A2A5",
"q. c #A2A2AD",
"w. c #A6A6B1",
"e. c #AAAAB5",
"r. c #AEAEB8",
"t. c #B3B3B4",
"y. c #B3B3BC",
"u. c #BBBBBB",
"i. c #B7B7C0",
"p. c #BBBBC3",
"a. c #C2C2C5",
"s. c #C4C4CA",
"d. c #CACACE",
"f. c #CDCDD2",
"g. c #D2D2D5",
"h. c #D6D6D9",
"j. c #DBDBDD",
"k. c #DFDFE0",
"l. c #E6E6E6",
"z. c None",
/* pixels */
"z.z.z.z.z.z.z.z.z.z.z.z.z.z.z.z.z.z.z.z.z.z.z.,.! V x x j j x x J W =.z.z.z.z.z.z.z.z.z.z.z.z.z.z.z.z.z.z.z.z.z.z.z.",
"z.z.z.z.z.z.z.z.z.z.z.z.z.z.z.z.z.z.z.z.U 3 o       o o o O # $ $ % $ = z E z.z.z.z.z.z.z.z.z.z.z.z.z.z.z.z.z.z.z.z.",
"z.z.z.z.z.z.z.z.z.z.z.z.z.z.z.z.z.^ 3             o o O O $ # $ $ % & & = = : z ! z.z.z.z.z.z.z.z.z.z.z.z.z.z.z.z.z.",
"z.z.z.z.z.z.z.z.z.z.z.z.z.z.z.^ =             o o o O $ # $ % % & & = = = : : , , g U z.z.z.z.z.z.z.z.z.z.z.z.z.z.z.",
"z.z.z.z.z.z.z.z.z.z.z.z.z.4.>               o o O O O # $ % % & & = = = : : , : , 1 1 z ! z.z.z.z.z.z.z.z.z.z.z.z.z.",
"z.z.z.z.z.z.z.z.z.z.z.z.U                   X O O # $ % % & & & = = : : , , , , 1 3 g g g J z.z.z.z.z.z.z.z.z.z.z.z.",
"z.z.z.z.z.z.z.z.z.z.z.<                 o O O O # # $ % % & & = : : : : , g , g g 1 g g g g B z.z.z.z.z.z.z.z.z.z.z.",
"z.z.z.z.z.z.z.z.z.6.%                 o O O O O @ 7 i / ( ( / i 7 ; * : , , g g g g g g l l l n ! z.z.z.z.z.z.z.z.z.",
"z.z.z.z.z.z.z.z.4.O               o X O X 4 { +.+.+.+.O.+.+.+.+.+.+.+.{ 7 : g g g g g g h b m h n U z.z.z.z.z.z.z.z.",
"z.z.z.z.z.z.z.6.$               o O X t +.+.+.O. . .{ { X.X.{ ..} X.O.+.+.+.t > h g b b b h n n n m W z.z.z.z.z.z.z.",
"z.z.z.z.z.z.z.$             o o o 5 O.+.O.X.X.X.{ { { { X.X.{ { { { X.X. .O.+.+.h h g h b m B m m B B z.z.z.z.z.z.z.",
"z.z.z.z.z.z.3             o o X [ +.O. .{ { } O.{ { { { X.X.{ { { { O.} { {  .O.+.| g b b m h m B B B J z.z.z.z.z.z.",
"z.z.z.z.z.P             o X + O.+.O.{ { { { { O.{ { { { X.X.{ { { { O.{ { { { { O.+.O.0 h H B B B B H H K z.z.z.z.z.",
"z.z.z.z.,.          o o O @ O.+. .O.X.{ { { { X.X.{ { { X.X.{ { { X.X.{ { { {  .+.} +.+.w m B B B H H J K P z.z.z.z.",
"z.z.z.z.<           o O + +.+.} { } O.} { { { } o.{ { { X.X.{ { { O.{ { { { { +.} { } +.+.q B H J H J J K K z.z.z.z.",
"z.z.z.!             O X O.+.} { { {  .O.{ { { { O.{ { { X. .{ { { +.{ { { { O. .{ { { { +.O.h J J J K K K K K z.z.z.",
"z.z.z.=     o o O O O { +.} { { { { { X.X.} { { X.X.{ { X.X.{ { X.X.{ { { X.o.{ { { { {  .+.| B K K K K I E E z.z.z.",
"z.z.!     o o O O O 5 +.O.O.} { { { { { O. .{ {  .o. .X.o.o.X. .O.} { { } O.{ { { { { } O.O.+.9 K I K E E E E J z.z.",
"z.z.1   o o O O O X +.O.} } O. .{ { { { } O.{ } o.+.+.+.+.O.+.+.+.o.} } +.} { { { { X.O. .{ O.O.l I E E E W W E z.z.",
"z.z.  o O O O $ $ y +. .{ { } O.o.{ { { { X.O.+.O.o.X.{ X.X.{ X.O.O.+.O.X.{ { { { o.O.{ { {  .+.d E E E E W Q W z.z.",
"z.P o O O O # # O +.O.} { { { { X.O.} { { o.+.o.{  .o.{ X.X.{ o.} { o.+.O.{ { } O.X.{ { { { { O.+.n W W W Q Q #.K z.",
"z.j O O O $ % % 4 +. .{ { { { { {  .+.X.O.+. .O.} { O.} X.X.} O.{ } +.} O.O.X.O. .{ { { { { { X.+.a W W Q Q #.Q W z.",
"z.O O $ $ % % % [ +.X.} { { { { { { { O.+.} {  .O.{ X. .X.X. .X.{ O. .{ } +.+.{ { { { { { { } X.+.] W Q Q #.#.#.#.z.",
"-.# # $ % % & $ +.O.X.O.O.X.} { { { } +.o.+. .{ o.o. .o.o.o.o. .X.o.{ } +.O.+.} { { { } X.O.O.X.O.+.B #.Q #.#.%.#.B ",
"U $ $ % % & & @ +.X.{ { } X.O.O.X.} o.O.{ } O.o.{ o.+.+.+.+.+.+.O.{ o.O.} { O.o.} X.O.O.X.{ { { X.+.c #.#.#.#.%.%.J ",
"V % % & & & = 7 +.} { { { { { { X.O.+.O. .{ { X.O.+.+.+.+.+.+.+.+.O.X.{ {  .O.+.O.X.{ { { { { { } +.s #.#.#.%.&.&.I ",
"N % & & & = : i +.{ { { { { { { {  .+.X.O.O.X. .o.+.+.+.+.+.+.+.+.O. .X.O.O.X.+. .{ { { { { { { { +.) %.%.%.&.&.*.E ",
"x & & & = = : / +.{ { { { { { { { X.+.{ { { X.O.+.+.+.+.+.+.+.+.+.+.O. .} { { O.X.{ { { { { { { { +.' %.&.*.*.=.<.W ",
"l = = = : : , ( +. .X.X.X. .X. .X.O.+. .X. .X.X.+.+.+.+.+.+.+.+.+.+.O.X.X.X.X.O.O.X. .X.X.X.X.X.| +.[ &.&.*.*.*.<.~ ",
"x = = : : , , ( +.X.X. . .X.X.X.X.o.+.X.X.X.X.X.+.+.+.+.+.+.+.+.+.+.O.X. . .X.+.O.X.X. .X.X.X. .X.+.[ *.*.*.=.*.2.#.",
"x = : : , , 1 / +.{ { { { { { { { X.O.{ } { +.+.+.+.+.+.+.+.+.+.+.+.O. .{ { { O.X.{ { { { { { { { +.` =.*.*.2.3.7.$.",
"N , : , , 1 1 i +.{ { { { { { { {  .+. .+.+.+.+.+.+.+.+.+.+.+.+.+.O.} X.+.O.X.+.} { { { { { { { { +.@.*.*.2.3.7.9.%.",
"V , , , , 1 g 8 +.} { { { { { {  .O.+.O. .{ { o.O.+.+.+.+.+.+.+.+.O.o.{ { } o.+.O. .} { { { ] { } +.Z <.2.3.7.9.w.^ ",
"U , 1 1 1 g g ; +.X.{ { {  .O.+.X. .O.O.{ } O.o.{ O.O.+.+.+.+.O.+.{ o.O.} { +.o.} X.O.O.X.} { { X.+.F 3.7.9.q.w.r.W ",
"! 1 1 3 g g g : +.O.X.O.O.X.} { { { } +.o.O. .{ X.o. .O.o.o.O.} o.o.{ } +.o.+.} { { { } X.O.O.X.O.+.Q 7.8.w.w.y.i.V ",
"z.3 1 g g g g g { +.X.} { { { { { { { O.+.} {  .O.{ o. .X.X. .X.{ O. .{ } +.O.{ { { { { } { } X.+.{ 5.9.w.w.y.i.p.z.",
"z.M g g g g g l 8 +.X.{ { { { { { } +.X.O.+. .O.} { O.}  .X.{ +.{ } +.} +.o.X.O.} { { { { { {  .+.S 9.w.r.y.p.s.0.z.",
"z.P g g g j l l 2 +.O.{ { { { { X.O.} { { O.+.o.{ } O.{ X.X.{ O.} ] o.+.O.{ { } O.X.{ { { { { O.O.$.e.r.i.a.s.f.-.z.",
"z.z.j j l l b b b d +.} { { { O.o.{ { { { X.O.+.O.O.X.{ X.X.{  .O.+.+.O.X.{ { { } X.O.} { { } +.@.e.t.i.s.d.f.h.z.z.",
"z.z.m l b l b b n 2 +.O.{ } +. .{ { { } } O.{ } o.+.+.+.O.+.+.+.+.o.} { +.} { { { {  .O.} } O.+.$.i.p.s.d.f.j.t.z.z.",
"z.z.U l l b b n m m 9 +.+.O.} { { { { { O.} { {  .O. . .O.O. . .O.} { { } +.{ { { { { } O.O.+.D y.a.s.f.h.j.l.! z.z.",
"z.z.z.m n n n m m m b [ +. .{ { { { { O.X.{ { { X. .{ {  .X.{ { X.X.{ { { X.o.{ { { { {  .+...0.a.s.f.h.j.l.f.z.z.z.",
"z.z.z.I n n m m B B H h O.+.} { { {  .O.{ { { { O.} { { X.X.{ { } O.] { { { O. .{ { { } +.O.;.s.d.g.j.k.l.l.^ z.z.z.",
"z.z.z.z.B m m B B H H H e +.O.} { } O.{ { { { } O.{ { { X.X.{ { { O.} { { { { +.} { } O.+.R s.d.g.j.l.l.l.a.z.z.z.z.",
"z.z.z.z.U B B B H H H J K e +.+. .O. .{ { { { X.X.{ { { X.X.{ { {  .X.{ { { [  .O.} +.+.G d.f.h.k.l.l.l.l.P z.z.z.z.",
"z.z.z.z.z.K B H H H K K K K k O.+.O.} { { { { O.} [ { { X. .{ { { } O.{ { { { { O.+.O.! d.g.h.k.l.l.l.l.4.z.z.z.z.z.",
"z.z.z.z.z.z.J H J K K K L L E n [ +.O. .{ { } O.{ { { { X.X.{ { { { O.} ..{  .O.+...:.d.g.k.k.l.l.l.l.a.z.z.z.z.z.z.",
"z.z.z.z.z.z.z.K J K K I E E E W J s +.+.O. .X.X.{ { { { X.X.{ { { } X.X.X.O.+.O.@.r.f.g.k.l.l.l.l.l.g.z.z.z.z.z.z.z.",
"z.z.z.z.z.z.z.P K K I I E E W W Q Q m f O.+.+.O.X.} { } X.X.{ { }  .O.+.+.+.@.1.d.f.h.k.l.l.l.l.l.k.N z.z.z.z.z.z.z.",
"z.z.z.z.z.z.z.z.P I E E E E W Q W #.Q #.J C { +.+.+.+.+.+.+.+.+.+.+.+.| G 1.a.d.g.h.k.l.l.l.l.l.k.V z.z.z.z.z.z.z.z.",
"z.z.z.z.z.z.z.z.z.J E E W W Q Q #.Q #.#.#.%.#.L v Z ) _ [ [ _ ` D Y :.r.p.s.f.g.k.l.l.l.l.l.l.g.N z.z.z.z.z.z.z.z.z.",
"z.z.z.z.z.z.z.z.z.z.z.E Q Q #.Q #.#.#.#.%.&.&.*.*.<.<.2.3.7.9.w.e.t.i.a.d.f.h.k.l.l.l.l.l.l.a.z.z.z.z.z.z.z.z.z.z.z.",
"z.z.z.z.z.z.z.z.z.z.z.z.I #.Q #.#.%.%.%.&.&.*.*.<.<.2.3.7.9.w.r.i.i.s.f.g.h.k.l.l.l.l.l.l.4.z.z.z.z.z.z.z.z.z.z.z.z.",
"z.z.z.z.z.z.z.z.z.z.z.z.z.B W #.#.%.&.%.&.*.=.=.<.2.7.8.w.w.r.i.i.s.f.g.k.k.l.l.l.l.l.d.P z.z.z.z.z.z.z.z.z.z.z.z.z.",
"z.z.z.z.z.z.z.z.z.z.z.z.z.z.z.J #.%.&.*.*.*.2.2.3.7.9.w.w.y.i.a.d.f.g.k.l.l.l.l.l.d.^ z.z.z.z.z.z.z.z.z.z.z.z.z.z.z.",
"z.z.z.z.z.z.z.z.z.z.z.z.z.z.z.z.z.H #.*.*.*.2.7.7.9.w.e.y.i.p.d.g.h.l.l.l.l.l.u.^ z.z.z.z.z.z.z.z.z.z.z.z.z.z.z.z.z.",
"z.z.z.z.z.z.z.z.z.z.z.z.z.z.z.z.z.z.z.z.K #.7.8.9.w.r.y.p.s.f.g.h.k.l.l.t.,.z.z.z.z.z.z.z.z.z.z.z.z.z.z.z.z.z.z.z.z.",
"z.z.z.z.z.z.z.z.z.z.z.z.z.z.z.z.z.z.z.z.z.z.z.B I $.,.5.0.0.0.6.4.^ I z.z.z.z.z.z.z.z.z.z.z.z.z.z.z.z.z.z.z.z.z.z.z."
};
