/* XPM */
static char *backdrop_on[] = {
/* columns rows colors chars-per-pixel */
"64 64 140 2 ",
"   c #141414",
".  c #171C16",
"X  c #181C16",
"o  c #171718",
"O  c #1A1B1B",
"+  c #1E2B16",
"@  c #23341A",
"#  c #1F1F20",
"$  c #1F2120",
"%  c #222224",
"&  c #262629",
"*  c #262829",
"=  c #2A2A2D",
"-  c #273720",
";  c #2B3A23",
":  c #2E2E32",
">  c #2F3332",
",  c #323236",
"<  c #353A37",
"1  c #35353A",
"2  c #36393B",
"3  c #3A3A3D",
"4  c #2E4A1E",
"5  c #32541E",
"6  c #31402A",
"7  c #345224",
"8  c #3A552D",
"9  c #3B5A2A",
"0  c #344230",
"q  c #394637",
"w  c #374931",
"e  c #3D4A3B",
"r  c #3E5039",
"t  c #3D6A24",
"y  c #436E2B",
"u  c #447627",
"i  c #45752B",
"p  c #436433",
"a  c #46603C",
"s  c #4B693D",
"d  c #497532",
"f  c #4D7937",
"g  c #3C3C43",
"h  c #3F4443",
"j  c #424244",
"k  c #404D40",
"l  c #44444B",
"z  c #474A4D",
"x  c #4A4A4D",
"c  c #495847",
"v  c #4F5E4F",
"b  c #474750",
"n  c #4B4B53",
"m  c #4F4F58",
"M  c #4D5055",
"N  c #525255",
"B  c #52535C",
"V  c #5D5D5E",
"C  c #4B6541",
"Z  c #4F6D43",
"A  c #506E42",
"S  c #57714D",
"D  c #5A794C",
"F  c #536253",
"G  c #617D52",
"H  c #565661",
"J  c #5B5B65",
"K  c #5E5E6A",
"L  c #5E6067",
"P  c #636365",
"I  c #62626D",
"U  c #6B6B6D",
"Y  c #657462",
"T  c #687960",
"R  c #717D6D",
"E  c #656572",
"W  c #696975",
"Q  c #6D6D7B",
"!  c #747475",
"~  c #72727E",
"^  c #7B7B7B",
"/  c #4F8B2D",
"(  c #579A2F",
")  c #508036",
"_  c #558F34",
"`  c #54833B",
"'  c #569135",
"]  c #579C30",
"[  c #5A9E33",
"{  c #5BA331",
"}  c #5EAA32",
"|  c #5FA339",
" . c #61AE34",
".. c #61A73A",
"X. c #63B335",
"o. c #66B837",
"O. c #69BD38",
"+. c #6DC43A",
"@. c #5B8644",
"#. c #747483",
"$. c #7A7B82",
"%. c #777788",
"&. c #7B7B8C",
"*. c #7F7F90",
"=. c #7D8182",
"-. c #818183",
";. c #848987",
":. c #86878B",
">. c #878D88",
",. c #898B8A",
"<. c #828293",
"1. c #8D8F91",
"2. c #878799",
"3. c #8C8C9C",
"4. c #929292",
"5. c #92929C",
"6. c #9B9B9B",
"7. c #9393A3",
"8. c #9A9AA6",
"9. c #9D9DAA",
"0. c #A2A2A5",
"q. c #A2A2AD",
"w. c #A6A6B1",
"e. c #AAAAB5",
"r. c #AEAEB8",
"t. c #B3B3B4",
"y. c #B3B3BC",
"u. c #BBBBBB",
"i. c #B7B7C0",
"p. c #BBBBC3",
"a. c #C2C2C5",
"s. c #C4C4CA",
"d. c #CACACE",
"f. c #CDCDD2",
"g. c #D2D2D5",
"h. c #D6D6D9",
"j. c #DBDBDD",
"k. c #DFDFE0",
"l. c #E6E6E6",
"z. c None",
/* pixels */
"z.z.z.z.z.z.z.z.z.z.z.z.z.z.z.z.z.z.z.z.z.z.z.z.z.z.z.z.z.z.z.z.z.z.z.z.z.z.z.z.z.z.z.z.z.z.z.z.z.z.z.z.z.z.z.z.z.z.z.z.z.z.z.z.",
"z.z.z.z.z.z.z.z.z.z.z.z.z.z.z.z.z.z.z.z.z.z.z.z.z.z.z.z.z.z.z.z.z.z.z.z.z.z.z.z.z.z.z.z.z.z.z.z.z.z.z.z.z.z.z.z.z.z.z.z.z.z.z.z.",
"z.z.z.z.z.z.z.z.z.z.z.z.z.z.z.z.z.z.z.z.z.z.z.z.z.z.z.z.z.z.z.z.z.z.z.z.z.z.z.z.z.z.z.z.z.z.z.z.z.z.z.z.z.z.z.z.z.z.z.z.z.z.z.z.",
"z.z.z.z.z.z.z.z.z.z.z.z.z.z.z.z.z.z.z.z.z.z.z.z.z.z.,.! V x x j j x N V U -.z.z.z.z.z.z.z.z.z.z.z.z.z.z.z.z.z.z.z.z.z.z.z.z.z.z.",
"z.z.z.z.z.z.z.z.z.z.z.z.z.z.z.z.z.z.z.z.z.z.z.U g o       o o O O O O % % & & l P z.z.z.z.z.z.z.z.z.z.z.z.z.z.z.z.z.z.z.z.z.z.z.",
"z.z.z.z.z.z.z.z.z.z.z.z.z.z.z.z.z.z.z.z.^ <             o o O O # # % % & & & = : : z U z.z.z.z.z.z.z.z.z.z.z.z.z.z.z.z.z.z.z.z.",
"z.z.z.z.z.z.z.z.z.z.z.z.z.z.z.z.z.z.! =             o o o O O # % % % & & = = = : : , , g U z.z.z.z.z.z.z.z.z.z.z.z.z.z.z.z.z.z.",
"z.z.z.z.z.z.z.z.z.z.z.z.z.z.z.z.6.<                 o O O # $ % % % & & = = = : : , , 1 1 3 b ! z.z.z.z.z.z.z.z.z.z.z.z.z.z.z.z.",
"z.z.z.z.z.z.z.z.z.z.z.z.z.z.z.U                 o o O O O $ $ % & & & = = = , : , , 1 1 g g 1 g H z.z.z.z.z.z.z.z.z.z.z.z.z.z.z.",
"z.z.z.z.z.z.z.z.z.z.z.z.z.z.<               o o O O # $ % % % % & & = = : : , , 1 1 1 3 g g g g l N z.z.z.z.z.z.z.z.z.z.z.z.z.z.",
"z.z.z.z.z.z.z.z.z.z.z.z.6.%                   O O O O @ 5 u / ( ( / i 7 ; = , 1 1 1 g g g g g l l l n ! z.z.z.z.z.z.z.z.z.z.z.z.",
"z.z.z.z.z.z.z.z.z.z.z.4.O                   o o 4 { +.+.+.+.+.+.+.+.+.+.+.+.[ 7 : 1 g g g g l l l l b m U z.z.z.z.z.z.z.z.z.z.z.",
"z.z.z.z.z.z.z.z.z.z.6.X               o o . t +.+.+.O.X.} { { X.X.{ { } X.o.+.+.+.y > h j l l l b b n n B U z.z.z.z.z.z.z.z.z.z.",
"z.z.z.z.z.z.z.z.z.z.%             o o X 5 +.+.O.X.X.X.{ { { {  .X.{ { { { X.X. .O.+.+.9 g l b b b n n B m B z.z.z.z.z.z.z.z.z.z.",
"z.z.z.z.z.z.z.z.z.3             o o X ] +.+. .{ { } O.{ { { { X.X.{ { { { O.} { {  .+.+.[ < b n n m B m B H J z.z.z.z.z.z.z.z.z.",
"z.z.z.z.z.z.z.z.P               o + O.+.O.{ { { { { O.{ { { { X.X.{ { { { O.{ { { { { o.+.O.0 n n m B B B H H P z.z.z.z.z.z.z.z.",
"z.z.z.z.z.z.z.4.            o O @ +.+. .O. .{ { { { X.X.{ { { X.X.{ { { X.X.{ { { { } +.} +.+.w m m H H H J J J K z.z.z.z.z.z.z.",
"z.z.z.z.z.z.z.<           o O + +.+.} { { +.{ { { { } o.{ { { X.X.{ { { O.{ { { { { +.{ { { +.+.q H H H H J J K K z.z.z.z.z.z.z.",
"z.z.z.z.z.z.!         o o O X O.+.{ { { { X.O.{ { { { +.{ { { X.X.{ { { +.{ { { { o.X.{ { { } +.O.h H H J K K K E K z.z.z.z.z.z.",
"z.z.z.z.z.z.&     o o O O O [ +. .{ { { { { o.X.{ { { X.X.{ {  .X.{ { X.X.{ { { X.o.{ { { { { } +.[ m J K K I L E I z.z.z.z.z.z.",
"z.z.z.z.z.!     o o o O O 5 +.O.O.} { { { { { O.} { { } O.} X.o.o.X.} o.} { { } +.{ { { { { } O.O.+.p K K L E E E E K z.z.z.z.z.",
"z.z.z.z.z.2 o o o O O # + O.+.{ } +. .{ { { { } +.{ } X.+.+.+.+.+.+.+.+.X.} { +.} { { { { } +.} { +.+.b I E E E Q E U z.z.z.z.z.",
"z.z.z.z.z.o o o O O # % t +. .{ { { o.o.{ { { { X.+.+.+.o.X.{ X.X.{ X.O.+.+.+.X.{ { { { o.O.{ { { } +.d E E E E Q Q Q z.z.z.z.z.",
"z.z.z.z.P o O O # # # O O.O.{ { { { { X.+.} { { o.+.o.{  .o.{ X.X.{ O.} { X.+.o.{ { } +.X.{ { { { { O.+.n E Q Q Q Q Q K z.z.z.z.",
"z.z.z.z.g O O # # # % 4 +.X.{ { { { { {  .+.X.O.+.} +.{ { +.{ X.X.{ +.{ } +.} +.O.o.O.} { { { { { { X.+.a W Q Q Q Q #.E z.z.z.z.",
"z.z.z.z.# O # # % % % { +.X.} { { { { { { { O.+.} {  .O.{ o. .X.X.} o.{ o.} { } +.O.{ { { { { { { } X.+.[ E Q Q Q #.#.#.z.z.z.z.",
"z.z.z.-.O # # % % & $ +.o.X.O.O.X.} { { { { +.o.+.} { X.X.} +.+.o.O.} X.o.{ } +.o.+.} { { { } X.+.O.X.O.+.B ~ #.#.#.#.%.B z.z.z.",
"z.z.z.U # # % % & = @ +.X.{ { { X.O.+.X. .o.O.{ { +.X.} O.+.+.+.+.+.+.O.{ X.O.} { O.o.} o.O.O.X.{ { { X.+.c ~ #.#.%.%.&.H z.z.z.",
"z.z.z.V % % & & & = 7 +. .{ { { { { { X.O.+.O.} { { o.O.+.+.+.+.+.+.+.+.+.o.{ { } O.+.+.X.{ { { { { { } +.s #.#.%.%.&.&.I z.z.z.",
"z.z.z.N % & & & = = i +.{ { { { { { { {  .+. .o.+.X.} +.+.+.+.+.+.+.+.+.o.} X.+.o.X.+.} { { { { { { { { +.f %.%.&.&.&.&.E z.z.z.",
"z.z.z.x & & & = : : / +.{ { { { { { { { X.+.{ { {  .O.+.+.+.+.+.+.+.+.+.+.o. .{ { { +.X.{ { { { { { { { +._ %.%.&.&.&.<.W z.z.z.",
"z.z.z.x & = = : : : ( +.X.X.X.X. .X.X. .O.+. .X.X.X.X.+.+.+.+.+.+.+.+.+.+.o.X. .X.} +.O.X.} X.X.X.} X.X.+.[ &.&.*.:.<.<.#.z.z.z.",
"z.z.z.l & & = = : > [ +. .X. .X.X.X. .X.O.O.X.X.X.X.o.+.+.+.+.+.+.+.+.+.+.+.+.O.X.X.+.o.X.X.X.X.} X.X.X.+.' &.*.*.=.*.3.%.z.z.z.",
"z.z.z.n = & g & > g _ +.{ { { { { ] } { X.O.{ { { X.O.+.+.+.+.+.+.+.+.+.+.+.X.} { { O.X.{ { { { { { { { +._ =.=.*.3.3.7.%.z.z.z.",
"z.z.z.H g = & g g > t +.{ { { { { { { {  .+.X.o.O.X.X.O.+.+.+.+.+.+.+.+.O.} o.+.O.X.+.} { { { { { { { { +.@.<.=.2.3.7.9.*.z.z.z.",
"z.z.z.H & g g = g g 9 +.} { { { { { } X.O.+.O.} { { +.+.+.+.+.+.+.+.+.+.+.X.{ { } O.+.O.} } { { { { { } +.Z 2.2.7.7.9.w.#.z.z.z.",
"z.z.z.U : g g g , g - O.X.{ { }  .o.O.o. .o.O.{ } O.X.} O.O.+.+.+.+.O.+.{ X.+.{ { +.X.} X.+.O.X.{ { { X.+.F 2.7.8.q.w.r.W z.z.z.",
"z.z.z.! : g : g g g , +.O.X.O.O.X.} { } { } +.o.O.X.{ X.X. .O.o.X.O.} X.X.{ } +.X.+.} { { { } X.O.O.o.O.+.W 7.9.q.w.y.p.H z.z.z.",
"z.z.z.z.g g g g g g h [ +.o.} { { { { { { { O.+. .{  .O.{ X. .X.X. .X.{ +.} { } +.+.{ { { { { { { } o.+.{ 3.9.w.e.y.p.p.z.z.z.z.",
"z.z.z.z.n g g g h h h 8 +.} { { { { { {  .O.o.O.O. .O.} { +.{ X.X.{ +.{ { +.} +.O.X.O.} { { { { { { } +.S q.w.r.i.p.s.0.z.z.z.z.",
"z.z.z.z.I g h g g h b g O.o.{ { { ] { X.O.} { { O.+.o.} } O.{ X.X.{ O.} { X.+.O.{ { } +.X.{ { { { { o.+.$.w.r.p.p.s.f.-.z.z.z.z.",
"z.z.z.z.z.g j l b h b b s +.} { { } o.o.} { { { X.O.+.O.O. .{ X.X.{  .+.+.+.+.X.{ { { { O.O.{ { {  .+.D e.y.p.p.f.f.h.z.z.z.z.z.",
"z.z.z.z.z.m l l n n m h h +.O.| } O.X.{ { { { } O.} } o.+.+.+.O.+.+.+.+.O.{ { +.{ { { { { } +.} { +.+.=.y.p.a.f.g.h.t.z.z.z.z.z.",
"z.z.z.z.z.U l b h b m m m 9 +.O.O.} { { { { { O.} { { } O.} X.O.o.X.{ +.{ { { } +.{ { { { { } O.+.+.D i.p.s.f.h.j.l.! z.z.z.z.z.",
"z.z.z.z.z.z.n b m m m m H h { +.} { { { { { o.X.{ { { X.X.{ {  . .{ { X.X.{ { {  .o.{ { { { { } +.{ 0.a.s.g.h.j.l.f.z.z.z.z.z.z.",
"z.z.z.z.z.z.U n h m m B B H h O.+.} { { { X.O.{ { { { O.{ { { X.X.{ { { +.{ { { { +.} { { { { +.o.;.s.d.g.h.k.l.l.^ z.z.z.z.z.z.",
"z.z.z.z.z.z.z.B m m B B H H H h +.+.} { } O.{ { { { } O.{ { { X.X.{ { { O.} { { { { +.{ { } +.+.R s.f.g.j.l.l.l.a.z.z.z.z.z.z.z.",
"z.z.z.z.z.z.z.U m B B H H H J J 8 +.+. .O. .{ { { { X.X.{ { { X.X.{ { {  .X.{ { { { } +.} +.+.G s.f.h.j.l.l.l.l.V z.z.z.z.z.z.z.",
"z.z.z.z.z.z.z.z.K B H H J J J K I h O.+.O.{ { { { { +.{ { { { X.X.{ { { { +.{ { { { { O.+.O.R d.g.j.k.l.l.l.l.4.z.z.z.z.z.z.z.z.",
"z.z.z.z.z.z.z.z.z.K H J J K K I E E n { +.+.} { { } O.{ { { { X.X.{ { { { o.} { { } +.+...>.d.g.j.k.l.l.l.l.a.z.z.z.z.z.z.z.z.z.",
"z.z.z.z.z.z.z.z.z.z.K J K K I E E E E J p +.+.O.} o.X.{ { { } X.X.{ { { { X.o.X.O.+.+.G t.d.h.k.l.l.l.l.l.g.z.z.z.z.z.z.z.z.z.z.",
"z.z.z.z.z.z.z.z.z.z.P K K I I E E E W W Q B f +.+.+.o.X.} { { X.X.{ { } X.o.+.+.+.@.,.d.g.h.k.l.l.l.l.l.k.N z.z.z.z.z.z.z.z.z.z.",
"z.z.z.z.z.z.z.z.z.z.z.I I E E E W Q W Q Q ~ ~ J C { +.+.+.+.+.+.+.+.+.+.+.+.| G ,.s.f.g.k.k.l.l.l.l.l.j.F z.z.z.z.z.z.z.z.z.z.z.",
"z.z.z.z.z.z.z.z.z.z.z.z.H E E E Q Q Q #.#.#.#.%.%.#.L H Z @.@.@.[ _ @.D Y :.r.p.s.f.g.j.l.l.l.l.l.l.g.V z.z.z.z.z.z.z.z.z.z.z.z.",
"z.z.z.z.z.z.z.z.z.z.z.z.z.z.E Q Q Q ~ #.#.#.%.%.&.&.*.*.=.=.3.3.7.9.q.e.y.i.a.d.f.h.j.l.l.l.l.l.l.u.z.z.z.z.z.z.z.z.z.z.z.z.z.z.",
"z.z.z.z.z.z.z.z.z.z.z.z.z.z.z.K Q Q #.#.#.#.%.&.*.&.=.=.=.3.7.9.9.w.e.y.i.s.d.g.h.l.l.l.l.l.l.l.5.z.z.z.z.z.z.z.z.z.z.z.z.z.z.z.",
"z.z.z.z.z.z.z.z.z.z.z.z.z.z.z.z.B Q #.%.%.%.&.&.*.<.<.<.2.7.8.q.w.y.i.p.s.f.g.j.l.l.l.l.l.l.s.P z.z.z.z.z.z.z.z.z.z.z.z.z.z.z.z.",
"z.z.z.z.z.z.z.z.z.z.z.z.z.z.z.z.z.z.H ~ %.&.&.&.*.<.<.3.7.8.q.e.r.i.p.s.g.h.j.l.l.l.l.l.f.^ z.z.z.z.z.z.z.z.z.z.z.z.z.z.z.z.z.z.",
"z.z.z.z.z.z.z.z.z.z.z.z.z.z.z.z.z.z.z.z.J ~ *.<.<.2.3.8.9.w.r.y.p.s.s.g.h.k.l.l.l.l.u.^ z.z.z.z.z.z.z.z.z.z.z.z.z.z.z.z.z.z.z.z.",
"z.z.z.z.z.z.z.z.z.z.z.z.z.z.z.z.z.z.z.z.z.z.z.K #.3.8.9.w.r.y.p.s.f.g.j.k.l.l.t.,.z.z.z.z.z.z.z.z.z.z.z.z.z.z.z.z.z.z.z.z.z.z.z.",
"z.z.z.z.z.z.z.z.z.z.z.z.z.z.z.z.z.z.z.z.z.z.z.z.z.z.B U ^ :.5.9.0.0.6.4.^ P z.z.z.z.z.z.z.z.z.z.z.z.z.z.z.z.z.z.z.z.z.z.z.z.z.z.",
"z.z.z.z.z.z.z.z.z.z.z.z.z.z.z.z.z.z.z.z.z.z.z.z.z.z.z.z.z.z.z.z.z.z.z.z.z.z.z.z.z.z.z.z.z.z.z.z.z.z.z.z.z.z.z.z.z.z.z.z.z.z.z.z.",
"z.z.z.z.z.z.z.z.z.z.z.z.z.z.z.z.z.z.z.z.z.z.z.z.z.z.z.z.z.z.z.z.z.z.z.z.z.z.z.z.z.z.z.z.z.z.z.z.z.z.z.z.z.z.z.z.z.z.z.z.z.z.z.z.",
"z.z.z.z.z.z.z.z.z.z.z.z.z.z.z.z.z.z.z.z.z.z.z.z.z.z.z.z.z.z.z.z.z.z.z.z.z.z.z.z.z.z.z.z.z.z.z.z.z.z.z.z.z.z.z.z.z.z.z.z.z.z.z.z."
};
