/* XPM */
static char * backdrop_on_xpm[] = {
"58 58 315 2",
"  	c None",
". 	c #EAEAEA",
"+ 	c #E7E7E7",
"@ 	c #E3E3E3",
"# 	c #E0E0E0",
"$ 	c #DDDDDD",
"% 	c #DADADA",
"& 	c #D8D8D8",
"* 	c #D5D5D5",
"= 	c #F6F6F6",
"- 	c #F3F3F3",
"; 	c #F0F0F0",
"> 	c #DFDFDF",
", 	c #B6B6B6",
"' 	c #969696",
") 	c #7A7A7A",
"! 	c #717171",
"~ 	c #707070",
"{ 	c #6F6F6F",
"] 	c #787878",
"^ 	c #8E8E8E",
"/ 	c #A6A6A6",
"( 	c #C1C1C1",
"_ 	c #C8C8C8",
": 	c #C5C5C5",
"< 	c #F8F8F8",
"[ 	c #EDEDED",
"} 	c #B8B8B8",
"| 	c #6E6E6E",
"1 	c #323232",
"2 	c #121212",
"3 	c #0F0F0F",
"4 	c #101010",
"5 	c #131313",
"6 	c #151515",
"7 	c #171717",
"8 	c #1A1A1A",
"9 	c #1C1C1C",
"0 	c #1E1E1E",
"a 	c #202020",
"b 	c #232323",
"c 	c #292929",
"d 	c #434343",
"e 	c #6C6C6C",
"f 	c #9A9A9A",
"g 	c #FBFBFB",
"h 	c #DCDCDC",
"i 	c #767676",
"j 	c #242424",
"k 	c #080808",
"l 	c #0A0A0A",
"m 	c #0C0C0C",
"n 	c #0E0E0E",
"o 	c #111111",
"p 	c #181818",
"q 	c #212121",
"r 	c #252525",
"s 	c #272727",
"t 	c #2A2A2A",
"u 	c #2C2C2C",
"v 	c #2E2E2E",
"w 	c #424242",
"x 	c #A4A4A4",
"y 	c #AFAFAF",
"z 	c #FDFDFD",
"A 	c #666666",
"B 	c #0D0D0D",
"C 	c #060606",
"D 	c #161616",
"E 	c #1F1F1F",
"F 	c #282828",
"G 	c #313131",
"H 	c #333333",
"I 	c #353535",
"J 	c #3C3C3C",
"K 	c #686868",
"L 	c #9B9B9B",
"M 	c #A5A5A5",
"N 	c #FEFEFE",
"O 	c #F4F4F4",
"P 	c #838383",
"Q 	c #040404",
"R 	c #1D1D1D",
"S 	c #262626",
"T 	c #2F2F2F",
"U 	c #363636",
"V 	c #383838",
"W 	c #3A3A3A",
"X 	c #444444",
"Y 	c #737373",
"Z 	c #9C9C9C",
"` 	c #D1D1D1",
" .	c #020202",
"..	c #0B0B0B",
"+.	c #141414",
"@.	c #1B1C1B",
"#.	c #1F221E",
"$.	c #222520",
"%.	c #242822",
"&.	c #262A24",
"*.	c #282B27",
"=.	c #2A2D29",
"-.	c #2B2C2B",
";.	c #2D2D2D",
">.	c #343434",
",.	c #3D3D3D",
"'.	c #3F3F3F",
").	c #414141",
"!.	c #575757",
"~.	c #8A8A8A",
"{.	c #959595",
"].	c #A2A2A2",
"^.	c #090909",
"/.	c #244213 s Black2",
"(.	c #498427 s Black1",
"_.	c #6EC63B s Back0",
":.	c #3B3B3B",
"<.	c #464646",
"[.	c #484848",
"}.	c #4F4F4F",
"|.	c #797979",
"1.	c #8F8F8F",
"2.	c #050505",
"3.	c #070707",
"4.	c #171B14",
"5.	c #3F443D",
"6.	c #4B4B4B",
"7.	c #4D4D4D",
"8.	c #505050",
"9.	c #888888",
"0.	c #7C7C7C",
"a.	c #141712",
"b.	c #6CB839 s Back2",
"c.	c #6DBF3A s Back1",
"d.	c #464944",
"e.	c #494949",
"f.	c #525252",
"g.	c #545454",
"h.	c #6D6D6D",
"i.	c #828282",
"j.	c #898989",
"k.	c #030303",
"l.	c #6BB138 s Back3",
"m.	c #595959",
"n.	c #7B7B7B",
"o.	c #A1A1A1",
"p.	c #0F100E",
"q.	c #4F504E",
"r.	c #555555",
"s.	c #5B5B5B",
"t.	c #5E5E5E",
"u.	c #757575",
"v.	c #D0D0D0",
"w.	c #131711",
"x.	c #535751",
"y.	c #5C5C5C",
"z.	c #606060",
"A.	c #646464",
"B.	c #F2F2F2",
"C.	c #141812",
"D.	c #585C56",
"E.	c #636363",
"F.	c #656565",
"G.	c #6B6B6B",
"H.	c #10110F",
"I.	c #5D5E5C",
"J.	c #616161",
"K.	c #676767",
"L.	c #6A6A6A",
"M.	c #D9D9D9",
"N.	c #161914",
"O.	c #676A65",
"P.	c #747474",
"Q.	c #727272",
"R.	c #E8E8E8",
"S.	c #191E17",
"T.	c #71756F",
"U.	c #777777",
"V.	c #B5B5B5",
"W.	c #7D7D7D",
"X.	c #808080",
"Y.	c #7E7E7E",
"Z.	c #818181",
"`.	c #858585",
" +	c #26321F",
".+	c #868686",
"++	c #8B8B8B",
"@+	c #8C8C8C",
"#+	c #919191",
"$+	c #949494",
"%+	c #B3B3B3",
"&+	c #1B1B1B",
"*+	c #878787",
"=+	c #979797",
"-+	c #E2E2E2",
";+	c #191919",
">+	c #202120",
",+	c #8C8D8C",
"'+	c #929292",
")+	c #9D9D9D",
"!+	c #242723",
"~+	c #929490",
"{+	c #989898",
"]+	c #A8A8A8",
"^+	c #DBDBDB",
"/+	c #222222",
"(+	c #272A25",
"_+	c #979A96",
":+	c #9E9E9E",
"<+	c #A3A3A3",
"[+	c #AEAEAE",
"}+	c #2A2D28",
"|+	c #9DA09B",
"1+	c #A9A9A9",
"2+	c #2B2B2B",
"3+	c #2C302A",
"4+	c #A2A6A0",
"5+	c #AAAAAA",
"6+	c #B4B4B4",
"7+	c #B9B9B9",
"8+	c #2E312C",
"9+	c #A8ABA6",
"0+	c #BABABA",
"a+	c #BFBFBF",
"b+	c #CECECE",
"c+	c #30332F",
"d+	c #AEB0AC",
"e+	c #C0C0C0",
"f+	c #CACACA",
"g+	c #323331",
"h+	c #B5B6B4",
"i+	c #BBBBBB",
"j+	c #C6C6C6",
"k+	c #CBCBCB",
"l+	c #BCBCBC",
"m+	c #474747",
"n+	c #C7C7C7",
"o+	c #CCCCCC",
"p+	c #BEBEBE",
"q+	c #393939",
"r+	c #B5C1AE",
"s+	c #CDCDCD",
"t+	c #D2D2D2",
"u+	c #D7D7D7",
"v+	c #373737",
"w+	c #3E3E3E",
"x+	c #404040",
"y+	c #D3D3D3",
"z+	c #ADADAD",
"A+	c #474B44",
"B+	c #C8CCC6",
"C+	c #D4D4D4",
"D+	c #DEDEDE",
"E+	c #454545",
"F+	c #E4E4E4",
"G+	c #E9E9E9",
"H+	c #848484",
"I+	c #4A4A4A",
"J+	c #4B4E49",
"K+	c #C9CCC7",
"L+	c #E5E5E5",
"M+	c #E6E6E6",
"N+	c #696969",
"O+	c #4C4C4C",
"P+	c #939393",
"Q+	c #515151",
"R+	c #535353",
"S+	c #EBEBEB",
"T+	c #999999",
"U+	c #565656",
"V+	c #575856",
"W+	c #D6D7D5",
"X+	c #E1E1E1",
"Y+	c #ECECEC",
"Z+	c #F1F1F1",
"`+	c #5D5D5D",
" @	c #5B5F59",
".@	c #CED2CC",
"+@	c #60635E",
"@@	c #CFD3CD",
"#@	c #F7F7F7",
"$@	c #5A5A5A",
"%@	c #626262",
"&@	c #656664",
"*@	c #D8D9D7",
"=@	c #F9F9F9",
"-@	c #010101",
";@	c #5C7250",
">@	c #EEEEEE",
",@	c #727570",
"'@	c #CCD0CB",
")@	c #787C76",
"!@	c #EFEFEF",
"~@	c #FAFAFA",
"{@	c #BDC9B6",
"]@	c #F5F5F5",
"^@	c #000000",
"/@	c #7F7F7F",
"(@	c #8D8D8D",
"_@	c #9C9D9B",
":@	c #A0A39F",
"<@	c #A5A8A3",
"[@	c #AAADA8",
"}@	c #AFB2AD",
"|@	c #B4B7B2",
"1@	c #BABCB8",
"2@	c #C0C1C0",
"3@	c #D6D6D6",
"4@	c #A7A7A7",
"5@	c #B2B2B2",
"6@	c #B7B7B7",
"7@	c #C2C2C2",
"8@	c #BDBDBD",
"9@	c #C3C3C3",
"0@	c #C9C9C9",
"                                                  . + @ # $ % & *                                                   ",
"                                        = - ; > , ' ) ! ~ { ~ ] ^ / ( _ : (                                         ",
"                                    < [ } | 1 2 3 4 5 6 7 8 9 0 a b c d e f , }                                     ",
"                                g h i j k l m n o 5 6 p 8 9 0 q b r s t u v w ~ x y                                 ",
"                            z $ A B C k l m 3 o 5 D p 8 9 E q b r F t u v G H I J K L M                             ",
"                        N O P 3 Q C k l B 3 o 5 D p 8 R E q b S F t u T G H U V W J X Y L Z                         ",
"                      N ` I  .Q C k ..B 3 o +.D p @.#.$.%.&.*.=.-.;.T G >.U V W ,.'.).d !.~.{.                      ",
"                    N ].4  .Q C ^...B 3 2 +././.(.(._._._._._._._.(././.U V :.,.'.).X <.[.}.|.1.                    ",
"                  N ~.2. .Q 3.^...B 4 4./.(._._._._._._._._._._._._._._.(./.5.'.w X <.[.6.7.8.! 9.                  ",
"                N 0. . .2.3.^...n a./.b._._._._._.c.b.b.b._.b.b.c.c.c.c.c.c.(./.d.<.e.6.7.8.f.g.h.i.                ",
"              N j. .k.2.3.^.m n /.(._._._.c.b.l.l.l.l.l.b._.l.l.l.l.l.b.c.c.c.c.(./.6.7.8.f.g.!.m.| n.              ",
"            N o.2.k.2.3.l m p./.l._._.c.l.l.l.l.l.l.l.l.b._.l.l.l.l.l.l.l.l.c.c.c.c.(.q.f.r.!.m.s.t.{ u.            ",
"          z v.4 k.2.k l m w./._._._.b.l.l.l.l.l.l.l.l.l.b._.l.l.l.l.l.l.l.l.l.l.c.c._.(.x.!.m.y.t.z.A.~ |           ",
"          B.I k.C k l m C.(._._.c.c.b.l.l.l.l.l.l.l.l.l.b._.l.l.l.l.l.l.l.l.l.b.b.b._._.(.D.y.t.z.E.F.K G.          ",
"        g i.Q C k ..B H./._._.b.l.l.c.l.l.l.l.l.l.l.l.l.b._.l.l.l.l.l.l.l.l.l.c.l.l.b._._.(.I.J.E.F.K.L.L.A.        ",
"        % o C ^...B 3 /._._.b.l.l.l.b.c.l.l.l.l.l.l.l.l.b._.l.l.l.l.l.l.l.l.c.b.l.l.l.b._._.(.E.F.K L.e | A.        ",
"      < A C ^...B 4 /.c._.c.l.l.l.l.l.c.b.l.l.l.l.l.l.l.b._.l.l.l.l.l.l.l.b.b.l.l.l.l.l.c._.c.(.K L.h.{ ! L.s.      ",
"      M.4 ^...B 4 N.l._.c.l.l.l.l.l.l.l.c.b.l.l.l.l.l.l.b._.l.l.l.l.l.l.l.c.l.l.l.l.l.l.l.c._.c.O.h.{ ! P.u.y.      ",
"    O u.^.m n 4 2 /._._.b.l.l.l.l.l.l.l.b.c.l.l.b.c._._._._.c.c.c.b.l.l.c.b.l.l.l.l.l.l.l.b._._.(.{ Q.P.i ] K 8.    ",
"    R.s m n 4 5 S.b._.c.l.l.l.l.l.l.l.l.l.c.c.c._._._.b.c._.b.c._._._._.c.l.l.l.l.l.l.l.l.l.c._.b.T.P.i |.n.U.8.    ",
"  ; V.m n o 5 6 /._._.l.l.l.l.l.l.l.l.l.l.b._._.c.l.l.l.b._.l.l.l.b.c._.c.l.l.l.l.l.l.l.l.l.l._._.l.U.|.n.W.X.m.<.  ",
"  [ { n o 5 6 p b._.c.l.l.l.l.l.l.l.l.l.b._._.c.b.l.l.l.b._.l.l.l.l.c.c._.c.l.l.l.l.l.l.l.l.l.c._.c.|.n.Y.Z.`.e X   ",
"  . I o 5 D p  +_._.b.l.l.l.l.l.l.l.l.l._._.l.b.c.l.l.l.b._.l.l.l.c.b.l.b._.c.l.l.l.l.l.l.l.l.b._._.l.Y.Z..+++P ).  ",
"  % 7 +.D p 8 /._._.c.b.l.l.l.l.l.l.l.c._.b.l.l.c.b.l.l.b._.l.l.b.c.l.l.l.c._.b.l.l.l.l.l.b.c.c._._.l.Z..+@+#+$+X   ",
"  %++.D p &+R (._.c.b._.c.c.b.l.l.l.b._.c.l.l.l.l.c.b.l.b._.l.b.c.l.l.l.l.l._.c.l.l.b.c.c.c.b.l._._.c.*+@+#+=+Z f.  ",
"-+$+D ;+&+R >+(._.c.l.l.l.b.c._._.b.c._.l.l.l.l.l.l.c.l.b._.l.c.l.l.l.l.l.l.c._.c._.c.b.l.l.l.l.c._._.,+'+=+)+].z.1 ",
"> |.;+&+R a !+l._.b.l.l.l.l.l.l.b.c._._.c.l.l.l.l.l.b.c._._._.c.l.l.l.l.b.c.b._.c.l.l.l.l.l.l.l.b._._.~+{+)+].]+~ T ",
"^+! &+0 a /+(+_._.b.l.l.l.l.l.l.l.l._.c.b._.c.c.b.l._._._._._._.b.b.c._.c.b.l._.c.l.l.l.l.l.l.l.b._._._+:+<+]+[+i ;.",
"& ~ 0 a b r }+_._.b.l.l.l.l.l.l.l.b._.b.l.l.l.b.c._._._._._._._._.c.b.l.l.l.l.c.c.l.l.l.l.l.l.l.b._._.|+x 1+[+%+|.2+",
"* ~ q b r s 3+_._.b.l.l.l.l.l.l.l.b._.b.l.l.l.l.l.b._._._._._._._.l.l.l.l.l.l.c.c.l.l.l.l.l.l.l.b._._.4+5+y 6+7+n.s ",
"` ~ b r F t 8+_._.b.l.l.l.l.l.l.l.b._.b.l.l.l.l.b._._._._._._._._.c.b.l.l.l.l.c.c.l.l.l.l.l.l.l.b._._.9+y 6+0+a+0.b ",
"b+] S F t u c+_._.b.l.l.l.l.l.l.l.l._.c.l.b.c.c.c.b.c._._._._._.b.b.c.c.c.b.b._.c.l.l.l.l.l.l.l.b._._.d+V.0+e+: i R ",
"f+@+F t ;.T g+_._.c.l.l.l.l.l.l.l.l.c._._.c.b.l.l.l.c.c._._._._.l.l.l.l.b.c.c._.c.b.l.l.l.l.l.l.c._._.h+i+e+j+k+J.8 ",
"  o.2+;.T G >.(._._.l.l.l.l.l.b.c.c.c._.b.l.l.l.l._.b.l.b._.l.b.c.l.l.l.l.l._._.b.c.c.c.b.l.l.l._._.l.l+( j+k+v.m+  ",
"  7+G T 1 >.U /._._.l.l.b._._.c.b.l.l._.c.l.l.l.b.c.l.l.b._.l.l.c.b.l.l.l.b._.c.l.l.l.b.c.c._.b._._.c.( n+o+` ` r   ",
"  p+[.1 >.U q+/._._._.c.c.b.l.l.l.l.l.b._.c.l.b.c.l.l.l.b._.l.l.l.c.b.l.l.c._.l.l.l.l.l.l.l.b._._._.r+n+s+t+u+7+6   ",
"  0+h.>.v+q+:.w+(._.c.l.l.l.l.l.l.l.l.l.c._.b.c.b.l.l.l.b._.l.l.l.b.c.b.c._.b.l.l.l.l.l.l.l.l.c._.l._ s+t+& $ *+o   ",
"  , {.v+q+:.w+x+/._._.l.l.l.l.l.l.l.l.l.l.c._.c.l.l.l.l.b._.l.l.l.l.c._._.b.l.l.l.l.l.l.l.l.l._._.c.b+y+& $ @ m+n   ",
"    z+[.J w+x+d A+b._.c.l.l.l.l.l.l.l.l.l.l._._.b.b.l.l.l._.l.l.b._._._.c.l.l.l.l.l.l.l.l.l.c._._.B+C+M.D+@ s+7     ",
"    z+~ w+).d E+m+(._._.b.l.l.l.l.l.l.l.l._.l.l._._._._._._.c._._._.c.b.c.l.l.l.l.l.l.l.l.b._._._.C+M.> F+G+H+..    ",
"      L E+d E+[.I+J+b._.c.l.l.l.l.l.l.l.c.b.l.l.l.l.c.c.c._.c.c.b.l.l.l.b._.l.l.l.l.l.l.l.c._._.K+% > L+. M+S       ",
"      <+N+<.[.I+O+}.(.c._.c.l.l.l.l.l.l.c.l.l.l.l.l.l.l.l._.l.l.l.l.l.l.l.c.b.l.l.l.l.l.c._.c._.% # L+. ; {.k       ",
"        P+O+I+7.}.Q+R+(._._.b.l.l.l.l._.b.l.l.l.l.l.l.l.l._.l.l.l.l.l.l.l.l.c.b.l.l.l.b._._._.^+# M+S+; R.r         ",
"        T+Q.7.}.f.g.U+V+(._._.b.l.l._.b.l.l.l.l.l.l.l.l.l._.l.l.l.l.l.l.l.l.b.c.l.l.b._._._.W+X+M+Y+Z+= n.2.        ",
"          #+`+f.g.U+m.s. @(._._.c._.c.l.l.l.l.l.l.l.l.l.l._.l.l.l.l.l.l.l.l.l.b.c.c._._._..@-++ Y+Z+= _ n           ",
"          1.P !.!.m.s.`+z.+@(._._._.l.l.l.l.l.l.l.l.l.l.l._.l.l.l.l.l.l.l.l.l.b._._._._.@@-++ [ B.#@[ T  .          ",
"            j.u.$@s.t.z.%@A.&@(.c._._.c.b.l.l.l.l.l.l.l.l._.l.l.l.l.l.l.l.l.c._._.c._.*@@ R.[ B.< =@t.-@            ",
"              P ~ t.z.%@F.K.N+e ;@c._._._.c.b.l.l.l.l.l.l._.l.l.l.l.l.b.c._._._._._.D+@ G+>@- < z i -@              ",
"                W.h.E.F.K.L.e | ~ ,@l.c._._._._.c.b.l.l.l._.b.b.c._._._._._._._.'@> F+G+>@O =@z P -@                ",
"                  i h.K L.e | ! Y u.U.)@l._._._._._._._._._._._._._._._._._..@% > L+. !@O ~@~@u.-@                  ",
"                    ~ e e | ! Y u.] ) 0.Y.i.i.l.c._._._._._._._._._._.{@v.* ^+# L+. ; ]@~@!@`+^@                    ",
"                      N+K | Y i ] ) 0./@i.*+(@'+=+_@:@<@[@}@|@1@2@j+o+` 3@^+X+M+S+; ]@~@f+v ^@                      ",
"                        J.J.N+i ) W./@P 9.(@'+{+)+].4@z+5@6@l+7@n+o+` u+h X+M+Y+Z+= >@0.m ^@                        ",
"                            m.s.e W.P j.^ P+{+:+<+]+z+%+} 8@7@_ s+t+u+h -++ Y+Z+[ =+b  .                            ",
"                                }.g.G.`.$+T+:+<+1+[+%+} p+9@_ s+y+& $ -+R.[ C+*+b Q                                 ",
"                                    E+m+!.Y #+/ [+6+7+p+9@0@b+y+& $ $ 7@++<.5 3.                                    ",
"                                        :.q+U J 8.%@u.0./@X.X.) %@<.a 3 m ^.                                        ",
"                                                  F r j b E &+D 5                                                   "};
