/* XPM */
static char *parts_swap[] = {
/* columns rows colors chars-per-pixel */
"111 44 142 2 ",
"   c black",
".  c gray1",
"X  c #020401",
"o  c #060605",
"O  c #070707",
"+  c #040802",
"@  c #060A03",
"#  c #070807",
"$  c #070D04",
"%  c #090A09",
"&  c #0F0F0E",
"*  c #0B1406",
"=  c #0C1506",
"-  c #0C1607",
";  c #0E1907",
":  c #101110",
">  c #121311",
",  c #191A18",
"<  c #191B19",
"1  c #1B1C1A",
"2  c #1C1E1C",
"3  c #1D1F1D",
"4  c #13230A",
"5  c #14230B",
"6  c #14250B",
"7  c #16280C",
"8  c #17290C",
"9  c #172A0C",
"0  c #192D0D",
"q  c #1D330F",
"w  c #1E201D",
"e  c #1E3610",
"r  c #1F3811",
"t  c #203A11",
"y  c #213B12",
"u  c #213C12",
"i  c #212220",
"p  c #252724",
"a  c #272925",
"s  c #282A27",
"d  c #292B28",
"f  c #2B2D2A",
"g  c #30332F",
"h  c #373A35",
"j  c #254314",
"k  c #2B4D17",
"l  c #35601C",
"z  c #36621D",
"x  c #38651E",
"c  c #3A671F",
"v  c #3A691F",
"b  c #417623",
"n  c #444943",
"m  c #454943",
"M  c #454A44",
"N  c #484C46",
"B  c #4A4E48",
"V  c #4B5049",
"C  c #545A52",
"Z  c #5C625A",
"A  c #5E635B",
"S  c #61665E",
"D  c #61665F",
"F  c #626860",
"G  c #666C63",
"H  c #676D64",
"J  c #696F66",
"K  c #6A7067",
"L  c #6B7168",
"P  c #6B7269",
"I  c #71776E",
"U  c #72786F",
"Y  c #737A70",
"T  c #757C72",
"R  c #767D73",
"E  c #777D73",
"W  c #777E74",
"Q  c #787E74",
"!  c #787F75",
"~  c #488127",
"^  c #498327",
"/  c #4B8728",
"(  c #4B8828",
")  c #4D8A29",
"_  c #4E8C2A",
"`  c #4F8E2A",
"'  c #4F8F2A",
"]  c #51932C",
"[  c #52942D",
"{  c #53952D",
"}  c #54972D",
"|  c #579C2E",
" . c #589D2F",
".. c #5AA330",
"X. c #5BA330",
"o. c #5BA331",
"O. c #5BA431",
"+. c #5CA632",
"@. c #5DA732",
"#. c #5DA832",
"$. c #5FAB33",
"%. c #60AC33",
"&. c #61AF34",
"*. c #62B035",
"=. c #63B335",
"-. c #64B436",
";. c #65B536",
":. c #65B636",
">. c #66B737",
",. c #66B836",
"<. c #68BB37",
"1. c #68BB38",
"2. c #69BD38",
"3. c #6ABE39",
"4. c #6ABF39",
"5. c #6BC039",
"6. c #6CC13A",
"7. c #6CC23A",
"8. c #6DC43A",
"9. c #6DC43B",
"0. c #6EC53B",
"q. c #6EC63B",
"w. c #798075",
"e. c #7A8177",
"r. c #7B8278",
"t. c #7C8378",
"y. c #7E867B",
"u. c #7F877C",
"i. c #80877C",
"p. c #828A7F",
"a. c #838A7F",
"s. c #838B80",
"d. c #848B80",
"f. c #878E83",
"g. c #878F84",
"h. c #889084",
"j. c #8A9186",
"k. c #8B9387",
"l. c #8C9488",
"z. c #8D9589",
"x. c #8E968A",
"c. c None",
/* pixels */
"T U k.z.d.! T k.! T T T Y k.z.d.W T l.! T T T U k.z.f.W T k.! T T T U k.z.p.! T k.! T T T I z.z.p.! T l.e.T T T T ! k.T E a.z.z.l.g.T T ! l.T E a.l.z.l.g.E T t.l.T ! d.z.z.l.l.T T e.k.T ! d.z.z.k.k.T T e.k.! ! p.z.z.I T c.",
"h   o d G z.k.y.T T T h   o d G z.z.u.T T T h   o d G z.l.i.T T T h   o f G z.k.i.T T T h   o d G z.k.i.T T T T T T y.k.z.f.y.! T i.T T U i.l.l.g.i.T T i.T T T i.f.l.g.i.T T y.T T T i.k.z.f.y.T T p.T T T i.f.z.G s #   h c.",
"h         V z.f.T T T h         B z.g.T T T h         B z.f.T T T h         B z.f.W T T h         B l.f.T T T T T E f.z.p.T T T T i.T T ! f.l.d.T T T T i.T T T f.z.d.T T T T i.T T T f.k.a.T T T T y.T T T g.z.B         h c.",
"h       : p.r.k.f.T T h       : T , T g.T T h       : T , T f.T T h       : T , T f.T T h       : T , T f.T T T T f.l.e.l.! T T T i.T T f.l.! l.! T T T i.T T f.g.t.l.! T T T i.T T f.T , e.! T T T i.T T f.T , T >       h c.",
"h       L t.T ! l.p.! h       L i   : i.s.Y h       P i   : y.p.T h       K i   : i.p.T h       J i   : i.p.T T p.k.T T t.f.T T T i.T d.l.T T u.f.T T T i.T d.l.E T t.f.T T T i.! p.i.&   i f.T T T i.T a.i.&   i P +     h c.",
"N o   n s.T T T t.z.! M o   M M       p z.r.B @   M M       p z.! M %   M M       a z.! N %   M n       p z.W e.l.y.T T T p.p.T ! d.! l.u.T T T p.a.T ! p.t.l.t.T T T p.p.T E p.! z.s       n p.T T a.t.l.a       n M   # N c.",
"z.z.Z k.T T T T T f.f.z.z.Z L           G s.x.z.Z P           J d.z.l.Z P           G g.z.l.A P           G p.f.l.T T T T T k.f.l.x.a.g.T T T T T f.f.z.l.d.l.T T T T T l.g.l.l.p.G         o L f.z.x.a.G           P Z l.z.c.",
"z.z.z.k.W T T T e.f.z.z.z.z.T %       2 Z l.x.x.z.T %       1 Z z.z.z.z.T %       , Z z.z.z.z.W %       3 Z z.z.f.! T T T T k.z.x.x.l.g.! T T T ! l.l.l.l.x.f.! T T T T l.x.z.z.z.Z 3       % T l.z.x.x.Z 3       % T z.z.z.c.",
"x.x.x.x.p.e.p.k.f.y.z.z.z.z.x.C w N e.f.y.z.x.x.x.z.C w B T Z g z.z.z.z.x.C i B ! Z g l.x.x.x.x.C w B T Z g k.z.y.f.l.p.t.f.z.z.x.x.z.i.f.l.p.! g.x.x.x.z.l.g Z f.p.t.f.x.x.x.x.l.g Z T N w C x.x.x.z.l.g Z ! B i C x.x.x.x.c.",
"x.x.x.x.z.f.y.T T T z.z.z.z.x.x.f.y.T T T l.x.z.x.z.z.Z f o     I z.x.x.x.x.Z f o     I x.x.x.x.z.Z f o     I l.T I T i.f.l.z.z.x.x.l.T T T y.f.z.x.x.x.z.I     o f Z l.x.x.x.x.I     O d S z.x.x.z.z.I     O f S z.x.x.x.x.c.",
"x.x.z.x.z.r.T T T T f.z.x.x.x.x.e.T T T T f.z.z.x.x.z.3         J x.x.x.z.z.3         F x.x.x.x.z.w         S g.T T T T t.x.z.x.z.z.f.T T T T t.z.x.x.x.z.S         w z.x.x.x.x.S         3 x.x.x.x.x.S         3 z.z.x.x.x.c.",
"x.x.z.z.z.t.T T T T g.z.x.x.x.x.e.T T T T f.z.z.x.x.z.w         F x.x.x.z.z.1         F x.x.x.z.z.3         S f.T T T T t.x.x.x.z.z.f.T T T T e.x.x.x.x.z.S         w z.x.x.x.x.S         w x.z.x.x.z.S         3 z.z.z.x.x.c.",
"x.x.x.x.z.f.y.T T T z.x.x.x.x.x.f.y.T U T z.x.z.x.x.x.S f o     I z.z.z.z.z.S f o     I z.z.z.z.z.A f o     U k.T I T y.g.z.z.z.z.z.l.T T T y.f.x.x.x.x.z.U     O f S l.z.z.x.x.I     O f Z z.z.x.x.x.I     O f S x.z.z.x.x.c.",
"x.x.x.x.f.t.p.k.f.i.z.z.x.x.z.g.r.p.l.f.p.z.x.z.x.x.f.t.p.f.Z g k.z.z.z.x.C w B W Z g k.z.z.z.z.C w B ! Z g l.z.y.f.l.d.e.f.x.x.z.z.z.i.f.t.N w C x.x.x.z.l.g Z T N i C x.z.x.x.l.g Z T B 3 C z.x.x.z.l.g Z T N 3 C x.z.x.x.c.",
"z.z.x.z.T T T T e.f.z.z.z.z.z.E T T T e.f.z.z.z.z.k.W T T T W f.z.z.z.z.W %       1 Z z.z.z.z.T %       3 Z x.z.g.e.T T T ! l.z.z.z.z.Z ,       % T x.x.z.z.Z 3       % T z.x.z.z.Z 3       % T z.z.z.x.Z 1       % T z.x.x.c.",
"z.l.f.l.T T T T T g.p.z.z.f.l.T T T T T f.p.z.z.f.g.T T T T T l.d.z.z.k.P           H d.z.z.A P           G d.a.g.T T T T T g.Z l.z.g.H           P Z l.z.d.G           P Z l.z.a.G         . P Z l.z.f.H           P Z l.x.c.",
"p.E T p.p.T T T t.l.! d.E T f.p.T T T t.z.W s.T T f.p.T T T t.z.! p.T T p.M       s z.! N %   M M       s z.! ! z.t.T T T a.M   O N r.l.a       N n   O M e.k.p       M M   o N ! z.s       n M   O N e.z.s       M M   # N c.",
"i.T T T l.e.T e.l.u.T i.T T T f.r.T W l.s.T i.T T T f.e.T w.z.u.T p.T T T g.i   & i.p.T h       P i   : i.p.T T p.z.E T t.P .     h T p.i.&   3 P .     h T p.i.&   i P       h T p.y.&   i L o     h T p.y.&   i L .     h c.",
"i.T T T T k.e.l.k.Y T i.T T T ! k.W z.g.T T i.T T T E l.e.l.f.T T i.T T T W t., T g.T T h       : T , T g.T T T T f.l.e.f.:       h T T g.T , ! :       h T T k.T , e.:       h T T f.T , T :       h T T f.T , W :       h c.",
"i.T T T T p.z.f.T T T u.T T T T s.l.f.W T T i.T T T T a.z.g.T T T i.T T T T p.z.f.T T T h         V z.g.T T T T T T f.z.V         h T T T g.z.B         h T T T g.z.V         h T T W g.z.V         h T T T g.z.V         h c.",
"y.T E t.k.z.l.y.T T T u.Y W y.g.z.f.i.T T T i.T T y.f.l.f.i.T T T i.T T r.f.z.k.p.T T T h   o f J z.k.y.T T T T T T y.l.z.J f o   h T T T u.k.z.K f o   h T T T i.l.k.J f o   h T T T i.k.z.G f o   h T T T i.l.z.H f o   h c.",
"l.l.z.l.p.! T k.! T T z.k.z.k.g.! W k.! T T z.f.z.l.p.e.e.l.W T T k.k.z.l.p.! ! k.! T T T T l.z.s.W T k.! T T T T ! k.E ! a.k.l.Y T T T W k.T W a.k.k.U T T T W k.T ! p.l.k.T T T T ! k.W W p.z.k.I T T T e.l.T e.s.k.k.Y T c.",
".. .8.8.,.@...4.$...o.@. .4.q.;.@.@.4.$.o.o.o.| q.5.,.$.@.4.@.o...$. .8.5.4.@.@.4.$.o...@.| 8.q.,.@.+.4.@.o.o.o...$.4.X.@.;.8.q.4.5.o.o.@.4.@.@.<.8.q.8.5.o.o.$.4.@.@.;.8.8.4.4.o.o.$.5.@.+.;.q.8.8.8...o.@.4...@.;.8.8. .@.c.",
"k   + t ' 8.4.=.o.o.o.k   + t ' 8.4.;.o.o.o.k   + r ' 5.4.=.o.....k   X r ' 8.4.=.o.o.o.k   X t ' q.4.=.o.o.o.o.o...=.4.8.4.&.@.o.=.o.o.o.;.4.q.4.%.o.o.=.o.o.o.=.4.q.5.$.@.o.;.o.o.o.=.4.q.4.&.@.o.-.o.o...=.4.q.' r +   k c.",
"k         v q.4.+.o...k         v 8.4.@.o.o.k         v q.4.o...o.k         v q.4...o.o.k         v q.4.@.o.o.o.o.@.<.q.;.o.o.o.o.&.o.o.@.,.q.;.o.o.o.o.-.o.o.o.,.q.;.o.o.o.o.-.o.o.@.,.q.;.o.o.o.o.=.o.o.@.1.8.v         k c.",
"k       - ;.$.5.,.@.o.k       - o.5 $.;.o.o.k       - o.4 o.4...o.k       - o.5 o.<.o.o.k       - ..4 o.1.o.o.o...,.4.$.8.@.o.o.o.=.o.o.1.8.$.5.+.o.o.o.=.o.o.4.8.@.5.$.o.o...=.o.o.,.+.4 =.+.....o.=.o.o.1.o.4 @.;       k c.",
"k       ] $...$.8.;.o.k       [ 0   * =.;...k       [ 0   - =.;.o.k       ] 0   - =.;...k       ] 0   - =.-.o.o.;.5.@.o.$.4.@.o.o.-.o.;.8.@.o.$.4.o.o.o.=...;.5.@.o.$.5.o.o.o.-...;.=.*   0 4...o.o.&.o.;.-.-   0 [ X     k c.",
"c +   z ;.o...o.&.8.$.x @   z z       q q.$.c +   z z       q q.@.z +   z z       q q.$.c +   z z       e q.$.@.q.=...o.o.;.;...@.;.@.8.&.o.o.o.;.;.o.+.;.@.8.&.o.o.o.;.;.o.o.-.@.q.e       z ;.o.o.-.%.q.e       z z   + c c.",
"q.8.~ 4.o.o...o.o.1.1.q.8.b ]           ' ;.q.5.~ [           [ 1.q.5.~ {           ] <.8.8.~ [           ' ;.1.<.......o.o.4.,.q.q.1.4.o.o.o.o.$.4.,.5.q.1.4.@.o.o.o...5.,.q.q.1.)           [ 1.q.8.1.)           ] ~ 8.q.c.",
"q.q.q.4.+...+.o.$.1.q.q.q.q.o.*       4 / q.q.q.q.+.$       6 ^ q.q.q.q.o.$       8 ~ q.q.q.8.+.$       6 ~ q.q.1.$.o.@.o.+.q.q.q.8.q.1.$.o.o.o.+.4.q.q.q.q.1.@.o.o.o.@.5.q.q.q.q.~ 8       $ ..q.q.q.8.^ 6       $ ..q.q.q.c.",
"q.q.q.q.,.$.;.4.1.$.q.q.q.q.q.b 8 c $.4.&.q.q.q.q.q.b 7 v $.b j 5.q.q.q.q.b 8 v $.b j 8.q.q.q.q.b 9 v @.^ j 9.8.=.1.4.;.$.1.q.q.8.q.8.=.4.4.;.&.4.q.q.q.q.5.j ~ ,.,.$.4.q.q.q.q.8.j ~ $.c 7 b q.q.q.q.8.j ^ @.c 9 b q.q.q.q.c.",
"q.q.q.q.q.4.&.+.o.o.5.q.q.q.q.q.1.&.o.+.o.4.q.q.q.q.q.~ u + X    .q.q.q.q.q.~ u +     | q.q.q.q.q.~ u X      .4.o.o.o.&.1.q.q.q.q.q.4.o...o.&.1.8.q.q.q.q. .    + u ~ q.q.q.q.q.|     + r / q.q.q.q.q.}     + t ) q.q.q.q.q.c.",
"q.q.q.q.q.$.o.o.o.o.4.q.q.q.q.q.$.o.o.o.o.4.q.q.q.q.q.8         ) q.q.q.q.q.8         ) q.q.q.q.q.8         ' 4.o.o.o.o.$.q.q.q.q.q.4.o.o.o...$.q.q.q.q.q.(         6 q.q.q.q.q.)         8 q.q.q.q.q.(         8 q.q.q.q.q.c.",
"q.q.q.q.q.$.o.o.o.o.4.q.q.q.q.q.$.o.o.o.o.4.q.q.q.q.q.8         ) q.q.q.q.q.8         ' q.q.q.q.q.8         ) 1.o.o.o.o.$.q.q.q.q.q.1.o.o.o...=.q.q.q.q.q.(         8 q.q.q.q.q.)         8 q.q.q.q.q./         8 q.q.q.q.q.c.",
"q.q.q.q.q.<.&.@.o.o.5.q.q.q.8.q.1.&.@.o.o.4.9.q.q.q.8.~ u @ +    .q.q.q.q.q.~ u        .q.q.q.q.8./ u + X   | 5.o.o.@.&.,.q.q.q.q.q.5.o.o.+.&.1.q.q.q.q.q. .    @ t / q.q.q.q.q.}     X u / q.q.q.q.q.|     X u ~ q.q.q.q.q.c.",
"q.q.q.q.1.$.;.4.1.$.q.q.q.q.8.1.$.;.8.1.&.q.q.9.q.q.1.&.;.1.b j 8.q.q.q.q.b 7 c @.^ j 5.q.q.q.q.b 8 c @.b j q.q.&.1.4.;.$.4.q.q.q.q.q.=.,.$.x 8 b q.q.q.q.q.j b @.x 8 b q.q.q.q.8.j ~ $.c 7 b q.q.q.q.8.j ~ @.c 8 b q.q.q.q.c.",
"q.q.q.4.@.o.o.o.$.4.q.q.q.q.5.@.o.o.o.$.1.q.q.q.q.4.@.o.o.o.$.1.q.q.q.q.+.$       8 ~ q.q.q.q...$       6 ~ q.q.,.$.o.o.o.+.5.q.q.q.q.~ 8       + o.q.q.q.q.~ 8       $ +.q.q.q.q./ 6       $ ..q.q.q.q.~ 8       $ $.8.q.q.c.",
"q.q.,.4.o.o.o.o.+.,.;.q.8.,.5.+.o.o.o...4.;.q.q.1.4.....o.o.o.4.;.q.q.,.[           ' ;.q.5.~ [           ] ;.,.4.o.o.o.o.o.5.~ 5.q.;.'           [ ~ 8.q.1.'           ] ^ 4.q.;.'           [ ~ 5.q.1.'           } b 5.q.c.",
";.@.+.;.;.o.o.o.&.q.@.;.@.o.;.;.o.o.o.&.q.+.;.@.o.;.;.o.o.o.&.5.$.;.@...;.z       t 8.$.c +   c z       e q.@.@.q.&.o.o.+.;.z   + c @.q.e       x c   + c +.q.q       z z   @ c +.q.e       z z   + x @.q.e       z c   + c c.",
"-.o.o.o.4.$.o.$.5.=.+.-.o.o.+.4.$.o.@.8.=...=.o.o...4.&.o.$.5.=.o.=.o.....5.0   * =.=.+.k       [ 0   - -.;.o.o.=.8.+...&.} X     k o.;.=.*   7 [       k o.-.=.-   0 [ X     k o.;.=.-   0 { X     k o.;.=.-   0 [ X     k c.",
"=...o.o.@.5.$.5.,.+.o.=...o.o.@.4.$.8.1.o.o.=.o.o.o.@.5.$.5.,.$.o.-.o.o.o.+.$.4 @.1.o...k       * o.4 +.4.o.o.o.o.1.5.$.;.;       k o.+.,.+.4 @.;       k o.+.,.+.4 o.;       k +.@.<...5 o.;       k o.@.,.@.4 @.;       k c.",
"&.o.o.o.o.;.q.5.@.o.o.=.o.o.o.o.;.q.1.@.o.o.=.o.o.o.o.;.q.5.o...o.-.o.o.o...;.q.<.@.o.o.k         v 8.,.o.o.o.o.o.@.1.q.v         k o.o...4.q.v         k o...+.4.q.v         k o.o.o.<.q.v         k o.....1.q.v         k c.",
"-.+.o.&.4.5.4.-.o.o.+.-.o.$.&.5.q.4.=.o.o.o.=.o.@.&.4.q.4.=.o...+.-.o.o.=.4.5.4.=.o.o.o.k   + r ] 8.4.=.o.o.o.o.o.o.-.4.q.' t +   k ..o.o.=.4.q.' t X   k o.o.o.=.4.q.' t +   k o...+.=.4.q.' t +   k o.o.o.=.4.q.' u +   k c.",
"4.5.8.8.-.$.+.4.@.o.o.5.4.5.5.;.@.@.4.@.o.o.4.4.q.5.-.$.+.4.$.+.o.5.4.q.q.-.$.o.4.$.o.o.o.+.5.8.;.@.$.5.@.o.o.o.o.+.4.@.@.,.q.8...o.o.$.$.4.+.+.;.q.8...o.o.@.@.4.o.$.;.q.4...+.o...$.4.o.%.;.8.8.o.+...o.$.5.o.$.,.q.5.o.o.c."
};
