/* XPM */
static char * parts_swap_xpm[] = {
"110 44 197 2",
"  	c None",
". 	c #757C72",
"+ 	c #72786F",
"@ 	c #8B9387",
"# 	c #8D9589",
"$ 	c #848B80",
"% 	c #8A9186",
"& 	c #8A9286",
"* 	c #373A35",
"= 	c #000000",
"- 	c #060605",
"; 	c #292B28",
"> 	c #666C63",
", 	c #889084",
"' 	c #7D847A",
") 	c #767D73",
"! 	c #80877C",
"~ 	c #4B5049",
"{ 	c #8E968A",
"] 	c #838B80",
"^ 	c #101110",
"/ 	c #828A7F",
"( 	c #7A8177",
"_ 	c #757C71",
": 	c #191A18",
"< 	c #787F75",
"[ 	c #7C8378",
"} 	c #767D72",
"| 	c #121311",
"1 	c #020202",
"2 	c #6A7067",
"3 	c #8C9488",
"4 	c #696F66",
"5 	c #212220",
"6 	c #0F100F",
"7 	c #787E74",
"8 	c #889085",
"9 	c #7F877C",
"0 	c #0F0F0E",
"a 	c #878F84",
"b 	c #6B7269",
"c 	c #030303",
"d 	c #484C46",
"e 	c #070707",
"f 	c #454A44",
"g 	c #7D8479",
"h 	c #444943",
"i 	c #252724",
"j 	c #777D73",
"k 	c #838A7F",
"l 	c #272925",
"m 	c #454943",
"n 	c #070807",
"o 	c #5C625A",
"p 	c #868E82",
"q 	c #656B62",
"r 	c #6B7168",
"s 	c #777E74",
"t 	c #7B8177",
"u 	c #747B71",
"v 	c #090A09",
"w 	c #1B1C1A",
"x 	c #5E635B",
"y 	c #858D81",
"z 	c #7B8278",
"A 	c #7E867B",
"B 	c #545A52",
"C 	c #1D1F1D",
"D 	c #4A4E48",
"E 	c #30332F",
"F 	c #868D82",
"G 	c #1E201D",
"H 	c #2B2D2A",
"I 	c #71776E",
"J 	c #70766D",
"K 	c #1C1E1C",
"L 	c #626860",
"M 	c #878E83",
"N 	c #61665E",
"O 	c #1D1F1C",
"P 	c #61665F",
"Q 	c #71766D",
"R 	c #6A7068",
"S 	c #282A27",
"T 	c #464A44",
"U 	c #272926",
"V 	c #696F67",
"W 	c #6C736A",
"X 	c #191B19",
"Y 	c #060606",
"Z 	c #2A2D29",
"` 	c #676D64",
" .	c #737A70",
"..	c #5BA431",
"+.	c #599F2F",
"@.	c #6CC23A",
"#.	c #6DC43B",
"$.	c #66B837",
"%.	c #6EC53B",
"&.	c #6BC039",
"*.	c #6BC139",
"=.	c #2B4D17",
"-.	c #040802",
";.	c #203A11",
">.	c #4F8E2A",
",.	c #69BD38",
"'.	c #61AF34",
").	c #5BA531",
"!.	c #5BA331",
"~.	c #63B235",
"{.	c #3A691F",
"].	c #6EC63B",
"^.	c #66B737",
"/.	c #0C1607",
"(.	c #65B636",
"_.	c #5EAA33",
":.	c #5BA330",
"<.	c #13230A",
"[.	c #5DA832",
"}.	c #60AD33",
"|.	c #0E1907",
"1.	c #010301",
"2.	c #52942C",
"3.	c #60AC33",
"4.	c #6CC33A",
"5.	c #52932C",
"6.	c #192D0D",
"7.	c #0C1506",
"8.	c #5DA732",
"9.	c #6ABE39",
"0.	c #62B135",
"a.	c #0B1406",
"b.	c #69BD39",
"c.	c #54962D",
"d.	c #020401",
"e.	c #38651E",
"f.	c #050A03",
"g.	c #36611D",
"h.	c #61AE34",
"i.	c #35601C",
"j.	c #1D330F",
"k.	c #5CA531",
"l.	c #1E3610",
"m.	c #35601D",
"n.	c #060A03",
"o.	c #6CC13A",
"p.	c #488127",
"q.	c #52942D",
"r.	c #020301",
"s.	c #68BB38",
"t.	c #4E8C2A",
"u.	c #53952D",
"v.	c #5CA632",
"w.	c #5FAB33",
"x.	c #5AA330",
"y.	c #070D04",
"z.	c #000100",
"A.	c #14250B",
"B.	c #498327",
"C.	c #67BA37",
"D.	c #5FAC33",
"E.	c #62B035",
"F.	c #417623",
"G.	c #17290C",
"H.	c #39671E",
"I.	c #5CA631",
"J.	c #254314",
"K.	c #68BB37",
"L.	c #3A671F",
"M.	c #172A0C",
"N.	c #213C12",
"O.	c #589D2F",
"P.	c #579C2E",
"Q.	c #16280C",
"R.	c #4C8929",
"S.	c #68BC38",
"T.	c #4B8728",
"U.	c #4D8A29",
"V.	c #4B8828",
"W.	c #579D2E",
"X.	c #4E8D2A",
"Y.	c #1F3811",
"Z.	c #36621D",
"`.	c #1E3710",
" +	c #54972D",
".+	c #53962D",
"++	c #65B536",
"@+	c #14230B",
"#+	c #66B836",
"$+	c #5CA530",
"%+	c #050802",
"&+	c #213B12",
"*+	c #4F8F2A",
"=+	c #63B335",
"-+	c #6ABF39",
";+	c #6DC43A",
">+	c #59A130",
". + @ # $             . + @ # $             . + @ # $             . + @ # $             . + @ # $                         $ # # % &             $ # # % &             $ # # % &             $ # # % &             $ # @ + . ",
"* = - ; > #           * = - ; > #           * = - ; > #           * = - ; > #           * = - ; > #                     # , ' ) . !           # , ' ) . !           # , ' ) . !           # , ' ) . !           # > ; - = * ",
"* = = = = ~ {         * = = = = ~ #         * = = = = ~ #         * = = = = ~ #         * = = = = ~ #                 { ] . . . . !         { ] . . . . !         { ] . . . . !         # ] . . . . !         # ~ = = = = * ",
"* = = = ^ / ( &       * = = = ^ _ : .       * = = = ^ _ : .       * = = = ^ _ : .       * = = = ^ _ : .             & ( & < . . . !       & ( & < . . . !       & ( & < . . . !       . : [ < . . . !       . : } | = = = * ",
"* = = 1 2 [ . < 3     * = = 1 4 5 = 6 !     * = = 1 4 5 = 6 !     * = = 1 4 5 = 6 !     * = = 1 4 5 = 6 !         3 7 . [ 8 . . . !     3 7 . [ 8 . . . !     3 7 . [ 8 . . . !     9 0 = 5 a . . . !     9 0 = 5 b c = = * ",
"d e = f / . . . g #   d e = f h = = = i #   d e = f h = = = i #   d e = f h = = = i #   d e = f h = = = i #     # g . . . / / . j k   # g . . . / / . j k   # g . . . / / . j k   # l = = = m / . j k   # l = = = m f = n d ",
"{ & o a . . . . . , $ { & o 2 1 = = = = > $ { & o 2 1 = = = = > $ { & o 2 1 = = = = > $ { & o 2 1 = = = = > $ $ , . . . . . 8 p # { $ , . . . . . 8 p # { $ , . . . . . 8 p # { $ q = = = = 1 r p # { $ q = = = = 1 2 o & { ",
"{ { { & s . . . t p { { { { u v = = = w x { { { { u v = = = w x { { { { u v = = = w x { { { { u v = = = w x { { p t . . . s & { { { { p t . . . s & { { { { p t . . . s & { { { { x w = = = v u { { { { x w = = = v u { { { ",
"{ { { { y z k & p A # { { { { B C D ( p A # { { { { B C D j o E & { { { { B C D j o E & { { { { B C D j o E & # A p & ] z y { { { { # A p & ] z y { { { { & E o F ] z y { { { { & E o j D G B { { { { & E o j D G B { { { { ",
"{ { { { { p ' ) . . % { { { { { p ' ) . . % { { { { { x H - = = I { { { { { x H - = = I { { { { { x H - = = I % . . ) ' p { { { { { % . . ) ' p { { { { { J = = - H x { { { { { J = = - H x { { { { { J = = - H x { { { { { ",
"{ { { { { t . . . . a { { { { { t . . . . a { { { { { K = = = = L { { { { { K = = = = L { { { { { K = = = = L M . . . . z { { { { { M . . . . z { { { { { N = = = = O { { { { { N = = = = O { { { { { N = = = = O { { { { { ",
"{ { { { { t . . . . a { { { { { t . . . . a { { { { { K = = = = L { { { { { K = = = = L { { { { { K = = = = L M . . . . z { { { { { M . . . . z { { { { { P = = = = O { { { { { P = = = = O { { { { { P = = = = O { { { { { ",
"{ { { { { p ' ) . . % { { { { { p ' ) . . % { { { { { x H - = = I { { { { { x H - = = I { { { { { x H - = = I % . . ) ' p { { { { { % . . ) ' p { { { { { Q = = - H x { { { { { Q = = - H x { { { { { Q = = - H x { { { { { ",
"{ { { { y z k & p A # { { { { y z k & p A # { { { { y z k F o E & { { { { B G D ) o E & { { { { B G D ) o E & # A p & k z y { { { { # A p ( D C B { { { { & E o ) D C B { { { { & E o ) D C B { { { { & E o ) D C B { { { { ",
"{ { { & s . . . t p { { { { & s . . . t p { { { { & s . . . t p { { { { u v = = = w x { { { { u v = = = w x { { p t . . . s & { { { { x w = = = v u { { { { x w = = = v u { { { { x w = = = v u { { { { x w = = = v u { { { ",
"{ # p 8 . . . . . , ] { # p 8 . . . . . , ] { # p 8 . . . . . , ] { # p r 1 = = = = > ] { & o R 1 = = = = > ] $ , . . . . . a o & { $ q = = = = 1 R o & { $ q = = = = 1 R o & { $ q = = = = 1 R o & { $ q = = = = 1 R o & { ",
"k j . / / . . . g #   k j . / / . . . g #   k j . / / . . . g #   k j . / h = = = S #   d e = T h = = = S #     # g . . . / T = e d   # U = = = m T = e d   # U = = = m T = e d   # U = = = m T = e d   # U = = = m T = e d ",
"! . . . 8 [ . < 3     ! . . . 8 [ . < 3     ! . . . 8 [ . < 3     ! . . . a 5 = 6 !     * = = 1 V 5 = 6 !         3 7 . [ W c = = *     9 0 = 5 b c = = *     9 0 = 5 b c = = *     9 0 = 5 b c = = *     9 0 = 5 b c = = * ",
"! . . . < & ( &       ! . . . < & ( &       ! . . . < & ( &       ! . . . < [ X )       * = = = ^ . X )             & ( $ | = = = *       . : j | = = = *       . : j | = = = *       . : j | = = = *       . : j | = = = * ",
"! . . . . ] {         ! . . . . ] {         ! . . . . ] {         ! . . . . ] #         * = = = = ~ #                 { ~ = = = = *         # ~ = = = = *         # ~ = = = = *         # ~ = = = = *         # ~ = = = = * ",
"! . ) ' , #           ! . ) ' , #           ! . ) ' , #           ! . ) ' , #           * = Y Z ` #                     # ` Z Y = *           # ` Z Y = *           # ` Z Y = *           # ` Z Y = *           # ` Z Y = * ",
"& & # 3 ]             & & # 3 ]             & & # 3 ]             & & # 3 ]             .  .@ 3 ]                         ] 3 @  ..             ] 3 @  ..             ] 3 @  ..             ] 3 @  ..             ] 3 @  .. ",
"..+.@.#.$.            ..+.@.#.$.            ..+.@.#.$.            ..+.@.#.$.            ..+.@.#.$.                        $.#.%.&.*.            $.#.%.&.*.            $.#.%.&.*.            $.#.%.&.*.            $.#.@.+...",
"=.= -.;.>.%.          =.= -.;.>.%.          =.= -.;.>.%.          =.= -.;.>.%.          =.= -.;.>.%.                    %.,.'.).!.~.          %.,.'.).!.~.          %.,.'.).!.~.          %.,.'.).!.~.          %.>.;.-.= =.",
"=.= = = = {.].        =.= = = = {.%.        =.= = = = {.%.        =.= = = = {.%.        =.= = = = {.%.                ].^.!.!.!.!.~.        ].^.!.!.!.!.~.        ].^.!.!.!.!.~.        %.^.!.!.!.!.~.        %.{.= = = = =.",
"=.= = = /.(._.*.      =.= = = /.:.<...      =.= = = /.:.<...      =.= = = /.:.<...      =.= = = /.:.<...            *._.*.[.!.!.!.~.      *._.*.[.!.!.!.~.      *._.*.[.!.!.!.~.      :.<.}.[.!.!.!.~.      :.<.).|.= = = =.",
"=.= = 1.2.3.!.[.4.    =.= = 1.5.6.= 7.~.    =.= = 1.5.6.= 7.~.    =.= = 1.5.6.= 7.~.    =.= = 1.5.6.= 7.~.        4.8.!.3.9...!.!.~.    4.8.!.3.9...!.!.~.    4.8.!.3.9...!.!.~.    0.a.= 6.b...!.!.~.    0.a.= 6.c.d.= = =.",
"e.f.= g.(.!.!.!.h.%.  e.f.= g.i.= = = j.%.  e.f.= g.i.= = = j.%.  e.f.= g.i.= = = j.%.  e.f.= g.i.= = = j.%.    %.h.!.!.!.(.(.!.k.(.  %.h.!.!.!.(.(.!.k.(.  %.h.!.!.!.(.(.!.k.(.  %.l.= = = m.(.!.k.(.  %.l.= = = m.g.= n.e.",
"].o.p.b...!.!.!.!.,.$.].o.p.q.r.= = = = >.$.].o.p.q.r.= = = = >.$.].o.p.q.r.= = = = >.$.].o.p.q.r.= = = = >.$.$.,.!.!.!.!...9.s.%.].$.,.!.!.!.!...9.s.%.].$.,.!.!.!.!...9.s.%.].$.t.= = = = r.u.s.%.].$.t.= = = = r.q.p.o.].",
"].].].*.v.!.!.!.w.s.].].].].x.y.= = z.A.B.].].].].x.y.= = z.A.B.].].].].x.y.= = z.A.B.].].].].x.y.= = z.A.B.].].s.w.!.!.!.v.*.].].].].s.w.!.!.!.v.*.].].].].s.w.!.!.!.v.*.].].].].B.A.z.= = y.x.].].].].B.A.z.= = y.x.].].].",
"].].].].C.D.(.*.s.E.%.].].].].F.G.H.w.s.E.%.].].].].F.G.H.I.p.J.o.].].].].F.G.H.I.p.J.o.].].].].F.G.H.I.p.J.o.%.E.s.*.^.D.C.].].].].%.E.s.*.^.D.C.].].].].o.J.p.K.^.D.C.].].].].o.J.p.I.L.M.F.].].].].o.J.p.I.L.M.F.].].].].",
"].].].].].s.'.).!.!.&.].].].].].s.'.).!.!.&.].].].].].B.N.-.= = O.].].].].].B.N.-.= = O.].].].].].B.N.-.= = O.&.!.!.).'.s.].].].].].&.!.!.).'.s.].].].].].P.= = -.N.B.].].].].].P.= = -.N.B.].].].].].P.= = -.N.B.].].].].].",
"].].].].].w.!.!.!.!.,.].].].].].w.!.!.!.!.,.].].].].].Q.= = = = R.].].].].].Q.= = = = R.].].].].].Q.= = = = R.S.!.!.!.!.D.].].].].].S.!.!.!.!.D.].].].].].T.= = = = Q.].].].].].T.= = = = Q.].].].].].T.= = = = Q.].].].].].",
"].].].].].w.!.!.!.!.,.].].].].].w.!.!.!.!.,.].].].].].Q.= = = = U.].].].].].Q.= = = = U.].].].].].Q.= = = = U.S.!.!.!.!.D.].].].].].S.!.!.!.!.D.].].].].].V.= = = = Q.].].].].].V.= = = = Q.].].].].].V.= = = = Q.].].].].].",
"].].].].].s.'.).!.!.&.].].].].].s.'.).!.!.&.].].].].].B.N.-.= = O.].].].].].B.N.-.= = O.].].].].].B.N.-.= = O.&.!.!.).'.s.].].].].].&.!.!.).'.s.].].].].].W.= = -.N.B.].].].].].W.= = -.N.B.].].].].].W.= = -.N.B.].].].].].",
"].].].].C.D.(.*.s.E.%.].].].].C.D.(.*.s.E.%.].].].].C.D.(.K.p.J.o.].].].].F.M.H.I.p.J.o.].].].].F.M.H.I.p.J.o.%.E.s.*.(.D.C.].].].].%.E.s.w.H.G.F.].].].].o.J.p.I.H.G.F.].].].].o.J.p.I.H.G.F.].].].].o.J.p.I.H.G.F.].].].].",
"].].].*.v.!.!.!.w.s.].].].].*.v.!.!.!.w.s.].].].].*.v.!.!.!.w.s.].].].].x.y.= = z.A.B.].].].].x.y.= = z.A.B.].].s.w.!.!.!.v.*.].].].].B.A.z.= = y.x.].].].].B.A.z.= = y.x.].].].].B.A.z.= = y.x.].].].].B.A.z.= = y.x.].].].",
"].%.s.9...!.!.!.!.,.^.].%.s.9...!.!.!.!.,.^.].%.s.9...!.!.!.!.,.^.].%.s.u.r.= = = = >.^.].o.p.q.r.= = = = >.^.$.,.!.!.!.!...b.p.o.].$.X.= = = = r.q.p.o.].$.X.= = = = r.q.p.o.].$.X.= = = = r.q.p.o.].$.X.= = = = r.q.p.o.].",
"(.k.!.(.(.!.!.!.h.%.  (.k.!.(.(.!.!.!.h.%.  (.k.!.(.(.!.!.!.h.%.  (.k.!.(.i.= = = Y.%.  e.f.= Z.i.= = = Y.%.    %.h.!.!.!.(.Z.= f.e.  %.`.= = = m.Z.= f.e.  %.`.= = = m.Z.= f.e.  %.`.= = = m.Z.= f.e.  %.`.= = = m.Z.= f.e.",
"~.!.!...9.3.!.[.4.    ~.!.!...9.3.!.[.4.    ~.!.!...9.3.!.[.4.    ~.!.!...b.6.= 7.~.    =.= = 1.5.6.= 7.~.        4.8.!.3. +d.= = =.    0.a.= 6..+d.= = =.  ++0.a.= 6..+d.= = =.    0.a.= 6..+d.= = =.    0.a.= 6..+d.= = =.",
"~.!.!.!.[.*._.*.      ~.!.!.!.[.*._.*.      ~.!.!.!.[.*._.*.      ~.!.!.!.[.}.@+).      =.= = = /.:.@+).            *._.#+|.= = = =.      ..<.$+|.= = = =.    S...<.$+|.= = = =.      ..<.$+|.= = = =.      ..<.$+|.= = = =.",
"~.!.!.!.!.^.].        ~.!.!.!.!.^.].        ~.!.!.!.!.^.].        ~.!.!.!.!.^.%.        =.= = = = {.%.                ].{.= = = = =.        %.{.= = = = =.      S.%.{.= = = = =.        %.{.= = = = =.        %.{.= = = = =.",
"~.!.).'.,.%.          ~.!.).'.,.%.          ~.!.).'.,.%.          ~.!.).'.,.%.          =.= %+&+*+%.                    %.*+&+%+= =.          %.*+&+%+= =.      =+-+%.*+&+%+= =.          %.*+&+%+= =.          %.*+&+%+= =.",
"*.*.%.;+^.            *.*.%.;+^.            *.*.%.;+^.            *.*.%.;+^.            ..>+@.;+^.                        ^.;+@.                ^.;+@.>+..      &.).[.^.;+@.>+..            ^.;+@.>+..            ^.;+@.>+.."};
