/* XPM */
static char * parts_swap_xpm[] = {
"100 42 213 2",
"  	c None",
". 	c #4B4F49",
"+ 	c #686E65",
"@ 	c #8C9488",
"# 	c #8E968A",
"$ 	c #899084",
"% 	c #848B7E",
"& 	c #767C6F",
"* 	c #838A7E",
"= 	c #878E82",
"- 	c #868E82",
"; 	c #848B7F",
"> 	c #7E867B",
", 	c #5F645C",
"' 	c #575C54",
") 	c #020202",
"! 	c #0B0C0B",
"~ 	c #3A3D38",
"{ 	c #848B80",
"] 	c #878F82",
"^ 	c #787E71",
"/ 	c #7D8477",
"( 	c #858C80",
"_ 	c #798073",
": 	c #7C8376",
"< 	c #646A61",
"[ 	c #222421",
"} 	c #030303",
"| 	c #2A2C29",
"1 	c #272925",
"2 	c #878F83",
"3 	c #858D80",
"4 	c #777D70",
"5 	c #81897E",
"6 	c #7D8377",
"7 	c #8D9589",
"8 	c #7A8073",
"9 	c #899185",
"0 	c #292B27",
"a 	c #0D0D0C",
"b 	c #7A8176",
"c 	c #7F8679",
"d 	c #81897C",
"e 	c #798076",
"f 	c #424640",
"g 	c #050505",
"h 	c #5E645B",
"i 	c #797F72",
"j 	c #8C9487",
"k 	c #7E8579",
"l 	c #2B2E2A",
"m 	c #424540",
"n 	c #0F100F",
"o 	c #050504",
"p 	c #5B6058",
"q 	c #868D81",
"r 	c #656B62",
"s 	c #060706",
"t 	c #6A7067",
"u 	c #343732",
"v 	c #656A62",
"w 	c #60655D",
"x 	c #373A35",
"y 	c #8B9286",
"z 	c #777E71",
"A 	c #787F72",
"B 	c #81897D",
"C 	c #141513",
"D 	c #181917",
"E 	c #8B9387",
"F 	c #80877C",
"G 	c #383B36",
"H 	c #242623",
"I 	c #858C81",
"J 	c #7B8275",
"K 	c #838B7E",
"L 	c #828A7F",
"M 	c #333531",
"N 	c #636960",
"O 	c #7E8478",
"P 	c #2E302C",
"Q 	c #191B19",
"R 	c #72786E",
"S 	c #121311",
"T 	c #3F433D",
"U 	c #889084",
"V 	c #7C8275",
"W 	c #82897C",
"X 	c #323531",
"Y 	c #070707",
"Z 	c #585D55",
"` 	c #878E83",
" .	c #80877A",
"..	c #7F8579",
"+.	c #868E81",
"@.	c #8C9387",
"#.	c #454843",
"$.	c #6E746B",
"%.	c #40443E",
"&.	c #252723",
"*.	c #8A9286",
"=.	c #81887C",
"-.	c #6A7066",
";.	c #51554E",
">.	c #767C72",
",.	c #888F84",
"'.	c #3D403B",
").	c #171917",
"!.	c #7E8578",
"~.	c #3B3F39",
"{.	c #161715",
"].	c #8D9488",
"^.	c #40433E",
"/.	c #161716",
"(.	c #434741",
"_.	c #676D64",
":.	c #0A0B0A",
"<.	c #3E423C",
"[.	c #454943",
"}.	c #080808",
"|.	c #80877B",
"1.	c #131412",
"2.	c #3F423D",
"3.	c #777E73",
"4.	c #7F867A",
"5.	c #888F83",
"6.	c #757B71",
"7.	c #474C45",
"8.	c #575B54",
"9.	c #464A44",
"0.	c #868D82",
"a.	c #373A36",
"b.	c #838B7F",
"c.	c #41443F",
"d.	c #6E756B",
"e.	c #848C80",
"f.	c #848C7F",
"g.	c #1E1F1C",
"h.	c #111210",
"i.	c #5C6159",
"j.	c #848C81",
"k.	c #7B8278",
"l.	c #636860",
"m.	c #0F0F0E",
"n.	c #1F211E",
"o.	c #81887B",
"p.	c #767D70",
"q.	c #889083",
"r.	c #747B71",
"s.	c #070807",
"t.	c #747A70",
"u.	c #1B1C1A",
"v.	c #50544D",
"w.	c #444842",
"x.	c #060606",
"y.	c #464943",
"z.	c #080807",
"A.	c #757C72",
"B.	c #6F756C",
"C.	c #8A9285",
"D.	c #828A7D",
"E.	c #7E857A",
"F.	c #7B8175",
"G.	c #2B2D29",
"H.	c #1D1F1C",
"I.	c #838A7F",
"J.	c #1A1B19",
"K.	c #111211",
"L.	c #60665D",
"M.	c #363934",
"N.	c #7A8174",
"O.	c #2D2F2B",
"P.	c #82897E",
"Q.	c #666C63",
"R.	c #040504",
"S.	c #737A6F",
"T.	c #191A18",
"U.	c #444741",
"V.	c #737A70",
"W.	c #5D625A",
"X.	c #2E312C",
"Y.	c #2B2D2A",
"Z.	c #7A8074",
"`.	c #244213 s Black2",
" +	c #498427 s Black1",
".+	c #6EC63B s Back0",
"++	c #6DBF3A s Back1",
"@+	c #6BB138 s Back3",
"#+	c #6CB839 s Back2",
"$+	c #000000",
"%+	c #080F04",
"&+	c #182B0D",
"*+	c #0C1706",
"=+	c #020301",
"-+	c #0E1A07",
";+	c #040802",
">+	c #040702",
",+	c #182C0D",
"'+	c #050A03",
")+	c #122009",
"!+	c #192D0E",
"~+	c #020401",
"{+	c #060A03",
"]+	c #010300",
"^+	c #101E09",
"/+	c #060C03",
"(+	c #070D03",
"_+	c #000100",
":+	c #0A1205",
"<+	c #010200",
"[+	c #030602",
"}+	c #091004",
"|+	c #0B1406",
". + @ # @ $ % & & & . + @ # @ $ % & & & . + @ # @ $ % & & & . + @ # @ $ % & & & . + @ # @ $ % & & & & & * = - # # $ * ; & & * = - # # $ * ; & & * = - # # $ * ; & & * = - # # $ * ; & & * = - # # > , ' ",
") ) ! ~ { # ] ^ & & ) ) ! ~ { # ] ^ & & ) ) ! ~ { # ] ^ & & ) ) ! ~ { # ] ^ & & ) ) ! ~ { # ] ^ & & & & / # # ( _ & & : & & / # # ( _ & & : & & / # # ( _ & & : & & / # # ( _ & & : & & / # # < [ } ) | ",
") ) ) 1 2 3 # $ 4 & ) ) ) 1 5 + # $ 4 & ) ) ) 1 5 + # $ 4 & ) ) ) 1 5 + # $ 4 & ) ) ) 1 5 + # $ 4 & & 6 7 @ @ 8 & & & : & 6 7 @ @ 8 & & & : & 6 7 @ @ 8 & & & : & 6 7 9 - 8 & & & : & 6 7 9 - 0 ) ) ) | ",
") ) a b c & d # ( & ) ) a e f g h # ( & ) ) a e f g h # ( & ) ) a e f g h # ( & ) ) a e f g h # ( & i @ j 8 k 9 4 & & : i @ j 8 k 9 4 & & : i @ j 8 k 9 4 & & : i @ 9 l m $ 4 & & : i @ 9 l m e n ) ) | ",
") o p 3 & & & q # 6 ) o p r ) ) s t # 6 ) o p r ) ) s t # 6 ) o p r ) ) s t # 6 ) o p r ) ) s t # 6 - 7 6 & & 3 * & & : - 7 6 & & 3 * & & : - 7 6 & & 3 * & & : - 7 u ) ) v * & & : - 7 u ) ) v w o ) | ",
") x y z & & & A 7 9 ) x B C ) ) ) D E 9 ) x B C ) ) ) D E 9 ) x B C ) ) ) D E 9 ) x B C ) ) ) D E 9 # ( & & & z y 6 & : # ( & & & z y 6 & : # ( & & & z y 6 & : # < } ) ) C F 6 & : # < } ) ) C F G ) | ",
"H I J & & & & & K # H L M ) ) ) ) ) N # H L M ) ) ) ) ) N # H L M ) ) ) ) ) N # H L M ) ) ) ) ) N # # _ & & & & J E A O # _ & & & & J E A O # _ & & & & J E A O # [ ) ) ) ) P 9 A O # [ ) ) ) ) P 2 Q G ",
"7 = & & & 4 c q @ # 7 R } ) } S T < 9 # 7 R } ) } S T < U # 7 R } ) } S T < U # 7 R } ) } S T < U # # * V & & & & W @ 7 # * V & & & & W @ 7 # * V & & & & W @ 7 # ' X Y ) ) ) Z @ 7 # ' X Y ) ) ) Z ` E ",
"# #  ...+.@.q k i @ # # #.T $.@.q k i @ # # #.T $.y < %.&.*.# # #.T $.y < %.&.*.# # #.T $.y < %.&.*.( =.U E 3 k i U # # ( =.U E 3 k i U # # -.;.>.*.3 k i U # # -.;.>.,.w '.).>.# # -.;.>.,.w '.).>.# # ",
"# # # q !.^ & & & *.# # # q !.^ & & & *.# # # r ~.{.) ) } b # # # r ~.{.) ) } b # # # r ~.{.) ) } b  .& & i c - ].# # #  .& & i c - ].# # # ^.) ) /.(._.].# # # ^.) ) /.(._.].# # # ^.) ) /.(._.].# # # ",
"# # # z & & & & & *.# # # z & & & & & *.# # # :.) ) ) ) ) e # # # :.) ) ) ) ) e # # # :.) ) ) ) ) e  .& & & & & =.# # #  .& & & & & =.# # # <.) ) ) ) ) [.# # # <.) ) ) ) ) [.# # # <.) ) ) ) ) [.# # # ",
"# # # q k ^ & & & *.# # # q k ^ & & & *.# # # + ~ D ) ) }.F # # # + ~ D ) ) }.F # # # + ~ D ) ) }.F |.& & & ^ c U # # # |.& & & ^ c U # # # . ) ) ) 1.2.3.# # # . ) ) ) 1.2.3.# # # . ) ) ) 1.2.3.# # # ",
"# # * 4.- @.5.|.J 7 # # * 4.- @.5.|.J 7 # # * 4.- *.6.7.l 7 # # 8.9.t - 6.7.l 7 # # 8.9.t - 6.7.l 7 q ^ c = @ q !.E # # q ^ c = 0.r a.b.# # + C c.d.e.r a.b.# # + C c.d.e.r a.b.# # + C c.d.e.r a.b.# # ",
"# 7 _ & & 4 6 f.j # # 7 _ & & 4 6 f.j # # 7 _ & & 4 6 f.j # # *.g.) ) h.G i.j.# # *.g.) ) h.G i.j.# 7 E 3 !.^ & _ *.k.# 7 U l.2.m.) n.U k.# 7 U l.2.m.) n.U k.# 7 U l.2.m.) n.U k.# 7 U l.2.m.) n.U k.# ",
"A o.2 p.& & & & q.7 A o.2 p.& & & & q.7 A o.2 p.& & & & q.7 A o.r.s.) ) ) } t.7 u.v.r.s.) ) ) } t.7 # c & & & 4 q.w.x.y.# T ) ) ) z.A.w.x.y.# T ) ) ) z.A.w.x.y.# T ) ) ) z.A.w.x.y.# T ) ) ) z.A.w.x.y.",
"& & = o.& & & 6 # ; & & = o.& & & 6 # ; & & = o.& & & 6 # ; & & = 8.) ) ) G # ; ) g B.8.) ) ) G # ; @ C.4 & & D.$.g ) | @ E.a ) ) Z $.g ) | @ E.a ) ) Z $.g ) | @ E.a ) ) Z $.g ) | @ E.a ) ) Z $.g ) | ",
"& & i E F.& A E @ A & & i E F.& A E @ A & & i E F.& A E @ A & & i *.G.) H.I.@ A ) ) J.` G.) H.I.@ A o.# ; & : ( K.) ) | o.# L.g M.{ K.) ) | o.# L.g M.{ K.) ) | o.# L.g M.{ K.) ) | o.# L.g M.{ K.) ) | ",
"& & & / *.N.9 # / & & & & / *.N.9 # / & & & & / *.N.9 # / & & & & / e.O.P.# / & ) ) ) ~ e.O.P.# / & & ] # * y u ) ) ) | & ] # Q.I u ) ) ) | & ] # Q.I u ) ) ) | & ] # Q.I u ) ) ) | & ] # Q.I u ) ) ) | ",
"& & & & - 7 # o.& & & & & & - 7 # o.& & & & & & - 7 # o.& & & & & & - 7 # o.& & ) ) ) R.S.7 # o.& & & ^ $ # I.T.) ) ) | & ^ $ # I.T.) ) ) | & ^ $ # I.T.) ) ) | & ^ $ # I.T.) ) ) | & ^ $ # I.T.) ) ) | ",
"& A !.5.# # ; & & & & A !.5.# # ; & & & & A !.5.# # ; & & & & A !.5.# # ; & & & }.D U.V.# # ; & & & & &  .@ # E W.X.S Y.& &  .@ # E W.X.S Y.& &  .@ # E W.X.S Y.& &  .@ # E W.X.S Y.& &  .@ # E W.X.S Y.",
"*.7 # 7 ; : E _ & & *.7 # 7 ; : E _ & & *.7 # 7 ; : E _ & & *.7 # 7 ; : E _ & & F 7 # 7 ; : E _ & & & Z.E _ 6 9 # # *.F & Z.E _ 6 9 # # *.F & Z.E _ 6 9 # # *.F & Z.E _ 6 9 # # *.F & Z.E _ 6 9 # # *.F ",
"`.`. +.+.+.+++@+@+@+`.`. +.+.+.+++@+@+@+`.`. +.+.+.+++@+@+@+`.`. +.+.+.+++@+@+@+`.`. +.+.+.+++@+@+@+@+@+++++++.+.+.+#+++@+@+++++++.+.+.+#+++@+@+++++++.+.+.+#+++@+@+++++++.+.+.+#+++@+@+++++++++ + +`.`.",
"$+$+$+ +++.+++@+@+@+$+$+$+`. +.+++@+@+@+$+$+$+`. +.+++@+@+@+$+$+$+`. +.+++@+@+@+$+$+$+`. +.+++@+@+@+@+@+#+.+.+++@+@+@+#+@+@+#+.+.+++@+@+@+#+@+@+#+.+.+++@+@+@+#+@+@+#+.+.+++@+@+@+#+@+@+#+.+.+ +%+$+$+&+",
"$+$+$+*+ +++.+++@+@+$+$+$+*+ + +.+++@+@+$+$+$+*+ + +.+++@+@+$+$+$+*+ + +.+++@+@+$+$+$+*+ + +.+++@+@+@+#+.+.+++#+@+@+@+#+@+#+.+.+++#+@+@+@+#+@+#+.+.+++#+@+@+@+#+@+#+.+.+@+#+@+@+@+#+@+#+.+.+ +*+$+$+$+&+",
"$+$+=+ +++@+#+.+++@+$+$+=+ +`.$+ +.+++@+$+$+=+ +`.$+ +.+++@+$+$+=+ +`.$+ +.+++@+$+$+=+ +`.$+`..+++@+@+.+.+@+#+++@+@+@+#+@+.+.+@+#+++@+@+@+#+@+.+.+@+#+++@+@+@+#+@+.+.+-+`..+@+@+@+#+@+.+.+-+`. +=+$+$+&+",
"$+$+ +++@+@+@+++.+#+$+$+`.`.$+$+$+ +.+#+$+$+`.`.$+$+$+ +.+#+$+$+`.`.$+$+$+ +.+#+$+$+`.`.$+$+$+ +.+#+++.+#+@+@+++#+@+@+#+++.+#+@+@+++#+@+@+#+++.+#+@+@+++#+@+@+#+++.+`.$+$+`..+#+@+#+++.+`.$+$+ +`.$+$+&+",
"$+`.++#+@+@+@+@+.+++$+`. +;+$+$+$+>+.+++$+`. +;+$+$+$+>+.+++$+`. +;+$+$+$+>+.+++$+`. +;+$+$+$+>+.+++.+++@+@+@+@+++#+@+#+.+++@+@+@+@+++#+@+#+.+++@+@+@+@+++#+@+#+.+ +$+$+$+>+ +.+@+#+.+ +$+$+$+>+ +`.$+,+",
"'+ +#+@+@+@+@+@+++.+'+ +`.$+$+$+$+$+ +.+'+ +`.$+$+$+$+$+ +.+'+ +`.$+$+$+$+$+ +.+'+ +`.$+$+$+$+$+ +.+.+@+@+@+@+@+@+++@+#+.+@+@+@+@+@+@+++@+#+.+@+@+@+@+@+@+++@+#+.+%+$+$+$+$+)+ +.+#+.+%+$+$+$+$+)+ +'+!+",
".+++@+@+@+@+#+++#+.+.+.+$+$+$+~+`. +#+.+.+.+$+$+$+~+`. + +.+.+.+$+$+$+~+`. + +.+.+.+$+$+$+~+`. + +.+.+++@+@+@+@+@+#+++.+.+++@+@+@+@+@+#+++.+.+++@+@+@+@+@+#+++.+ + +`.$+$+$+$+ +.+.+.+ +`.$+$+$+$+ +.+.+",
".+.+#+#+++++++#+@+.+.+.+ +`.`. +.+#+@+.+.+.+ +`.`. +`.`.;+.+.+.+ +`.`. +`.`.;+.+.+.+ +`.`. +`.`.;+.+++#+.+++++#+@+.+.+.+++#+.+++++#+@+.+.+.+ +`. +++++#+@+.+.+.+ +`. + +`.$+ +.+.+.+ +`. + +`.$+ +.+.+.+",
".+.+.+++#+@+@+@+@+++.+.+.+++#+@+@+@+@+++.+.+.+ +`.'+$+$+$+ +.+.+.+ +`.'+$+$+$+@+.+.+.+ +`.'+$+$+$+@+#+@+@+@+#+++.+.+.+.+#+@+@+@+#+++.+.+.+.+`.$+$+%+`. +.+.+.+.+`.$+$+%+`. +.+.+.+.+`.$+$+%+`. +.+.+.+.+",
".+.+.+@+@+@+@+@+@+++.+.+.+@+@+@+@+@+@+++.+.+.+{+$+$+$+$+$+ +.+.+.+{+$+$+$+$+$+@+.+.+.+{+$+$+$+$+$+@+#+@+@+@+@+@+#+.+.+.+#+@+@+@+@+@+#+.+.+.+`.$+$+$+$+$+ +.+.+.+`.$+$+$+$+$+ +.+.+.+`.$+$+$+$+$+ +.+.+.+",
".+.+.+++#+@+@+@+@+++.+.+.+++#+@+@+@+@+++.+.+.+ +`.]+$+$+$+ +.+.+.+ +`.]+$+$+$+@+.+.+.+ +`.]+$+$+$+@+#+@+@+@+@+#+.+.+.+.+#+@+@+@+@+#+.+.+.+.+`.$+$+$+;+`. +.+.+.+`.$+$+$+;+`. +.+.+.+`.$+$+$+;+`. +.+.+.+",
".+.+#+#+++++++#+#+.+.+.+#+#+++++++#+#+.+.+.+#+#+#+.+ +`.$+++.+.+ +`.`. +`.`.^+.+.+.+ +`.`. +`.`.^+.+++@+#+++++++#+++.+.+#+@+#+++++ +`. +.+.+ +/+`. + +`.`. +.+.+ +/+`. + +`.`. +.+.+ +/+`. + +`.`.@+.+.+",
".+#+@+@+@+@+#+++++.+.+#+@+@+@+@+#+++++.+.+#+@+@+@+@+#+++++.+.+#+(+$+$+_+`. + +.+.+#+(+$+$+_+`. + +.+.+.+++#+@+@+@+.+ +.+.+.+ +`.>+$+:+ + +.+.+.+ +`.>+$+:+ + +.+.+.+ +`.>+$+:+ + +.+.+.+ +`.>+$+:+ +@+.+",
"@+#+++@+@+@+@+@+.+.+@+#+++@+@+@+@+@+.+.+@+#+++@+@+@+@+@+.+.+@+#+ +_+$+$+$+$+ +.+;+`. +_+$+$+$+$+ +.+.+#+@+@+@+@+.+`._+`..+`.$+$+$+]+`.`._+`..+`.$+$+$+]+`.`._+`..+`.$+$+$+]+`.`._+`..+`.$+$+$+]+`.`._+`.",
"@+@+++#+@+@+@+#+.+++@+@+++#+@+@+@+#+.+++@+@+++#+@+@+@+#+.+++@+@+++`.$+$+$+`..+++$+<+ +`.$+$+$+`..+++.+++@+@+@+.+ +$+$+$+.+ +[+$+$+`. +$+$+$+.+ +[+$+$+`. +$+$+$+.+ +[+$+$+`. +$+$+$+.+ +[+$+$+`. +$+$+$+",
"@+@+@+++#+@+@+++.+@+@+@+@+++#+@+@+++.+@+@+@+@+++#+@+@+++.+@+@+@+#+++`.$+`. +.+@+$+$+}+ +`.$+`. +.+@+#+.+++@+#+ +>+$+$+$+#+.+`.$+`. +>+$+$+$+#+.+`.$+`. +>+$+$+$+#+.+`.$+`. +>+$+$+$+#+.+`.$+`. +>+$+$+$+",
"@+@+@+#+++#+++.+#+@+@+@+@+#+++#+++.+#+@+@+@+@+#+++#+++.+#+@+@+@+@+#+.+|+ +.+@+@+$+$+$+`..+|+ +.+@+@+@+++.+#+.+`.$+$+$+$+@+.+.+`. +`.$+$+$+$+@+.+.+`. +`.$+$+$+$+@+.+.+`. +`.$+$+$+$+@+.+.+`. +`.$+$+$+$+",
"@+@+@+@+++.+.+#+@+@+@+@+@+@+++.+.+#+@+@+@+@+@+@+++.+.+#+@+@+@+@+@+@+++.+.+#+@+@+$+$+$+$+ +.+.+#+@+@+@+@+++.+ +>+$+$+$+$+@+@+++.+ +>+$+$+$+$+@+@+++.+ +>+$+$+$+$+@+@+++.+ +>+$+$+$+$+@+@+++.+ +>+$+$+$+$+",
"@+@+#+.+.+.+++@+@+@+@+@+#+.+.+.+++@+@+@+@+@+#+.+.+.+++@+@+@+@+@+#+.+.+.+++@+@+@+$+(+}+ +.+.+++@+@+@+@+@+@+.+.+ +`.`.<+$+@+@+@+.+.+ +`.`.<+$+@+@+@+.+.+ +`.`.<+$+@+@+@+.+.+ +`.`.<+$+@+@+@+.+.+ +`.`.<+$+",
"++.+.+.+++#+++@+@+@+++.+.+.+++#+++@+@+@+++.+.+.+++#+++@+@+@+++.+.+.+++#+++@+@+@+ + +.+.+++#+++@+@+@+@+@+@+@+@+.+.+.+ + +@+@+@+@+@+.+.+.+ + +@+@+@+@+@+.+.+.+ + +@+@+@+@+@+.+.+.+ + +@+@+@+@+@+.+.+.+ + +"};
