<?xml version="1.0" encoding="UTF-8" standalone="no"?>
<svg
   xmlns:dc="http://purl.org/dc/elements/1.1/"
   xmlns:cc="http://creativecommons.org/ns#"
   xmlns:rdf="http://www.w3.org/1999/02/22-rdf-syntax-ns#"
   xmlns:svg="http://www.w3.org/2000/svg"
   xmlns="http://www.w3.org/2000/svg"
   xmlns:xlink="http://www.w3.org/1999/xlink"
   xmlns:sodipodi="http://sodipodi.sourceforge.net/DTD/sodipodi-0.dtd"
   xmlns:inkscape="http://www.inkscape.org/namespaces/inkscape"
   version="1.1"
   id="svg2"
   width="58"
   height="58"
   viewBox="0 0 58 58"
   sodipodi:docname="tiles_10.svg"
   inkscape:export-filename="/tmp/off/parts_mem_10.png"
   inkscape:export-xdpi="96"
   inkscape:export-ydpi="96"
   inkscape:version="1.0.2 (e86c870879, 2021-01-15)">
  <metadata
     id="metadata8">
    <rdf:RDF>
      <cc:Work
         rdf:about="">
        <dc:format>image/svg+xml</dc:format>
        <dc:type
           rdf:resource="http://purl.org/dc/dcmitype/StillImage" />
        <dc:title />
      </cc:Work>
    </rdf:RDF>
  </metadata>
  <defs
     id="defs6">
    <linearGradient
       inkscape:collect="always"
       id="linearGradient925">
      <stop
         style="stop-color:#fefefe;stop-opacity:1"
         offset="0"
         id="stop921" />
      <stop
         style="stop-color:#000000;stop-opacity:1"
         offset="1"
         id="stop923" />
    </linearGradient>
    <linearGradient
       inkscape:collect="always"
       id="linearGradient846">
      <stop
         style="stop-color:#e7e7e7;stop-opacity:1"
         offset="0"
         id="stop882" />
      <stop
         style="stop-color:#838395;stop-opacity:1"
         offset="0.16739658"
         id="stop901" />
      <stop
         style="stop-color:#131313;stop-opacity:1"
         offset="1"
         id="stop884" />
    </linearGradient>
    <linearGradient
       inkscape:collect="always"
       xlink:href="#linearGradient846"
       id="linearGradient899"
       x1="-34.493919"
       y1="47.898342"
       x2="-64.723785"
       y2="8.5707321"
       gradientUnits="userSpaceOnUse"
       gradientTransform="translate(20)" />
    <linearGradient
       inkscape:collect="always"
       xlink:href="#linearGradient925"
       id="linearGradient927"
       x1="11.714334"
       y1="2.114362"
       x2="46.537399"
       y2="47.38121"
       gradientUnits="userSpaceOnUse"
       gradientTransform="translate(-60)" />
  </defs>
  <sodipodi:namedview
     pagecolor="#ffffff"
     bordercolor="#666666"
     borderopacity="1"
     objecttolerance="10"
     gridtolerance="10"
     guidetolerance="10"
     inkscape:pageopacity="0"
     inkscape:pageshadow="2"
     inkscape:window-width="1856"
     inkscape:window-height="1200"
     id="namedview4"
     showgrid="false"
     showguides="false"
     inkscape:zoom="11.313708"
     inkscape:cx="37.634196"
     inkscape:cy="30.115443"
     inkscape:window-x="0"
     inkscape:window-y="0"
     inkscape:window-maximized="1"
     inkscape:current-layer="g10"
     inkscape:document-rotation="0"
     inkscape:guide-bbox="true">
    <sodipodi:guide
       position="29,29"
       orientation="-1,0"
       id="guide981"
       inkscape:label=""
       inkscape:locked="false"
       inkscape:color="rgb(0,0,255)" />
    <sodipodi:guide
       position="29,29"
       orientation="0,-1"
       id="guide983" />
  </sodipodi:namedview>
  <g
     inkscape:groupmode="layer"
     inkscape:label="Image"
     id="g10">
    <circle
       style="opacity:1;fill:#6ec63b;fill-opacity:1;stroke:none;stroke-width:0.515019;stroke-linecap:round;stroke-linejoin:round;stroke-opacity:1"
       id="background_on"
       cx="29"
       cy="29"
       r="24.460445" />
    <circle
       style="opacity:1;fill:#8e968a;fill-opacity:1;stroke:none;stroke-width:0.515019;stroke-linecap:round;stroke-linejoin:round;stroke-opacity:1"
       id="background_off"
       cx="29"
       cy="29"
       r="24.460445" />
    <g
       id="bezel"
       transform="translate(60)">
      <path
         id="bezel_outer_ring"
         style="opacity:1;fill:url(#linearGradient927);fill-opacity:1;stroke-width:0.35891;stroke-linecap:round;stroke-linejoin:round"
         d="M -31,0 A 29,29 0 0 0 -60,29 29,29 0 0 0 -31,58 29,29 0 0 0 -2,29 29,29 0 0 0 -31,0 Z m 0,4.7851562 A 24.214966,24.214966 0 0 1 -6.785156,29 24.214966,24.214966 0 0 1 -31,53.214844 24.214966,24.214966 0 0 1 -55.214844,29 24.214966,24.214966 0 0 1 -31,4.7851562 Z" />
      <path
         id="bezel_inner_ring"
         style="opacity:1;fill:#000000;fill-opacity:1;stroke-width:0.359823;stroke-linecap:round;stroke-linejoin:round"
         d="M -31.067025,3.5422213 A 25.457983,25.457983 0 0 0 -56.457779,29 25.457983,25.457983 0 0 0 -31,54.457779 25.457983,25.457983 0 0 0 -5.542221,29 25.457983,25.457983 0 0 0 -31,3.5422213 a 25.457983,25.457983 0 0 0 -0.06703,0 z m 0.0099,3.6371072 a 21.821394,21.821394 0 0 1 0.05717,0 A 21.821394,21.821394 0 0 1 -9.179328,29 21.821394,21.821394 0 0 1 -31,50.820672 21.821394,21.821394 0 0 1 -52.820672,29 21.821394,21.821394 0 0 1 -31.057169,7.1793285 Z" />
      <path
         id="bezel_main"
         style="opacity:1;fill:url(#linearGradient899);fill-opacity:1;stroke-width:0.3565;stroke-linecap:round;stroke-linejoin:round"
         d="M -31,0.19469488 A 28.805305,28.805305 0 0 0 -59.805305,29 28.805305,28.805305 0 0 0 -31,57.805305 28.805305,28.805305 0 0 0 -2.194695,29 28.805305,28.805305 0 0 0 -31,0.19469488 Z m 0,6.81526382 A 21.990948,21.990948 0 0 1 -9.009959,29 21.990948,21.990948 0 0 1 -31,50.990041 21.990948,21.990948 0 0 1 -52.990041,29 21.990948,21.990948 0 0 1 -31,7.0099587 Z" />
    </g>
    <path
       id="tiles_mem_10_transparent"
       style="display:inline;fill:#000000;fill-opacity:0.176471;stroke:none;stroke-width:0.487223;stroke-linecap:round;stroke-linejoin:round;stroke-opacity:1"
       d="M 28.570312,8.3320312 A 20.673149,20.673149 0 0 0 17.199219,12.025391 l 5.375,7.40039 a 11.53838,11.526455 0 0 1 5.996093,-1.943359 z m 0.859376,0 v 9.1484378 a 11.53838,11.526455 0 0 1 5.996093,1.945312 l 5.374999,-7.40039 A 20.673149,20.673149 0 0 0 29.429688,8.3320312 Z M 16.503906,12.53125 a 20.673149,20.673149 0 0 0 -7.029297,9.671875 l 8.69336,2.824219 a 11.53838,11.526455 0 0 1 3.710937,-5.097656 z m 24.994144,0 -5.376956,7.398438 a 11.53838,11.526455 0 0 1 3.710937,5.097656 L 48.52539,22.203125 A 20.673149,20.673149 0 0 0 41.49805,12.53125 Z M 9.208984,23.021484 A 20.673149,20.673149 0 0 0 8.326172,29 20.673149,20.673149 0 0 0 9.208984,34.978516 l 8.69336,-2.824219 A 11.53838,11.526455 0 0 1 17.460938,29 11.53838,11.526455 0 0 1 17.900391,25.845703 Z m 39.582036,0 -8.69336,2.824219 A 11.53838,11.526455 0 0 1 40.53906,29 11.53838,11.526455 0 0 1 40.09961,32.154297 l 8.69141,2.824219 A 20.673149,20.673149 0 0 0 49.67383,29 20.673149,20.673149 0 0 0 48.79102,23.021484 Z m -30.623051,9.951172 -8.69336,2.824219 a 20.673149,20.673149 0 0 0 7.027344,9.671875 l 5.376953,-7.398438 a 11.53838,11.526455 0 0 1 -3.710937,-5.097656 z m 21.664062,0 a 11.53838,11.526455 0 0 1 -3.710937,5.097656 l 5.374996,7.398438 a 20.673149,20.673149 0 0 0 7.0293,-9.671875 z m -17.257812,5.601563 -5.375,7.40039 a 20.673149,20.673149 0 0 0 11.371093,3.69336 v -9.148438 a 11.53838,11.526455 0 0 1 -5.996093,-1.945312 z m 12.851562,0 a 11.53838,11.526455 0 0 1 -5.996093,1.943359 v 9.150391 a 20.673149,20.673149 0 0 0 11.371092,-3.69336 z" />
    <path
       id="tiles_swap_10_transparent"
       style="display:inline;fill:#000000;fill-opacity:0.176471;stroke:none;stroke-width:0.487223;stroke-linecap:round;stroke-linejoin:round;stroke-opacity:1"
       d="m 28.57031,18.710938 a 10.30972,10.299065 0 0 0 -5.27343,1.708984 l 2.95117,4.0625 a 5.2944789,5.2890067 0 0 1 2.32226,-0.753906 z m 0.85938,0 v 5.017578 a 5.2944789,5.2890067 0 0 1 2.32226,0.753906 l 2.95118,-4.0625 a 10.30972,10.299065 0 0 0 -5.27344,-1.708984 z m -6.82813,2.214843 a 10.30972,10.299065 0 0 0 -3.263669,4.480469 l 4.777339,1.552734 a 5.2944789,5.2890067 0 0 1 1.4375,-1.972656 z m 12.79688,0 -2.95117,4.060547 a 5.2944789,5.2890067 0 0 1 1.4375,1.97461 l 4.77734,-1.552735 A 10.30972,10.299065 0 0 0 35.39844,20.925781 Z M 19.070312,26.226562 A 10.30972,10.299065 0 0 0 18.689453,29 10.30972,10.299065 0 0 0 19.070312,31.773438 L 23.84961,30.220703 A 5.2944789,5.2890067 0 0 1 23.70508,29 5.2944789,5.2890067 0 0 1 23.84961,27.779297 Z m 19.859378,0 -4.7793,1.552735 A 5.2944789,5.2890067 0 0 1 34.29492,29 5.2944789,5.2890067 0 0 1 34.15039,30.220703 l 4.7793,1.552735 A 10.30972,10.299065 0 0 0 39.31055,29 10.30972,10.299065 0 0 0 38.92969,26.226562 Z m -14.81446,4.8125 -4.777339,1.552735 a 10.30972,10.299065 0 0 0 3.263669,4.482422 l 2.95117,-4.060547 a 5.2944789,5.2890067 0 0 1 -1.4375,-1.97461 z m 9.76954,0.002 a 5.2944789,5.2890067 0 0 1 -1.4375,1.972656 l 2.95117,4.060547 a 10.30972,10.299065 0 0 0 3.26367,-4.480469 z m -7.63672,2.476562 -2.95117,4.0625 a 10.30972,10.299065 0 0 0 5.27343,1.708984 V 34.27153 a 5.2944789,5.2890067 0 0 1 -2.32226,-0.753906 z m 5.5039,0 a 5.2944789,5.2890067 0 0 1 -2.32226,0.753906 v 5.017578 a 10.30972,10.299065 0 0 0 5.27344,-1.708984 z" />
    <path
       style="display:inline;fill:#000000;fill-opacity:1;stroke:none;stroke-width:0.487223;stroke-linecap:round;stroke-linejoin:round;stroke-opacity:1"
       d="m 29.42969,8.3320312 v 9.1484378 a 11.53838,11.526455 0 0 1 5.99609,1.945312 l 5.375,-7.40039 A 20.673149,20.673149 0 0 0 29.42969,8.3320312 Z"
       id="tile_mem_01_10" />
    <path
       style="display:inline;fill:#000000;fill-opacity:1;stroke:none;stroke-width:0.487223;stroke-linecap:round;stroke-linejoin:round;stroke-opacity:1"
       d="m 41.49805,12.53125 -5.37696,7.398438 a 11.53838,11.526455 0 0 1 3.71094,5.097656 l 8.69336,-2.824219 A 20.673149,20.673149 0 0 0 41.49805,12.53125 Z"
       id="tile_mem_02_10" />
    <path
       style="display:inline;fill:#000000;fill-opacity:1;stroke:none;stroke-width:0.487223;stroke-linecap:round;stroke-linejoin:round;stroke-opacity:1"
       d="m 48.79102,23.021484 -8.69336,2.824219 A 11.53838,11.526455 0 0 1 40.53906,29 11.53838,11.526455 0 0 1 40.09961,32.154297 l 8.69141,2.824219 A 20.673149,20.673149 0 0 0 49.67383,29 20.673149,20.673149 0 0 0 48.79102,23.021484 Z"
       id="tile_mem_03_10" />
    <path
       style="display:inline;fill:#000000;fill-opacity:1;stroke:none;stroke-width:0.487223;stroke-linecap:round;stroke-linejoin:round;stroke-opacity:1"
       d="m 39.83203,32.972656 a 11.53838,11.526455 0 0 1 -3.71094,5.097656 l 5.375,7.398438 a 20.673149,20.673149 0 0 0 7.0293,-9.671875 z"
       id="tile_mem_04_10" />
    <path
       style="display:inline;fill:#000000;fill-opacity:1;stroke:none;stroke-width:0.487223;stroke-linecap:round;stroke-linejoin:round;stroke-opacity:1"
       d="m 35.42578,38.574219 a 11.53838,11.526455 0 0 1 -5.99609,1.943359 v 9.150391 a 20.673149,20.673149 0 0 0 11.37109,-3.69336 z"
       id="tile_mem_05_10" />
    <path
       style="display:inline;fill:#000000;fill-opacity:1;stroke:none;stroke-width:0.487223;stroke-linecap:round;stroke-linejoin:round;stroke-opacity:1"
       d="m 22.57422,38.574219 -5.375,7.40039 a 20.673149,20.673149 0 0 0 11.37109,3.69336 v -9.148438 a 11.53838,11.526455 0 0 1 -5.99609,-1.945312 z"
       id="tile_mem_06_10" />
    <path
       style="display:inline;fill:#000000;fill-opacity:1;stroke:none;stroke-width:0.487223;stroke-linecap:round;stroke-linejoin:round;stroke-opacity:1"
       d="m 18.16797,32.972656 -8.69336,2.824219 a 20.673149,20.673149 0 0 0 7.02734,9.671875 l 5.37696,-7.398438 a 11.53838,11.526455 0 0 1 -3.71094,-5.097656 z"
       id="tile_mem_07_10" />
    <path
       style="display:inline;fill:#000000;fill-opacity:1;stroke:none;stroke-width:0.487223;stroke-linecap:round;stroke-linejoin:round;stroke-opacity:1"
       d="M 9.20898,23.021484 A 20.673149,20.673149 0 0 0 8.32617,29 20.673149,20.673149 0 0 0 9.20898,34.978516 l 8.69336,-2.824219 A 11.53838,11.526455 0 0 1 17.46094,29 11.53838,11.526455 0 0 1 17.90039,25.845703 Z"
       id="tile_mem_08_10" />
    <path
       style="display:inline;fill:#000000;fill-opacity:1;stroke:none;stroke-width:0.487223;stroke-linecap:round;stroke-linejoin:round;stroke-opacity:1"
       d="m 16.50391,12.53125 a 20.673149,20.673149 0 0 0 -7.0293,9.671875 l 8.69336,2.824219 a 11.53838,11.526455 0 0 1 3.71094,-5.097656 z"
       id="tile_mem_09_10" />
    <path
       style="display:inline;fill:#000000;fill-opacity:1;stroke:none;stroke-width:0.487223;stroke-linecap:round;stroke-linejoin:round;stroke-opacity:1"
       d="M 28.57031,8.3320312 A 20.673149,20.673149 0 0 0 17.19922,12.025391 l 5.375,7.40039 a 11.53838,11.526455 0 0 1 5.99609,-1.943359 z"
       id="tile_mem_10_10" />
    <path
       style="display:inline;fill:#000000;fill-opacity:1;stroke:none;stroke-width:0.487223;stroke-linecap:round;stroke-linejoin:round;stroke-opacity:1"
       d="m 29.42969,18.710938 v 5.017578 a 5.2944789,5.2890067 0 0 1 2.32226,0.753906 l 2.95117,-4.0625 a 10.30972,10.299065 0 0 0 -5.27343,-1.708984 z"
       id="tile_swap_01_10" />
    <path
       style="display:inline;fill:#000000;fill-opacity:1;stroke:none;stroke-width:0.487223;stroke-linecap:round;stroke-linejoin:round;stroke-opacity:1"
       d="m 35.39844,20.925781 -2.95117,4.060547 a 5.2944789,5.2890067 0 0 1 1.4375,1.97461 l 4.77734,-1.552735 a 10.30972,10.299065 0 0 0 -3.26367,-4.482422 z"
       id="tile_swap_02_10" />
    <path
       style="display:inline;fill:#000000;fill-opacity:1;stroke:none;stroke-width:0.487223;stroke-linecap:round;stroke-linejoin:round;stroke-opacity:1"
       d="m 38.92969,26.226562 -4.7793,1.552735 A 5.2944789,5.2890067 0 0 1 34.29492,29 5.2944789,5.2890067 0 0 1 34.15039,30.220703 l 4.7793,1.552735 A 10.30972,10.299065 0 0 0 39.31055,29 10.30972,10.299065 0 0 0 38.92969,26.226562 Z"
       id="tile_swap_03_10" />
    <path
       style="display:inline;fill:#000000;fill-opacity:1;stroke:none;stroke-width:0.487223;stroke-linecap:round;stroke-linejoin:round;stroke-opacity:1"
       d="m 33.88477,31.041062 a 5.2944789,5.2890067 0 0 1 -1.4375,1.972656 l 2.95117,4.060547 a 10.30972,10.299065 0 0 0 3.26367,-4.480469 z"
       id="tile_swap_04_10" />
    <path
       style="display:inline;fill:#000000;fill-opacity:1;stroke:none;stroke-width:0.487223;stroke-linecap:round;stroke-linejoin:round;stroke-opacity:1"
       d="m 31.75195,33.517624 a 5.2944789,5.2890067 0 0 1 -2.32226,0.753906 v 5.017578 a 10.30972,10.299065 0 0 0 5.27343,-1.708984 z"
       id="tile_swap_05_10" />
    <path
       style="display:inline;fill:#000000;fill-opacity:1;stroke:none;stroke-width:0.487223;stroke-linecap:round;stroke-linejoin:round;stroke-opacity:1"
       d="m 26.24805,33.517624 -2.95117,4.0625 a 10.30972,10.299065 0 0 0 5.27343,1.708984 V 34.27153 a 5.2944789,5.2890067 0 0 1 -2.32226,-0.753906 z"
       id="tile_swap_06_10" />
    <path
       style="display:inline;fill:#000000;fill-opacity:1;stroke:none;stroke-width:0.487223;stroke-linecap:round;stroke-linejoin:round;stroke-opacity:1"
       d="m 24.11523,31.039062 -4.77734,1.552735 a 10.30972,10.299065 0 0 0 3.26367,4.482422 l 2.95117,-4.060547 a 5.2944789,5.2890067 0 0 1 -1.4375,-1.97461 z"
       id="tile_swap_07_10" />
    <path
       style="display:inline;fill:#000000;fill-opacity:1;stroke:none;stroke-width:0.487223;stroke-linecap:round;stroke-linejoin:round;stroke-opacity:1"
       d="M 19.07031,26.226562 A 10.30972,10.299065 0 0 0 18.68945,29 a 10.30972,10.299065 0 0 0 0.38086,2.773438 l 4.7793,-1.552735 A 5.2944789,5.2890067 0 0 1 23.70508,29 5.2944789,5.2890067 0 0 1 23.84961,27.779297 Z"
       id="tile_swap_08_10" />
    <path
       style="display:inline;fill:#000000;fill-opacity:1;stroke:none;stroke-width:0.487223;stroke-linecap:round;stroke-linejoin:round;stroke-opacity:1"
       d="m 22.60156,20.925781 a 10.30972,10.299065 0 0 0 -3.26367,4.480469 l 4.77734,1.552734 a 5.2944789,5.2890067 0 0 1 1.4375,-1.972656 z"
       id="tile_swap_09_10" />
    <path
       style="display:inline;fill:#000000;fill-opacity:1;stroke:none;stroke-width:0.487223;stroke-linecap:round;stroke-linejoin:round;stroke-opacity:1"
       d="m 28.57031,18.710938 a 10.30972,10.299065 0 0 0 -5.27343,1.708984 l 2.95117,4.0625 a 5.2944789,5.2890067 0 0 1 2.32226,-0.753906 z"
       id="tile_swap_10_10" />
  </g>
</svg>
