<?xml version="1.0" encoding="UTF-8" standalone="no"?>
<svg
   xmlns:dc="http://purl.org/dc/elements/1.1/"
   xmlns:cc="http://creativecommons.org/ns#"
   xmlns:rdf="http://www.w3.org/1999/02/22-rdf-syntax-ns#"
   xmlns:svg="http://www.w3.org/2000/svg"
   xmlns="http://www.w3.org/2000/svg"
   xmlns:xlink="http://www.w3.org/1999/xlink"
   xmlns:sodipodi="http://sodipodi.sourceforge.net/DTD/sodipodi-0.dtd"
   xmlns:inkscape="http://www.inkscape.org/namespaces/inkscape"
   version="1.1"
   id="svg2"
   width="64"
   height="64"
   viewBox="0 0 64 64"
   sodipodi:docname="tiles_10.svg"
   inkscape:export-filename="/tmp/off/parts_mem_10.png"
   inkscape:export-xdpi="96"
   inkscape:export-ydpi="96"
   inkscape:version="1.0.2 (e86c870879, 2021-01-15)">
  <metadata
     id="metadata8">
    <rdf:RDF>
      <cc:Work
         rdf:about="">
        <dc:format>image/svg+xml</dc:format>
        <dc:type
           rdf:resource="http://purl.org/dc/dcmitype/StillImage" />
        <dc:title></dc:title>
      </cc:Work>
    </rdf:RDF>
  </metadata>
  <defs
     id="defs6">
    <linearGradient
       inkscape:collect="always"
       id="linearGradient925">
      <stop
         style="stop-color:#fefefe;stop-opacity:1"
         offset="0"
         id="stop921" />
      <stop
         style="stop-color:#000000;stop-opacity:1"
         offset="1"
         id="stop923" />
    </linearGradient>
    <linearGradient
       inkscape:collect="always"
       id="linearGradient846">
      <stop
         style="stop-color:#e7e7e7;stop-opacity:1"
         offset="0"
         id="stop882" />
      <stop
         style="stop-color:#838395;stop-opacity:1"
         offset="0.16739658"
         id="stop901" />
      <stop
         style="stop-color:#131313;stop-opacity:1"
         offset="1"
         id="stop884" />
    </linearGradient>
    <linearGradient
       inkscape:collect="always"
       xlink:href="#linearGradient846"
       id="linearGradient899"
       x1="-34.493919"
       y1="47.898342"
       x2="-64.723785"
       y2="8.5707321"
       gradientUnits="userSpaceOnUse"
       gradientTransform="translate(20)" />
    <linearGradient
       inkscape:collect="always"
       xlink:href="#linearGradient925"
       id="linearGradient927"
       x1="11.714334"
       y1="2.114362"
       x2="46.537399"
       y2="47.38121"
       gradientUnits="userSpaceOnUse"
       gradientTransform="translate(-60)" />
  </defs>
  <sodipodi:namedview
     pagecolor="#ffffff"
     bordercolor="#666666"
     borderopacity="1"
     objecttolerance="10"
     gridtolerance="10"
     guidetolerance="10"
     inkscape:pageopacity="0"
     inkscape:pageshadow="2"
     inkscape:window-width="2496"
     inkscape:window-height="1440"
     id="namedview4"
     showgrid="false"
     showguides="false"
     inkscape:zoom="11.313708"
     inkscape:cx="37.551261"
     inkscape:cy="30.182071"
     inkscape:window-x="0"
     inkscape:window-y="0"
     inkscape:window-maximized="1"
     inkscape:current-layer="g10"
     inkscape:document-rotation="0"
     inkscape:guide-bbox="true">
    <sodipodi:guide
       position="29,29"
       orientation="-1,0"
       id="guide981"
       inkscape:label=""
       inkscape:locked="false"
       inkscape:color="rgb(0,0,255)" />
    <sodipodi:guide
       position="29,29"
       orientation="0,-1"
       id="guide983" />
  </sodipodi:namedview>
  <g
     inkscape:groupmode="layer"
     inkscape:label="Image"
     id="g10">
    <circle
       style="fill:#6ec63b;fill-opacity:1;stroke:none;stroke-width:0.515019;stroke-linecap:round;stroke-linejoin:round;stroke-opacity:1"
       id="background_on"
       cx="32"
       cy="32"
       r="24.460445" />
    <circle
       style="fill:#8e968a;fill-opacity:1;stroke:none;stroke-width:0.515019;stroke-linecap:round;stroke-linejoin:round;stroke-opacity:1"
       id="background_off"
       cx="32"
       cy="32"
       r="24.460445" />
    <path
       id="tiles_mem_10_transparent"
       style="display:inline;fill:#000000;fill-opacity:0.176471;stroke:none;stroke-width:0.487223;stroke-linecap:round;stroke-linejoin:round;stroke-opacity:1"
       d="m 31.570312,11.847656 a 20.155466,20.155466 0 0 0 -11.066406,3.597656 l 5.070313,6.980469 a 11.53838,11.526455 0 0 1 5.996093,-1.943359 z m 0.859376,0.0019 v 8.63086 a 11.53838,11.526455 0 0 1 5.996093,1.945312 l 5.070309,-6.980469 a 20.155466,20.155466 0 0 0 -11.066402,-3.5957 z m -12.623047,4.099613 a 20.155466,20.155466 0 0 0 -6.837891,9.414062 l 8.199219,2.664063 a 11.53838,11.526455 0 0 1 3.710937,-5.097656 z m 24.386719,0.002 -5.072266,6.978516 a 11.53838,11.526455 0 0 1 3.710937,5.097656 L 51.0332,25.363328 A 20.155466,20.155466 0 0 0 44.19336,15.951219 Z M 12.703125,26.181641 A 20.155466,20.155466 0 0 0 11.84375,32 a 20.155466,20.155466 0 0 0 0.857421,5.818359 l 8.201173,-2.664062 A 11.53838,11.526455 0 0 1 20.460938,32 11.53838,11.526455 0 0 1 20.900391,28.845703 Z m 38.595705,0 -8.20117,2.664062 A 11.53838,11.526455 0 0 1 43.53906,32 11.53838,11.526455 0 0 1 43.09961,35.154297 l 8.19727,2.664062 A 20.155466,20.155466 0 0 0 52.156253,32 20.155466,20.155466 0 0 0 51.29883,26.181641 Z m -30.130861,9.791015 -8.201172,2.664063 a 20.155466,20.155466 0 0 0 6.839844,9.412109 l 5.072265,-6.978516 a 11.53838,11.526455 0 0 1 -3.710937,-5.097656 z m 21.664062,0 a 11.53838,11.526455 0 0 1 -3.710937,5.097656 l 5.072266,6.980469 a 20.155466,20.155466 0 0 0 6.83789,-9.414062 z m -17.257812,5.601563 -5.070313,6.980469 a 20.155466,20.155466 0 0 0 11.066406,3.595703 v -8.63086 a 11.53838,11.526455 0 0 1 -5.996093,-1.945312 z m 12.851562,0 a 11.53838,11.526455 0 0 1 -5.996093,1.943359 v 8.634766 A 20.155466,20.155466 0 0 0 43.49609,48.554688 Z" />
    <g
       id="bezel"
       transform="translate(63,3)">
      <path
         id="bezel_outer_ring"
         style="opacity:1;fill:url(#linearGradient927);fill-opacity:1;stroke-width:0.35891;stroke-linecap:round;stroke-linejoin:round"
         d="M -31,0 A 29,29 0 0 0 -60,29 29,29 0 0 0 -31,58 29,29 0 0 0 -2,29 29,29 0 0 0 -31,0 Z m 0,4.7851562 A 24.214966,24.214966 0 0 1 -6.785156,29 24.214966,24.214966 0 0 1 -31,53.214844 24.214966,24.214966 0 0 1 -55.214844,29 24.214966,24.214966 0 0 1 -31,4.7851562 Z" />
      <path
         id="bezel_inner_ring"
         style="opacity:1;fill:#000000;fill-opacity:1;stroke-width:0.359823;stroke-linecap:round;stroke-linejoin:round"
         d="M -31.067025,3.5422213 A 25.457983,25.457983 0 0 0 -56.457779,29 25.457983,25.457983 0 0 0 -31,54.457779 25.457983,25.457983 0 0 0 -5.542221,29 25.457983,25.457983 0 0 0 -31,3.5422213 a 25.457983,25.457983 0 0 0 -0.06703,0 z m 0.0099,3.6371072 a 21.821394,21.821394 0 0 1 0.05717,0 A 21.821394,21.821394 0 0 1 -9.179328,29 21.821394,21.821394 0 0 1 -31,50.820672 21.821394,21.821394 0 0 1 -52.820672,29 21.821394,21.821394 0 0 1 -31.057169,7.1793285 Z" />
      <path
         id="bezel_main"
         style="opacity:1;fill:url(#linearGradient899);fill-opacity:1;stroke-width:0.3565;stroke-linecap:round;stroke-linejoin:round"
         d="M -31,0.19469488 A 28.805305,28.805305 0 0 0 -59.805305,29 28.805305,28.805305 0 0 0 -31,57.805305 28.805305,28.805305 0 0 0 -2.194695,29 28.805305,28.805305 0 0 0 -31,0.19469488 Z m 0,6.81526382 A 21.990948,21.990948 0 0 1 -9.009959,29 21.990948,21.990948 0 0 1 -31,50.990041 21.990948,21.990948 0 0 1 -52.990041,29 21.990948,21.990948 0 0 1 -31,7.0099587 Z" />
    </g>
    <path
       id="tiles_swap_10_transparent"
       style="display:inline;fill:#000000;fill-opacity:0.176471;stroke:none;stroke-width:0.487223;stroke-linecap:round;stroke-linejoin:round;stroke-opacity:1"
       d="m 31.57031,21.710938 a 10.30972,10.299065 0 0 0 -5.27343,1.708984 l 2.95117,4.0625 a 5.2944789,5.2890067 0 0 1 2.32226,-0.753906 z m 0.85938,0 v 5.017578 a 5.2944789,5.2890067 0 0 1 2.32226,0.753906 l 2.95118,-4.0625 a 10.30972,10.299065 0 0 0 -5.27344,-1.708984 z m -6.82813,2.214843 a 10.30972,10.299065 0 0 0 -3.263669,4.480469 l 4.777339,1.552734 a 5.2944789,5.2890067 0 0 1 1.4375,-1.972656 z m 12.79688,0 -2.95117,4.060547 a 5.2944789,5.2890067 0 0 1 1.4375,1.97461 l 4.77734,-1.552735 A 10.30972,10.299065 0 0 0 38.39844,23.925781 Z M 22.070312,29.226562 A 10.30972,10.299065 0 0 0 21.689453,32 10.30972,10.299065 0 0 0 22.070312,34.773438 L 26.84961,33.220703 A 5.2944789,5.2890067 0 0 1 26.70508,32 5.2944789,5.2890067 0 0 1 26.84961,30.779297 Z m 19.859378,0 -4.7793,1.552735 A 5.2944789,5.2890067 0 0 1 37.29492,32 5.2944789,5.2890067 0 0 1 37.15039,33.220703 l 4.7793,1.552735 A 10.30972,10.299065 0 0 0 42.31055,32 10.30972,10.299065 0 0 0 41.92969,29.226562 Z m -14.81446,4.8125 -4.777339,1.552735 a 10.30972,10.299065 0 0 0 3.263669,4.482422 l 2.95117,-4.060547 a 5.2944789,5.2890067 0 0 1 -1.4375,-1.97461 z m 9.76954,0.002 a 5.2944789,5.2890067 0 0 1 -1.4375,1.972656 l 2.95117,4.060547 a 10.30972,10.299065 0 0 0 3.26367,-4.480469 z m -7.63672,2.476562 -2.95117,4.0625 a 10.30972,10.299065 0 0 0 5.27343,1.708984 V 37.27153 a 5.2944789,5.2890067 0 0 1 -2.32226,-0.753906 z m 5.5039,0 a 5.2944789,5.2890067 0 0 1 -2.32226,0.753906 v 5.017578 a 10.30972,10.299065 0 0 0 5.27344,-1.708984 z" />
    <path
       style="display:inline;fill:#000000;fill-opacity:1;stroke:none;stroke-width:0.487223;stroke-linecap:round;stroke-linejoin:round;stroke-opacity:1"
       d="m 32.42969,21.710938 v 5.017578 a 5.2944789,5.2890067 0 0 1 2.32226,0.753906 l 2.95117,-4.0625 a 10.30972,10.299065 0 0 0 -5.27343,-1.708984 z"
       id="tile_swap_01_10" />
    <path
       style="display:inline;fill:#000000;fill-opacity:1;stroke:none;stroke-width:0.487223;stroke-linecap:round;stroke-linejoin:round;stroke-opacity:1"
       d="m 38.39844,23.925781 -2.95117,4.060547 a 5.2944789,5.2890067 0 0 1 1.4375,1.97461 l 4.77734,-1.552735 a 10.30972,10.299065 0 0 0 -3.26367,-4.482422 z"
       id="tile_swap_02_10" />
    <path
       style="display:inline;fill:#000000;fill-opacity:1;stroke:none;stroke-width:0.487223;stroke-linecap:round;stroke-linejoin:round;stroke-opacity:1"
       d="m 41.92969,29.226562 -4.7793,1.552735 A 5.2944789,5.2890067 0 0 1 37.29492,32 5.2944789,5.2890067 0 0 1 37.15039,33.220703 l 4.7793,1.552735 A 10.30972,10.299065 0 0 0 42.31055,32 10.30972,10.299065 0 0 0 41.92969,29.226562 Z"
       id="tile_swap_03_10" />
    <path
       style="display:inline;fill:#000000;fill-opacity:1;stroke:none;stroke-width:0.487223;stroke-linecap:round;stroke-linejoin:round;stroke-opacity:1"
       d="m 36.88477,34.041062 a 5.2944789,5.2890067 0 0 1 -1.4375,1.972656 l 2.95117,4.060547 a 10.30972,10.299065 0 0 0 3.26367,-4.480469 z"
       id="tile_swap_04_10" />
    <path
       style="display:inline;fill:#000000;fill-opacity:1;stroke:none;stroke-width:0.487223;stroke-linecap:round;stroke-linejoin:round;stroke-opacity:1"
       d="m 34.75195,36.517624 a 5.2944789,5.2890067 0 0 1 -2.32226,0.753906 v 5.017578 a 10.30972,10.299065 0 0 0 5.27343,-1.708984 z"
       id="tile_swap_05_10" />
    <path
       style="display:inline;fill:#000000;fill-opacity:1;stroke:none;stroke-width:0.487223;stroke-linecap:round;stroke-linejoin:round;stroke-opacity:1"
       d="m 29.24805,36.517624 -2.95117,4.0625 a 10.30972,10.299065 0 0 0 5.27343,1.708984 V 37.27153 a 5.2944789,5.2890067 0 0 1 -2.32226,-0.753906 z"
       id="tile_swap_06_10" />
    <path
       style="display:inline;fill:#000000;fill-opacity:1;stroke:none;stroke-width:0.487223;stroke-linecap:round;stroke-linejoin:round;stroke-opacity:1"
       d="m 27.11523,34.039062 -4.77734,1.552735 a 10.30972,10.299065 0 0 0 3.26367,4.482422 l 2.95117,-4.060547 a 5.2944789,5.2890067 0 0 1 -1.4375,-1.97461 z"
       id="tile_swap_07_10" />
    <path
       style="display:inline;fill:#000000;fill-opacity:1;stroke:none;stroke-width:0.487223;stroke-linecap:round;stroke-linejoin:round;stroke-opacity:1"
       d="M 22.07031,29.226562 A 10.30972,10.299065 0 0 0 21.68945,32 a 10.30972,10.299065 0 0 0 0.38086,2.773438 l 4.7793,-1.552735 A 5.2944789,5.2890067 0 0 1 26.70508,32 5.2944789,5.2890067 0 0 1 26.84961,30.779297 Z"
       id="tile_swap_08_10" />
    <path
       style="display:inline;fill:#000000;fill-opacity:1;stroke:none;stroke-width:0.487223;stroke-linecap:round;stroke-linejoin:round;stroke-opacity:1"
       d="m 25.60156,23.925781 a 10.30972,10.299065 0 0 0 -3.26367,4.480469 l 4.77734,1.552734 a 5.2944789,5.2890067 0 0 1 1.4375,-1.972656 z"
       id="tile_swap_09_10" />
    <path
       style="display:inline;fill:#000000;fill-opacity:1;stroke:none;stroke-width:0.487223;stroke-linecap:round;stroke-linejoin:round;stroke-opacity:1"
       d="m 31.57031,21.710938 a 10.30972,10.299065 0 0 0 -5.27343,1.708984 l 2.95117,4.0625 a 5.2944789,5.2890067 0 0 1 2.32226,-0.753906 z"
       id="tile_swap_10_10" />
    <path
       id="tile_mem_05_10"
       style="display:inline;fill:#000000;fill-opacity:1;stroke:none;stroke-width:0.487223;stroke-linecap:round;stroke-linejoin:round;stroke-opacity:1"
       d="m 38.425781,41.574219 a 11.53838,11.526455 0 0 1 -5.99609,1.943359 v 8.634766 a 20.155466,20.155466 0 0 0 11.0664,-3.597656 z" />
    <path
       id="tile_mem_06_10"
       style="display:inline;fill:#000000;fill-opacity:1;stroke:none;stroke-width:0.487223;stroke-linecap:round;stroke-linejoin:round;stroke-opacity:1"
       d="m 25.574221,41.574219 -5.07031,6.980469 a 20.155466,20.155466 0 0 0 11.0664,3.595703 v -8.63086 a 11.53838,11.526455 0 0 1 -5.99609,-1.945312 z" />
    <path
       id="tile_mem_04_10"
       style="display:inline;fill:#000000;fill-opacity:1;stroke:none;stroke-width:0.487223;stroke-linecap:round;stroke-linejoin:round;stroke-opacity:1"
       d="m 42.832031,35.972656 a 11.53838,11.526455 0 0 1 -3.71094,5.097656 l 5.07227,6.980469 a 20.155466,20.155466 0 0 0 6.83789,-9.414062 z" />
    <path
       id="tile_mem_07_10"
       style="display:inline;fill:#000000;fill-opacity:1;stroke:none;stroke-width:0.487223;stroke-linecap:round;stroke-linejoin:round;stroke-opacity:1"
       d="m 21.167971,35.972656 -8.20117,2.664063 a 20.155466,20.155466 0 0 0 6.83984,9.412109 l 5.07227,-6.978516 a 11.53838,11.526455 0 0 1 -3.71094,-5.097656 z" />
    <path
       id="tile_mem_03_10"
       style="display:inline;fill:#000000;fill-opacity:1;stroke:none;stroke-width:0.487223;stroke-linecap:round;stroke-linejoin:round;stroke-opacity:1"
       d="m 51.298831,26.181641 -8.20117,2.664062 A 11.53838,11.526455 0 0 1 43.539061,32 a 11.53838,11.526455 0 0 1 -0.43945,3.154297 l 8.19727,2.664062 A 20.155466,20.155466 0 0 0 52.156251,32 20.155466,20.155466 0 0 0 51.298831,26.181641 Z" />
    <path
       id="tile_mem_08_10"
       style="display:inline;fill:#000000;fill-opacity:1;stroke:none;stroke-width:0.487223;stroke-linecap:round;stroke-linejoin:round;stroke-opacity:1"
       d="M 12.703121,26.181641 A 20.155466,20.155466 0 0 0 11.843751,32 a 20.155466,20.155466 0 0 0 0.85742,5.818359 l 8.20117,-2.664062 A 11.53838,11.526455 0 0 1 20.460941,32 a 11.53838,11.526455 0 0 1 0.43945,-3.154297 z" />
    <path
       id="tile_mem_02_10"
       style="display:inline;fill:#000000;fill-opacity:1;stroke:none;stroke-width:0.487223;stroke-linecap:round;stroke-linejoin:round;stroke-opacity:1"
       d="m 44.193361,15.951172 -5.07227,6.978516 a 11.53838,11.526455 0 0 1 3.71094,5.097656 l 8.20117,-2.664063 a 20.155466,20.155466 0 0 0 -6.83984,-9.412109 z" />
    <path
       id="tile_mem_09_10"
       style="display:inline;fill:#000000;fill-opacity:1;stroke:none;stroke-width:0.487223;stroke-linecap:round;stroke-linejoin:round;stroke-opacity:1"
       d="m 19.806641,15.949219 a 20.155466,20.155466 0 0 0 -6.83789,9.414062 l 8.19922,2.664063 a 11.53838,11.526455 0 0 1 3.71094,-5.097656 z" />
    <path
       id="tile_mem_01_10"
       style="display:inline;fill:#000000;fill-opacity:1;stroke:none;stroke-width:0.487223;stroke-linecap:round;stroke-linejoin:round;stroke-opacity:1"
       d="m 32.429691,11.849609 v 8.63086 a 11.53838,11.526455 0 0 1 5.99609,1.945312 l 5.07031,-6.980469 a 20.155466,20.155466 0 0 0 -11.0664,-3.595703 z" />
    <path
       id="tile_mem_10_10"
       style="display:inline;fill:#000000;fill-opacity:1;stroke:none;stroke-width:0.487223;stroke-linecap:round;stroke-linejoin:round;stroke-opacity:1"
       d="m 31.570311,11.847656 a 20.155466,20.155466 0 0 0 -11.0664,3.597656 l 5.07031,6.980469 a 11.53838,11.526455 0 0 1 5.99609,-1.943359 z" />
  </g>
</svg>
