<?xml version="1.0" encoding="UTF-8" standalone="no"?>
<svg
   xmlns:dc="http://purl.org/dc/elements/1.1/"
   xmlns:cc="http://creativecommons.org/ns#"
   xmlns:rdf="http://www.w3.org/1999/02/22-rdf-syntax-ns#"
   xmlns:svg="http://www.w3.org/2000/svg"
   xmlns="http://www.w3.org/2000/svg"
   xmlns:xlink="http://www.w3.org/1999/xlink"
   xmlns:sodipodi="http://sodipodi.sourceforge.net/DTD/sodipodi-0.dtd"
   xmlns:inkscape="http://www.inkscape.org/namespaces/inkscape"
   version="1.1"
   id="svg2"
   width="64"
   height="64"
   viewBox="0 0 64 64"
   sodipodi:docname="tiles_20.svg"
   inkscape:export-filename="/tmp/off/parts_mem_10.png"
   inkscape:export-xdpi="96"
   inkscape:export-ydpi="96"
   inkscape:version="1.0.2 (e86c870879, 2021-01-15)">
  <metadata
     id="metadata8">
    <rdf:RDF>
      <cc:Work
         rdf:about="">
        <dc:format>image/svg+xml</dc:format>
        <dc:type
           rdf:resource="http://purl.org/dc/dcmitype/StillImage" />
        <dc:title></dc:title>
      </cc:Work>
    </rdf:RDF>
  </metadata>
  <defs
     id="defs6">
    <linearGradient
       inkscape:collect="always"
       id="linearGradient925">
      <stop
         style="stop-color:#fefefe;stop-opacity:1"
         offset="0"
         id="stop921" />
      <stop
         style="stop-color:#000000;stop-opacity:1"
         offset="1"
         id="stop923" />
    </linearGradient>
    <linearGradient
       inkscape:collect="always"
       id="linearGradient846">
      <stop
         style="stop-color:#e7e7e7;stop-opacity:1"
         offset="0"
         id="stop882" />
      <stop
         style="stop-color:#838395;stop-opacity:1"
         offset="0.16739658"
         id="stop901" />
      <stop
         style="stop-color:#131313;stop-opacity:1"
         offset="1"
         id="stop884" />
    </linearGradient>
    <linearGradient
       inkscape:collect="always"
       xlink:href="#linearGradient846"
       id="linearGradient899"
       x1="-34.493919"
       y1="47.898342"
       x2="-64.723785"
       y2="8.5707321"
       gradientUnits="userSpaceOnUse"
       gradientTransform="translate(20)" />
    <linearGradient
       inkscape:collect="always"
       xlink:href="#linearGradient925"
       id="linearGradient927"
       x1="11.714334"
       y1="2.114362"
       x2="46.537399"
       y2="47.38121"
       gradientUnits="userSpaceOnUse"
       gradientTransform="translate(-60)" />
  </defs>
  <sodipodi:namedview
     pagecolor="#ffffff"
     bordercolor="#666666"
     borderopacity="1"
     objecttolerance="10"
     gridtolerance="10"
     guidetolerance="10"
     inkscape:pageopacity="0"
     inkscape:pageshadow="2"
     inkscape:window-width="2496"
     inkscape:window-height="1440"
     id="namedview4"
     showgrid="false"
     showguides="false"
     inkscape:zoom="11.313708"
     inkscape:cx="37.551261"
     inkscape:cy="30.182071"
     inkscape:window-x="0"
     inkscape:window-y="0"
     inkscape:window-maximized="1"
     inkscape:current-layer="g10"
     inkscape:document-rotation="0"
     inkscape:guide-bbox="true">
    <sodipodi:guide
       position="29,29"
       orientation="-1,0"
       id="guide981"
       inkscape:label=""
       inkscape:locked="false"
       inkscape:color="rgb(0,0,255)" />
    <sodipodi:guide
       position="29,29"
       orientation="0,-1"
       id="guide983" />
  </sodipodi:namedview>
  <g
     inkscape:groupmode="layer"
     inkscape:label="Image"
     id="g10">
    <g
       id="g3453"
       transform="translate(3,3)">
      <circle
         style="opacity:1;fill:#6ec63b;fill-opacity:1;stroke:none;stroke-width:0.515019;stroke-linecap:round;stroke-linejoin:round;stroke-opacity:1"
         id="background_on"
         cx="29"
         cy="29"
         r="24.460445" />
      <circle
         style="opacity:1;fill:#8e968a;fill-opacity:1;stroke:none;stroke-width:0.515019;stroke-linecap:round;stroke-linejoin:round;stroke-opacity:1"
         id="background_off"
         cx="29"
         cy="29"
         r="24.460445" />
      <path
         id="tiles_mem_20_transparent"
         style="display:inline;fill:#000000;fill-opacity:0.176471;stroke:none;stroke-width:0.478529;stroke-linecap:round;stroke-linejoin:round;stroke-opacity:1"
         d="m 28.57031,8.8476591 a 20.155466,20.155466 0 0 0 -5.38867,0.8535157 l 2.66797,8.2089842 a 11.53838,11.526455 0 0 1 2.7207,-0.427734 z m 0.85938,0.00195 v 8.6308599 a 11.53838,11.526455 0 0 1 2.7207,0.429687 L 34.81836,9.7031247 A 20.155466,20.155466 0 0 0 29.42969,8.8496091 Z m -7.06641,1.1171875 a 20.155466,20.155466 0 0 0 -4.86133,2.4785154 l 5.07227,6.980469 a 11.53838,11.526455 0 0 1 2.45703,-1.25 z m 13.27344,0.00195 -2.66797,8.2070314 a 11.53838,11.526455 0 0 1 2.45703,1.25 l 5.07227,-6.980469 A 20.155466,20.155466 0 0 0 35.63672,9.9687529 Z M 16.80664,12.949216 a 20.155466,20.155466 0 0 0 -3.85547,3.857422 l 6.97656,5.070312 a 11.53838,11.526455 0 0 1 1.95118,-1.947265 z m 24.38672,0.002 -5.07031,6.978516 a 11.53838,11.526455 0 0 1 1.94922,1.949218 l 6.97851,-5.072265 a 20.155466,20.155466 0 0 0 -3.85742,-3.855469 z m -28.74805,4.550781 a 20.155466,20.155466 0 0 0 -2.47656,4.861328 l 8.19922,2.664063 a 11.53838,11.526455 0 0 1 1.25391,-2.455078 z m 33.10938,0 -6.97657,5.070313 a 11.53838,11.526455 0 0 1 1.25391,2.455078 L 48.0332,22.363325 A 20.155466,20.155466 0 0 0 45.55469,17.501997 Z M 9.70312,23.181685 a 20.155466,20.155466 0 0 0 -0.85351,5.388671 h 8.61914 a 11.53838,11.526455 0 0 1 0.43164,-2.724609 z m 38.59571,0 -8.20117,2.664062 a 11.53838,11.526455 0 0 1 0.43164,2.724609 h 8.62304 A 20.155466,20.155466 0 0 0 48.29883,23.181685 Z M 8.84766,29.429732 a 20.155466,20.155466 0 0 0 0.85351,5.388671 l 8.20117,-2.664062 A 11.53838,11.526455 0 0 1 17.4707,29.429732 Z m 31.68359,0 a 11.53838,11.526455 0 0 1 -0.43164,2.724609 l 8.19727,2.664062 a 20.155466,20.155466 0 0 0 0.85351,-5.388671 z M 18.16797,32.9727 9.9668,35.636763 a 20.155466,20.155466 0 0 0 2.47851,4.861328 l 6.97657,-5.070313 A 11.53838,11.526455 0 0 1 18.16797,32.9727 Z m 21.66406,0 a 11.53838,11.526455 0 0 1 -1.25391,2.455078 l 6.97657,5.070313 a 20.155466,20.155466 0 0 0 2.47656,-4.861328 z m -19.9043,3.148438 -6.97851,5.072265 a 20.155466,20.155466 0 0 0 3.85742,3.855469 l 5.07031,-6.978516 a 11.53838,11.526455 0 0 1 -1.94922,-1.949218 z m 18.14454,0.002 a 11.53838,11.526455 0 0 1 -1.95118,1.947265 l 5.07227,6.980469 a 20.155466,20.155466 0 0 0 3.85547,-3.857422 z m -15.49805,2.451172 -5.07227,6.980469 a 20.155466,20.155466 0 0 0 4.86133,2.476562 l 2.66797,-8.207031 a 11.53838,11.526455 0 0 1 -2.45703,-1.25 z m 12.85156,0 a 11.53838,11.526455 0 0 1 -2.45703,1.25 l 2.66797,8.208984 a 20.155466,20.155466 0 0 0 4.86133,-2.478515 z m -9.57617,1.515625 -2.66797,8.207031 a 20.155466,20.155466 0 0 0 5.38867,0.853516 v -8.63086 a 11.53838,11.526455 0 0 1 -2.7207,-0.429687 z m 6.30078,0 a 11.53838,11.526455 0 0 1 -2.7207,0.427734 v 8.634766 a 20.155466,20.155466 0 0 0 5.38867,-0.853516 z" />
      <g
         id="bezel"
         transform="translate(60)">
        <path
           id="bezel_outer_ring"
           style="opacity:1;fill:url(#linearGradient927);fill-opacity:1;stroke-width:0.35891;stroke-linecap:round;stroke-linejoin:round"
           d="M -31,0 A 29,29 0 0 0 -60,29 29,29 0 0 0 -31,58 29,29 0 0 0 -2,29 29,29 0 0 0 -31,0 Z m 0,4.7851562 A 24.214966,24.214966 0 0 1 -6.785156,29 24.214966,24.214966 0 0 1 -31,53.214844 24.214966,24.214966 0 0 1 -55.214844,29 24.214966,24.214966 0 0 1 -31,4.7851562 Z" />
        <path
           id="bezel_inner_ring"
           style="opacity:1;fill:#000000;fill-opacity:1;stroke-width:0.359823;stroke-linecap:round;stroke-linejoin:round"
           d="M -31.067025,3.5422213 A 25.457983,25.457983 0 0 0 -56.457779,29 25.457983,25.457983 0 0 0 -31,54.457779 25.457983,25.457983 0 0 0 -5.542221,29 25.457983,25.457983 0 0 0 -31,3.5422213 a 25.457983,25.457983 0 0 0 -0.06703,0 z m 0.0099,3.6371072 a 21.821394,21.821394 0 0 1 0.05717,0 A 21.821394,21.821394 0 0 1 -9.179328,29 21.821394,21.821394 0 0 1 -31,50.820672 21.821394,21.821394 0 0 1 -52.820672,29 21.821394,21.821394 0 0 1 -31.057169,7.1793285 Z" />
        <path
           id="bezel_main"
           style="opacity:1;fill:url(#linearGradient899);fill-opacity:1;stroke-width:0.3565;stroke-linecap:round;stroke-linejoin:round"
           d="M -31,0.19469488 A 28.805305,28.805305 0 0 0 -59.805305,29 28.805305,28.805305 0 0 0 -31,57.805305 28.805305,28.805305 0 0 0 -2.194695,29 28.805305,28.805305 0 0 0 -31,0.19469488 Z m 0,6.81526382 A 21.990948,21.990948 0 0 1 -9.009959,29 21.990948,21.990948 0 0 1 -31,50.990041 21.990948,21.990948 0 0 1 -52.990041,29 21.990948,21.990948 0 0 1 -31,7.0099587 Z" />
      </g>
      <path
         id="tiles_swap_20_transparent"
         style="display:inline;fill:#000000;fill-opacity:0.176471;stroke:none;stroke-width:0.260171;stroke-linecap:round;stroke-linejoin:round;stroke-opacity:1"
         d="m 28.57031,18.710938 a 10.30972,10.299065 0 0 0 -2.34179,0.371093 l 1.55078,4.771485 a 5.2944789,5.2890067 0 0 1 0.79101,-0.125 z m 0.85938,0.002 v 5.015625 a 5.2944789,5.2890067 0 0 1 0.79101,0.125 l 1.55078,-4.771485 a 10.30972,10.299065 0 0 0 -2.34179,-0.36914 z m -4.01953,0.632812 a 10.30972,10.299065 0 0 0 -2.11133,1.076172 l 2.94922,4.060547 a 5.2944789,5.2890067 0 0 1 0.71289,-0.363281 z m 7.17968,0.002 -1.55078,4.771485 a 5.2944789,5.2890067 0 0 1 0.71289,0.363281 l 2.94922,-4.060547 A 10.30972,10.299065 0 0 0 32.58984,19.34775 Z m -9.98828,1.578125 a 10.30972,10.299065 0 0 0 -1.67773,1.673828 l 4.0625,2.953125 a 5.2944789,5.2890067 0 0 1 0.5664,-0.566406 z m 12.79688,0 -2.94922,4.060547 a 5.2944789,5.2890067 0 0 1 0.5664,0.566406 l 4.06055,-2.951172 a 10.30972,10.299065 0 0 0 -1.67773,-1.675781 z m -14.98047,2.369141 a 10.30972,10.299065 0 0 0 -1.07813,2.113281 l 4.77539,1.552735 a 5.2944789,5.2890067 0 0 1 0.36524,-0.714844 z m 17.16406,0 -4.06055,2.951172 a 5.2944789,5.2890067 0 0 1 0.36329,0.714844 l 4.77539,-1.552735 a 10.30972,10.299065 0 0 0 -1.07813,-2.113281 z m -18.50976,2.93164 a 10.30972,10.299065 0 0 0 -0.3711,2.34375 h 5.02149 a 5.2944789,5.2890067 0 0 1 0.12695,-0.791015 z m 19.85546,0 -4.77734,1.552735 a 5.2944789,5.2890067 0 0 1 0.12695,0.791015 h 5.02344 a 10.30972,10.299065 0 0 0 -0.37305,-2.34375 z m -20.22851,3.203126 a 10.30972,10.299065 0 0 0 0.37305,2.34375 l 4.77734,-1.552735 a 5.2944789,5.2890067 0 0 1 -0.12695,-0.791015 z m 15.57812,0 a 5.2944789,5.2890067 0 0 1 -0.12695,0.791015 l 4.77734,1.552735 a 10.30972,10.299065 0 0 0 0.3711,-2.34375 z m -10.16211,1.609374 -4.77539,1.552735 a 10.30972,10.299065 0 0 0 1.07813,2.113281 L 24.47852,31.754 a 5.2944789,5.2890067 0 0 1 -0.36329,-0.714844 z m 9.76954,0 A 5.2944789,5.2890067 0 0 1 33.51953,31.754 l 4.0625,2.951172 a 10.30972,10.299065 0 0 0 1.07813,-2.113281 z m -8.90039,1.408204 -4.06055,2.951172 a 10.30972,10.299065 0 0 0 1.67773,1.675781 l 2.94922,-4.060547 a 5.2944789,5.2890067 0 0 1 -0.5664,-0.566406 z m 8.02929,0 a 5.2944789,5.2890067 0 0 1 -0.5664,0.566406 l 2.95117,4.060547 a 10.30972,10.299065 0 0 0 1.67773,-1.673828 z m -6.76562,1.070312 -2.94922,4.060547 a 10.30972,10.299065 0 0 0 2.11133,1.074219 l 1.55078,-4.771485 a 5.2944789,5.2890067 0 0 1 -0.71289,-0.363281 z m 5.5039,0 a 5.2944789,5.2890067 0 0 1 -0.71289,0.363281 l 1.55078,4.773438 a 10.30972,10.299065 0 0 0 2.11133,-1.076172 z m -3.97265,0.628906 -1.55078,4.771485 a 10.30972,10.299065 0 0 0 2.34179,0.36914 v -5.015625 a 5.2944789,5.2890067 0 0 1 -0.79101,-0.125 z m 2.4414,0 a 5.2944789,5.2890067 0 0 1 -0.79101,0.125 v 5.017578 a 10.30972,10.299065 0 0 0 2.34179,-0.371093 z" />
      <path
         style="display:inline;fill:#000000;fill-opacity:1;stroke:none;stroke-width:0.260171;stroke-linecap:round;stroke-linejoin:round;stroke-opacity:1"
         d="m 29.42969,18.712938 v 5.015625 a 5.2944789,5.2890067 0 0 1 0.79101,0.125 l 1.55078,-4.771485 a 10.30972,10.299065 0 0 0 -2.34179,-0.36914 z"
         id="tile_swap_01_20" />
      <path
         style="display:inline;fill:#000000;fill-opacity:1;stroke:none;stroke-width:0.260171;stroke-linecap:round;stroke-linejoin:round;stroke-opacity:1"
         d="m 32.58984,19.34775 -1.55078,4.771485 a 5.2944789,5.2890067 0 0 1 0.71289,0.363281 l 2.94922,-4.060547 A 10.30972,10.299065 0 0 0 32.58984,19.34775 Z"
         id="tile_swap_02_20" />
      <path
         style="display:inline;fill:#000000;fill-opacity:1;stroke:none;stroke-width:0.260171;stroke-linecap:round;stroke-linejoin:round;stroke-opacity:1"
         d="m 35.39844,20.925875 -2.94922,4.060547 a 5.2944789,5.2890067 0 0 1 0.5664,0.566406 l 4.06055,-2.951172 a 10.30972,10.299065 0 0 0 -1.67773,-1.675781 z"
         id="tile_swap_03_20" />
      <path
         style="display:inline;fill:#000000;fill-opacity:1;stroke:none;stroke-width:0.260171;stroke-linecap:round;stroke-linejoin:round;stroke-opacity:1"
         d="m 37.58203,23.295016 -4.06055,2.951172 a 5.2944789,5.2890067 0 0 1 0.36329,0.714844 l 4.77539,-1.552735 a 10.30972,10.299065 0 0 0 -1.07813,-2.113281 z"
         id="tile_swap_04_20" />
      <path
         style="display:inline;fill:#000000;fill-opacity:1;stroke:none;stroke-width:0.260171;stroke-linecap:round;stroke-linejoin:round;stroke-opacity:1"
         d="m 38.92773,26.226656 -4.77734,1.552735 a 5.2944789,5.2890067 0 0 1 0.12695,0.791015 h 5.02344 a 10.30972,10.299065 0 0 0 -0.37305,-2.34375 z"
         id="tile_swap_05_20" />
      <path
         style="display:inline;fill:#000000;fill-opacity:1;stroke:none;stroke-width:0.260171;stroke-linecap:round;stroke-linejoin:round;stroke-opacity:1"
         d="m 34.27734,29.429782 a 5.2944789,5.2890067 0 0 1 -0.12695,0.791015 l 4.77734,1.552735 a 10.30972,10.299065 0 0 0 0.3711,-2.34375 z"
         id="tile_swap_06_20" />
      <path
         style="display:inline;fill:#000000;fill-opacity:1;stroke:none;stroke-width:0.260171;stroke-linecap:round;stroke-linejoin:round;stroke-opacity:1"
         d="M 33.88477,31.039156 A 5.2944789,5.2890067 0 0 1 33.51953,31.754 l 4.0625,2.951172 a 10.30972,10.299065 0 0 0 1.07813,-2.113281 z"
         id="tile_swap_07_20" />
      <path
         style="display:inline;fill:#000000;fill-opacity:1;stroke:none;stroke-width:0.260171;stroke-linecap:round;stroke-linejoin:round;stroke-opacity:1"
         d="m 33.01367,32.44736 a 5.2944789,5.2890067 0 0 1 -0.5664,0.566406 l 2.95117,4.060547 a 10.30972,10.299065 0 0 0 1.67773,-1.673828 z"
         id="tile_swap_08_20" />
      <path
         style="display:inline;fill:#000000;fill-opacity:1;stroke:none;stroke-width:0.260171;stroke-linecap:round;stroke-linejoin:round;stroke-opacity:1"
         d="m 31.75195,33.517672 a 5.2944789,5.2890067 0 0 1 -0.71289,0.363281 l 1.55078,4.773438 a 10.30972,10.299065 0 0 0 2.11133,-1.076172 z"
         id="tile_swap_09_20" />
      <path
         style="display:inline;fill:#000000;fill-opacity:1;stroke:none;stroke-width:0.260171;stroke-linecap:round;stroke-linejoin:round;stroke-opacity:1"
         d="m 30.2207,34.146578 a 5.2944789,5.2890067 0 0 1 -0.79101,0.125 v 5.017578 a 10.30972,10.299065 0 0 0 2.34179,-0.371093 z"
         id="tile_swap_10_20" />
      <path
         style="display:inline;fill:#000000;fill-opacity:1;stroke:none;stroke-width:0.260171;stroke-linecap:round;stroke-linejoin:round;stroke-opacity:1"
         d="m 27.7793,34.146578 -1.55078,4.771485 a 10.30972,10.299065 0 0 0 2.34179,0.36914 v -5.015625 a 5.2944789,5.2890067 0 0 1 -0.79101,-0.125 z"
         id="tile_swap_11_20" />
      <path
         style="display:inline;fill:#000000;fill-opacity:1;stroke:none;stroke-width:0.260171;stroke-linecap:round;stroke-linejoin:round;stroke-opacity:1"
         d="m 26.24805,33.517672 -2.94922,4.060547 a 10.30972,10.299065 0 0 0 2.11133,1.074219 l 1.55078,-4.771485 a 5.2944789,5.2890067 0 0 1 -0.71289,-0.363281 z"
         id="tile_swap_12_20" />
      <path
         style="display:inline;fill:#000000;fill-opacity:1;stroke:none;stroke-width:0.260171;stroke-linecap:round;stroke-linejoin:round;stroke-opacity:1"
         d="m 24.98438,32.44736 -4.06055,2.951172 a 10.30972,10.299065 0 0 0 1.67773,1.675781 l 2.94922,-4.060547 a 5.2944789,5.2890067 0 0 1 -0.5664,-0.566406 z"
         id="tile_swap_13_20" />
      <path
         style="display:inline;fill:#000000;fill-opacity:1;stroke:none;stroke-width:0.260171;stroke-linecap:round;stroke-linejoin:round;stroke-opacity:1"
         d="m 24.11523,31.039156 -4.77539,1.552735 a 10.30972,10.299065 0 0 0 1.07813,2.113281 L 24.47852,31.754 a 5.2944789,5.2890067 0 0 1 -0.36329,-0.714844 z"
         id="tile_swap_14_20" />
      <path
         style="display:inline;fill:#000000;fill-opacity:1;stroke:none;stroke-width:0.260171;stroke-linecap:round;stroke-linejoin:round;stroke-opacity:1"
         d="m 18.69922,29.429782 a 10.30972,10.299065 0 0 0 0.37305,2.34375 l 4.77734,-1.552735 a 5.2944789,5.2890067 0 0 1 -0.12695,-0.791015 z"
         id="tile_swap_15_20" />
      <path
         style="display:inline;fill:#000000;fill-opacity:1;stroke:none;stroke-width:0.260171;stroke-linecap:round;stroke-linejoin:round;stroke-opacity:1"
         d="m 19.07227,26.226656 a 10.30972,10.299065 0 0 0 -0.3711,2.34375 h 5.02149 a 5.2944789,5.2890067 0 0 1 0.12695,-0.791015 z"
         id="tile_swap_16_20" />
      <path
         style="display:inline;fill:#000000;fill-opacity:1;stroke:none;stroke-width:0.260171;stroke-linecap:round;stroke-linejoin:round;stroke-opacity:1"
         d="m 20.41797,23.295016 a 10.30972,10.299065 0 0 0 -1.07813,2.113281 l 4.77539,1.552735 a 5.2944789,5.2890067 0 0 1 0.36524,-0.714844 z"
         id="tile_swap_17_20" />
      <path
         style="display:inline;fill:#000000;fill-opacity:1;stroke:none;stroke-width:0.260171;stroke-linecap:round;stroke-linejoin:round;stroke-opacity:1"
         d="m 22.60156,20.925875 a 10.30972,10.299065 0 0 0 -1.67773,1.673828 l 4.0625,2.953125 a 5.2944789,5.2890067 0 0 1 0.5664,-0.566406 z"
         id="tile_swap_18_20" />
      <path
         style="display:inline;fill:#000000;fill-opacity:1;stroke:none;stroke-width:0.260171;stroke-linecap:round;stroke-linejoin:round;stroke-opacity:1"
         d="m 25.41016,19.34575 a 10.30972,10.299065 0 0 0 -2.11133,1.076172 l 2.94922,4.060547 a 5.2944789,5.2890067 0 0 1 0.71289,-0.363281 z"
         id="tile_swap_19_20" />
      <path
         style="display:inline;fill:#000000;fill-opacity:1;stroke:none;stroke-width:0.260171;stroke-linecap:round;stroke-linejoin:round;stroke-opacity:1"
         d="m 28.57031,18.710938 a 10.30972,10.299065 0 0 0 -2.34179,0.371093 l 1.55078,4.771485 a 5.2944789,5.2890067 0 0 1 0.79101,-0.125 z"
         id="tile_swap_20_20" />
      <path
         id="tile_mem_10_20"
         style="display:inline;fill:#000000;fill-opacity:1;stroke:none;stroke-width:0.478529;stroke-linecap:round;stroke-linejoin:round;stroke-opacity:1"
         d="m 32.15039,40.089891 a 11.53838,11.526455 0 0 1 -2.7207,0.427734 v 8.634766 a 20.155466,20.155466 0 0 0 5.38867,-0.853516 z" />
      <path
         id="tile_mem_11_20"
         style="display:inline;fill:#000000;fill-opacity:1;stroke:none;stroke-width:0.478529;stroke-linecap:round;stroke-linejoin:round;stroke-opacity:1"
         d="m 25.84961,40.089891 -2.66797,8.207031 a 20.155466,20.155466 0 0 0 5.38867,0.853516 v -8.63086 a 11.53838,11.526455 0 0 1 -2.7207,-0.429687 z" />
      <path
         id="tile_mem_09_20"
         style="display:inline;fill:#000000;fill-opacity:1;stroke:none;stroke-width:0.478529;stroke-linecap:round;stroke-linejoin:round;stroke-opacity:1"
         d="m 35.42578,38.574266 a 11.53838,11.526455 0 0 1 -2.45703,1.25 l 2.66797,8.208984 a 20.155466,20.155466 0 0 0 4.86133,-2.478515 z" />
      <path
         id="tile_mem_12_20"
         style="display:inline;fill:#000000;fill-opacity:1;stroke:none;stroke-width:0.478529;stroke-linecap:round;stroke-linejoin:round;stroke-opacity:1"
         d="m 22.57422,38.574266 -5.07227,6.980469 a 20.155466,20.155466 0 0 0 4.86133,2.476562 l 2.66797,-8.207031 a 11.53838,11.526455 0 0 1 -2.45703,-1.25 z" />
      <path
         id="tile_mem_08_20"
         style="display:inline;fill:#000000;fill-opacity:1;stroke:none;stroke-width:0.478529;stroke-linecap:round;stroke-linejoin:round;stroke-opacity:1"
         d="m 38.07227,36.123094 a 11.53838,11.526455 0 0 1 -1.95118,1.947265 l 5.07227,6.980469 a 20.155466,20.155466 0 0 0 3.85547,-3.857422 z" />
      <path
         id="tile_mem_13_20"
         style="display:inline;fill:#000000;fill-opacity:1;stroke:none;stroke-width:0.478529;stroke-linecap:round;stroke-linejoin:round;stroke-opacity:1"
         d="m 19.92773,36.121141 -6.97851,5.072265 a 20.155466,20.155466 0 0 0 3.85742,3.855469 l 5.07031,-6.978516 a 11.53838,11.526455 0 0 1 -1.94922,-1.949218 z" />
      <path
         id="tile_mem_07_20"
         style="display:inline;fill:#000000;fill-opacity:1;stroke:none;stroke-width:0.478529;stroke-linecap:round;stroke-linejoin:round;stroke-opacity:1"
         d="m 39.83203,32.972703 a 11.53838,11.526455 0 0 1 -1.25391,2.455078 l 6.97657,5.070313 a 20.155466,20.155466 0 0 0 2.47656,-4.861328 z" />
      <path
         id="tile_mem_14_20"
         style="display:inline;fill:#000000;fill-opacity:1;stroke:none;stroke-width:0.478529;stroke-linecap:round;stroke-linejoin:round;stroke-opacity:1"
         d="M 18.16797,32.972703 9.9668,35.636766 a 20.155466,20.155466 0 0 0 2.47851,4.861328 l 6.97657,-5.070313 a 11.53838,11.526455 0 0 1 -1.25391,-2.455078 z" />
      <path
         id="tile_mem_06_20"
         style="display:inline;fill:#000000;fill-opacity:1;stroke:none;stroke-width:0.478529;stroke-linecap:round;stroke-linejoin:round;stroke-opacity:1"
         d="m 40.53125,29.429735 a 11.53838,11.526455 0 0 1 -0.43164,2.724609 l 8.19727,2.664062 a 20.155466,20.155466 0 0 0 0.85351,-5.388671 z" />
      <path
         id="tile_mem_15_20"
         style="display:inline;fill:#000000;fill-opacity:1;stroke:none;stroke-width:0.478529;stroke-linecap:round;stroke-linejoin:round;stroke-opacity:1"
         d="m 8.84766,29.429735 a 20.155466,20.155466 0 0 0 0.85351,5.388671 l 8.20117,-2.664062 A 11.53838,11.526455 0 0 1 17.4707,29.429735 Z" />
      <path
         id="tile_mem_05_20"
         style="display:inline;fill:#000000;fill-opacity:1;stroke:none;stroke-width:0.478529;stroke-linecap:round;stroke-linejoin:round;stroke-opacity:1"
         d="m 48.29883,23.181688 -8.20117,2.664062 a 11.53838,11.526455 0 0 1 0.43164,2.724609 h 8.62304 a 20.155466,20.155466 0 0 0 -0.85351,-5.388671 z" />
      <path
         id="tile_mem_16_20"
         style="display:inline;fill:#000000;fill-opacity:1;stroke:none;stroke-width:0.478529;stroke-linecap:round;stroke-linejoin:round;stroke-opacity:1"
         d="m 9.70312,23.181688 a 20.155466,20.155466 0 0 0 -0.85351,5.388671 h 8.61914 a 11.53838,11.526455 0 0 1 0.43164,-2.724609 z" />
      <path
         id="tile_mem_04_20"
         style="display:inline;fill:#000000;fill-opacity:1;stroke:none;stroke-width:0.478529;stroke-linecap:round;stroke-linejoin:round;stroke-opacity:1"
         d="m 45.55469,17.502 -6.97657,5.070313 a 11.53838,11.526455 0 0 1 1.25391,2.455078 L 48.0332,22.363328 A 20.155466,20.155466 0 0 0 45.55469,17.502 Z" />
      <path
         id="tile_mem_17_20"
         style="display:inline;fill:#000000;fill-opacity:1;stroke:none;stroke-width:0.478529;stroke-linecap:round;stroke-linejoin:round;stroke-opacity:1"
         d="m 12.44531,17.502 a 20.155466,20.155466 0 0 0 -2.47656,4.861328 l 8.19922,2.664063 a 11.53838,11.526455 0 0 1 1.25391,-2.455078 z" />
      <path
         id="tile_mem_03_20"
         style="display:inline;fill:#000000;fill-opacity:1;stroke:none;stroke-width:0.478529;stroke-linecap:round;stroke-linejoin:round;stroke-opacity:1"
         d="m 41.19336,12.951219 -5.07031,6.978516 a 11.53838,11.526455 0 0 1 1.94922,1.949218 l 6.97851,-5.072265 a 20.155466,20.155466 0 0 0 -3.85742,-3.855469 z" />
      <path
         id="tile_mem_18_20"
         style="display:inline;fill:#000000;fill-opacity:1;stroke:none;stroke-width:0.478529;stroke-linecap:round;stroke-linejoin:round;stroke-opacity:1"
         d="m 16.80664,12.949266 a 20.155466,20.155466 0 0 0 -3.85547,3.857422 L 19.92773,21.877 a 11.53838,11.526455 0 0 1 1.95118,-1.947265 z" />
      <path
         id="tile_mem_19_20"
         style="display:inline;fill:#000000;fill-opacity:1;stroke:none;stroke-width:0.478529;stroke-linecap:round;stroke-linejoin:round;stroke-opacity:1"
         d="m 22.36328,9.966844 a 20.155466,20.155466 0 0 0 -4.86133,2.478515 l 5.07227,6.980469 a 11.53838,11.526455 0 0 1 2.45703,-1.25 z" />
      <path
         id="tile_mem_02_20"
         style="display:inline;fill:#000000;fill-opacity:1;stroke:none;stroke-width:0.478529;stroke-linecap:round;stroke-linejoin:round;stroke-opacity:1"
         d="m 35.63672,9.968797 -2.66797,8.207031 a 11.53838,11.526455 0 0 1 2.45703,1.25 l 5.07227,-6.980469 A 20.155466,20.155466 0 0 0 35.63672,9.968797 Z" />
      <path
         id="tile_mem_01_20"
         style="display:inline;fill:#000000;fill-opacity:1;stroke:none;stroke-width:0.478529;stroke-linecap:round;stroke-linejoin:round;stroke-opacity:1"
         d="m 29.42969,8.849657 v 8.630859 a 11.53838,11.526455 0 0 1 2.7207,0.429687 L 34.81836,9.703172 A 20.155466,20.155466 0 0 0 29.42969,8.849657 Z" />
      <path
         id="tile_mem_20_20"
         style="display:inline;fill:#000000;fill-opacity:1;stroke:none;stroke-width:0.478529;stroke-linecap:round;stroke-linejoin:round;stroke-opacity:1"
         d="m 28.57031,8.847703 a 20.155466,20.155466 0 0 0 -5.38867,0.853516 l 2.66797,8.208984 a 11.53838,11.526455 0 0 1 2.7207,-0.427734 z" />
    </g>
  </g>
</svg>
