<?xml version="1.0" encoding="UTF-8" standalone="no"?>
<svg
   xmlns:dc="http://purl.org/dc/elements/1.1/"
   xmlns:cc="http://creativecommons.org/ns#"
   xmlns:rdf="http://www.w3.org/1999/02/22-rdf-syntax-ns#"
   xmlns:svg="http://www.w3.org/2000/svg"
   xmlns="http://www.w3.org/2000/svg"
   xmlns:xlink="http://www.w3.org/1999/xlink"
   xmlns:sodipodi="http://sodipodi.sourceforge.net/DTD/sodipodi-0.dtd"
   xmlns:inkscape="http://www.inkscape.org/namespaces/inkscape"
   version="1.1"
   id="svg2"
   width="58"
   height="58"
   viewBox="0 0 58.000001 58.000002"
   sodipodi:docname="tiles_24.svg"
   inkscape:export-filename="/tmp/off/parts_mem_10.png"
   inkscape:export-xdpi="96"
   inkscape:export-ydpi="96"
   inkscape:version="1.0.2 (e86c870879, 2021-01-15)">
  <metadata
     id="metadata8">
    <rdf:RDF>
      <cc:Work
         rdf:about="">
        <dc:format>image/svg+xml</dc:format>
        <dc:type
           rdf:resource="http://purl.org/dc/dcmitype/StillImage" />
        <dc:title />
      </cc:Work>
    </rdf:RDF>
  </metadata>
  <defs
     id="defs6">
    <linearGradient
       inkscape:collect="always"
       id="linearGradient925">
      <stop
         style="stop-color:#fefefe;stop-opacity:1"
         offset="0"
         id="stop921" />
      <stop
         style="stop-color:#000000;stop-opacity:1"
         offset="1"
         id="stop923" />
    </linearGradient>
    <linearGradient
       inkscape:collect="always"
       id="linearGradient846">
      <stop
         style="stop-color:#e7e7e7;stop-opacity:1"
         offset="0"
         id="stop882" />
      <stop
         style="stop-color:#838395;stop-opacity:1"
         offset="0.16739658"
         id="stop901" />
      <stop
         style="stop-color:#131313;stop-opacity:1"
         offset="1"
         id="stop884" />
    </linearGradient>
    <linearGradient
       inkscape:collect="always"
       xlink:href="#linearGradient846"
       id="linearGradient899"
       x1="-34.493919"
       y1="47.898342"
       x2="-64.723785"
       y2="8.5707321"
       gradientUnits="userSpaceOnUse"
       gradientTransform="translate(20)" />
    <linearGradient
       inkscape:collect="always"
       xlink:href="#linearGradient925"
       id="linearGradient927"
       x1="11.714334"
       y1="2.114362"
       x2="46.537399"
       y2="47.38121"
       gradientUnits="userSpaceOnUse"
       gradientTransform="translate(-60)" />
  </defs>
  <sodipodi:namedview
     pagecolor="#ffffff"
     bordercolor="#666666"
     borderopacity="1"
     objecttolerance="10"
     gridtolerance="10"
     guidetolerance="10"
     inkscape:pageopacity="0"
     inkscape:pageshadow="2"
     inkscape:window-width="1856"
     inkscape:window-height="1200"
     id="namedview4"
     showgrid="false"
     showguides="false"
     inkscape:zoom="11.313708"
     inkscape:cx="37.551261"
     inkscape:cy="30.182071"
     inkscape:window-x="0"
     inkscape:window-y="0"
     inkscape:window-maximized="1"
     inkscape:current-layer="g10"
     inkscape:document-rotation="0"
     inkscape:guide-bbox="true"
     units="in">
    <sodipodi:guide
       position="29.000001,29.000002"
       orientation="-1,0"
       id="guide981"
       inkscape:label=""
       inkscape:locked="false"
       inkscape:color="rgb(0,0,255)" />
    <sodipodi:guide
       position="29.000001,29.000002"
       orientation="0,-1"
       id="guide983" />
  </sodipodi:namedview>
  <g
     inkscape:groupmode="layer"
     inkscape:label="Image"
     id="g10">
    <circle
       style="opacity:1;fill:#6ec63b;fill-opacity:1;stroke:none;stroke-width:0.515019;stroke-linecap:round;stroke-linejoin:round;stroke-opacity:1"
       id="background_on"
       cx="29"
       cy="29"
       r="24.460445" />
    <circle
       style="opacity:1;fill:#8e968a;fill-opacity:1;stroke:none;stroke-width:0.515019;stroke-linecap:round;stroke-linejoin:round;stroke-opacity:1"
       id="background_off"
       cx="29"
       cy="29"
       r="24.460445" />
    <g
       id="bezel"
       transform="translate(60)">
      <path
         id="bezel_outer_ring"
         style="opacity:1;fill:url(#linearGradient927);fill-opacity:1;stroke-width:0.35891;stroke-linecap:round;stroke-linejoin:round"
         d="M -31,0 A 29,29 0 0 0 -60,29 29,29 0 0 0 -31,58 29,29 0 0 0 -2,29 29,29 0 0 0 -31,0 Z m 0,4.7851562 A 24.214966,24.214966 0 0 1 -6.785156,29 24.214966,24.214966 0 0 1 -31,53.214844 24.214966,24.214966 0 0 1 -55.214844,29 24.214966,24.214966 0 0 1 -31,4.7851562 Z" />
      <path
         id="bezel_inner_ring"
         style="opacity:1;fill:#000000;fill-opacity:1;stroke-width:0.359823;stroke-linecap:round;stroke-linejoin:round"
         d="M -31.067025,3.5422213 A 25.457983,25.457983 0 0 0 -56.457779,29 25.457983,25.457983 0 0 0 -31,54.457779 25.457983,25.457983 0 0 0 -5.542221,29 25.457983,25.457983 0 0 0 -31,3.5422213 a 25.457983,25.457983 0 0 0 -0.06703,0 z m 0.0099,3.6371072 a 21.821394,21.821394 0 0 1 0.05717,0 A 21.821394,21.821394 0 0 1 -9.179328,29 21.821394,21.821394 0 0 1 -31,50.820672 21.821394,21.821394 0 0 1 -52.820672,29 21.821394,21.821394 0 0 1 -31.057169,7.1793285 Z" />
      <path
         id="bezel_main"
         style="opacity:1;fill:url(#linearGradient899);fill-opacity:1;stroke-width:0.3565;stroke-linecap:round;stroke-linejoin:round"
         d="M -31,0.19469488 A 28.805305,28.805305 0 0 0 -59.805305,29 28.805305,28.805305 0 0 0 -31,57.805305 28.805305,28.805305 0 0 0 -2.194695,29 28.805305,28.805305 0 0 0 -31,0.19469488 Z m 0,6.81526382 A 21.990948,21.990948 0 0 1 -9.009959,29 21.990948,21.990948 0 0 1 -31,50.990041 21.990948,21.990948 0 0 1 -52.990041,29 21.990948,21.990948 0 0 1 -31,7.0099587 Z" />
    </g>
    <path
       id="tiles_swap_24_transparent"
       style="fill:#000000;fill-opacity:0.176471;stroke:none;stroke-width:0.260171;stroke-linecap:round;stroke-linejoin:round;stroke-opacity:1"
       d="m 28.570312,18.732422 a 10.30972,10.299065 0 0 0 -1.816406,0.238281 l 1.298828,4.847656 A 5.2944789,5.2890067 0 0 1 28.570312,23.75 Z m 0.859376,0 V 23.75 a 5.2944789,5.2890067 0 0 1 0.519531,0.06836 l 1.298828,-4.847656 a 10.30972,10.299065 0 0 0 -1.818359,-0.238282 z m -3.509766,0.460937 a 10.30972,10.299065 0 0 0 -1.69336,0.699219 l 2.509766,4.347656 a 5.2944789,5.2890067 0 0 1 0.484375,-0.199218 z m 6.158203,0 -1.298828,4.847657 a 5.2944789,5.2890067 0 0 1 0.482422,0.199218 l 2.511719,-4.347656 a 10.30972,10.299065 0 0 0 -1.695313,-0.699219 z m -8.597656,1.128907 A 10.30972,10.299065 0 0 0 22.025391,21.4375 l 3.550781,3.550781 a 5.2944789,5.2890067 0 0 1 0.416016,-0.316406 z m 11.039062,0 -2.509765,4.347656 a 5.2944789,5.2890067 0 0 1 0.414062,0.318359 L 35.974609,21.4375 A 10.30972,10.299065 0 0 0 34.519531,20.322266 Z M 21.414062,22.044922 A 10.30972,10.299065 0 0 0 20.296875,23.5 l 4.349609,2.511719 a 5.2944789,5.2890067 0 0 1 0.320313,-0.414063 z m 15.171876,0 -3.550782,3.550781 a 5.2944789,5.2890067 0 0 1 0.31836,0.416016 L 37.703125,23.5 a 10.30972,10.299065 0 0 0 -1.117187,-1.455078 z m 1.546874,2.199219 -4.349609,2.511718 a 5.2944789,5.2890067 0 0 1 0.201172,0.484375 l 4.851563,-1.300781 a 10.30972,10.299065 0 0 0 -0.703126,-1.695312 z m -18.267578,0.002 A 10.30972,10.299065 0 0 0 19.162109,25.9395 l 4.851563,1.300781 a 5.2944789,5.2890067 0 0 1 0.201172,-0.482422 z m -0.925781,2.52539 a 10.30972,10.299065 0 0 0 -0.240234,1.820313 h 5.023437 a 5.2944789,5.2890067 0 0 1 0.06836,-0.519531 z m 20.121094,0 -4.851563,1.300782 a 5.2944789,5.2890067 0 0 1 0.06836,0.519531 h 5.023437 a 10.30972,10.299065 0 0 0 -0.240234,-1.820313 z m -20.361328,2.679688 a 10.30972,10.299065 0 0 0 0.240234,1.820312 l 4.851563,-1.300781 a 5.2944789,5.2890067 0 0 1 -0.06836,-0.519531 z m 15.578125,0 a 5.2944789,5.2890067 0 0 1 -0.06836,0.519531 l 4.851563,1.300781 a 10.30972,10.299065 0 0 0 0.240234,-1.820312 z m -10.261719,1.351562 -4.851563,1.300782 a 10.30972,10.299065 0 0 0 0.703126,1.695312 l 4.349609,-2.511719 a 5.2944789,5.2890067 0 0 1 -0.201172,-0.484375 z m 9.970703,0 a 5.2944789,5.2890067 0 0 1 -0.201172,0.482422 l 4.34961,2.511719 a 10.30972,10.299065 0 0 0 0.703125,-1.693359 z m -9.339844,1.228516 -4.349609,2.511719 a 10.30972,10.299065 0 0 0 1.117187,1.455078 l 3.550782,-3.550781 a 5.2944789,5.2890067 0 0 1 -0.31836,-0.416016 z m 8.707032,0 a 5.2944789,5.2890067 0 0 1 -0.320313,0.414062 l 3.552735,3.552735 a 10.30972,10.299065 0 0 0 1.117187,-1.455078 z m -7.777344,1.023438 -3.550781,3.550781 a 10.30972,10.299065 0 0 0 1.455078,1.115234 l 2.509765,-4.347656 a 5.2944789,5.2890067 0 0 1 -0.414062,-0.318359 z m 6.847656,0 a 5.2944789,5.2890067 0 0 1 -0.416016,0.316406 l 2.511719,4.349609 a 10.30972,10.299065 0 0 0 1.455078,-1.115234 z m -5.685547,0.748046 -2.511719,4.347657 a 10.30972,10.299065 0 0 0 1.695313,0.699218 L 27.220703,34.002 a 5.2944789,5.2890067 0 0 1 -0.482422,-0.199219 z m 4.525391,0 A 5.2944789,5.2890067 0 0 1 30.779297,34.002 l 1.300781,4.847656 a 10.30972,10.299065 0 0 0 1.69336,-0.699218 z m -3.212891,0.421875 -1.298828,4.847657 a 10.30972,10.299065 0 0 0 1.818359,0.238281 v -5.017578 a 5.2944789,5.2890067 0 0 1 -0.519531,-0.06836 z m 1.896485,0 a 5.2944789,5.2890067 0 0 1 -0.517578,0.06836 v 5.017578 a 10.30972,10.299065 0 0 0 1.816406,-0.238281 z" />
    <path
       style="fill:#000000;fill-opacity:1;stroke:none;stroke-width:0.260171;stroke-linecap:round;stroke-linejoin:round;stroke-opacity:1"
       d="m 29.42969,18.710938 v 5.017578 a 5.2944789,5.2890067 0 0 1 0.51953,0.06836 l 1.29883,-4.847656 a 10.30972,10.299065 0 0 0 -1.81836,-0.238282 z"
       id="tile_swap_01_24" />
    <path
       style="fill:#000000;fill-opacity:1;stroke:none;stroke-width:0.260171;stroke-linecap:round;stroke-linejoin:round;stroke-opacity:1"
       d="m 32.07812,19.171875 -1.29882,4.847656 a 5.2944789,5.2890067 0 0 1 0.48242,0.199219 l 2.51172,-4.347656 a 10.30972,10.299065 0 0 0 -1.69532,-0.699219 z"
       id="tile_swap_02_24" />
    <path
       style="fill:#000000;fill-opacity:1;stroke:none;stroke-width:0.260171;stroke-linecap:round;stroke-linejoin:round;stroke-opacity:1"
       d="m 34.51953,20.300781 -2.50976,4.347657 a 5.2944789,5.2890067 0 0 1 0.41406,0.318359 l 3.55078,-3.550781 a 10.30972,10.299065 0 0 0 -1.45508,-1.115235 z"
       id="tile_swap_03_24" />
    <path
       style="fill:#000000;fill-opacity:1;stroke:none;stroke-width:0.260171;stroke-linecap:round;stroke-linejoin:round;stroke-opacity:1"
       d="m 36.58594,22.023438 -3.55078,3.550781 a 5.2944789,5.2890067 0 0 1 0.31836,0.416015 l 4.3496,-2.511718 a 10.30972,10.299065 0 0 0 -1.11718,-1.455078 z"
       id="tile_swap_04_24" />
    <path
       style="fill:#000000;fill-opacity:1;stroke:none;stroke-width:0.260171;stroke-linecap:round;stroke-linejoin:round;stroke-opacity:1"
       d="m 38.13281,24.222656 -4.34961,2.511719 a 5.2944789,5.2890067 0 0 1 0.20117,0.484375 l 4.85157,-1.300781 a 10.30972,10.299065 0 0 0 -0.70313,-1.695313 z"
       id="tile_swap_05_24" />
    <path
       style="fill:#000000;fill-opacity:1;stroke:none;stroke-width:0.260171;stroke-linecap:round;stroke-linejoin:round;stroke-opacity:1"
       d="m 39.06055,26.75 -4.85157,1.300781 a 5.2944789,5.2890067 0 0 1 0.0684,0.519531 h 5.02344 A 10.30972,10.299065 0 0 0 39.06055,26.75 Z"
       id="tile_swap_06_24" />
    <path
       style="fill:#000000;fill-opacity:1;stroke:none;stroke-width:0.260171;stroke-linecap:round;stroke-linejoin:round;stroke-opacity:1"
       d="m 34.27734,29.429688 a 5.2944789,5.2890067 0 0 1 -0.0684,0.519531 L 39.06051,31.25 a 10.30972,10.299065 0 0 0 0.24023,-1.820312 z"
       id="tile_swap_07_24" />
    <path
       style="fill:#000000;fill-opacity:1;stroke:none;stroke-width:0.260171;stroke-linecap:round;stroke-linejoin:round;stroke-opacity:1"
       d="m 33.98633,30.78125 a 5.2944789,5.2890067 0 0 1 -0.20117,0.482422 l 4.34961,2.511719 a 10.30972,10.299065 0 0 0 0.70312,-1.69336 z"
       id="tile_swap_08_24" />
    <path
       style="fill:#000000;fill-opacity:1;stroke:none;stroke-width:0.260171;stroke-linecap:round;stroke-linejoin:round;stroke-opacity:1"
       d="m 33.35352,32.009766 a 5.2944789,5.2890067 0 0 1 -0.32032,0.414062 l 3.55274,3.552734 a 10.30972,10.299065 0 0 0 1.11718,-1.455078 z"
       id="tile_swap_09_24" />
    <path
       style="fill:#000000;fill-opacity:1;stroke:none;stroke-width:0.260171;stroke-linecap:round;stroke-linejoin:round;stroke-opacity:1"
       d="m 32.42383,33.033203 a 5.2944789,5.2890067 0 0 1 -0.41602,0.316406 l 2.51172,4.34961 a 10.30972,10.299065 0 0 0 1.45508,-1.115235 z"
       id="tile_swap_10_24" />
    <path
       style="fill:#000000;fill-opacity:1;stroke:none;stroke-width:0.260171;stroke-linecap:round;stroke-linejoin:round;stroke-opacity:1"
       d="m 31.26367,33.78125 a 5.2944789,5.2890067 0 0 1 -0.48437,0.199219 l 1.30078,4.847656 a 10.30972,10.299065 0 0 0 1.69336,-0.699219 z"
       id="tile_swap_11_24" />
    <path
       style="fill:#000000;fill-opacity:1;stroke:none;stroke-width:0.260171;stroke-linecap:round;stroke-linejoin:round;stroke-opacity:1"
       d="m 29.94727,34.203125 a 5.2944789,5.2890067 0 0 1 -0.51758,0.06836 v 5.017578 a 10.30972,10.299065 0 0 0 1.8164,-0.238281 z"
       id="tile_swap_12_24" />
    <path
       style="fill:#000000;fill-opacity:1;stroke:none;stroke-width:0.260171;stroke-linecap:round;stroke-linejoin:round;stroke-opacity:1"
       d="m 28.05078,34.203125 -1.29883,4.847656 a 10.30972,10.299065 0 0 0 1.81836,0.238281 v -5.017578 a 5.2944789,5.2890067 0 0 1 -0.51953,-0.06836 z"
       id="tile_swap_13_24" />
    <path
       style="fill:#000000;fill-opacity:1;stroke:none;stroke-width:0.260171;stroke-linecap:round;stroke-linejoin:round;stroke-opacity:1"
       d="m 26.73828,33.78125 -2.51172,4.347656 a 10.30972,10.299065 0 0 0 1.69531,0.699219 L 27.2207,33.980469 A 5.2944789,5.2890067 0 0 1 26.73828,33.78125 Z"
       id="tile_swap_14_24" />
    <path
       style="fill:#000000;fill-opacity:1;stroke:none;stroke-width:0.260171;stroke-linecap:round;stroke-linejoin:round;stroke-opacity:1"
       d="m 25.57617,33.033203 -3.55078,3.550781 a 10.30972,10.299065 0 0 0 1.45508,1.115235 l 2.50976,-4.347657 a 5.2944789,5.2890067 0 0 1 -0.41406,-0.318359 z"
       id="tile_swap_15_24" />
    <path
       style="fill:#000000;fill-opacity:1;stroke:none;stroke-width:0.260171;stroke-linecap:round;stroke-linejoin:round;stroke-opacity:1"
       d="m 24.64648,32.009766 -4.34961,2.511718 a 10.30972,10.299065 0 0 0 1.11719,1.455078 l 3.55078,-3.550781 a 5.2944789,5.2890067 0 0 1 -0.31836,-0.416015 z"
       id="tile_swap_16_24" />
    <path
       style="fill:#000000;fill-opacity:1;stroke:none;stroke-width:0.260171;stroke-linecap:round;stroke-linejoin:round;stroke-opacity:1"
       d="m 24.01562,30.78125 -4.85156,1.300781 a 10.30972,10.299065 0 0 0 0.70313,1.695313 L 24.2168,31.265625 A 5.2944789,5.2890067 0 0 1 24.01562,30.78125 Z"
       id="tile_swap_17_24" />
    <path
       style="fill:#000000;fill-opacity:1;stroke:none;stroke-width:0.260171;stroke-linecap:round;stroke-linejoin:round;stroke-opacity:1"
       d="M 18.69922,29.429688 A 10.30972,10.299065 0 0 0 18.93945,31.25 l 4.85157,-1.300781 a 5.2944789,5.2890067 0 0 1 -0.0684,-0.519531 z"
       id="tile_swap_18_24" />
    <path
       style="fill:#000000;fill-opacity:1;stroke:none;stroke-width:0.260171;stroke-linecap:round;stroke-linejoin:round;stroke-opacity:1"
       d="m 18.93945,26.75 a 10.30972,10.299065 0 0 0 -0.24023,1.820312 h 5.02344 a 5.2944789,5.2890067 0 0 1 0.0684,-0.519531 z"
       id="tile_swap_19_24" />
    <path
       style="fill:#000000;fill-opacity:1;stroke:none;stroke-width:0.260171;stroke-linecap:round;stroke-linejoin:round;stroke-opacity:1"
       d="m 19.86523,24.224656 a 10.30972,10.299065 0 0 0 -0.70312,1.69336 l 4.85156,1.300781 a 5.2944789,5.2890067 0 0 1 0.20117,-0.482422 z"
       id="tile_swap_20_24" />
    <path
       style="fill:#000000;fill-opacity:1;stroke:none;stroke-width:0.260171;stroke-linecap:round;stroke-linejoin:round;stroke-opacity:1"
       d="m 21.41406,22.023438 a 10.30972,10.299065 0 0 0 -1.11719,1.455078 l 4.34961,2.511718 a 5.2944789,5.2890067 0 0 1 0.32032,-0.414062 z"
       id="tile_swap_21_24" />
    <path
       style="fill:#000000;fill-opacity:1;stroke:none;stroke-width:0.260171;stroke-linecap:round;stroke-linejoin:round;stroke-opacity:1"
       d="m 23.48047,20.300781 a 10.30972,10.299065 0 0 0 -1.45508,1.115235 l 3.55078,3.550781 a 5.2944789,5.2890067 0 0 1 0.41602,-0.316406 z"
       id="tile_swap_22_24" />
    <path
       style="fill:#000000;fill-opacity:1;stroke:none;stroke-width:0.260171;stroke-linecap:round;stroke-linejoin:round;stroke-opacity:1"
       d="m 25.91992,19.171875 a 10.30972,10.299065 0 0 0 -1.69336,0.699219 l 2.50977,4.347656 a 5.2944789,5.2890067 0 0 1 0.48437,-0.199219 z"
       id="tile_swap_23_24" />
    <path
       style="fill:#000000;fill-opacity:1;stroke:none;stroke-width:0.260171;stroke-linecap:round;stroke-linejoin:round;stroke-opacity:1"
       d="m 28.57031,18.710938 a 10.30972,10.299065 0 0 0 -1.8164,0.238281 l 1.29882,4.847656 a 5.2944789,5.2890067 0 0 1 0.51758,-0.06836 z"
       id="tile_swap_24_24" />
    <path
       id="tiles_mem_24_transparent"
       style="fill:#000000;fill-opacity:0.177991;stroke:none;stroke-width:0.487223;stroke-linecap:round;stroke-linejoin:round;stroke-opacity:1"
       d="m 28.569334,8.8476576 a 20.155466,20.155466 0 0 0 -4.375,0.576172 l 2.24024,8.3593754 a 11.53838,11.526455 0 0 1 2.13476,-0.28125 z m 0.85938,0.002 v 8.6542974 a 11.53838,11.526455 0 0 1 2.13672,0.279297 l 2.23828,-8.3593754 a 20.155466,20.155466 0 0 0 -4.375,-0.574219 z m -6.06641,0.798828 a 20.155466,20.155466 0 0 0 -4.07422,1.6894544 l 4.32422,7.492187 a 11.53838,11.526455 0 0 1 1.99024,-0.824219 z m 11.27344,0 -2.24024,8.3574224 a 11.53838,11.526455 0 0 1 1.99024,0.822266 l 4.32422,-7.490234 A 20.155466,20.155466 0 0 0 34.635744,9.6484356 Z M 18.541994,11.76958 a 20.155466,20.155466 0 0 0 -3.49805,2.6875 l 6.11133,6.111328 a 11.53838,11.526455 0 0 1 1.70898,-1.310547 z m 20.91406,0 -4.32226,7.488281 a 11.53838,11.526455 0 0 1 1.70898,1.310547 l 6.11133,-6.111328 a 20.155466,20.155466 0 0 0 -3.49805,-2.6875 z m -25.02148,3.296875 a 20.155466,20.155466 0 0 0 -2.68164,3.5 l 7.47851,4.31836 a 11.53838,11.526455 0 0 1 1.3125,-1.708985 z m 29.1289,0 -6.10937,6.109375 a 11.53838,11.526455 0 0 1 1.3125,1.710938 l 7.47851,-4.320313 a 20.155466,20.155466 0 0 0 -2.68164,-3.5 z m -32.24023,4.247997 a 20.155466,20.155466 0 0 0 -1.68164,4.074219 l 8.33203,2.232422 a 11.53838,11.526455 0 0 1 0.82617,-1.990235 z m 35.35156,0 -7.47656,4.314453 a 11.53838,11.526455 0 0 1 0.82617,1.992188 l 8.33399,-2.232422 a 20.155466,20.155466 0 0 0 -1.6836,-4.074219 z m -37.25781,4.90625 a 20.155466,20.155466 0 0 0 -0.57031,4.371094 h 8.62304 a 11.53838,11.526455 0 0 1 0.28125,-2.138672 z m 39.16406,0 -8.33398,2.232422 a 11.53838,11.526455 0 0 1 0.2832,2.138672 h 8.62109 a 20.155466,20.155466 0 0 0 -0.57031,-4.371094 z m -39.73242,5.230469 a 20.155466,20.155466 0 0 0 0.57812,4.36914 l 8.32422,-2.230468 a 11.53838,11.526455 0 0 1 -0.2832,-2.138672 z m 31.67969,0 a 11.53838,11.526455 0 0 1 -0.28125,2.138672 l 8.32422,2.230468 a 20.155466,20.155466 0 0 0 0.57812,-4.36914 z m -22.55469,2.970703 -8.32227,2.230469 a 20.155466,20.155466 0 0 0 1.68946,4.066406 l 7.45898,-4.304688 a 11.53838,11.526455 0 0 1 -0.82617,-1.992187 z m 22.05078,0 a 11.53838,11.526455 0 0 1 -0.82617,1.990234 l 7.45703,4.306641 a 20.155466,20.155466 0 0 0 1.68945,-4.066406 z m -20.79297,2.734375 -7.45898,4.306641 a 20.155466,20.155466 0 0 0 2.68359,3.492187 l 6.08789,-6.08789 a 11.53838,11.526455 0 0 1 -1.3125,-1.710938 z m 19.53516,0.002 a 11.53838,11.526455 0 0 1 -1.3125,1.708985 l 6.08789,6.08789 a 20.155466,20.155466 0 0 0 2.68359,-3.492187 z m -17.61133,2.316406 -6.08984,6.089844 a 20.155466,20.155466 0 0 0 3.49414,2.677735 l 4.30468,-7.457032 a 11.53838,11.526455 0 0 1 -1.70898,-1.310547 z m 15.6875,0 a 11.53838,11.526455 0 0 1 -1.70898,1.310547 l 4.30468,7.457032 a 20.155466,20.155466 0 0 0 3.49414,-2.677735 z m -2.45703,1.738282 a 11.53838,11.526455 0 0 1 -1.99024,0.824218 l 2.23047,8.31836 a 20.155466,20.155466 0 0 0 4.06641,-1.683594 z m -10.77344,0.002 -4.30664,7.457031 a 20.155466,20.155466 0 0 0 4.06641,1.681641 l 2.23047,-8.316407 a 11.53838,11.526455 0 0 1 -1.99024,-0.822265 z m 2.82031,1.044922 -2.22851,8.318359 a 20.155466,20.155466 0 0 0 4.36523,0.572266 v -8.611329 a 11.53838,11.526455 0 0 1 -2.13672,-0.279296 z m 5.13086,0 a 11.53838,11.526455 0 0 1 -2.13476,0.28125 v 8.611328 a 20.155466,20.155466 0 0 0 4.36328,-0.574219 z" />
    <path
       id="tile_mem_12_24"
       style="fill:#000000;fill-opacity:1;stroke:none;stroke-width:0.487223;stroke-linecap:round;stroke-linejoin:round;stroke-opacity:1"
       d="m 31.563474,40.238328 a 11.53838,11.526455 0 0 1 -2.13476,0.28125 v 8.632813 a 20.155466,20.155466 0 0 0 4.36914,-0.576172 z" />
    <path
       id="tile_mem_13_24"
       style="fill:#000000;fill-opacity:1;stroke:none;stroke-width:0.487223;stroke-linecap:round;stroke-linejoin:round;stroke-opacity:1"
       d="m 26.432614,40.238328 -2.23437,8.337891 a 20.155466,20.155466 0 0 0 4.37109,0.574219 v -8.632813 a 11.53838,11.526455 0 0 1 -2.13672,-0.279297 z" />
    <path
       id="tile_mem_14_24"
       style="fill:#000000;fill-opacity:1;stroke:none;stroke-width:0.487223;stroke-linecap:round;stroke-linejoin:round;stroke-opacity:1"
       d="m 23.612304,39.193406 -4.31445,7.472657 a 20.155466,20.155466 0 0 0 4.07031,1.685546 l 2.23438,-8.335937 a 11.53838,11.526455 0 0 1 -1.99024,-0.822266 z" />
    <path
       id="tile_mem_11_24"
       style="fill:#000000;fill-opacity:1;stroke:none;stroke-width:0.487223;stroke-linecap:round;stroke-linejoin:round;stroke-opacity:1"
       d="m 34.385744,39.191453 a 11.53838,11.526455 0 0 1 -1.99024,0.824219 l 2.23438,8.337891 a 20.155466,20.155466 0 0 0 4.07226,-1.685547 z" />
    <path
       id="tile_mem_10_24"
       style="fill:#000000;fill-opacity:1;stroke:none;stroke-width:0.487223;stroke-linecap:round;stroke-linejoin:round;stroke-opacity:1"
       d="m 36.842774,37.453172 a 11.53838,11.526455 0 0 1 -1.70898,1.310547 l 4.3125,7.472656 a 20.155466,20.155466 0 0 0 3.49804,-2.68164 z" />
    <path
       id="tile_mem_15_24"
       style="fill:#000000;fill-opacity:1;stroke:none;stroke-width:0.487223;stroke-linecap:round;stroke-linejoin:round;stroke-opacity:1"
       d="m 21.155274,37.453172 -6.10156,6.101563 a 20.155466,20.155466 0 0 0 3.49609,2.68164 l 4.31445,-7.472656 a 11.53838,11.526455 0 0 1 -1.70898,-1.310547 z" />
    <path
       id="tile_mem_09_24"
       style="fill:#000000;fill-opacity:1;stroke:none;stroke-width:0.487223;stroke-linecap:round;stroke-linejoin:round;stroke-opacity:1"
       d="m 38.766604,35.136766 a 11.53838,11.526455 0 0 1 -1.3125,1.708984 l 6.09961,6.099609 a 20.155466,20.155466 0 0 0 2.68164,-3.496093 z" />
    <path
       id="tile_mem_16_24"
       style="fill:#000000;fill-opacity:1;stroke:none;stroke-width:0.487223;stroke-linecap:round;stroke-linejoin:round;stroke-opacity:1"
       d="m 19.231444,35.134813 -7.46875,4.3125 a 20.155466,20.155466 0 0 0 2.68164,3.498046 l 6.09961,-6.099609 a 11.53838,11.526455 0 0 1 -1.3125,-1.710937 z" />
    <path
       id="tile_mem_08_24"
       style="fill:#000000;fill-opacity:1;stroke:none;stroke-width:0.487223;stroke-linecap:round;stroke-linejoin:round;stroke-opacity:1"
       d="m 40.024414,32.400438 a 11.53838,11.526455 0 0 1 -0.82617,1.990234 l 7.4668,4.310547 a 20.155466,20.155466 0 0 0 1.68554,-4.070313 z" />
    <path
       id="tile_mem_17_24"
       style="fill:#000000;fill-opacity:1;stroke:none;stroke-width:0.487223;stroke-linecap:round;stroke-linejoin:round;stroke-opacity:1"
       d="m 17.973634,32.400438 -8.32813,2.230468 a 20.155466,20.155466 0 0 0 1.68555,4.072266 l 7.46875,-4.310547 a 11.53838,11.526455 0 0 1 -0.82617,-1.992187 z" />
    <path
       id="tile_mem_07_24"
       style="fill:#000000;fill-opacity:1;stroke:none;stroke-width:0.487223;stroke-linecap:round;stroke-linejoin:round;stroke-opacity:1"
       d="m 40.528324,29.429735 a 11.53838,11.526455 0 0 1 -0.28125,2.138671 l 8.32812,2.232422 a 20.155466,20.155466 0 0 0 0.57422,-4.371093 z" />
    <path
       id="tile_mem_18_24"
       style="fill:#000000;fill-opacity:1;stroke:none;stroke-width:0.487223;stroke-linecap:round;stroke-linejoin:round;stroke-opacity:1"
       d="m 8.846684,29.429735 a 20.155466,20.155466 0 0 0 0.57617,4.36914 l 8.32812,-2.230469 a 11.53838,11.526455 0 0 1 -0.2832,-2.138671 z" />
    <path
       id="tile_mem_06_24"
       style="fill:#000000;fill-opacity:1;stroke:none;stroke-width:0.487223;stroke-linecap:round;stroke-linejoin:round;stroke-opacity:1"
       d="m 48.575194,24.201219 -8.32812,2.230469 a 11.53838,11.526455 0 0 1 0.2832,2.138671 h 8.62109 a 20.155466,20.155466 0 0 0 -0.57617,-4.36914 z" />
    <path
       id="tile_mem_19_24"
       style="fill:#000000;fill-opacity:1;stroke:none;stroke-width:0.487223;stroke-linecap:round;stroke-linejoin:round;stroke-opacity:1"
       d="m 9.422854,24.199266 a 20.155466,20.155466 0 0 0 -0.57422,4.371093 h 8.62109 a 11.53838,11.526455 0 0 1 0.28125,-2.138671 z" />
    <path
       id="tile_mem_05_24"
       style="fill:#000000;fill-opacity:1;stroke:none;stroke-width:0.487223;stroke-linecap:round;stroke-linejoin:round;stroke-opacity:1"
       d="m 46.666994,19.296922 -7.46875,4.310547 a 11.53838,11.526455 0 0 1 0.82617,1.992187 l 8.32813,-2.230468 a 20.155466,20.155466 0 0 0 -1.68555,-4.072266 z" />
    <path
       id="tile_mem_20_24"
       style="fill:#000000;fill-opacity:1;stroke:none;stroke-width:0.487223;stroke-linecap:round;stroke-linejoin:round;stroke-opacity:1"
       d="m 11.333004,19.298875 a 20.155466,20.155466 0 0 0 -1.68554,4.070313 l 8.32617,2.230468 a 11.53838,11.526455 0 0 1 0.82617,-1.990234 z" />
    <path
       id="tile_mem_04_24"
       style="fill:#000000;fill-opacity:1;stroke:none;stroke-width:0.487223;stroke-linecap:round;stroke-linejoin:round;stroke-opacity:1"
       d="m 43.553714,15.054735 -6.09961,6.099609 a 11.53838,11.526455 0 0 1 1.3125,1.710937 l 7.46875,-4.3125 a 20.155466,20.155466 0 0 0 -2.68164,-3.498046 z" />
    <path
       id="tile_mem_21_24"
       style="fill:#000000;fill-opacity:1;stroke:none;stroke-width:0.487223;stroke-linecap:round;stroke-linejoin:round;stroke-opacity:1"
       d="m 14.444334,15.054735 a 20.155466,20.155466 0 0 0 -2.68164,3.496093 l 7.46875,4.3125 a 11.53838,11.526455 0 0 1 1.3125,-1.708984 z" />
    <path
       id="tile_mem_03_24"
       style="fill:#000000;fill-opacity:1;stroke:none;stroke-width:0.487223;stroke-linecap:round;stroke-linejoin:round;stroke-opacity:1"
       d="m 39.448244,11.763719 -4.31445,7.472656 a 11.53838,11.526455 0 0 1 1.70898,1.310547 l 6.10156,-6.101563 a 20.155466,20.155466 0 0 0 -3.49609,-2.68164 z" />
    <path
       id="tile_mem_22_24"
       style="fill:#000000;fill-opacity:1;stroke:none;stroke-width:0.487223;stroke-linecap:round;stroke-linejoin:round;stroke-opacity:1"
       d="m 18.551754,11.763719 a 20.155466,20.155466 0 0 0 -3.49804,2.68164 l 6.10156,6.101563 a 11.53838,11.526455 0 0 1 1.70898,-1.310547 z" />
    <path
       id="tile_mem_02_24"
       style="fill:#000000;fill-opacity:1;stroke:none;stroke-width:0.487223;stroke-linecap:round;stroke-linejoin:round;stroke-opacity:1"
       d="m 34.629884,9.6484853 -2.23438,8.3359367 a 11.53838,11.526455 0 0 1 1.99024,0.822266 l 4.31445,-7.472657 a 20.155466,20.155466 0 0 0 -4.07031,-1.6855457 z" />
    <path
       id="tile_mem_23_24"
       style="fill:#000000;fill-opacity:1;stroke:none;stroke-width:0.487223;stroke-linecap:round;stroke-linejoin:round;stroke-opacity:1"
       d="m 23.368164,9.6465323 a 20.155466,20.155466 0 0 0 -4.07226,1.6855457 l 4.3164,7.476563 a 11.53838,11.526455 0 0 1 1.99024,-0.824219 z" />
    <path
       id="tile_mem_01_24"
       style="fill:#000000;fill-opacity:1;stroke:none;stroke-width:0.487223;stroke-linecap:round;stroke-linejoin:round;stroke-opacity:1"
       d="m 29.428714,8.8496573 v 8.6328117 a 11.53838,11.526455 0 0 1 2.13672,0.279297 l 2.23437,-8.3378907 a 20.155466,20.155466 0 0 0 -4.37109,-0.574218 z" />
    <path
       id="tile_mem_24_24"
       style="fill:#000000;fill-opacity:1;stroke:none;stroke-width:0.487223;stroke-linecap:round;stroke-linejoin:round;stroke-opacity:1"
       d="m 28.569334,8.8477033 a 20.155466,20.155466 0 0 0 -4.36914,0.576172 l 2.23438,8.3378907 a 11.53838,11.526455 0 0 1 2.13476,-0.28125 z" />
  </g>
</svg>
